<?xml version="1.0" encoding="utf-8"?>
<!-- Generator: Adobe Illustrator 16.0.0, SVG Export Plug-In . SVG Version: 6.00 Build 0)  -->
<!DOCTYPE svg PUBLIC "-//W3C//DTD SVG 1.1//EN" "http://www.w3.org/Graphics/SVG/1.1/DTD/svg11.dtd">
<svg version="1.1" id="Layer_1" xmlns="http://www.w3.org/2000/svg" xmlns:xlink="http://www.w3.org/1999/xlink" x="0px" y="0px"
	 width="960px" height="320px" viewBox="0 0 960 320" enable-background="new 0 0 960 320" xml:space="preserve">
<path fill="#FFFFFF" d="M786.078,270v-27.569h-3.544v21.7l-17.881-21.7h-3.27V270h3.545v-21.544L782.691,270H786.078z
	 M749.766,246.369c-2.717-2.48-6.104-3.938-9.609-3.938c-7.837,0-13.784,5.947-13.784,13.784c0,7.839,5.947,13.785,13.784,13.785
	c1.693,0,3.978-0.512,5.829-1.261v-13.271H736.1v3.544h6.341v7.129c-0.827,0.196-1.575,0.314-2.284,0.314
	c-6.026,0-10.24-4.135-10.24-10.24c0-6.104,4.214-10.239,10.24-10.239c2.915,0,5.829,1.418,7.995,3.742L749.766,246.369z
	 M713.375,242.431h-3.545v27.568h3.545V242.431z M696.243,249.086c-1.221-4.096-4.688-6.655-8.507-6.655
	c-4.451,0-8.469,2.954-8.469,7.602c0,5.041,4.49,6.931,8.192,7.877c2.796,0.709,4.884,2.048,4.884,4.529
	c0,2.441-2.166,4.017-4.963,4.017c-2.401,0-4.488-1.575-5.316-4.687l-3.111,1.653c1.378,4.846,5.12,6.578,8.428,6.578
	c4.293,0,8.507-2.6,8.507-7.562c0-4.529-3.544-6.893-7.68-7.956c-2.993-0.748-5.395-1.852-5.395-4.45
	c0-1.97,1.653-4.057,4.923-4.057c2.127,0,4.371,1.497,5.159,4.489L696.243,249.086z M649.415,270h16.937v-3.545H652.96v-8.468
	h13.392v-3.544H652.96v-8.468h13.392v-3.545h-16.937V270z M622.673,245.976c5.908,0,10.201,4.254,10.201,10.239
	c0,5.987-4.293,10.24-10.201,10.24h-5.908v-20.479H622.673z M613.221,270h9.452c7.798,0,13.745-5.829,13.745-13.785
	c0-7.955-5.947-13.784-13.745-13.784h-9.452V270z M559.659,270h16.935v-3.545h-13.391v-8.468h13.391v-3.544h-13.391v-8.468h13.391
	v-3.545h-16.935V270z M535.32,270l13.115-27.569h-3.939l-10.476,22.213l-10.556-22.213h-3.938L532.641,270H535.32z M492.352,270
	h16.936v-3.545h-13.391v-8.468h13.391v-3.544h-13.391v-8.468h13.391v-3.545h-16.936V270z M462.223,270h16.935v-3.545h-13.391v-8.468
	h13.391v-3.544h-13.391v-8.468h13.391v-3.545h-16.935V270z M433.393,270h17.211v-3.545h-13.666v-24.024h-3.545V270z
	 M419.806,249.086c-1.221-4.096-4.687-6.655-8.507-6.655c-4.45,0-8.468,2.954-8.468,7.602c0,5.041,4.49,6.931,8.192,7.877
	c2.797,0.709,4.884,2.048,4.884,4.529c0,2.441-2.166,4.017-4.962,4.017c-2.403,0-4.49-1.575-5.317-4.687l-3.112,1.653
	c1.379,4.846,5.12,6.578,8.429,6.578c4.292,0,8.507-2.6,8.507-7.562c0-4.529-3.545-6.893-7.68-7.956
	c-2.994-0.748-5.396-1.852-5.396-4.45c0-1.97,1.654-4.057,4.923-4.057c2.127,0,4.372,1.497,5.159,4.489L419.806,249.086z
	 M352.932,245.976c5.907,0,10.2,4.254,10.2,10.239c0,5.987-4.293,10.24-10.2,10.24h-5.908v-20.479H352.932z M343.479,270h9.453
	c7.798,0,13.745-5.829,13.745-13.785c0-7.955-5.947-13.784-13.745-13.784h-9.453V270z M315.95,255.506l1.575,1.97h-4.883v-11.5h7.05
	c3.19,0,5.75,2.402,5.75,5.75c0,2.521-1.576,4.568-3.702,5.396l-3.072-3.898L315.95,255.506z M312.642,261.021h7.68l7.325,8.979
	h4.608l-8.152-10.004c2.953-1.497,4.883-4.528,4.883-8.271c0-5.356-3.938-9.295-9.294-9.295h-10.595V270h3.545V261.021z
	 M282.355,266.455c-5.868,0-10.2-4.372-10.2-10.24c0-5.867,4.332-10.239,10.2-10.239c5.908,0,10.201,4.372,10.201,10.239
	C292.556,262.083,288.263,266.455,282.355,266.455 M282.355,242.431c-7.837,0-13.745,5.907-13.745,13.784
	c0,7.878,5.908,13.785,13.745,13.785c7.877,0,13.746-5.907,13.746-13.785C296.101,248.338,290.232,242.431,282.355,242.431
	 M258.173,246.369c-2.717-2.48-6.104-3.938-9.609-3.938c-7.838,0-13.785,5.947-13.785,13.784c0,7.839,5.947,13.785,13.785,13.785
	c1.693,0,3.584-0.473,5.474-1.142l-0.63-3.624c-1.733,0.788-3.427,1.221-4.844,1.221c-6.026,0-10.24-4.135-10.24-10.24
	c0-6.104,4.214-10.239,10.24-10.239c2.914,0,5.828,1.418,7.995,3.742L258.173,246.369z M205.832,270h16.935v-3.545h-13.391v-8.468
	h13.391v-3.544h-13.391v-8.468h13.391v-3.545h-16.935V270z M178.302,255.506l1.576,1.97h-4.884v-11.5h7.05
	c3.19,0,5.75,2.402,5.75,5.75c0,2.521-1.575,4.568-3.702,5.396l-3.072-3.898L178.302,255.506z M174.994,261.021h7.68l7.325,8.979
	h4.609l-8.153-10.004c2.954-1.497,4.884-4.528,4.884-8.271c0-5.356-3.939-9.295-9.295-9.295h-10.595V270h3.545V261.021z"/>
<path fill="#FFFFFF" d="M893.4,193.988c-11.736,0-20.4-8.744-20.4-20.48c0-11.737,8.664-20.479,20.4-20.479
	c11.816,0,20.401,8.742,20.401,20.479C913.802,185.244,905.217,193.988,893.4,193.988 M893.4,145.938
	c-15.675,0-27.49,11.815-27.49,27.569s11.815,27.569,27.49,27.569c15.754,0,27.491-11.815,27.491-27.569
	S909.154,145.938,893.4,145.938 M814.789,172.09l3.15,3.938h-9.767v-23h14.1c6.38,0,11.5,4.805,11.5,11.5
	c0,5.041-3.151,9.137-7.404,10.791l-6.144-7.799L814.789,172.09z M808.173,183.118h15.359l14.651,17.959h9.216l-16.305-20.007
	c5.908-2.994,9.767-9.06,9.767-16.542c0-10.714-7.877-18.59-18.589-18.59h-21.188v55.139h7.089V183.118z M747.6,193.988
	c-11.736,0-20.401-8.744-20.401-20.48c0-11.737,8.665-20.479,20.401-20.479c11.816,0,20.402,8.742,20.402,20.479
	C768.002,185.244,759.416,193.988,747.6,193.988 M747.6,145.938c-15.675,0-27.49,11.815-27.49,27.569s11.815,27.569,27.49,27.569
	c15.754,0,27.491-11.815,27.491-27.569S763.354,145.938,747.6,145.938 M702.388,145.938h-50.491v7.09h21.661v48.049h7.09v-48.049
	h21.74V145.938z M553.278,201.077H587.7v-7.089h-27.333v-48.05h-7.089V201.077z M493.021,201.077h33.871v-7.089h-26.782v-16.937
	h26.782v-7.089h-26.782v-16.935h26.782v-7.09h-33.871V201.077z M376.602,201.077l42.772-50.807l-5.514-4.332l-42.772,50.728
	L376.602,201.077z M302.56,153.814c-5.435-4.962-12.209-7.876-19.219-7.876c-15.675,0-27.57,11.895-27.57,27.569
	s11.895,27.569,27.57,27.569c3.387,0,7.955-1.024,11.658-2.521v-26.545h-19.772v7.089h12.682v14.258
	c-1.654,0.394-3.15,0.631-4.568,0.631c-12.052,0-20.48-8.271-20.48-20.48c0-12.21,8.428-20.479,20.48-20.479
	c5.829,0,11.658,2.835,15.99,7.482L302.56,153.814z M229.779,201.077v-55.139h-7.09v43.401l-35.761-43.401h-6.538v55.139h7.09
	V157.99l35.524,43.087H229.779z M126.907,193.988c-11.737,0-20.401-8.744-20.401-20.48c0-11.737,8.664-20.479,20.401-20.479
	c11.815,0,20.401,8.742,20.401,20.479C147.308,185.244,138.722,193.988,126.907,193.988 M126.907,145.938
	c-15.675,0-27.491,11.815-27.491,27.569s11.816,27.569,27.491,27.569c15.754,0,27.49-11.815,27.49-27.569
	S142.661,145.938,126.907,145.938 M74.289,201.077h8.98l-23.789-31.114l23.789-24.024H73.265l-27.175,27.49v-27.49H39v55.139h7.09
	v-17.566l8.349-8.428L74.289,201.077z"/>
<path fill="#FFFFFF" d="M691.518,85.759h62.07V78.67h-62.07V85.759z M591.954,99.465c-11.736,0-20.4-8.744-20.4-20.48
	c0-11.737,8.664-20.48,20.4-20.48c11.815,0,20.401,8.743,20.401,20.48C612.355,90.721,603.77,99.465,591.954,99.465 M591.954,51.416
	c-15.675,0-27.49,11.815-27.49,27.569s11.815,27.569,27.49,27.569c15.755,0,27.49-11.815,27.49-27.569
	S607.709,51.416,591.954,51.416 M510.35,58.505h15.991c4.726,0,8.191,3.229,8.191,8.271c0,4.962-3.309,8.664-7.799,8.664H510.35
	V58.505z M510.35,82.529h16.384c4.49,0,7.799,3.703,7.799,8.665c0,5.041-3.466,8.271-8.191,8.271H510.35V82.529z M503.261,106.554
	h23.08c8.428,0,15.28-6.144,15.28-15.36c0-5.278-2.6-9.767-6.695-12.209c4.096-2.442,6.695-7.011,6.695-12.209
	c0-9.216-6.853-15.36-15.28-15.36h-23.08V106.554z M449.777,99.465c-11.737,0-20.401-8.744-20.401-20.48
	c0-11.737,8.664-20.48,20.401-20.48c11.815,0,20.401,8.743,20.401,20.48C470.179,90.721,461.592,99.465,449.777,99.465
	 M449.777,51.416c-15.675,0-27.491,11.815-27.491,27.569s11.816,27.569,27.491,27.569c15.754,0,27.49-11.815,27.49-27.569
	S465.531,51.416,449.777,51.416 M396.293,106.554V51.416h-7.089v43.401l-35.761-43.401h-6.538v55.138h7.089V63.467l35.525,43.087
	H396.293z M293.422,99.465c-11.737,0-20.402-8.744-20.402-20.48c0-11.737,8.665-20.48,20.402-20.48
	c11.815,0,20.401,8.743,20.401,20.48C313.823,90.721,305.237,99.465,293.422,99.465 M293.422,51.416
	c-15.675,0-27.491,11.815-27.491,27.569s11.816,27.569,27.491,27.569c15.754,0,27.49-11.815,27.49-27.569
	S309.176,51.416,293.422,51.416 M211.817,58.505h15.99c4.727,0,8.192,3.229,8.192,8.271c0,4.962-3.308,8.664-7.798,8.664h-16.384
	V58.505z M211.817,82.529h16.384c4.49,0,7.798,3.703,7.798,8.665c0,5.041-3.465,8.271-8.192,8.271h-15.99V82.529z M204.729,106.554
	h23.079c8.429,0,15.282-6.144,15.282-15.36c0-5.278-2.6-9.767-6.696-12.209c4.096-2.442,6.696-7.011,6.696-12.209
	c0-9.216-6.853-15.36-15.282-15.36h-23.079V106.554z"/>
</svg>
