<?xml version="1.0" encoding="utf-8"?>
<!-- Generator: Adobe Illustrator 16.0.0, SVG Export Plug-In . SVG Version: 6.00 Build 0)  -->
<!DOCTYPE svg PUBLIC "-//W3C//DTD SVG 1.1//EN" "http://www.w3.org/Graphics/SVG/1.1/DTD/svg11.dtd">
<svg version="1.1" id="Layer_1" xmlns="http://www.w3.org/2000/svg" xmlns:xlink="http://www.w3.org/1999/xlink" x="0px" y="0px"
	 width="960px" height="320px" viewBox="0 0 960 320" enable-background="new 0 0 960 320" xml:space="preserve">
<path fill="#FFFFFF" d="M758.761,270h4.489l-11.894-15.557l11.894-12.013h-5.002l-13.588,13.745v-13.745h-3.544V270h3.544v-8.783
	l4.176-4.214L758.761,270z M713.587,255.506l1.575,1.97h-4.884v-11.501h7.05c3.19,0,5.75,2.403,5.75,5.751
	c0,2.521-1.574,4.568-3.701,5.396l-3.072-3.899L713.587,255.506z M710.278,261.02h7.681l7.325,8.98h4.608l-8.153-10.004
	c2.954-1.496,4.884-4.529,4.884-8.271c0-5.356-3.938-9.295-9.295-9.295h-10.595V270h3.545V261.02z M679.992,266.455
	c-5.869,0-10.201-4.371-10.201-10.24c0-5.868,4.332-10.24,10.201-10.24c5.907,0,10.2,4.372,10.2,10.24
	C690.192,262.084,685.899,266.455,679.992,266.455 M679.992,242.431c-7.838,0-13.746,5.908-13.746,13.784
	c0,7.877,5.908,13.785,13.746,13.785c7.877,0,13.745-5.908,13.745-13.785C693.737,248.339,687.869,242.431,679.992,242.431
	 M631.864,242.431l-9.569,21.504l-8.548-21.504h-3.819L620.877,270h2.599l10.083-22.607L643.641,270h2.6l10.948-27.569h-3.82
	l-8.546,21.504l-9.57-21.504H631.864z M601.461,242.431h-25.246v3.544h10.831V270h3.545v-24.025h10.87V242.431z M553.215,255.506
	l1.574,1.97h-4.883v-11.501h7.049c3.191,0,5.751,2.403,5.751,5.751c0,2.521-1.575,4.568-3.702,5.396l-3.072-3.899L553.215,255.506z
	 M549.906,261.02h7.681l7.324,8.98h4.608l-8.153-10.004c2.954-1.496,4.884-4.529,4.884-8.271c0-5.356-3.938-9.295-9.295-9.295
	h-10.594V270h3.545V261.02z M520.25,246.724l6.893,14.888h-13.785L520.25,246.724z M534.94,270l-12.84-27.569h-3.702L505.56,270
	h3.899l2.204-4.844h17.173l2.205,4.844H534.94z M457.118,257.476v-11.501h6.262c3.19,0,5.75,2.403,5.75,5.751s-2.56,5.75-5.75,5.75
	H457.118z M463.379,261.02c5.356,0,9.295-3.938,9.295-9.294s-3.939-9.295-9.295-9.295h-9.807V270h3.545v-8.98H463.379z M423.443,270
	h16.936v-3.545h-13.391v-8.467h13.391v-3.545h-13.391v-8.469h13.391v-3.544h-16.936V270z M371.182,270h17.211v-3.545h-13.667
	v-24.024h-3.544V270z M345.069,246.724l6.892,14.888h-13.784L345.069,246.724z M359.759,270l-12.839-27.569h-3.702L330.378,270
	h3.899l2.206-4.844h17.172L355.86,270H359.759z M324.274,242.431h-25.245v3.544h10.831V270h3.544v-24.025h10.87V242.431z
	 M287.805,242.431h-3.545V270h3.545V242.431z M272.642,246.369c-2.717-2.481-6.104-3.938-9.61-3.938
	c-7.837,0-13.784,5.947-13.784,13.784c0,7.838,5.947,13.785,13.784,13.785c1.694,0,3.978-0.512,5.829-1.26v-13.273h-9.885v3.545
	h6.341v7.128c-0.827,0.197-1.576,0.315-2.285,0.315c-6.025,0-10.24-4.135-10.24-10.24c0-6.104,4.215-10.24,10.24-10.24
	c2.915,0,5.829,1.418,7.995,3.742L272.642,246.369z M236.25,242.431h-3.545V270h3.545V242.431z M205.963,245.975
	c5.908,0,10.201,4.254,10.201,10.24c0,5.987-4.293,10.24-10.201,10.24h-5.907v-20.48H205.963z M196.512,270h9.452
	c7.798,0,13.746-5.829,13.746-13.785c0-7.955-5.948-13.784-13.746-13.784h-9.452V270z"/>
<path fill="#FFFFFF" d="M898.633,176.028v-23.001h12.525c6.38,0,11.5,4.806,11.5,11.5c0,6.696-5.12,11.501-11.5,11.501H898.633z
	 M911.158,183.117c10.712,0,18.589-7.877,18.589-18.59c0-10.712-7.877-18.589-18.589-18.589h-19.614v55.138h7.089v-17.959H911.158z
	 M831.287,201.076h33.871v-7.089h-26.782v-16.935h26.782v-7.09h-26.782v-16.936h26.782v-7.089h-33.871V201.076z M757.246,159.251
	c-2.442-8.192-9.374-13.312-17.015-13.312c-8.9,0-16.936,5.907-16.936,15.202c0,10.083,8.979,13.864,16.384,15.754
	c5.593,1.418,9.769,4.096,9.769,9.059c0,4.884-4.333,8.034-9.926,8.034c-4.805,0-8.979-3.15-10.634-9.374l-6.223,3.31
	c2.757,9.688,10.24,13.153,16.856,13.153c8.585,0,17.015-5.198,17.015-15.123c0-9.059-7.089-13.784-15.36-15.911
	c-5.987-1.496-10.792-3.702-10.792-8.901c0-3.938,3.309-8.113,9.847-8.113c4.253,0,8.743,2.993,10.318,8.98L757.246,159.251z
	 M695.492,201.076v-55.138h-7.09v43.402l-35.762-43.402h-6.538v55.138h7.09v-43.087l35.525,43.087H695.492z M592.62,193.987
	c-11.737,0-20.401-8.743-20.401-20.479c0-11.737,8.664-20.48,20.401-20.48c11.814,0,20.4,8.743,20.4,20.48
	C613.021,185.244,604.435,193.987,592.62,193.987 M592.62,145.938c-15.676,0-27.491,11.815-27.491,27.569
	s11.815,27.568,27.491,27.568c15.754,0,27.489-11.814,27.489-27.568S608.374,145.938,592.62,145.938 M539.136,145.938h-7.089v55.138
	h7.089V145.938z M509.598,145.938h-50.491v7.089h21.662v48.049h7.089v-48.049h21.74V145.938z M417.518,154.524l13.784,29.774
	h-27.569L417.518,154.524z M446.899,201.076l-25.679-55.138h-7.405l-25.678,55.138h7.798l4.411-9.688h34.343l4.411,9.688H446.899z
	 M342.53,153.027c11.815,0,20.401,8.507,20.401,20.48c0,11.973-8.586,20.479-20.401,20.479h-11.816v-40.96H342.53z M323.625,201.076
	h18.905c15.596,0,27.49-11.657,27.49-27.568s-11.894-27.569-27.49-27.569h-18.905V201.076z M295.269,201.076v-55.138h-7.089v43.402
	l-35.761-43.402h-6.538v55.138h7.089v-43.087l35.525,43.087H295.269z M167.899,175.871c0,14.336,10.949,25.205,25.206,25.205
	c14.336,0,25.207-10.869,25.207-25.205v-29.933h-7.09v29.933c0,10.318-7.798,18.116-18.117,18.116
	c-10.239,0-18.116-7.798-18.116-18.116v-29.933h-7.09V175.871z M115.204,193.987c-11.737,0-20.402-8.743-20.402-20.479
	c0-11.737,8.665-20.48,20.402-20.48c11.815,0,20.401,8.743,20.401,20.48C135.605,185.244,127.019,193.987,115.204,193.987
	 M115.204,145.938c-15.675,0-27.491,11.815-27.491,27.569s11.816,27.568,27.491,27.568c15.753,0,27.49-11.814,27.49-27.568
	S130.957,145.938,115.204,145.938 M64.871,153.027v-7.089H31v55.138h7.09v-24.023h26.781v-7.09H38.09v-16.936H64.871z"/>
<path fill="#FFFFFF" d="M860.942,81.656h62.069v-7.089h-62.069V81.656z M787.689,64.728c-2.442-8.192-9.373-13.312-17.015-13.312
	c-8.9,0-16.935,5.908-16.935,15.202c0,10.083,8.979,13.864,16.384,15.754c5.592,1.418,9.768,4.096,9.768,9.059
	c0,4.883-4.332,8.034-9.926,8.034c-4.805,0-8.979-3.151-10.634-9.373l-6.223,3.308c2.757,9.689,10.24,13.154,16.856,13.154
	c8.586,0,17.015-5.198,17.015-15.123c0-9.059-7.089-13.785-15.36-15.912c-5.986-1.496-10.791-3.702-10.791-8.901
	c0-3.938,3.308-8.113,9.846-8.113c4.253,0,8.743,2.993,10.319,8.98L787.689,64.728z M694.033,106.553h33.871v-7.089h-26.781V82.529
	h26.781V75.44h-26.781V58.504h26.781v-7.089h-33.871V106.553z M636.375,106.553h34.422v-7.089h-27.333V51.416h-7.089V106.553z
	 M581.316,77.566l3.149,3.939h-9.767V58.504h14.1c6.381,0,11.5,4.805,11.5,11.5c0,5.042-3.15,9.138-7.403,10.792l-6.145-7.798
	L581.316,77.566z M574.699,88.594h15.36l14.65,17.959h9.216l-16.305-20.007c5.908-2.993,9.768-9.058,9.768-16.542
	c0-10.712-7.878-18.589-18.59-18.589H567.61v55.138h7.089V88.594z M515.387,60.001l13.784,29.775h-27.569L515.387,60.001z
	 M544.768,106.553l-25.679-55.138h-7.404l-25.679,55.138h7.799l4.41-9.688h34.344l4.41,9.688H544.768z M463.163,106.553V51.416
	h-7.09V75.44h-31.428V51.416h-7.09v55.138h7.09V82.529h31.428v24.024H463.163z M395.5,59.292
	c-5.435-4.963-12.209-7.877-19.219-7.877c-15.676,0-27.57,11.894-27.57,27.569s11.894,27.569,27.57,27.569
	c3.387,0,7.167-0.945,10.948-2.284l-1.26-7.247c-3.466,1.576-6.853,2.442-9.688,2.442c-12.052,0-20.481-8.271-20.481-20.48
	s8.429-20.48,20.481-20.48c5.828,0,11.657,2.836,15.99,7.483L395.5,59.292z M277.033,64.728
	c-2.442-8.192-9.373-13.312-17.014-13.312c-8.901,0-16.935,5.908-16.935,15.202c0,10.083,8.979,13.864,16.384,15.754
	c5.592,1.418,9.767,4.096,9.767,9.059c0,4.883-4.332,8.034-9.925,8.034c-4.805,0-8.979-3.151-10.634-9.373l-6.222,3.308
	c2.757,9.689,10.24,13.154,16.856,13.154c8.586,0,17.014-5.198,17.014-15.123c0-9.059-7.089-13.785-15.36-15.912
	c-5.986-1.496-10.791-3.702-10.791-8.901c0-3.938,3.308-8.113,9.846-8.113c4.254,0,8.744,2.993,10.319,8.98L277.033,64.728z
	 M197.083,75.991l-17.015-24.576h-8.664l22.134,31.901v23.237h7.089V83.316l22.134-31.901h-8.664L197.083,75.991z M148.955,106.553
	V51.416h-7.089V75.44h-31.429V51.416h-7.09v55.138h7.09V82.529h31.429v24.024H148.955z M48.289,77.566l3.15,3.939h-9.767V58.504
	h14.1c6.38,0,11.5,4.805,11.5,11.5c0,5.042-3.151,9.138-7.404,10.792l-6.144-7.798L48.289,77.566z M41.672,88.594h15.36
	l14.651,17.959h9.216L64.594,86.546c5.908-2.993,9.767-9.058,9.767-16.542c0-10.712-7.877-18.589-18.589-18.589H34.583v55.138h7.089
	V88.594z"/>
</svg>
