<?xml version="1.0" encoding="utf-8"?>
<!-- Generator: Adobe Illustrator 16.0.0, SVG Export Plug-In . SVG Version: 6.00 Build 0)  -->
<!DOCTYPE svg PUBLIC "-//W3C//DTD SVG 1.1//EN" "http://www.w3.org/Graphics/SVG/1.1/DTD/svg11.dtd">
<svg version="1.1" id="Layer_1" xmlns="http://www.w3.org/2000/svg" xmlns:xlink="http://www.w3.org/1999/xlink" x="0px" y="0px"
	 width="780px" height="210px" viewBox="0 0 780 210" enable-background="new 0 0 780 210" xml:space="preserve">
<path d="M780,192.127h-16.068v2.256h6.894v15.292h2.256v-15.292H780V192.127z M756.787,209.675v-17.548h-2.256v13.812
	l-11.381-13.812h-2.08v17.548h2.256v-13.712l11.305,13.712H756.787z M721.894,209.675h10.778v-2.256h-8.522v-5.391h8.522v-2.256
	h-8.522v-5.39h8.522v-2.256h-10.778V209.675z M703.193,209.675l7.42-13.036v13.036h2.256v-17.548h-2.331l-8.323,14.64l-8.347-14.64
	h-2.331v17.548h2.256v-13.036l7.42,13.036H703.193z M673.864,201.702v-7.319h3.986c2.029,0,3.659,1.528,3.659,3.66
	c0,2.131-1.63,3.659-3.659,3.659H673.864z M677.851,203.959c3.408,0,5.916-2.508,5.916-5.916c0-3.41-2.508-5.916-5.916-5.916h-6.242
	v17.548h2.256v-5.716H677.851z M654.587,207.419c-3.734,0-6.491-2.783-6.491-6.519s2.757-6.518,6.491-6.518
	c3.761,0,6.493,2.782,6.493,6.518S658.348,207.419,654.587,207.419 M654.587,192.127c-4.987,0-8.748,3.76-8.748,8.773
	c0,5.013,3.761,8.774,8.748,8.774c5.015,0,8.749-3.762,8.749-8.774C663.336,195.887,659.602,192.127,654.587,192.127
	 M628.993,209.675h10.955v-2.256h-8.699v-15.292h-2.256V209.675z M609.817,209.675h10.778v-2.256h-8.522v-5.391h8.522v-2.256h-8.522
	v-5.39h8.522v-2.256h-10.778V209.675z M594.325,209.675l8.348-17.548h-2.507l-6.668,14.138l-6.718-14.138h-2.507l8.347,17.548
	H594.325z M566.977,209.675h10.779v-2.256h-8.522v-5.391h8.522v-2.256h-8.522v-5.39h8.522v-2.256h-10.779V209.675z M549.956,194.383
	c3.76,0,6.492,2.708,6.492,6.518c0,3.811-2.732,6.519-6.492,6.519h-3.761v-13.036H549.956z M543.939,209.675h6.017
	c4.963,0,8.748-3.71,8.748-8.774c0-5.063-3.785-8.773-8.748-8.773h-6.017V209.675z M512.003,194.383
	c3.761,0,6.493,2.708,6.493,6.518c0,3.811-2.732,6.519-6.493,6.519h-3.76v-13.036H512.003z M505.987,209.675h6.016
	c4.964,0,8.749-3.71,8.749-8.774c0-5.063-3.785-8.773-8.749-8.773h-6.016V209.675z M496.963,209.675v-17.548h-2.256v13.812
	l-11.381-13.812h-2.08v17.548h2.256v-13.712l11.306,13.712H496.963z M462.069,209.675h10.779v-2.256h-8.523v-5.391h8.523v-2.256
	h-8.523v-5.39h8.523v-2.256h-10.779V209.675z M441.313,203.057h11.731v-2.256h-11.731V203.057z M434.921,192.127h-16.067v2.256
	h6.893v15.292h2.257v-15.292h6.918V192.127z M411.709,209.675v-17.548h-2.256v13.812l-11.381-13.812h-2.081v17.548h2.256v-13.712
	l11.306,13.712H411.709z M378.971,207.419c-3.734,0-6.492-2.783-6.492-6.519s2.758-6.518,6.492-6.518
	c3.761,0,6.492,2.782,6.492,6.518S382.731,207.419,378.971,207.419 M378.971,192.127c-4.988,0-8.748,3.76-8.748,8.773
	c0,5.013,3.76,8.774,8.748,8.774c5.014,0,8.748-3.762,8.748-8.774C387.719,195.887,383.984,192.127,378.971,192.127
	 M353.953,200.449l1.003,1.253h-3.108v-7.319h4.486c2.031,0,3.66,1.528,3.66,3.66c0,1.604-1.002,2.907-2.355,3.435l-1.955-2.482
	L353.953,200.449z M351.848,203.959h4.889l4.662,5.716h2.933l-5.188-6.368c1.88-0.952,3.107-2.882,3.107-5.264
	c0-3.41-2.506-5.916-5.916-5.916h-6.743v17.548h2.257V203.959z M341.57,194.383v-2.256h-10.779v17.548h2.256v-7.646h8.523v-2.256
	h-8.523v-5.39H341.57z M297.827,197.867c-0.577-0.651-0.953-1.053-0.953-2.181c0-1.054,0.953-1.905,2.006-1.905
	c1.054,0,2.005,0.852,2.005,1.905c0,1.579-0.977,2.281-2.23,3.133L297.827,197.867z M298.729,208.02
	c-2.005,0-3.385-1.053-3.385-2.632c0-1.806,1.454-2.883,2.983-3.937l4.212,4.764C301.688,207.343,300.484,208.02,298.729,208.02
	 M293.29,205.362c0,2.632,2.055,4.639,5.439,4.639c2.406,0,4.061-0.879,5.188-2.232l1.681,1.906l1.504-1.379l-2.081-2.307
	c0.577-1.254,0.902-2.658,1.078-4.061l-1.98-0.301c-0.15,0.951-0.326,1.854-0.602,2.656l-3.56-4.011
	c1.554-1.128,2.983-2.406,2.983-4.562c0-2.007-1.555-3.911-4.062-3.911s-4.061,1.854-4.061,3.86c0,1.629,0.677,2.558,1.454,3.459
	l0.727,0.827C295.496,200.976,293.29,202.529,293.29,205.362 M269.602,209.675v-17.548h-2.257v13.812l-11.381-13.812h-2.08v17.548
	h2.257v-13.712l11.305,13.712H269.602z M246.489,194.633c-1.73-1.578-3.886-2.506-6.117-2.506c-4.988,0-8.772,3.784-8.772,8.773
	c0,4.988,3.784,8.774,8.772,8.774c1.078,0,2.532-0.326,3.71-0.804v-8.446h-6.292v2.256h4.036v4.537
	c-0.526,0.125-1.002,0.201-1.454,0.201c-3.835,0-6.517-2.634-6.517-6.519c0-3.886,2.682-6.518,6.517-6.518
	c1.855,0,3.71,0.902,5.089,2.382L246.489,194.633z M223.326,192.127h-2.256v17.547h2.256V192.127z M212.422,196.363
	c-0.776-2.607-2.982-4.236-5.414-4.236c-2.833,0-5.39,1.879-5.39,4.838c0,3.209,2.858,4.412,5.214,5.014
	c1.78,0.451,3.108,1.303,3.108,2.883c0,1.554-1.378,2.558-3.158,2.558c-1.529,0-2.858-1.004-3.384-2.984l-1.981,1.053
	c0.878,3.084,3.259,4.188,5.365,4.188c2.732,0,5.415-1.655,5.415-4.813c0-2.883-2.257-4.387-4.889-5.063
	c-1.905-0.477-3.435-1.179-3.435-2.833c0-1.253,1.053-2.582,3.134-2.582c1.354,0,2.782,0.953,3.283,2.857L212.422,196.363z
	 M182.617,209.675h10.779v-2.256h-8.523v-5.391h8.523v-2.256h-8.523v-5.39h8.523v-2.256h-10.779V209.675z M165.596,194.383
	c3.761,0,6.493,2.708,6.493,6.518c0,3.811-2.732,6.519-6.493,6.519h-3.76v-13.036H165.596z M159.58,209.675h6.016
	c4.964,0,8.749-3.71,8.749-8.774c0-5.063-3.785-8.773-8.749-8.773h-6.016V209.675z M137.271,194.633
	c-1.73-1.578-3.887-2.506-6.117-2.506c-4.988,0-8.773,3.784-8.773,8.773c0,4.988,3.785,8.774,8.773,8.774
	c1.078,0,2.281-0.302,3.485-0.728l-0.401-2.307c-1.104,0.502-2.181,0.778-3.084,0.778c-3.835,0-6.518-2.634-6.518-6.519
	c0-3.886,2.683-6.518,6.518-6.518c1.854,0,3.71,0.902,5.089,2.382L137.271,194.633z M114.107,192.127h-2.256v17.547h2.256V192.127z
	 M102.827,209.675v-17.548h-2.256v7.646H90.569v-7.646h-2.256v17.548h2.256v-7.646h10.002v7.646H102.827z M70.641,201.702v-7.319
	h3.985c2.03,0,3.66,1.528,3.66,3.66c0,2.131-1.63,3.659-3.66,3.659H70.641z M74.626,203.959c3.409,0,5.916-2.508,5.916-5.916
	c0-3.41-2.507-5.916-5.916-5.916h-6.242v17.548h2.257v-5.716H74.626z M51.765,194.859l4.387,9.476h-8.774L51.765,194.859z
	 M61.115,209.675l-8.173-17.548h-2.356l-8.172,17.548h2.482l1.403-3.084h10.93l1.403,3.084H61.115z M26.647,200.449l1.002,1.253
	h-3.108v-7.319h4.487c2.031,0,3.66,1.528,3.66,3.66c0,1.604-1.003,2.907-2.356,3.435l-1.956-2.482L26.647,200.449z M24.541,203.959
	h4.889l4.662,5.716h2.934l-5.189-6.368c1.88-0.952,3.108-2.882,3.108-5.264c0-3.41-2.507-5.916-5.916-5.916h-6.743v17.548h2.256
	V203.959z M14.89,194.633c-1.73-1.578-3.885-2.506-6.117-2.506C3.785,192.127,0,195.911,0,200.9c0,4.988,3.785,8.774,8.773,8.774
	c1.078,0,2.532-0.326,3.71-0.804v-8.446H6.191v2.256h4.036v4.537c-0.526,0.125-1.002,0.201-1.454,0.201
	c-3.835,0-6.517-2.634-6.517-6.519c0-3.886,2.682-6.518,6.517-6.518c1.855,0,3.71,0.902,5.089,2.382L14.89,194.633z"/>
<path d="M685.095,147.643V95h-6.768v41.437L644.185,95h-6.242v52.642h6.769v-41.137l33.917,41.137H685.095z M594.1,103.197
	l13.161,28.428h-26.321L594.1,103.197z M622.15,147.643L597.635,95h-7.069l-24.517,52.642h7.445l4.212-9.25h32.788l4.212,9.25
	H622.15z M538.375,147.643L563.418,95h-7.521l-20.004,42.414L515.738,95h-7.52l25.043,52.642H538.375z M459.338,147.643h32.337
	v-6.768h-25.569v-16.17h25.569v-6.768h-25.569v-16.169h25.569V95h-32.337V147.643z M411.283,101.768
	c11.28,0,19.478,8.123,19.478,19.553s-8.197,19.554-19.478,19.554h-11.28v-39.107H411.283z M393.233,147.643h18.05
	c14.891,0,26.245-11.131,26.245-26.321S426.174,95,411.283,95h-18.05V147.643z M344.879,103.197l13.161,28.428h-26.321
	L344.879,103.197z M372.93,147.643L348.414,95h-7.069l-24.516,52.642h7.444l4.211-9.25h32.789l4.211,9.25H372.93z M296.523,147.643
	V95h-6.768v22.937h-30.007V95h-6.769v52.642h6.769v-22.938h30.007v22.938H296.523z M204.626,103.197l13.161,28.428h-26.321
	L204.626,103.197z M232.677,147.643L208.161,95h-7.069l-24.518,52.642h7.445l4.212-9.25h32.788l4.212,9.25H232.677z
	 M128.747,147.643l22.26-39.106v39.106h6.768V95h-6.993l-24.968,43.917L100.771,95h-6.994v52.642h6.77v-39.106l22.26,39.106H128.747
	z"/>
<path d="M541.271,0v52.642h-6.467l-33.918-41.136v41.136h-6.768V0h6.242l34.142,41.437V0H541.271z M422.675,28.577
	c0,13.687,10.453,24.065,24.065,24.065c13.687,0,24.064-10.378,24.064-24.065V0h-6.768v28.577c0,9.852-7.445,17.297-17.297,17.297
	c-9.776,0-17.297-7.445-17.297-17.297V0h-6.769V28.577z M368.003,37.301c0,6.843,4.438,15.341,15.417,15.341
	c9.475,0,15.191-6.843,15.191-16.619V0h-6.77v36.023c0,5.339-3.008,9.851-8.422,9.851c-6.468,0-9.175-5.189-9.175-11.656
	L368.003,37.301z M341.457,17.748c0-6.392-4.889-10.98-10.979-10.98h-13.461v21.96h9.325l-3.009-3.76l5.189-4.362l5.866,7.445
	C338.448,26.472,341.457,22.561,341.457,17.748 M348.226,17.748c0,7.144-3.686,12.935-9.325,15.793l15.567,19.101h-8.799
	l-13.988-17.146h-14.664v17.146h-6.77V0h20.23C340.705,0,348.226,7.52,348.226,17.748 M260.427,43.918l9.101-16.009l-9.139-19.712
	l-9.118,19.665L260.427,43.918z M263.923,0l24.516,52.642h-7.443l-7.917-17.074l-9.719,17.074h-5.941l-9.72-17.075l-7.916,17.075
	h-7.444L256.854,0H263.923z"/>
</svg>
