<svg version="1.1" id="Layer_1" xmlns="http://www.w3.org/2000/svg" xmlns:xlink="http://www.w3.org/1999/xlink" x="0px" y="0px"
	 viewBox="0 0 40 40" enable-background="new 0 0 40 40" xml:space="preserve">
<path fill="#5F2337" d="M20.7,3.1c-0.5-0.2-1-0.2-1.5,0.1L6.8,12.7H2.2c-1.2,0-2.2,1-2.2,2.2v10.2c0,1.2,1,2.2,2.2,2.2h4.5l12.4,9.4
	c0.2,0.2,0.5,0.3,0.8,0.3c0.2,0,0.4,0,0.6-0.1c0.5-0.2,0.8-0.7,0.8-1.3V4.4C21.4,3.9,21.1,3.4,20.7,3.1z M18.6,32.8l-10.6-8
	c-0.2-0.2-0.5-0.3-0.8-0.3H2.8v-9.1h4.4c0.3,0,0.6-0.1,0.8-0.3l10.6-8V32.8z"/>
</svg>
