<svg xmlns="http://www.w3.org/2000/svg" viewBox="0 0 500 540">
  <path fill="#5F2337" d="M84.3 249.8c.2 0 .3-.1.4-.2.2-.2.2-.6-.1-.8l-.1-.1c-4.4-3.5-8.4-7.5-12.4-11.4-7.5-7.4-14.6-14.3-23.8-18.6-.1 0-.1-.1-.2-.1-.3-.1-.6 0-.7.3-.1.3 0 .6.3.7.1 0 .2.1.2.1 9 4.2 16 11 23.4 18.3 3.4 3.3 6.9 6.8 10.6 9.9.6.5 1.2 1.1 1.9 1.6.2.2.3.3.5.3M205 31.4c-.2.1-.3.1-.5.2h-.2c-.1 0-.2-.1-.4-.1.6 4.8 1.2 11.1 1.6 16.3.4.1.8.1 1.1.2-.4-5.2-1-11.6-1.6-16.6m7.6 98.8c-1.2-5.3-2.5-10.7-3.3-15.5 0 .1-.1.1-.1.2-.1.1-.2.2-.4.3h-.1c-.1 0-.2 0-.3-.1-.1 0-.1-.1-.2-.1.9 4.8 2.1 10.3 3.4 15.5 1.2 5.1 2.3 9.9 2.9 13.5.4-.1.7-.2 1.1-.3-.7-3.7-1.8-8.5-3-13.5m27.8-25c-.2.1-.4.2-.6.2h-.2c-.1 0-.2-.1-.3-.1 1.3 3.7 2.3 6.1 2.9 7.6.1-.8.2-1.5.3-2.2-.5-1.4-1.2-3.2-2.1-5.5m-68-16.6c.2 0 .4-.1.5-.2 4.8-7 7.8-27.7 8.2-40.1v.1l-.3.3h-.2c-.1 0-.2 0-.3-.1s-.2-.1-.3-.2c-.4 12.2-3.3 32.3-7.9 39.2-2.5-6.1-5.2-12-7.4-15.4v.2c0 .3-.3.5-.5.5h-.3c4.1 6.5 9.9 21.3 13 30.5.4 0 .8.1 1.2.2-1.5-4.2-3.5-9.7-5.7-15M40.1 263c-2.1-.2-4-.4-5.8-.7l.1.1c.1.1.2.2.2.4s0 .3-.1.4-.1.2-.2.2c1.7.2 3.6.4 5.6.7 3.6.4 7.5.8 11.1 1.5 0-.4.1-.7.1-1.1-3.5-.7-7.4-1.1-11-1.5m9.4-18.1s.1.1.1.2c.1.1.1.3.1.4 0 .2-.1.3-.2.4-.1.1-.1.1-.2.1 3 .4 6.6 1.8 10.7 4.2.3-.2.7-.5 1.1-.7-4.5-2.5-8.4-4.1-11.6-4.6m16.7-28.3v.2c0 .2 0 .3-.1.4-.1.1-.2.2-.4.2h-.2c2 1.5 4.2 2.6 6.1 3.4.1-.4.2-.7.3-1.1-1.8-.7-3.8-1.7-5.7-3.1m25.5-16.3h-.2c6.9 3.4 16.2 10 22.6 16 .3-.3.6-.5.9-.7-6.4-6-15.6-12.5-22.7-16.1-.1.2-.2.4-.3.5-.1.2-.2.3-.3.3M65.5 393.8v.2c0 .2-.2.4-.4.4-.3.1-.7.2-1 .2 3.4.7 6.1 1.8 8.8 2.8.1 0 .2.1.3.1-.6-.6-1.2-1.2-1.7-1.9-1.8-.6-3.8-1.2-6-1.8m51.4-126.9c0 .2-.1.3-.2.4 2.7-.2 6.2-.3 8.9-.4-.1-.4-.2-.7-.2-1.1-2.7.1-6.3.3-9 .4.1.1.2.2.3.2.2.2.2.3.2.5m4-15.5c-6.7-3.5-14.3-7.5-18.8-10.3 0 .1 0 .1.1.2.1.2 0 .4-.1.6-.1.1-.3.2-.4.2H101.4c4.5 2.8 12.2 6.8 18.9 10.4 3.5 1.9 6.9 3.7 9.6 5.1.4-.2.9-.4 1.4-.5-2.6-1.6-6.4-3.5-10.4-5.7m23.7-97.5c.9-1.1 1.7-1.6 2.6-1.6.7 0 1.5.4 2.3 1.1 2.1 1.8 2.2 4.9 2.3 6.5v.1c-.8.1-1.4.2-2 .2-1.5 0-2.7-.5-3.9-1.5-1-1.1-2.7-3.1-1.3-4.8M155 162c0-.3-.1-.5-.1-.9-.5-3.3-1.5-9.5-6.5-13.9-2.3-2-4.5-3-6.6-3s-4 1.1-5.6 3.1c-2.3 2.9-.8 7.1 4.2 11.5 3.3 3 6.7 4.3 11 4.3.9 0 1.9-.1 3-.2 1.4 1.4 3.4 3.5 5.2 5.5l.9-.6c-2-2.2-4.1-4.4-5.5-5.8m12.7 1.1c-.7-2.8-1.6-6-2.8-9.7-1.5-4.5-4.8-8.3-8.9-11.6-.2-6.8-3-18.2-5.7-29.4l-.3-1.1v-.2c-.1-.3-.4-.5-.7-.4s-.5.4-.4.7l.1.2.3 1.1c.9 3.7 1.8 7.5 2.7 11.1 1.1 4.8 2 9.3 2.5 13 .2 1.4.3 2.8.4 4-4.6-3.5-10.1-6.5-15.6-9.5l-1.5-.9v.4c0 .3-.3.5-.5.5h-.2l1.7 1c5.8 3.2 11.6 6.4 16.3 10.2 4.1 3.3 7.3 6.9 8.8 11.3 1.2 3.7 2.1 6.9 2.8 9.7.1.5.3 1 .4 1.5.4-.1.7-.1 1.1-.1-.2-.6-.4-1.2-.5-1.8m-33.1-76.8l1.4.7c-.4-.2-.9-.5-1.4-.7m1.7-.4c-1.3-.7-2.9-1.2-4.4-1.8-2.4-.9-4.8-1.8-6.7-3.1 0 .4-.1.8-.2 1.1 2 1.3 4.3 2.1 6.5 3 1.1.4 2.1.8 3.1 1.2.5.2 1 .4 1.4.7.1-.4.2-.8.3-1.1M98.1 98v.2c0 .2 0 .3-.1.4s-.2.2-.4.2h-.2c2.5 1.6 5.4 3 7.7 3.9.1-.4.2-.7.3-1.1-2.2-.8-4.9-2-7.3-3.6m3.9 40.1c-3.7-1.1-7.2-2.1-10.4-3.4 0 .2.1.5.1.7s0 .3-.1.4h-.1c3.1 1.2 6.5 2.2 10.1 3.3 11.7 3.4 24.8 7.2 28.8 20.4.4.3.9.7 1.5 1.2-3.5-14.9-17.5-19-29.9-22.6m-11.5 24.1c0 .2-.1.3-.1.5 0 .1-.1.2-.2.2-.1.1-.2.1-.3.2 2.6 1.5 5.5 3 8.2 4.2 0-.4.1-.8.1-1.2-2.5-1.1-5.3-2.6-7.7-3.9m-23.4-11.9c-1.5-.1-2.8-.2-3.9-.6 0 0 .1 0 .1.1.2.1.2.4.2.6-.1.2-.2.4-.4.4H63c1.2.4 2.6.5 4.1.6 2.5.2 5.1.3 7 1.9.2-.3.4-.6.7-.9-2.2-1.8-5.1-2-7.7-2.1m-27.4 31c-.1.2-.2.4-.4.4h-.1c2.2.5 5.2 1 7.6 1.4V182c-2.4-.4-5.2-.9-7.3-1.3l.1.1c.1 0 .2.3.1.5m61.4 129.4v.2c0 .2 0 .3-.1.4s-.2.2-.4.2h-.2c5.4 3.9 15.2 8.5 23.1 12 .4-.2.9-.4 1.4-.6-8-3.5-18.3-8.3-23.8-12.2m-39.6 26.8c-1 1.7-2.2 2.7-4.2 2.9h-.7c-1.3 0-2.8-.3-3.1-1.9-.2-1.1 0-1.9.4-2.5.4-.5 1.1-.9 2.1-.9h.4c2.3 0 4 1.5 5.1 2.4zm3.3-.8c-.2-.1-.4-.3-.6-.4-2.4-1.6-7-4.7-12.9-4.1-2.9.3-5 1.2-6.2 2.8-1 1.3-1.4 3.1-1.1 5.1.4 2.8 3.2 4.4 7.7 4.4.7 0 1.5 0 2.3-.1 5.4-.5 8.3-3 11-6.5 2.8.1 5.2.6 7.4 1.6.6-.2 1.2-.3 1.8-.3-2.8-1.6-5.8-2.4-9.4-2.5m2.6 45.9c0 .1 0 .2-.1.3-.1.1-.2.2-.4.2s-.4 0-.6.1c1 .7 1.9 1.3 2.6 1.8.1-.4.2-.8.3-1.1-.5-.4-1.1-.8-1.8-1.3m8-9.9c-4.7-5.9-6.6-8.3-20.6-14.3-.2-.1-.5 0-.6.2v.8s.1.1.2.1c13.8 5.9 15.6 8.2 20.2 14 .8.9 1.6 2 2.5 3.1l1.2-.3c-1.1-1.4-2.1-2.5-2.9-3.6m359.1-155.2h-.2c-.2 0-.3-.1-.4-.2-.1-.1-.1-.3-.1-.4v-.2c-1.9 1.4-3.9 2.4-5.8 3.2.1.3.2.7.3 1.1 2-.9 4.1-2 6.2-3.5M97.2 413.2l.5.5c-.5-.5-.9-1-1.3-1.5-.7-.8-1.2-1.5-1.7-2.2h-.1c.8 1.1 1.7 2.1 2.6 3.2m10.6 10.5c-.7-.4-1.4-.9-2.1-1.4.7.4 1.4.9 2.1 1.4m86.8-18.1c1.3-1.1 2.5-2.2 3.6-3.1 1.2-1 2.3-1.9 3.4-2.7 2.2-1.7 4-3.1 5.6-4.2 1.3-.9 2.4-1.7 3.2-2.2.1-.3.1-.5.2-.8-13.1 9-21.8 17.6-28.8 24.6l-1.5 1.5.3.3c2.1-2 4.1-4 6.1-5.9 2.8-2.8 5.4-5.3 7.9-7.5m-46.3 29.9c-2.5 0-5.1-.2-8-.6-9.7-1.4-18.3-3.9-25.6-7.4.9.4 1.9.9 2.8 1.3 1.8.7 3.7 1.5 5.6 2.1l3 .9 3 .9c4.2 1.1 8.4 1.9 12.8 2.5 4.4.6 9 .7 13.6-.1 4.5-.8 8.9-2.7 12.6-5.2 3.7-2.5 7-5.5 10-8.5l1.8-1.8-.3-.3c-9.7 9.6-17.3 16.2-31.3 16.2m-48.9-18.4c.3.3.6.6 1 .9.1 0 .1.1.2.1-.7-.7-1.4-1.3-2.1-2 .3.4.6.7.9 1m-1.3-1.4c-.4-.4-.7-.8-1-1.1 2.8 2.5 5.9 4.7 9.3 6.7 8.9 6.2 20.3 10.4 34.1 12.4 19.1 2.8 27.1-3.9 38.7-15.5 0 0 0-.1.1-.1l1.9-1.9c7.3-7.2 16.3-16.2 30.1-25.5l.1-.1c.1-.2.1-.3.2-.5-.1 0-.2.1-.3.1 0 0-1.8 1.3-5 3.6-1.6 1.2-3.5 2.6-5.7 4.3-1.1.9-2.2 1.8-3.4 2.8s-2.4 2.1-3.7 3.2c-2.5 2.2-5.2 4.8-8 7.5l-8.6 8.6c-3 2.9-6.2 5.9-9.7 8.3-3.6 2.4-7.6 4.3-11.9 5.1-4.3.8-8.8.7-13.1.2l-1.6-.2-1.6-.3c-1.1-.2-2.2-.4-3.2-.6l-1.6-.3-1.5-.4c-1-.2-2-.5-3.1-.7-1-.2-2-.5-3-.8s-2-.6-2.9-.9c-1.9-.7-3.7-1.4-5.5-2.1-3.5-1.5-6.7-3.1-9.5-5-.1-.1-.2-.1-.3-.2 7.9 4.3 17.4 7.2 28.4 8.8 2.9.4 5.6.6 8 .6-2.4 0-5.1-.2-8-.6-20.6-3-35.8-10.7-45.5-22.9-.1 0-.1-.1-.2-.1 1.2 1.6 2.5 3 4 4.5l1.9 1.9c.3.4.7.8 1.1 1.2m161.2-197.3c0 4.7-4.3 8.5-9.7 8.5-5.3 0-9.7-3.8-9.7-8.5s4.3-8.5 9.7-8.5 9.7 3.8 9.7 8.5m3.5-2c-.2-4.6-3-21.6-13.2-21.6-10.1 0-13 17-13.2 21.6-.2 3.7-.5 10.5 6.1 14.6 1.7 1.1 4.2 1.7 6.9 1.7 2.8 0 5.4-.6 7.2-1.7 6.7-3.8 6.4-10.9 6.2-14.6m-13.2-4.7c-4.1 0-7.5 2.3-7.5 5.2 0 2.8 3.4 5.2 7.5 5.2s7.5-2.3 7.5-5.2-3.3-5.2-7.5-5.2m22.3 11.5c1-2.7 4-4.4 7.5-4.4 1.4 0 2.9.3 4.3.8 2.4.9 4.4 2.6 5.6 4.6s1.4 4.1.7 5.9c-1 2.7-4 4.4-7.5 4.4-1.4 0-2.9-.3-4.3-.8-2.4-.9-4.4-2.6-5.6-4.6-1.2-1.9-1.4-4-.7-5.9m11.6 16.6c7.4-.9 9.4-6.9 10.4-10.1 1.3-3.9 4.1-19.2-5.4-22.8-1.1-.4-2.2-.6-3.3-.6-8.1 0-14.7 11.1-16 14-1.2 2.8-3.8 8.7 1 14.5 2.7 3.2 8.2 5.1 12 5.1.5 0 .9-.1 1.3-.1m-3.7-10c1.3.5 2.7.8 3.9.8 2.4 0 4.1-.9 4.7-2.5.5-1.2.1-2.6-.9-4-1-1.3-2.6-2.4-4.4-3.1-1.3-.5-2.7-.8-3.9-.8-2.4 0-4.1.9-4.7 2.5-.5 1.2-.1 2.6.9 4 1 1.3 2.5 2.4 4.4 3.1m35.4 45.7c.3 0 .6-.1.9-.1 3.8 0 7.4 3.8 8.2 8.9.9 5.6-1.7 10.6-5.8 11.3-.3.1-.6.1-.9.1-3.8 0-7.3-3.8-8.2-8.9-.9-5.5 1.7-10.6 5.8-11.3m.9 24.1c1.9 0 3.6-.4 4.8-.7 4-.9 18.6-6.3 16.9-16.8-1.7-10.1-16.2-10.6-19.1-10.6-.9 0-1.7 0-2.3.1-3.1.3-9.4 1-11.9 8.5-1.5 4.5 0 11.3 2.4 14.6 2.3 3.2 5.4 4.9 9.2 4.9m2.9-6.5h.5c.9-.1 1.6-.6 2.2-1.5 1.2-1.6 1.6-4.3 1.1-7-.7-4.3-3.3-7.4-5.9-7-.8.1-1.6.6-2.2 1.5-1.1 1.6-1.6 4.3-1.1 7 .6 4 3 7 5.4 7m38.4 21.5c.6.1 1.1.3 1.3.6.3.4.3 1.1.3 1.6-.1.8-1 1.2-2.4 1.1-1.2-.1-1.9-.6-2.7-1.8.8-.6 2-1.6 3.5-1.5m-54.6 6.1l-.6.6c-.2.1-.3.3-.5.4 2.8.1 4.7 1.1 7.8 6.9 3.6 6.9 9.4 7.8 13.5 7.8.9 0 1.7 0 2.4-.1 5-.3 23.5-3.9 23.5-16.7 0-1.2-.2-2.4-.5-3.4l2.8.2c1.8 2.4 3.9 4.1 7.6 4.5.5.1 1.1.1 1.6.1 3.2 0 5.1-1.1 5.4-3.1.2-1.5 0-2.7-.8-3.7-.9-1.1-2.3-1.8-4.4-2-4.1-.4-7.3 1.7-8.9 2.9-.1.1-.2.2-.4.2l-3.4-.2c-3.7-9.1-18.3-11.9-22.6-12.1-4-.2-11.5-.6-15.9 7.8-2.1 4-3.6 5.7-5.3 6.4 0 .4-.1.9-.2 1.3 2.1-.6 4-2.4 6.5-7.1 4.1-7.7 11.1-7.4 14.9-7.2 4.5.2 22.5 3.8 22.5 15.6s-18 15.4-22.5 15.6c-3.8.2-10.8.6-14.9-7.2-2.9-5.8-5-7.2-7.6-7.5m13.4-1.1c0-5.6 3.4-10.2 7.6-10.2s7.5 4.6 7.5 10.2-3.4 10.2-7.6 10.2c-4.1 0-7.5-4.6-7.5-10.2m7.3 13.9c.8 0 1.5 0 2.1-.1 4.1-.2 19.4-3.2 19.4-13.8 0-10.6-15.3-13.6-19.4-13.8-.6 0-1.2-.1-1.9-.1-3.4 0-8.2.7-11.3 6.5-2.2 4.1-1.8 11.2 0 14.8 2.9 5.8 7.7 6.5 11.1 6.5m1.6-6c1.3 0 2.5-.9 3.4-2.4.8-1.5 1.3-3.4 1.3-5.4 0-4.4-2.1-7.8-4.7-7.8-1.3 0-2.5.9-3.4 2.4-.8 1.5-1.3 3.4-1.3 5.4s.5 4 1.3 5.4c.9 1.5 2.1 2.4 3.4 2.4m1.6 26.8c-1 3.9-3.9 6.7-6.8 6.7-.4 0-.8 0-1.1-.1-1.3-.3-2.3-1.2-3.1-2.5-1.1-1.9-1.4-4.6-.8-7.1 1-3.9 3.9-6.7 6.8-6.7.4 0 .8 0 1.1.1 3.3.8 5 5.1 3.9 9.6m-7.3 9.9c.8.2 2.5.4 4.5.4 4.5 0 12.3-1 13.9-7.5 2.2-8.5-9.5-14.1-12.7-15.1-1.1-.3-2.8-.9-4.7-.9-2.7 0-5.2 1.1-7.2 3.3-2.7 2.9-3.7 8.6-3 11.9 1.3 6.4 6.4 7.4 9.2 7.9m4.1-17.5c-2.1-.5-4.6 1.9-5.4 5.4-.6 2.3-.4 4.5.4 5.9.4.7 1 1.2 1.8 1.4.2.1.4.1.6.1 2 0 4-2.3 4.8-5.4.4-1.6.4-3.3.1-4.6-.4-1.6-1.2-2.5-2.3-2.8M174 336.3c.7 0 1.5.1 2.4.1 4.1 0 9.9-.9 13.5-7.8 2.3-4.3 3.9-5.9 5.7-6.5-.3-.2-.6-.5-.9-.7 0 0 0-.1-.1-.1-1.8.8-3.5 2.7-5.7 6.8-4.1 7.7-11.1 7.4-14.9 7.2-4.5-.2-22.5-3.8-22.5-15.6 0-1.2.2-2.4.6-3.5h.2c.3 0 .5-.3.5-.6 0-.2-.1-.4-.3-.4 3.8-8.2 17.6-10.9 21.5-11.1 3.8-.2 10.8-.6 14.9 7.2 1.4 2.6 2.6 4.3 3.8 5.4v-.9c0-.2 0-.4.1-.6-.9-1-1.8-2.4-2.9-4.5-4.4-8.4-11.9-8-15.9-7.8-4.3.2-18.9 3-22.6 12.2l-2.8.2s.1.1.2.1c.1.1.2.2.2.4s0 .3-.1.4l-.2.2 2.2-.2c-.3 1-.5 2.2-.5 3.4.1 12.8 18.7 16.5 23.6 16.7m9.2-16.7c0 5.6-3.4 10.2-7.6 10.2-4.2 0-7.5-4.6-7.5-10.2s3.4-10.2 7.5-10.2c4.2 0 7.6 4.6 7.6 10.2m-7.5-13.9c-.7 0-1.3 0-1.9.1-4.1.2-19.4 3.2-19.4 13.8 0 10.6 15.3 13.6 19.4 13.8.6 0 1.3.1 2.1.1 3.4 0 8.2-.7 11.1-6.5 1.8-3.6 2.2-10.7 0-14.8-3.1-5.8-7.9-6.5-11.3-6.5m-1.4 6.1c-2.6 0-4.7 3.4-4.7 7.8 0 2 .5 4 1.3 5.4.9 1.6 2.1 2.4 3.4 2.4 1.3 0 2.5-.9 3.4-2.4.8-1.5 1.3-3.4 1.3-5.4s-.5-4-1.3-5.4c-.9-1.6-2.1-2.4-3.4-2.4m-15.8 46.1c1.9 7.5 10.6 9 16.8 9 2.4 0 4.3-.2 5.4-.4 3.3-.7 9.3-1.9 11.2-9.5 1.1-4.8 2.3-6.1 4.2-6.8-.1-.4-.2-.7-.2-1.1-2.2.8-3.8 2.2-5.1 7.6-1.7 6.9-7.3 8.1-10.3 8.7-3.6.7-18.6 1.6-21-7.8-1.5-5.7 3-10.3 7.5-13.3h.3c.3 0 .5-.2.6-.5v-.1c2.6-1.6 5.1-2.6 6.3-3 2.9-.9 8.4-2.6 13.2 2.6 3.9 4.3 6 4.7 8.4 4.2 0-.4.1-.7.1-1-.1 0-.1-.1-.2-.1-2.3.5-4 .2-7.6-3.8-5.3-5.8-11.2-4-14.4-3-1.5.5-4.3 1.7-7.2 3.5-4.4-.3-8.8-1.1-11.8-1.9v.3c-.1.2-.2.4-.5.4s-.6.1-.8.1c2.7.8 7.1 1.7 11.6 2.1-4.2 3.3-8 8-6.5 13.8m25.3.4c-.8 1.3-1.8 2.1-3.1 2.5-.4.1-.7.1-1.1.1-3 0-5.9-2.8-6.8-6.7-1.1-4.4.6-8.7 3.9-9.6.4-.1.8-.1 1.1-.1 3 0 5.9 2.8 6.8 6.7.6 2.6.3 5.2-.8 7.1m-4.8-17.2c-1.9 0-3.7.6-4.7.9-3.2 1-14.9 6.6-12.7 15.1 1.7 6.5 9.4 7.5 13.9 7.5 2 0 3.6-.2 4.5-.4 2.8-.6 7.9-1.6 9.3-7.9.7-3.3-.4-9-3-11.9-2.1-2.1-4.5-3.3-7.3-3.3m-2.5 5.5c-.2 0-.4 0-.6.1-1.1.3-1.9 1.2-2.3 2.7-.4 1.3-.3 3 .1 4.6.8 3.2 2.8 5.4 4.8 5.4.2 0 .4 0 .6-.1.7-.2 1.3-.7 1.8-1.4.9-1.4 1-3.6.4-5.9-.7-3.1-2.8-5.4-4.8-5.4M314 244.9c3.7 4.8 3.7 11 .1 13.9-1.2.9-2.7 1.4-4.4 1.4-3.2 0-6.7-1.9-9.1-4.9-3.7-4.8-3.7-11-.1-13.9 1.2-.9 2.7-1.4 4.4-1.4 3.3 0 6.8 1.9 9.1 4.9M302.3 264c1.8.9 3.7 1.3 5.5 1.3 4.7 0 8.2-3 10.3-4.8 3.4-3 14.9-15.9 7.9-24.8-2.1-2.8-5.3-4.2-9.3-4.2-7 0-14.6 4.2-16.7 5.7-3 2.1-8.6 6-7.3 14.3.7 4.9 5.7 10.7 9.6 12.5m-.3-17c.3 1.8 1.2 3.7 2.5 5.4 2 2.5 4.7 4.1 6.9 4.1.9 0 1.7-.3 2.3-.8.7-.6 1.2-1.5 1.3-2.6.2-2.1-.7-4.8-2.6-7.1-2-2.5-4.7-4.1-6.9-4.1-.9 0-1.7.3-2.3.8-1 .9-1.4 2.4-1.2 4.3m-80.8-13.3c-1.4.5-2.8.8-4.3.8-3.5 0-6.5-1.7-7.5-4.4-.7-1.9-.5-4 .7-5.9 1.2-2 3.2-3.6 5.6-4.6 1.4-.5 2.8-.8 4.3-.8 3.5 0 6.5 1.7 7.5 4.4.7 1.9.5 4-.7 5.9-1.2 2.1-3.2 3.7-5.6 4.6m8.9-13.4c-1.3-3-7.9-14-16-14-1.1 0-2.2.2-3.3.6-9.5 3.6-6.7 18.9-5.4 22.8 1 3.2 3 9.2 10.4 10.1.4 0 .8.1 1.2.1 3.8 0 9.4-1.9 12-5.1 5-5.9 2.4-11.7 1.1-14.5m-9.8 0c-1.3 0-2.6.3-3.9.8-1.8.7-3.4 1.8-4.4 3.1-1.1 1.4-1.4 2.8-.9 4 .6 1.5 2.4 2.5 4.7 2.5 1.3 0 2.6-.3 3.9-.8 1.8-.7 3.4-1.8 4.4-3.1 1.1-1.4 1.4-2.8.9-4-.6-1.6-2.4-2.5-4.7-2.5m-45.2 64.1c.8-5.1 4.4-8.9 8.2-8.9.3 0 .6 0 .9.1 4.1.7 6.7 5.7 5.8 11.3-.8 5.1-4.4 8.9-8.2 8.9-.3 0-.6 0-.9-.1-4.1-.7-6.7-5.8-5.8-11.3m7.9-12.8c-.6-.1-1.4-.1-2.3-.1-2.9 0-17.5.5-19.1 10.6-1.7 10.5 12.9 15.9 16.9 16.8 1.3.3 3 .7 4.8.7 3.8 0 6.9-1.6 9.2-4.9 2.4-3.3 3.9-10.1 2.4-14.6-2.5-7.4-8.8-8.1-11.9-8.5m-3 21.5h.5c2.4 0 4.8-3 5.4-7 .5-2.7 0-5.4-1.1-7-.6-.8-1.4-1.3-2.2-1.5-2.6-.4-5.2 2.7-5.9 7-.4 2.7 0 5.4 1.1 7 .6.9 1.3 1.4 2.2 1.5m5.4-48.2c2.4-3 5.8-4.8 9-4.8 1.7 0 3.3.5 4.5 1.5 3.6 2.9 3.5 9.1-.3 13.9-2.4 3-5.8 4.8-9 4.8-1.7 0-3.3-.5-4.5-1.5-3.6-3-3.5-9.2.3-13.9m14.3-7.5c-2.1-1.5-9.8-6-16.9-6-3.9 0-7 1.3-9.1 4-7.1 8.9 4.1 22 7.5 25 2.1 1.9 5.6 5 10.4 5 1.7 0 3.5-.4 5.3-1.2 4-1.8 9.1-7.4 9.9-12.3 1.4-8.4-4.3-12.5-7.1-14.5m-4.9 15c1.4-1.7 2.3-3.6 2.5-5.4.3-1.9-.2-3.4-1.3-4.3-.6-.5-1.4-.8-2.3-.8-2.2 0-4.9 1.6-6.9 4.1-1.9 2.3-2.8 5-2.6 7.1.1 1.1.6 2 1.3 2.6.6.5 1.4.8 2.3.8 2.4 0 5-1.6 7-4.1m19.1 130.7s.1 0 0 0c-17.6 10.7-28 21.1-36.5 29.5-11.2 11.1-18.5 18.4-33.6 18.1 15.2.3 22.5-6.9 33.7-18.1 8.5-8.3 18.9-18.7 36.4-29.5m83.4 23.5c-.1-.8-.3-1.5-.4-2.2s-.3-1.2-.4-1.6c-.3-.9-.4-1.4-.4-1.4v-.1c-.2-.7-1-1.1-1.7-.8-.7.2-1.1 1-.8 1.7 0 0 .2.5.5 1.3.2.4.3.9.5 1.5.1.6.4 1.2.5 1.9.1.7.3 1.5.4 2.4.1.8.2 1.7.2 2.7.1.9.1 1.9.1 2.9s-.1 2-.2 3-.2 2-.4 3c-.1 1-.4 1.9-.5 2.9-.2.9-.4 1.8-.7 2.6-.2.8-.5 1.6-.8 2.3-.2.7-.6 1.3-.8 1.9-.3.5-.5 1-.7 1.4-.5.7-.7 1.1-.7 1.1v.1c-.2.2-.1.6.1.8.3.2.6.1.8-.1 0 0 .3-.4.8-1.2.2-.4.5-.9.8-1.4.3-.6.6-1.2.9-1.9.3-.7.6-1.5.9-2.4.3-.8.6-1.8.9-2.7.2-.9.5-1.9.7-2.9s.4-2 .5-3.1c.1-1 .2-2.1.3-3.1.1-1 .1-2 .1-3s-.1-1.9-.1-2.9c-.2-1.1-.3-2-.4-2.7m6.9.7c-.1-.7-.6-1.1-1.3-1-.6.1-1.1.6-1 1.3 0 0 .2 1.4.4 3.4.1.5.1 1 .1 1.6v1.8c0 .6-.1 1.3-.1 1.9-.1.6-.1 1.3-.2 2s-.3 1.3-.4 1.9-.4 1.2-.5 1.9c-.2.6-.4 1.2-.6 1.7s-.4 1.1-.6 1.5c-.8 1.9-1.4 3.1-1.4 3.1-.1.3 0 .6.3.7s.6 0 .7-.3c0 0 .6-1.2 1.5-3.1.2-.5.5-1 .7-1.5s.5-1.1.7-1.7.5-1.3.7-1.9c.2-.7.3-1.4.5-2 .2-.7.2-1.4.4-2.1.1-.7.2-1.4.2-2 0-.7 0-1.3.1-1.9 0-.6.1-1.2 0-1.7-.1-2.2-.2-3.6-.2-3.6m5.6 4.3c-.7-.1-1.4.4-1.6 1.1 0 0-.1.7-.3 1.8-.1 1.1-.4 2.5-.7 3.9-.1.7-.3 1.4-.4 2.1-.2.7-.3 1.3-.4 1.8-.3 1-.5 1.7-.5 1.7v.1c-.1.3.1.5.3.7.3.1.6 0 .7-.3 0 0 .3-.7.7-1.7.2-.5.4-1.1.7-1.8.2-.7.5-1.3.7-2 .5-1.4 1-2.8 1.3-3.9s.5-1.8.5-1.8v-.2c.2-.7-.3-1.4-1-1.5m-100.7 21.5s-.3-.4-.7-1.1c-.2-.4-.5-.8-.7-1.4s-.6-1.2-.8-1.9c-.3-.7-.6-1.5-.8-2.3-.3-.8-.5-1.7-.7-2.6s-.4-1.9-.6-2.9c-.2-1-.3-2-.4-3-.1-1-.2-2-.2-3V412c0-.9.1-1.8.2-2.7.1-.9.3-1.6.4-2.4.1-.7.3-1.4.5-1.9.1-.6.3-1.1.5-1.5.3-.8.5-1.3.5-1.3.2-.6-.2-1.3-.8-1.5s-1.3.2-1.4.8c0 0-.2.5-.4 1.3-.1.4-.3.9-.4 1.6-.1.6-.3 1.4-.4 2.2-.1.8-.3 1.6-.3 2.5-.1.9-.1 1.9-.1 2.8 0 1 0 2 .1 3s.2 2.1.3 3.1c.2 1 .3 2.1.5 3.1s.5 2 .7 2.9c.3.9.5 1.9.8 2.7l.9 2.4c.3.7.6 1.4.9 1.9.3.6.6 1 .8 1.4.5.8.8 1.2.8 1.2.2.2.5.3.8.1.1 0 .2-.3 0-.6zm-9.3-7.9l-.6-1.5c-.2-.5-.4-1.1-.6-1.7-.2-.6-.4-1.2-.5-1.9-.1-.6-.3-1.3-.4-1.9-.1-.6-.1-1.3-.2-2 0-.6-.2-1.3-.1-1.9v-1.8c0-.6 0-1.1.1-1.6.3-2 .4-3.4.4-3.4v-.1c0-.7-.5-1.3-1.2-1.3s-1.3.5-1.3 1.2c0 0-.1 1.4-.2 3.4-.1.5 0 1.1 0 1.7s.1 1.3.1 1.9c0 .7.2 1.3.3 2s.2 1.4.4 2.1.4 1.4.5 2c.2.7.5 1.3.7 1.9s.5 1.2.7 1.7c.3.5.5 1.1.7 1.5.9 1.8 1.5 3.1 1.5 3.1.1.3.4.4.7.3s.4-.4.3-.7c.1.1-.5-1.1-1.3-3m-5.9-1.1s-.2-.7-.5-1.7c-.2-.5-.3-1.1-.4-1.8-.1-.7-.3-1.4-.5-2.1-.3-1.4-.6-2.8-.7-3.9-.2-1.1-.3-1.8-.3-1.8v-.1c-.2-.7-.9-1.1-1.6-.9-.7.2-1.1.9-.9 1.6 0 0 .2.7.5 1.8.3 1 .8 2.5 1.2 3.9.2.7.5 1.4.7 2s.4 1.3.7 1.8c.4 1 .7 1.7.7 1.7.1.3.4.4.7.3.4-.2.6-.5.4-.8zm46.4-144.3c-.2.2-.3.5-.1.8.3.4.6.9.9 1.6h-.2c-1.1 0-2.1.9-2.1 2.1 0 1.1.9 2.1 2.1 2.1.5 0 1-.2 1.4-.6.1.4.1.7.1 1s.3.6.6.6.6-.2.6-.6c0-2.8-1.8-5.9-2.5-6.8-.2-.3-.6-.4-.8-.2m15.7 7c0 .3.2.6.6.6.3 0 .6-.2.6-.6 0-.3 0-.7.1-1.1.4.3.9.6 1.4.6 1.1 0 2.1-.9 2.1-2.1 0-1.1-.9-2.1-2.1-2.1h-.2c.3-.6.7-1.2.9-1.6.2-.2.1-.6-.1-.8-.2-.2-.6-.1-.8.1-.7 1.1-2.5 4.2-2.5 7m-15.4 150.9s-.4 0-1.1-.1c-.4 0-.8 0-1.3-.1-.5 0-1.1 0-1.7-.2-.6-.1-1.3-.2-2.1-.3l-2.4-.6c-.9-.2-1.7-.7-2.6-1-.4-.2-.9-.5-1.3-.7-.2-.1-.4-.3-.7-.4-.2-.1-.4-.3-.6-.5-1.8-1.2-3.2-3.1-4.3-5.2-1.1-2.2-1.8-4.7-2.1-7.4-.3-2.7-.4-5.6-.1-8.5.3-2.9.6-5.9 1.3-8.8.6-2.9 1.3-5.8 2-8.7.8-2.8 1.7-5.6 2.6-8.3.9-2.7 1.8-5.2 2.7-7.7.9-2.4 1.8-4.7 2.7-6.8 1.7-4.2 3.2-7.6 4.3-10s1.7-3.8 1.7-3.8c.1-.3 0-.6-.2-.7-.3-.1-.6 0-.8.2 0 0-.2.3-.5 1-.3.6-.8 1.5-1.4 2.7-1.2 2.4-2.9 5.7-4.8 9.9-.9 2.1-1.9 4.3-2.9 6.8-1 2.4-2 5-2.9 7.7s-1.9 5.5-2.7 8.4-1.6 5.9-2.2 8.9c-.6 3-1 6.1-1.2 9.1s-.1 6.1.2 9 1.2 5.7 2.5 8.1 3.1 4.5 5.1 5.8c.2.2.5.4.7.5.3.1.5.3.8.4.5.3 1 .5 1.5.8 1 .3 2 .7 2.9 1 .9.2 1.8.4 2.6.5s1.6.1 2.2.2c.7.1 1.3.1 1.8.1h2.4c.3 0 .5-.2.5-.5 0-.5-.3-.8-.6-.8m42.3-25.2c-.2-3-.6-6.1-1.2-9.1s-1.3-6-2.2-8.9c-.8-2.9-1.8-5.7-2.7-8.4-1-2.7-2-5.3-3-7.7-1-2.4-2-4.7-3-6.7-1.9-4.1-3.7-7.5-4.9-9.8-.6-1.2-1.1-2.1-1.5-2.7-.3-.6-.5-.9-.5-.9-.1-.2-.4-.3-.7-.2-.3.1-.4.5-.3.7 0 0 .6 1.4 1.7 3.8s2.5 5.9 4.2 10.1c.8 2.1 1.7 4.4 2.6 6.8.4 1.2.9 2.5 1.3 3.7.4 1.3.9 2.6 1.3 3.9.9 2.7 1.7 5.4 2.5 8.3.8 2.8 1.5 5.7 2.1 8.6s1 5.8 1.2 8.7c.2 2.9.2 5.7-.1 8.4-.3 2.7-1 5.2-2.1 7.3-1.1 2.1-2.5 4-4.2 5.2-.2.2-.4.3-.6.5-.2.1-.4.3-.7.4-.4.3-.9.5-1.3.8-.9.4-1.7.8-2.6 1-.8.2-1.6.5-2.4.7-.8.1-1.5.2-2.1.3-.6.1-1.2.1-1.7.2-.5 0-.9.1-1.3.1-.7 0-1.1.1-1.1.1h-.1c-.3 0-.5.2-.5.5s.2.6.5.6h1.1c.4 0 .8 0 1.3.1.5 0 1.1.1 1.8 0 .7 0 1.4-.1 2.3-.2.8-.1 1.7-.3 2.6-.5s1.9-.6 2.9-.9c.5-.2 1-.5 1.5-.8.3-.1.5-.3.8-.4.3-.2.5-.3.7-.5 2.1-1.3 3.9-3.4 5.2-5.8 1.3-2.4 2.2-5.3 2.6-8.2.7-3 .8-6 .6-9.1m114.3-78.8c-1.9 0-4.2 1.2-6 3.1-2.8 3-3.6 6.8-1.8 8.5.6.6 1.4.9 2.4.9 1.9 0 4.2-1.2 6-3.1 1.3-1.4 2.2-3 2.6-4.6.4-1.7.1-3.1-.8-3.9-.6-.6-1.4-.9-2.4-.9m-5.7 88.8c-2.8 1.8-6 3.4-9.5 4.9-1.8.7-3.6 1.4-5.5 2.1-1 .3-1.9.6-2.9.9s-2 .6-3 .8c-1 .2-2 .5-3.1.7l-1.5.4-1.6.3c-1.1.2-2.1.4-3.2.5l-1.6.3-1.6.2c-4.3.5-8.8.6-13-.2-4.3-.8-8.3-2.6-11.8-5.1s-6.7-5.4-9.7-8.3c-3-3-5.9-5.8-8.6-8.6-2.8-2.7-5.4-5.2-8-7.5-1.3-1.1-2.5-2.2-3.7-3.2s-2.3-1.9-3.4-2.8c-2.2-1.7-4.1-3.2-5.7-4.4-3.2-2.3-5-3.6-5-3.6-.3-.2-.7-.3-1.1-.2-.6-1.9-1.3-3.8-2-5.7 17 10.6 27.2 20.9 35.4 29.1 10.8 10.9 18.4 18.6 33.7 18.6 2.4 0 5-.2 7.8-.6 11.3-1.6 21-4.6 29.1-9.1-.1.3-.3.4-.5.5m-115.2 20.9c.4-.2.7-.4 1-.5 0 0 .1 0 .1-.1.4-.2.7-.4 1-.6.4-.3.9-.5 1.3-.8l.9-.6c.2-.2.5-.4.7-.6s.4-.3.6-.5c.3-.3.7-.6 1-.9l.3-.3c4.8-5 7.2-12.3 7.9-22.6v-.5c.1-.8.1-1.6.1-2.5V406.3c0-.4-.1-.9-.1-1.4 0-.3-.1-.6-.1-.8 0-.4-.1-.8-.1-1.3 0-.3-.1-.6-.1-.9-.1-.4-.1-.8-.2-1.2-.1-.3-.1-.6-.2-1s-.2-.8-.2-1.2c-.1-.3-.1-.7-.2-1l-.3-1.2c-.1-.3-.2-.7-.3-1-.1-.4-.2-.8-.3-1.3 0-.2-.1-.3-.1-.5.9.6 2 1.4 3.5 2.4 1.6 1.1 3.5 2.5 5.6 4.2 1.1.8 2.2 1.8 3.4 2.7 1.2 1 2.4 2 3.6 3.1 2.5 2.2 5.2 4.7 8 7.3 1.9 1.8 3.8 3.8 5.8 5.7-12.5 12.3-26.5 20.4-42.6 24.5m-26.5 3.1c-30.7 0-40.5-9.1-40.5-37.6 0-8 2.3-16.4 5.6-25 .2-.1.3-.4.2-.6 2.5-6.4 5.6-13 8.7-19.7 8.3-17.7 16.9-36 16.9-55 0-4.7 0-9.9-1.1-13.8 1.6 1 3.6 1.6 6.1 1.9.8 5 2.1 12.7 2.7 14.8.5 1.9 1.1 2.7 1.9 2.7.8 0 1.3-.8 1.8-2.7.4-1.7.9-6.7 1.3-11.1.1-1.3.2-2.6.4-3.7 2.5-.3 4.6-.9 6.2-2-1.2 3.9-1.2 9.1-1.2 13.9 0 19 8.6 37.3 16.9 55 3.9 8.4 7.7 16.4 10.4 24.2.4 1.1.8 2.2 1.1 3.3 2.1 6.6 3.1 12.4 3.1 17.8 0 28.5-9.8 37.6-40.5 37.6m-26.6-3.1c-16-4.1-30.1-12.2-42.6-24.5l-.3-.3 1.5-1.5c7-7 15.7-15.7 28.8-24.6-.1.3-.1.5-.2.8 0 .1-.1.3-.1.4-.1.4-.2.7-.3 1.1s-.2.9-.3 1.3l-.3 1.2-.3 1.2c-.1.5-.2 1-.3 1.4-.1.3-.1.7-.2 1-.1.8-.2 1.6-.3 2.3 0 .2 0 .4-.1.7-.1.6-.1 1.2-.2 1.8v.7c0 .8-.1 1.6-.1 2.4v3.9c0 .8.1 1.7.1 2.5v.5c.7 10.3 3.1 17.6 7.9 22.6l.3.3c.3.3.7.6 1 .9.2.2.4.4.6.5.2.2.5.4.7.6l.9.6c.4.3.9.6 1.3.8.3.2.7.4 1 .6 0 0 .1 0 .1.1.7.3 1.1.5 1.4.7m15.5-150.8c-1.6-1.7-1.8-3.7-1.7-5.2.3-4.4 1.6-11.8 2.7-14.5.8-1.9 3.1-3.9 6.2-4.8.1 0 .1 0 .2-.1 1-.3 2.1-.4 3.3-.4h.5c1.2 0 2.3.2 3.3.5h.1c3.1.9 5.4 2.9 6.2 4.8 1.2 2.8 2.4 10.1 2.7 14.5.1 1.3-.1 3.1-1.3 4.6-.2.3-.4.5-.7.8l-.1.1c-.3.2-.5.5-.8.7-1.4 1-3.3 1.6-5.5 1.8.1-1.4.3-2.4.4-2.8.3-1-.3-2.3-1.2-3.4.7-.8 1.1-2 1.2-3.4.1-3.1 3.2-7.6 4.2-8.5.2-.2.3-.6.1-.8-.2-.2-.6-.3-.8-.1-1.1 1-4.5 5.8-4.6 9.3 0 1.1-.3 1.9-.8 2.5-.8-.9-1.7-1.7-2.2-2.1-.2-.2-.5-.1-.7 0-1 .8-1.7 1.5-2.3 2.2-.5-.6-.8-1.5-.8-2.6-.1-3.5-3.5-8.3-4.6-9.3-.2-.2-.6-.2-.8.1-.2.2-.2.6.1.8 1 .9 4.1 5.3 4.2 8.5 0 1.5.4 2.6 1.2 3.4-.9 1.1-1.3 2-1.3 2.9 0 .4.1 1.6.4 3.2-3-.1-5.3-1.1-6.8-2.7m.8-44.6c.8-.7 1.3-1.6 1.3-2.7.6.4 1.3.6 2.1.6.2 0 .3 0 .5-.1 1.6 5.6 3.8 15.4 4 20.9-.3 0-.6.1-.9.2-.3-7.3-3.5-13.2-7-18.9m7.1-5.4c.5.9 1.5 1.6 2.6 1.8v22.1h-.7c-.1-5.8-2.5-15.5-4-21 1.1-.5 1.9-1.6 2.1-2.9m-2.4-7.7c-.7-.4-1.6-1-2.6-1.6-7.4-4.6-7-12.4-6.8-16.7.2-5 3.6-25.1 14.8-25.1s14.6 20.1 14.8 25.1c.2 4.2.5 12.1-6.8 16.7-1.3.8-2.4 1.5-3.3 2-1.6.9-2.5 1.5-3 2.1-.5-.2-1-.3-1.5-.3-.7 0-1.3.2-1.8.5-.7-.9-1.8-1.5-3.8-2.7m8.7 7.9c.2 1.2 1 2.2 2.1 2.7-1.5 5.5-3.9 15.2-4 21h-.7v-22.1c1.1-.1 2-.7 2.6-1.6m.1 23.6v.5c-.1 0-.2 0-.3-.1-.2 0-.4-.1-.6-.1.1-5.5 2.4-15.2 4-20.9.2 0 .3.1.5.1.8 0 1.5-.2 2.1-.6 0 1.1.5 2 1.3 2.7-3.5 5.5-6.7 11.4-7 18.4M405.8 410c-.1 0-.1.1-.2.1s-.2 0-.3-.1c-.5.6-1 1.4-1.7 2.2-.3.3-.6.7-.9 1.1-9.5 8.8-22.9 14.5-39.9 16.9-20.2 2.9-27.9-4.9-40.6-17.7-8.4-8.5-18.9-19-36.6-29.9-.1-.1-.2-.1-.3-.1 0-.1-.1-.1-.1-.2-.5-1.3-1-2.6-1.6-3.9-.3-.7-.6-1.5-1-2.2-.8-1.9-1.7-3.8-2.5-5.7-.3-.7-.6-1.4-1-2.1-.8-1.8-1.6-3.5-2.5-5.3-.8-1.7-1.6-3.5-2.4-5.2-.3-.7-.6-1.4-1-2.1-.2-.5-.5-1.1-.7-1.6-1-2.3-2.1-4.6-3-6.9-.3-.6-.5-1.3-.8-1.9-1-2.5-2-5.1-3-7.6-.3-.7-.5-1.5-.8-2.2-1.2-3.4-2.2-6.9-3-10.3-.2-.7-.3-1.5-.5-2.2 0-.2-.1-.3-.1-.5-.8-3.9-1.3-7.7-1.4-11.7 0-.8-.1-1.6-.1-2.4V300.6c0-.2 0-.5.1-.7v-.3c0-.2 0-.5.1-.7v-.3c0-.2.1-.5.1-.7v-.2c0-.3.1-.5.1-.8v-.2c.1-.3.1-.5.2-.8v-.1c.2-.7.4-1.3.6-1.9.2-.4.3-.8.5-1.1.2-.3.4-.5.5-.8v-.1c.2-.3.3-.6.4-.9.5-1.3.5-2.5.5-3.5-.1-1.4-.3-3.1-.6-5-.1-.7-.2-1.5-.4-2.2-.5-3-1.2-6-1.9-7.6-.8-1.9-2.8-3.9-5.6-5l-.9-.3c0-.7.1-1.4.1-2 .6-6.2 3.4-11.3 6.7-16.6.5.2 1 .3 1.5.3 2.1 0 3.8-1.7 3.8-3.7 0-2.1-1.7-3.7-3.8-3.7-.8 0-1.5.2-2.1.6-.1-2-1.7-3.6-3.7-3.6-1.3 0-2.5.7-3.1 1.7-.1-.8-.6-1.6-1.2-2.1.5-.5 1.3-.9 2.6-1.7.9-.5 2-1.1 3.3-2 3.4-2.1 5.2-4.8 6.3-7.6-.3 3.1.4 6.7 3.4 10.2 4.9 5.8 4.1 7.6 2.7 11.3-.1.3-.3.7-.4 1.1l-5.2 13.7c.4.1.7.3 1 .4l5.2-13.7c.1-.4.3-.7.4-1.1 1.5-3.8 2.4-6.1-2.9-12.4-5.4-6.4-2.6-12.9-1-16.3 1.8-4.1 11.4-19.7 21.9-15.7s7.2 22 5.8 26.3c-1.2 3.6-3.3 10.3-11.7 11.5-8.1 1.2-9 3.5-10.4 7.3-.1.3-.3.7-.4 1.1l-5.3 13.9c.3.2.6.4.9.7l5.4-14.2c.1-.4.3-.7.4-1.1 1.4-3.7 2-5.5 9.5-6.6 9-1.3 11.3-8.4 12.6-12.2 1.5-4.7 4.8-22.7-6-27.4.7-2.4 1.5-5.1 2.4-8 3.2-11.1 7.2-24.9 13.1-37.2-.1 0-.1.1-.2.1h-.2c-.2 0-.4-.1-.5-.3 0-.1-.1-.2-.1-.2-5.9 12.4-10.1 26.8-13.2 37.3-.8 2.9-1.6 5.6-2.4 7.9-5.3-1.7-10.2.9-14.2 4.6.3-2.3.8-7 1.6-13.2l-.1.1c-.1.1-.3.2-.4.2h-.1c-.2 0-.4-.1-.4-.3 0 0 0-.1-.1-.1-1 7.9-1.6 13.4-1.7 14.5-3.7 3.9-6.3 8.5-7.3 10.6-.4.8-.8 1.8-1.2 2.8.2-2.2.2-4.2.1-5.7-.2-5.4-3.5-25.1-15-26.1.5-1 1-2.2 1.5-3.7.1-.2.1-.4.2-.6 2.8-9.8 4-28.6 4.1-38.3 0 0 0 .1-.1.1-.1.2-.3.3-.5.3s-.4-.1-.5-.3c0 0 0-.1-.1-.1 0 8.8-1 23.6-3 33.5-1.4-11.7-10-36.5-16.1-46.2-.1-.1-.2-.2-.3-.2s-.3 0-.4.1c-.3.2-.3.5-.2.8 7.7 12.2 18.1 45.3 15.9 50.6v.1c-.5 1.7-1.1 3.1-1.7 4-12 .4-15.4 20.7-15.6 26.2-.1 1.4-.1 3.2 0 5.2-.3-.9-.7-1.7-1-2.3-.9-2-3.3-6.3-6.7-10.1.1-.1.1-.2.1-.3 0 0-.7-5.9-1.7-14.8v-.2c0-.3-.3-.5-.6-.5s-.5.3-.5.6v.1c.8 6.8 1.4 11.8 1.6 13.8-3.9-3.9-8.9-6.8-14.3-5.4-.7-2.3-1.5-5-2.3-7.8-3.1-10.5-7.2-24.9-13.2-37.3 0-.1-.1-.2-.1-.2-.1-.3-.5-.4-.7-.3-.3.1-.4.5-.3.7 0 .1.1.1.1.2 5.9 12.3 9.9 26.1 13.1 37.2.8 2.8 1.6 5.5 2.3 7.8-11.4 4.4-8 22.9-6.5 27.7 1.2 3.8 3.6 10.9 12.6 12.2 7.5 1.1 8.2 2.9 9.5 6.6.1.3.3.7.4 1.1l4.9 12.9c.3-.2.7-.3 1-.5l-4.9-12.8c-.1-.4-.3-.7-.4-1.1-1.4-3.8-2.3-6.2-10.4-7.3-8.3-1.2-10.5-7.9-11.7-11.5-1.4-4.2-4.7-22.2 5.8-26.3h.1c.1 0 .2.1.2.1h.2c.2 0 .3-.2.3-.3 10.2-2.9 19.2 12 21 16 1.5 3.5 4.4 9.9-1 16.3-5.3 6.3-4.4 8.6-2.9 12.4.1.3.3.7.4 1.1l5 13c.4-.1.7-.1 1.1-.2l-5-13.2c-.1-.4-.3-.7-.4-1.1-1.5-3.7-2.2-5.5 2.7-11.3 2.9-3.4 3.6-6.8 3.4-9.8 1 2.6 2.9 5.2 6.1 7.2 1 .6 1.9 1.1 2.6 1.6 1.9 1.1 2.9 1.7 3.4 2.3-.5.6-.9 1.3-1 2.1-.6-1.1-1.8-1.9-3.2-1.9-2 0-3.7 1.6-3.7 3.6-.6-.4-1.3-.6-2.1-.6-2.1 0-3.7 1.7-3.7 3.7 0 2.1 1.7 3.7 3.7 3.7.5 0 1-.1 1.5-.3 3.6 5.8 6.7 11.5 6.8 18.6-.2.1-.4.1-.7.2-.7.3-1.4.6-2 1-1.9 1.1-3.3 2.7-3.9 4.1-.8 1.8-1.5 5.3-2.1 8.7-.1.8-.3 1.7-.4 2.5-.2 1.4-.3 2.7-.4 3.7-.1 1.2 0 2.8.8 4.3l.3.6c.2.3.4.7.7 1 .2.4.4.9.5 1.3v.1c.2.5.3 1 .4 1.6v.1c.1.5.2.9.2 1.4.2 1.4.3 2.8.4 4.3v.2c0 .6 0 1.1.1 1.7v4.7c0 1.2 0 2.4-.1 3.6-.1 2.4-.4 4.8-.8 7.2-.2 1.4-.5 2.8-.8 4.2 0 .1 0 .2-.1.3-.2.8-.3 1.5-.5 2.3-.9 3.5-1.9 7-3.2 10.5-.1.2-.2.5-.3.7-.4 1.1-.8 2.2-1.2 3.2s-.8 2-1.2 3.1c-.5 1.1-.9 2.3-1.4 3.4-1.5 3.5-3.1 7-4.7 10.4-.4.8-.8 1.7-1.2 2.5-.5 1-.9 1.9-1.4 2.9-.9 1.9-1.7 3.7-2.6 5.6-.3.6-.5 1.1-.8 1.7-1.2 2.6-2.3 5.1-3.4 7.7-.7 1.7-1.4 3.3-2 5v.1c-17.5 10.7-28 21.1-36.4 29.5-11.2 11.1-18.5 18.4-33.7 18.1-2.2 0-4.5-.3-7-.6-16.6-2.4-29.7-8-39.2-16.5l-.5-.5c-.9-1-1.7-2.1-2.6-3.2-.1 0-.2.1-.2.1-.1 0-.2 0-.3-.1h-.1c-1-.6-1.9-1.1-2.8-1.6 9.7 12.2 25 19.9 45.5 22.9 2.9.4 5.5.6 8 .6h.1c15.1 0 22.8-7.6 33.6-18.4 8.2-8.1 18.3-18.2 34.9-28.6-.7 1.8-1.3 3.6-1.8 5.3-.1.2-.1.3-.2.5l-.1.1c-13.9 9.3-22.9 18.3-30.1 25.5l-1.9 1.9s0 .1-.1.1c-11.6 11.5-19.6 18.3-38.7 15.5-13.8-2-25.2-6.2-34.1-12.4-3.4-2-6.5-4.2-9.3-6.7.3.4.7.8 1 1.1-.4-.4-.8-.8-1.1-1.2-.7-.6-1.3-1.2-1.9-1.9-4.4-2.6-10-5-16.1-5.9h.1c.2.1.3.3.3.5s-.1.4-.3.5c-.1 0-.1 0-.2.1 8.7 1.3 16.5 5.7 20.7 9.2-.3-.3-.6-.6-1-.9.7.7 1.4 1.4 2.1 2l.1.1c.6.6 1.3 1.1 2 1.7.3.2.5.4.8.7.7.5 1.4 1.1 2.1 1.6.1 0 .1.1.2.1.7.5 1.4 1 2.2 1.4.4.3.8.5 1.2.8.6.4 1.3.8 1.9 1.1.2.1.5.3.7.4.7.4 1.4.7 2.1 1.1.3.1.5.3.8.4 7.3 3.5 15.9 6 25.6 7.4 2.9.4 5.6.6 8 .6 14 0 21.6-6.6 31.3-16.1l.3.3c15.9 15.7 34.2 24.5 55.9 27.1 1.9.3 4.1.5 6.3.6h.5c.5 0 1.1.1 1.6.1.8 0 1.6.1 2.5.1h6.2c.8 0 1.7 0 2.5-.1.6 0 1.1-.1 1.6-.1h.5c2.3-.1 4.4-.3 6.3-.6 21.7-2.6 40.1-11.5 56-27.2.7.7 1.4 1.3 2 2 3.1 2.9 6.3 5.9 10.1 8.5 3.8 2.5 8.1 4.5 12.7 5.2 4.6.8 9.2.7 13.6.1l1.7-.2 1.6-.3c1.1-.2 2.1-.4 3.2-.6l1.6-.3 1.6-.4c1-.3 2.1-.5 3.1-.8 1-.2 2-.6 3-.9l3-.9c1.9-.7 3.8-1.4 5.6-2.2 3.5-1.6 6.9-3.3 9.7-5.2 2.9-1.8 5.3-3.8 7.4-5.6.4-.4.9-.8 1.3-1.2 4.2-3.4 11.9-7.7 20.4-8.9-.1 0-.1 0-.2-.1-.2-.1-.3-.3-.3-.5s.1-.4.3-.5h.1c-6.3.9-12.2 3.5-16.6 6.1 1.5-1.4 2.8-2.9 4.1-4.5.1.2-.9.7-1.9 1.3.1 0 .1 0 0 0m-121.4-34s-.1 0 0 0c-.5.7-.3 1.6.4 2 0 0 .1.1.3.2.5.3 1.8 1 3.6 2.1.2.1.4.2.5.3.7.4 1.5.9 2.4 1.4.5.3 1 .6 1.6.9 1.7 1 3.6 2.3 5.7 3.6 1 .7 2.1 1.3 3.2 2.1s2.2 1.5 3.4 2.3c2.3 1.6 4.7 3.4 7.1 5.2 1.2.9 2.4 1.9 3.6 2.9s2.5 2 3.6 3.1c2.4 2.1 4.8 4.4 7.1 6.7 1.2 1.2 2.4 2.3 3.5 3.5l1.8 1.7c.6.5 1.3 1.1 1.9 1.6 2.5 2.1 5.2 4 7.8 5.7 2.7 1.6 5.4 3 8 4.1.7.2 1.3.5 2 .7.3.1.7.2 1 .4.3.1.7.2 1 .3.7.2 1.3.4 1.9.5s1.3.3 1.9.4c2.5.5 4.8.6 6.8.6 2-.1 3.8-.3 5.3-.6 1.5-.2 2.5-.7 3.3-.9.7-.2 1.2-.4 1.2-.4.3-.1.4-.4.4-.7-.1-.3-.4-.5-.7-.4h-.1s-.4.1-1.1.3c-.7.2-1.8.6-3.2.8-1.4.3-3.1.5-5 .5-2 0-4.2-.2-6.6-.7-.6-.1-1.2-.3-1.8-.4l-1.8-.6-.9-.3c-.3-.1-.6-.2-.9-.4-.6-.2-1.3-.5-1.9-.7-2.6-1.1-5.2-2.5-7.7-4.1-2.6-1.7-5.1-3.5-7.5-5.6-.6-.5-1.2-1.1-1.8-1.6l-1.8-1.7c-1.1-1.2-2.3-2.3-3.5-3.5-2.3-2.3-4.7-4.7-7.1-6.9-1.2-1.1-2.4-2.2-3.6-3.2s-2.4-2.1-3.6-3c-2.4-1.9-4.8-3.8-7.1-5.4-1.2-.8-2.3-1.6-3.4-2.4s-2.2-1.5-3.2-2.2c-2.1-1.4-4-2.7-5.7-3.7-.3-.2-.7-.4-1-.6-.7-.4-1.3-.8-1.9-1.2-.5-.3-1.1-.7-1.5-.9-1-.6-1.7-1.1-2.4-1.4l-1.5-.9c-.2-.1-.4-.2-.6-.2-.7.1-1.1.3-1.4.7m88.7 42.4c-.8.1-1.6.1-2.5.2-.4 0-.9.1-1.4.1h-1.4c-1 0-1.9 0-3-.1-2-.2-4.2-.4-6.3-.9-.5-.1-1.1-.2-1.6-.3l-.8-.2-.8-.2c-1.1-.3-2.2-.7-3.4-1l-.8-.2-.8-.3-1.6-.7c-.5-.3-1-.5-1.5-.8s-1-.5-1.5-.9c-1-.6-2-1.3-2.9-2s-1.8-1.5-2.7-2.2c-1.8-1.5-3.4-3.1-5-4.7-3.1-3.2-6-6.3-8.6-8.8-1.3-1.3-2.6-2.4-3.8-3.3-.6-.4-1.2-.9-1.7-1.3s-1.1-.7-1.6-1c-1-.6-1.7-.9-2.2-1.2-.5-.2-.8-.4-.8-.4-.5-.2-1.2 0-1.4.5-.2.5 0 1.2.5 1.4 0 0 .3.1.8.4.5.2 1.3.5 2.1 1.1.4.3.9.5 1.4.9s1 .7 1.6 1.2c1.1.9 2.4 1.9 3.7 3.1 2.6 2.4 5.5 5.4 8.7 8.6 1.6 1.6 3.3 3.2 5.1 4.8.9.8 1.8 1.5 2.8 2.3s2 1.4 3 2.1c.5.3 1.1.6 1.6.9s1.1.6 1.6.8l1.7.7.9.3.9.3c1.1.3 2.3.6 3.4 1l.8.2.9.2c.6.1 1.1.2 1.7.3 2.2.5 4.5.6 6.5.8h4.5c.5 0 .9-.1 1.4-.1.9-.1 1.8-.1 2.6-.3.8-.2 1.6-.3 2.3-.4.7-.1 1.4-.3 2-.5.2-.1.3-.1.5-.1-.9-.2-1.9-.3-2.9-.5-.5 0-1.2.1-2 .2m-17.7-264.5c1.4 1.7-.3 3.7-1.4 4.7-1.2 1.1-2.4 1.5-3.9 1.5-.6 0-1.2-.1-2-.2v-.1c.1-1.6.2-4.6 2.3-6.5 1.8-1.5 3.5-1.3 5 .6m-9.5 7.9c.2.2.2.6 0 .8l-.2.2c1.1.1 2.1.2 3 .2 4.3 0 7.7-1.3 11-4.3 5-4.4 6.5-8.6 4.2-11.5-1.6-2-3.5-3.1-5.6-3.1s-4.3 1-6.6 3c-5 4.4-6 10.6-6.5 13.9-.1.3-.1.6-.1.9l.1-.1c.2-.2.5-.2.7 0m55.9 147.1c.1-1.5.2-4 2-5.6 1.5-1.4 2.9-1.2 4.2.5 1.2 1.5-.3 3.1-1.3 4s-2 1.3-3.3 1.3c-.4 0-1-.1-1.6-.2zm.5 2.8c3.8 0 6.7-1.2 9.7-3.7 4.4-3.9 5.7-7.6 3.7-10.2-2.8-3.6-6.7-3.7-10.8-.1-4.4 3.9-5.3 9.3-5.8 12.2 0 .3-.1.5-.1.7-5.6 4-15.8 8.7-23.8 12.3.5.2.9.4 1.4.6 7.9-3.6 17.6-8.2 23.1-12 .9.2 1.7.2 2.6.2m-57.2 29.9v-.3c-3.1.8-7.7 1.7-12.3 1.9-2.9-1.9-5.8-3.1-7.3-3.6-3.2-1-9.1-2.8-14.4 3-4.3 4.7-5.8 4.3-8.9 3.5-.2 0-.4-.1-.5-.1-.3.2-.5.4-.8.6 0 .1 0 .3.1.4h.1c.3.1.6.2.9.2 3.3.9 5.3 1.4 10-3.8 4.8-5.3 10.3-3.6 13.2-2.6 3.5 1.1 17 7.5 14.7 16.9-2.4 9.4-17.4 8.5-21 7.8-3-.6-8.6-1.7-10.3-8.7-1.7-6.9-3.7-7.4-7-8.2-.2 0-.4-.1-.5-.1 0 .4-.1.8-.1 1.1.1 0 .3.1.4.1 3.1.7 4.7 1.1 6.2 7.3 1.8 7.6 7.9 8.8 11.2 9.5 1.1.2 3.1.4 5.4.4 6.2 0 14.9-1.6 16.8-9 1.5-5.8-2.3-10.4-6.7-13.6 4.7-.4 9.3-1.3 12.1-2.2-.3 0-.6-.1-.8-.1-.2 0-.4-.2-.5-.4m82 55.9c2.6-1 5.4-2.1 8.8-2.8-.3-.1-.7-.2-1-.2-.2 0-.4-.2-.4-.4v-.2c-2.2.5-4.1 1.2-6 1.9-.5.7-1.1 1.3-1.7 1.9.1-.2.2-.2.3-.2m15.9-23.3c1.4 1.7-.3 3.7-1.4 4.7-1.2 1.1-2.4 1.5-3.9 1.5-.6 0-1.2-.1-2-.2v-.1c.1-1.6.2-4.6 2.3-6.5 1.8-1.5 3.5-1.3 5 .6m-9.3 9c.9.1 1.8.2 2.6.2 4.3 0 7.7-1.3 11-4.3 5-4.4 6.5-8.6 4.2-11.5-1.6-2-3.5-3.1-5.6-3.1s-4.3 1-6.6 3c-5 4.4-6 10.6-6.5 13.9-.1.4-.1.7-.2 1v.1c-.7.5-1.3.9-1.8 1.2.1.4.2.7.3 1.1.7-.3 1.6-.9 2.6-1.6m-30.9-41.4c-1.7 3.4-5.8 5.2-11.1 7.4-1.8.8-3.7 1.6-5.6 2.5.1-.9.2-2 .3-3.2.3-4.5.7-10.7 3.7-15.1 1.6-2.4 3.5-3.7 5.6-3.7 2 0 3.8 1.2 4.7 1.9 2 1.5 4.8 5.5 2.4 10.2m-27.2 53.8c-.1 0-.3-.1-.4-.2-.2-.2-.2-.4-.1-.6-.9.6-2.1 1.4-3.6 2.3-.9.5-1.9 1.1-2.9 1.6-.3 0-.4.1-.4.1-.3 0-.5.2-.6.5-2.6 1.3-5.6 2.6-8.8 3.6-2.4.7-4.9 1.2-7.2 1.4-2.3.1-4.5-.1-6.2-.7-.8-.3-1.6-.7-2.2-1.1-.3-.2-.6-.4-.8-.6-.3-.2-.5-.4-.7-.6-.4-.3-.7-.6-.8-.9l-.3-.3-.1-.1c-.1-.1-.2-.1-.2-.2-.1-.2-.2-.3-.4-.5-.6-.8-1.2-1.6-1.8-2.5l.9.3c.4.1.9.3 1.4.4l1.5.3c.5 0 1.1 0 1.6.1s1.1 0 1.6-.1 1-.1 1.5-.2.9-.3 1.4-.4c.4-.1.9-.2 1.2-.4.4-.2.7-.3 1-.5h-.2c-.2 0-.3-.1-.5-.2-.1-.2-.1-.4 0-.6 0-.1.1-.2.1-.2-.3.1-.5.2-.9.4-.3.2-.7.2-1.1.3-.4.1-.8.2-1.3.3-.4.1-.9.1-1.4.1s-.9.1-1.4 0c-.5 0-.9-.1-1.4-.1-.5-.1-.9-.2-1.3-.3-.4-.1-.8-.3-1.2-.4-.4-.1-.8-.3-1.1-.4-1-.4-1.7-.7-2.1-.8-1.8-2.6-3.7-5.2-5.6-7.8.2 0 .5 0 .8-.1.8-.1 1.8-.1 3-.3 1.2-.2 2.5-.4 3.9-.6 1.4-.3 2.9-.7 4.5-1.1s3.2-1.1 4.9-1.6c1.7-.7 3.4-1.3 5.1-2.2 1.7-.8 3.4-1.6 5.1-2.6.8-.5 1.7-.9 2.5-1.4l2.4-1.5c1.6-1 3.1-2.1 4.5-3.1 1.4-1.1 2.8-2.1 4.1-3.2 1.3-1 2.4-2.1 3.5-3 1-1 2-1.9 2.8-2.7.8-.8 1.5-1.6 2.1-2.2s1-1.1 1.3-1.5c.3-.3.4-.5.4-.5 3.9-2 7.5-3.8 11.1-5.4 9.4-4.4 16.9-7.8 20.2-14.2 2.1-4 2.4-7.5 1.7-10.6 2.1-2.1 4.3-4.6 6.4-7.7 0 0 0-.1.1-.1-.2 0-.4.1-.6.1h-.1c-.1 0-.2 0-.3-.1l-.2-.2c-1 1.4-1.9 2.6-2.9 3.8l-2.8 2.9c-1.1-3.2-3.1-5.6-4.9-7-1.5-1.2-4.5-3.1-8.3-3.1-4.3 0-8.2 2.5-11.7 7.4-5.6 8-6.9 18.7-7.8 26.5-.3 2.8-.6 5.2-1 7.1-.1.1-.2.2-.3.4-.3.3-.7.8-1.3 1.4-.5.6-1.2 1.3-2.1 2.1-.8.8-1.8 1.7-2.8 2.6-1.1.9-2.2 2-3.5 2.9-1.2 1-2.6 2-4 3.1-1.4 1-2.9 2.1-4.5 3l-2.4 1.5c-.8.5-1.6.9-2.5 1.4-1.6.9-3.4 1.7-5 2.5-1.7.8-3.4 1.4-5 2-1.7.5-3.3 1.1-4.8 1.5-1.6.4-3 .7-4.4 1-1.4.2-2.6.4-3.7.6s-2.1.2-3 .2c-1 .1-1.7.1-2.1.1-.8-1.1-1.7-2.1-2.6-3.1-.5-.6-1-1.1-1.6-1.7-.4-.4-.7-.7-1.1-1h1.9c.6 0 1.2 0 1.8-.1.6-.1 1.3-.1 1.9-.2.6 0 1.3-.2 2-.3.7-.1 1.3-.3 1.9-.5s1.3-.3 1.8-.6c.6-.2 1.1-.5 1.7-.7.5-.2 1-.5 1.4-.7.6-.3 1.1-.6 1.6-.9-.1 0-.3-.1-.4-.2-.1-.2-.1-.4 0-.6s.2-.3.3-.5c-.5.2-1.2.6-2 1-.4.2-.9.4-1.4.6s-1 .3-1.6.5c-.5.2-1.1.3-1.7.4l-1.8.3c-.6.1-1.2.2-1.8.2h-1.8c-.6 0-1.1 0-1.7-.1-.5 0-1-.1-1.5-.1-1.9-.2-3.2-.4-3.2-.4h-.1c-.3 0-.5.1-.7.2-1.5-1-3-1.8-4.5-2.6-2.6-1.3-5.3-2.1-7.9-2.7s-5.1-.9-7.4-1.2c-1.1-.1-2.3-.1-3.3-.2-.3.4-.6.7-1 1.1-.1.6-.2 1.1-.5 1.6 1.4 0 3 0 4.7.1 2.2.2 4.6.4 7 1 2.4.5 5 1.3 7.5 2.4s4.9 2.5 7.1 4.4c.5.4 1.2 1 1.6 1.4l1.5 1.5c1 1.1 2 2.2 2.9 3.3 2.4 3 4.6 6.1 6.9 9.1.1.1.1.3.3.3 1.2 1.6 2.3 3.1 3.5 4.6.1.2.2.3.4.5 0 .1.1.3.2.4 0 0 .1.1.3.4.1.1.3.3.5.6 3 3.7 6.2 7 9.4 9.3 1.9 1.3 3.7 2.4 5.5 3.1s3.4 1.1 4.7 1.3c.7.1 1.3.1 1.8.2h2.5c0-.1-.1-.1-.1-.2-.1-.2 0-.4.2-.6l.2-.2c-.1-.1-.2-.1-.4-.1h-2.3c-.5 0-1.1-.1-1.7-.2-1.3-.2-2.8-.6-4.4-1.3-1.6-.7-3.4-1.7-5.1-3-2-1.5-3.9-3.3-5.8-5.4.1 0 .2.1.3.1 2 .6 4.3.9 6.8.7 2.5-.2 5.1-.8 7.5-1.6 3.2-1 6.3-2.4 8.9-3.8h.3s.9-.2 2.4-.4c.8-.1 1.7-.3 2.7-.5 1.1-.2 2.2-.5 3.5-.7 1.3-.3 2.7-.5 4.2-.9s3-.7 4.6-1.2 3.2-1 4.9-1.6c.8-.3 1.6-.6 2.5-.9.8-.4 1.6-.7 2.4-1.1.8-.3 1.6-.8 2.4-1.3l1.2-.7 1.1-.8c.7-.5 1.5-1 2.1-1.6s1.4-1.1 1.9-1.7c.6-.6 1.2-1.2 1.7-1.8.5-.7 1-1.3 1.4-1.9.4-.7.8-1.3 1.1-1.9.3-.6.6-1.3.9-1.9s.5-1.2.7-1.8c.2-.6.4-1.1.6-1.6.3-1 .6-1.9.8-2.7.1-.2.1-.4.1-.6-.2.1-.3.2-.5.3-.1.1-.2.1-.3.1-.1 0-.2 0-.3-.1-.1 0-.1-.1-.1-.2 0 .1 0 .1-.1.2-.2.7-.5 1.6-.8 2.6-.1.5-.4 1-.6 1.6-.2.5-.4 1.1-.7 1.7l-.9 1.8c-.4.6-.7 1.2-1.1 1.8-.4.6-.9 1.2-1.3 1.8-.5.6-1.1 1.1-1.6 1.7s-1.2 1.1-1.8 1.6c-.6.6-1.3 1-2 1.5l-1.1.7-1.1.6c-.8.4-1.5.9-2.3 1.2-.8.3-1.6.7-2.4 1l-2.4.9c-1.6.6-3.2 1.1-4.8 1.5-1.5.5-3.1.8-4.6 1.2-1.4.4-2.8.6-4.1.9-1.3.3-2.4.5-3.5.7-.4.1-.7.1-1 .2 1.6-1 2.9-1.8 3.8-2.5.1-.1.2-.1.3-.2-.2.1-.3.1-.5.2-.3-.1-.4-.1-.4-.1m68.4-60.4c1 .1 1.7.4 2.1.9.4.6.6 1.4.4 2.5-.2 1.5-1.8 1.9-3.1 1.9h-.7c-2.1-.2-3.2-1.2-4.2-2.9 1.1-1 3.1-2.7 5.5-2.4m-8.9 2.6c2.6 3.5 5.6 6 11 6.5.8.1 1.5.1 2.3.1 4.5 0 7.2-1.6 7.7-4.4.3-2.1 0-3.8-1.1-5.1-1.2-1.6-3.3-2.5-6.2-2.8-5.9-.6-10.5 2.5-12.9 4.1-.2.2-.4.3-.6.4-3.6.1-6.6.9-9.2 2.4.6 0 1.2.2 1.8.3 2-.9 4.4-1.4 7.2-1.5m10.1 20.6c-14 6-16 8.4-20.6 14.3-.8 1.1-1.8 2.2-2.9 3.6l1.2.3c1-1.2 1.8-2.2 2.5-3.1 4.6-5.7 6.4-8.1 20.2-14 .1 0 .1-.1.2-.1v-.8c-.1-.2-.3-.3-.6-.2m-4.9-40c-13.2 2.8-27.9 23.4-33 33.1-3 5.8-6.2 10.9-8.4 14.4.3.2.7.4 1 .6 2.2-3.5 5.4-8.6 8.4-14.4 5.1-9.7 19.8-30.4 32.7-32.7l-.5-.5c-.2-.2-.3-.3-.2-.5m10.6-34c-.2-.2-.4-.4-.5-.6-.1-.1-.1-.2-.1-.4-7 1.5-12.6 5-15.9 8.3.4.1.8.2 1.2.4 3.2-3.1 8.6-6.3 15.3-7.7m9.1-20.3c2-.2 3.9-.4 5.6-.7-.1-.1-.1-.2-.2-.2-.1-.1-.1-.3-.1-.4 0-.2.1-.3.2-.4l.1-.1c-1.8.2-3.7.5-5.8.7-3.6.4-7.5.8-11.1 1.5 0 .4.1.7.1 1.1 3.7-.7 7.6-1.1 11.2-1.5m-113.9 4.7c0-.2 0-.3.1-.4l.1-.1c-6.3 1.4-8.4 2.2-11.2 4.2-6.6-3.9-16-4-19.3-3.6-4 .4-11.4 1.3-14.4 10.2-1.8 5.5-3.4 7.1-5.6 7.8.4.3.7.5 1 .8 2.1-.9 3.8-2.8 5.7-8.2 2.8-8.3 9.8-9.1 13.5-9.5 4.4-.5 22.8.1 24.7 11.7 1.9 11.7-15.3 18.1-19.6 19-3.7.8-10.5 2.3-15.8-4.7-2.5-3.3-4.4-4.9-6.1-5.6.3.5.5 1.1.7 1.6 1.2.8 2.6 2.2 4.4 4.6 3.5 4.7 7.7 5.8 11.3 5.8 2.2 0 4.2-.4 5.7-.8 2.4-.5 8-2.4 12.7-5.7 3.4-1.9 8.5-2 14-2.1.9 0 1.9 0 2.9-.1-.1-.1-.1-.2-.2-.3-.2-.2-.1-.6.1-.7l.1-.1c-1 0-2 0-3 .1-4 .1-7.9.1-11.1.9 3.4-3.2 5.8-7.2 4.9-12.3-.6-3.8-2.8-6.5-5.6-8.4 2.3-1.7 4.3-2.4 10.4-3.8l-.2-.2c-.1.2-.2 0-.2-.1m-2.3-51.3c-1.2.5-2.3.8-3.1.8-1.1 0-2-.4-2.9-1.2-.2-1.1 1.4-3.6 4.1-5.5.5-.4 1.1-.6 1.6-.6 1.5 0 2.8 1.6 2.9 2.2.1 1 .5 3-2.6 4.3m-37.9-3.7v-.2c-5 8.2-5.9 15.5-5.2 19.6-1.3.7-2.4 1.4-3.1 1.9-3.6 2.6-10.3 7.5-8.5 17.5 1.5 8.4-.2 9.7-3.7 12.5-.3.3-.7.5-1 .8-1.1.9-2.8 2.2-4.6 3.7.5.1.9.2 1.4.3 1.5-1.2 2.9-2.4 3.9-3.1.3-.3.7-.5 1-.8 3.6-2.8 5.7-4.5 4.1-13.5-1.7-9.3 4.7-13.9 8.1-16.4 4-2.9 22-12.5 30-2.6s-5.3 25.4-9 28.7c-3.1 2.8-9 8-17.7 4.4-8.5-3.5-10.6-1.8-14.1 1.1-.3.3-.6.5-1 .8l-3 2.4c.3.2.7.4 1 .6l2.7-2.2c.3-.3.7-.5 1-.8 3.4-2.8 5.1-4.2 13-1 9.4 3.9 15.6-1.6 18.9-4.6.7-.6 1.6-1.6 2.7-2.8 4.7-.5 9-2.7 18.7-12.6-.1 0-.2-.1-.3-.1-.1-.1-.3-.2-.3-.3-.1-.1-.1-.3 0-.4v-.1c-8.7 8.9-12.9 11.5-17 12.3 4.1-5 9-12.9 8-20.1 19.8-8.6 22.3-22.2 24.1-32.2.7-3.5 1.2-6.6 2.5-8.6h-.3c-.2 0-.4-.2-.5-.4 0-.1-.1-.2-.1-.2-1.4 2.2-2 5.4-2.6 9-1.8 9.7-4.2 22.9-23.2 31.3-.4-1.7-1.2-3.4-2.4-4.9-1.6-2-3.6-3.3-5.8-4 2.6-3.4 6.9-7.5 11.9-9.5 1.8 1.4 3.5 2.2 5.8 2.2 1.6 0 3.5-.5 5.8-1.4 6.2-2.7 5.5-7.1 5.2-8.8-.3-1.8-2.9-5-6.3-5-1.2 0-2.4.4-3.5 1.2-4.3 3.1-8.1 7.8-7.6 10.8-5.3 2.2-9.8 6.5-12.4 10.1-6.8-1.7-15.2 1.5-20.5 4.3-.3-2.3-.6-9.1 5-18.3h-.4c-.5-.1-.7-.3-.7-.6m77.4 52.7c.1-.1.2-.2.3-.2-2.7-.2-6.2-.3-9-.4 0 .4-.1.8-.2 1.1 2.7.1 6.2.3 8.9.4-.1-.1-.2-.3-.2-.4 0-.3 0-.4.2-.5m-3.7-14.1c6.8-3.6 14.4-7.6 18.9-10.4h-.3c-.2 0-.3-.1-.4-.2-.1-.2-.2-.4-.1-.6 0-.1 0-.1.1-.2-4.5 2.8-12.1 6.8-18.8 10.3-4.1 2.1-7.8 4.1-10.5 5.6.5.1 1 .3 1.4.5 2.8-1.3 6.2-3.1 9.7-5m96-42c1.5 4.4-3.1 7-5.9 8.1-1.6.6-3 1-4.5 1-2.4 0-4.7-.8-7.7-2.6.1-.2.1-.3.2-.5 1.2-2.9 3.5-8.3 8.6-10.4 4.5-1.9 7.7-.4 9.3 4.4m-23.6 9.4c6 2.9 10.8 4.2 15.7 4.2 3.8 0 7.7-.8 11.9-2.5 11.4-4.6 16.8-10.9 14.6-17.4-3.1-9.1-10.5-11.9-21.2-7.7-11.7 4.6-17.4 15-20.5 20.6-.3.6-.6 1.1-.9 1.6-9.2 4.2-16.3 11.2-23.8 18.6-3.9 3.9-8 7.9-12.4 11.4.8-.2 1.7-.5 2.5-.7 3.7-3.2 7.2-6.6 10.6-9.9 7.5-7.2 14.5-14 23.5-18.2m-16-35.1c1.2 2.5 1.5 4.6.7 6.3-1.5 3.3-6.3 4.6-8.8 5.3-2.7.7-4.9 1.1-7.2 1.1-2.1 0-4.4-.3-7-.9-2.6-4 3.6-11.3 7.8-15 .5-.4 3.3-1.7 6.5-1.7 3.6-.1 6.4 1.6 8 4.9m-27.5 15.6c4.1.9 7.9 1.3 11.4 1.3 4.9 0 9.6-.8 15.1-2.6 7.3-2.4 14.4-5.5 17.2-11.7.6-1.3.9-2.8 1-4.3 2.5-.4 5.4-.9 7.6-1.4h-.1c-.2 0-.4-.2-.4-.4-.1-.2 0-.4.2-.6l.1-.1c-2.2.5-5 .9-7.3 1.3 0-2.4-.6-5-1.9-7.8-2.7-6.1-7.5-9.3-13.9-9.3-6.8 0-13.5 3.5-14.9 4.9l-.1.1c-6.2 6-19.8 20.7-14.7 29.7-7.1 3.5-16.2 10.1-22.7 16.1.3.2.6.5.9.7 6.3-5.9 15.6-12.5 22.5-15.9m-6.4-34.3l-.4.2c.2-.1.3-.2.4-.2m16.5-4.5c-2.9 1.2-4.4.9-6.1-.4-.2-1.1 1.4-3.6 4.1-5.5.5-.4 1.1-.6 1.6-.6 1.5 0 2.8 1.6 2.9 2.2.3 1 .6 3-2.5 4.3m-16.7 5.8c2.7-1.2 5.7-2.7 8.2-4.2 1.8 1.3 3.5 2.2 5.8 2.2 1.6 0 3.5-.5 5.8-1.4 6.2-2.7 5.5-7.1 5.2-8.8-.1-.5-.4-1.2-.9-1.9 1.9-1.5 4.4-1.7 7-1.9 1.5-.1 2.9-.2 4.1-.6h-.1c-.2 0-.4-.2-.4-.4-.1-.2 0-.4.2-.6 0 0 .1 0 .1-.1-1 .4-2.4.5-3.9.6-2.6.2-5.5.4-7.6 2.1-1.1-1.2-2.8-2.2-4.7-2.2-1.2 0-2.4.4-3.5 1.2-4.3 3.1-8.2 7.8-7.5 10.8-2.2 1.3-4.9 2.6-7.4 3.8-.1.1-.3.1-.4.2-.1.4-.1.8 0 1.2m-3.6-28.1c3.6-1 7-2 10.1-3.3h-.1c-.1-.1-.1-.3-.1-.4 0-.2.1-.5.1-.7-3.1 1.3-6.7 2.3-10.4 3.4-12.4 3.6-26.4 7.7-30 22.7.6-.5 1.1-.9 1.5-1.2 4.1-13.3 17.3-17.1 28.9-20.5m-52.5 23.6l.2-.2c.2-.2.2-.6 0-.8s-.6-.2-.8 0l-.1.1c-1.4 1.4-3.5 3.6-5.4 5.7l.9.6c1.8-1.9 3.8-4 5.2-5.4m2.4-39c-1.1 4.8-2 9.3-2.5 13l2.5-13zm2.4-12h-.2c-.1-.1-.3-.2-.3-.3 0-.1-.1-.1-.1-.2l-.3 1.1c-2.7 11.1-5.5 22.6-5.7 29.4-4.1 3.3-7.4 7.1-8.9 11.6-1.3 3.7-2.1 6.9-2.8 9.7-.2.6-.3 1.2-.4 1.7.4 0 .8 0 1.1.1.1-.5.3-1 .4-1.5.7-2.8 1.6-6 2.8-9.7 1.5-4.4 4.7-8 8.8-11.3 4.7-3.8 10.5-7 16.3-10.2l1.7-1h-.2c-.3 0-.5-.2-.5-.5v-.4l-1.5.9c-5.4 3-11 6-15.6 9.5.1-1.2.2-2.5.4-4 .5-3.8 1.4-8.3 2.5-13 .8-3.6 1.8-7.4 2.7-11.2l.3-1.1c-.1 0-.1.1-.2.1-.1.2-.2.3-.3.3M364 87l1.4-.7c-.5.2-1 .5-1.4.7m20-6.1c-1.2.5-2.3.8-3.1.8-1.1 0-2-.4-2.9-1.2-.2-1.1 1.4-3.6 4.1-5.5.5-.4 1.1-.6 1.6-.6 1.5 0 2.8 1.6 2.9 2.2.2 1 .5 3-2.6 4.3M368.1 84c-1.6.6-3.1 1.2-4.4 1.8.1.4.2.7.3 1.1.5-.2.9-.5 1.4-.7 1-.4 2-.8 3.1-1.2 2.3-.8 4.6-1.7 6.5-3 0 .1.1.1.1.2 1.9 1.5 3.6 2.4 6.1 2.4 1.6 0 3.5-.5 5.8-1.4 6.2-2.7 5.5-7.1 5.2-8.8-.3-1.8-2.9-5-6.3-5-1.2 0-2.4.4-3.5 1.2-4 2.9-7.6 7.2-7.6 10.2-1.9 1.5-4.3 2.4-6.7 3.2m-31.8-11.1h-.3c-.3 0-.5-.2-.5-.5v-.2c-2.2 3.4-4.9 9.3-7.4 15.4-4.6-6.8-7.6-26.9-7.9-39.2-.1.1-.2.1-.3.2-.1 0-.2.1-.3.1h-.2c-.1 0-.3-.2-.3-.3v-.1c.3 12.4 3.3 33.1 8.2 40.1.1.2.3.2.5.2-2.2 5.3-4.2 10.8-5.6 15 .4-.1.8-.2 1.2-.2 3-9.2 8.8-24 12.9-30.5m-47.8 57.5c1.2-5.3 2.5-10.7 3.4-15.5-.1 0-.1.1-.2.1-.1.1-.2.1-.3.1h-.1c-.2 0-.3-.1-.4-.3 0-.1-.1-.1-.1-.2-.9 4.8-2.1 10.2-3.3 15.5-1.2 5-2.3 9.9-2.9 13.5.4.1.7.2 1.1.3.5-3.6 1.6-8.4 2.8-13.5M450.7 246c-.1 0-.1-.1-.2-.1-.1-.1-.2-.2-.2-.4s0-.3.1-.4c0 0 .1-.1.1-.2-3.3.5-7.2 2-11.6 4.7.4.2.7.4 1.1.7 4.1-2.4 7.7-3.8 10.7-4.3M402.5 99h-.2c-.2 0-.3-.1-.4-.2s-.1-.3-.1-.4v-.2c-2.3 1.5-5.1 2.8-7.4 3.7.1.4.2.7.3 1.1 2.5-1.1 5.4-2.4 7.8-4M297.2 18.9c.5 0 .8.1.9.2.9.4 2.6 1.4 1.8 4.6-.9 3.4-2.2 4.1-4 4.6-1-.5-2-3.3-1.9-6.7.2-2.5 2.7-2.7 3.2-2.7m-1.1 12.6c3.8-1.1 6.1-2.9 7.6-8.7 1.7-6.6-2.3-8.7-3.8-9.4-.5-.3-1.4-.4-2.3-.4-3.2 0-6.5 1.9-6.7 6-.2 5.3 1.3 11.3 4 12.5-.6 4.9-1.2 11.4-1.6 16.6.4-.1.8-.2 1.1-.2.5-5.3 1.1-11.6 1.7-16.4m-32.5 62.7c-.1 0-.2.1-.3.1h-.2c-.2-.1-.4-.1-.6-.2-1.2 3.3-2.1 5.6-2.7 7 .3.1.7.2 1.1.4.5-1.5 1.4-3.9 2.7-7.3m-8.1 6.2h.3c-.1-6.1-.2-19.1.3-27.8v.1c-.1.2-.3.3-.5.3s-.4-.1-.5-.3c0 0 0-.1-.1-.1-.5 8.7-.4 21.7-.3 27.8h.8zm-41.6 275.3s-.2.1-.7.4-1.4.8-2.5 1.5c-.2.1-.5.3-.7.4-1 .6-2.1 1.3-3.4 2.1-.3.2-.7.4-1.1.6-.3.2-.7.4-1 .6-1.4.9-3 2-4.7 3.1-1 .7-2.1 1.4-3.2 2.2-1.1.8-2.2 1.6-3.4 2.4-2.3 1.6-4.7 3.5-7.1 5.4-1.2.9-2.4 2-3.6 3-1.2 1-2.5 2.1-3.6 3.2-2.4 2.2-4.8 4.5-7.1 6.8l-3.5 3.5-1.8 1.7c-.6.5-1.2 1.1-1.8 1.6-2.4 2.1-5 4-7.5 5.6-2.6 1.6-5.2 3-7.8 4.1-.7.2-1.3.5-1.9.7-.3.1-.6.2-.9.4-.3.1-.6.2-1 .3l-1.8.6c-.6.1-1.2.3-1.8.4-2.4.5-4.6.7-6.6.7-2-.1-3.7-.2-5-.5-1.4-.2-2.4-.6-3.2-.8-.7-.2-1.1-.3-1.1-.3h-.1c-.3-.1-.6.1-.7.4s.1.6.4.7c0 0 .4.1 1.1.4.8.2 1.8.7 3.3.9 1.4.4 3.2.5 5.3.6 2 0 4.4-.1 6.8-.6.6-.1 1.2-.3 1.9-.4.6-.2 1.3-.4 1.9-.5.3-.1.7-.2 1-.3.3-.1.6-.2 1-.4.7-.2 1.3-.5 2-.7 2.6-1.1 5.4-2.5 8-4.1 2.7-1.7 5.3-3.6 7.8-5.7.6-.5 1.2-1.1 1.9-1.6l1.8-1.7c1.2-1.2 2.4-2.3 3.5-3.5 2.4-2.3 4.7-4.6 7.1-6.7 1.2-1.1 2.4-2.1 3.6-3.1l3.6-3c2.4-1.9 4.8-3.7 7.1-5.3 1.2-.8 2.3-1.6 3.4-2.3 1.1-.8 2.2-1.4 3.2-2.1 2.1-1.3 3.9-2.6 5.7-3.6.1 0 .1-.1.2-.1 1.7-1 3.1-1.8 4.3-2.6 1.2-.7 2.2-1.3 2.9-1.7.7-.4 1-.6 1-.6.6-.3.8-1.1.4-1.7l-.2-.2c-.3-.4-.9-.5-1.4-.2m-91.6 43c.6.2 1.3.4 2 .5s1.5.3 2.3.4 1.7.2 2.6.3c.5 0 .9.1 1.4.1h4.5c2.1-.2 4.3-.3 6.5-.8.6-.1 1.1-.2 1.7-.3l.9-.2.8-.2c1.1-.3 2.2-.6 3.4-1l.9-.3.8-.3 1.7-.7c.6-.3 1.1-.6 1.6-.8.5-.3 1.1-.6 1.6-.9 1-.7 2.1-1.3 3-2.1 1-.7 1.9-1.5 2.8-2.3 1.8-1.5 3.5-3.2 5.1-4.8 3.2-3.2 6.1-6.2 8.7-8.6 1.3-1.2 2.5-2.2 3.7-3.1.6-.4 1.1-.8 1.6-1.2.5-.4 1-.6 1.4-.9.8-.5 1.6-.8 2.1-1.1.5-.2.8-.4.8-.4.5-.2.7-.9.5-1.4s-.9-.7-1.4-.5c0 0-.3.1-.8.4s-1.3.5-2.2 1.2c-.5.3-1 .6-1.6 1-.5.4-1.1.8-1.7 1.3-1.2.9-2.4 2-3.8 3.3-2.6 2.5-5.5 5.6-8.6 8.8-1.6 1.6-3.2 3.2-5 4.7-.9.8-1.8 1.5-2.7 2.2s-1.9 1.4-2.9 2l-1.5.9c-.5.3-1 .6-1.5.8l-1.6.7-.8.3-.8.2c-1.1.3-2.3.7-3.4 1l-.8.2-.8.2c-.5.1-1.1.2-1.6.3-2.1.5-4.3.6-6.3.9-1 .1-2 0-3 .1h-1.4c-.5 0-.9-.1-1.4-.1-.9-.1-1.7-.1-2.5-.2s-1.5-.3-2.2-.4c-1 .2-1.9.4-2.9.5.5.2.7.3.8.3m-42.1-98.4c0-.1-.1-.1-.1-.2-.2-.3-.5-.3-.8-.1-.3.2-.3.5-.1.8 0 .1.1.1.1.2 2.1 3 4.2 5.4 6.2 7.5.1-.4.2-.8.4-1.2-1.9-2.1-3.8-4.3-5.7-7m30.2 53.9c1.4 0 2.8.8 4.2 2.3 2.8 3.1 3.8 7.9 4.5 11.4.2.8.3 1.6.5 2.3-1.5-.5-3-.9-4.4-1.3-4.3-1.2-7.8-2.1-9.4-4.6-2.3-3.4-.6-6.7.8-8.1.6-.7 2-2 3.8-2m-51.8-55.8c-.1.3.1.6.5.6.1 0 .2 0 .3.1 12.9 2.5 27.4 23.2 32.4 32.8 3.1 5.9 6.2 11.1 8.4 14.6-.9.6-1.5 1.2-2 1.7-2.5 2.6-5.6 8.7-.8 15.3 3.3 4.6 9.5 6.5 17.4 8.9 2.9.9 5.9 1.8 9.1 3l.1.1c1 .6 2.3 1.5 4 2.5.2.1.4.3.7.4h-.1c-.7-.1-1.6-.3-2.7-.5-1-.2-2.2-.4-3.5-.7-1.3-.3-2.6-.5-4.1-.9-1.4-.4-3-.7-4.5-1.2s-3.2-.9-4.7-1.5l-2.4-.9c-.8-.4-1.6-.7-2.3-1.1-.8-.3-1.5-.8-2.2-1.2l-1.1-.6-1-.7c-.7-.5-1.4-.9-2-1.5-.6-.5-1.3-1-1.8-1.6-1.1-1.1-2-2.4-2.8-3.6-.4-.6-.7-1.2-1-1.8-.3-.6-.6-1.2-.8-1.8-.5-1.2-.9-2.3-1.2-3.3-.3-1-.6-1.9-.8-2.6v-.2c0 .1-.1.1-.1.2-.1.1-.2.1-.3.1-.1 0-.2 0-.3-.1-.2-.1-.3-.2-.5-.3 0 .2.1.4.1.5.2.7.5 1.6.8 2.7.3 1 .7 2.2 1.2 3.4.3.6.6 1.2.8 1.9.3.6.7 1.3 1.1 1.9.4.7.9 1.3 1.3 1.9.4.7 1.1 1.2 1.6 1.9s1.2 1.2 1.8 1.7c.6.6 1.3 1.1 2.1 1.6l1.1.8 1.1.7c.8.4 1.5.9 2.3 1.3s1.6.7 2.4 1.1l2.4.9c1.6.7 3.2 1.1 4.8 1.6 1.6.5 3.1.8 4.5 1.2 1.4.4 2.8.6 4.1.9 1.3.3 2.4.5 3.5.7 1 .2 1.9.3 2.7.5 1.5.3 2.4.4 2.4.4.3.1.7-.1.8-.4.7.4 1.5.8 2.3 1.2 1.1.5 2.2 1 3.4 1.5s2.4.9 3.6 1.3c2.5.8 5 1.4 7.5 1.6 1.2.1 2.4.1 3.6 0 1.1-.1 2.2-.4 3.2-.7.3-.1.5-.2.8-.3-2 2.3-4.1 4.3-6.2 5.8-1.8 1.3-3.5 2.3-5.1 3s-3.1 1.1-4.4 1.3c-.6.1-1.2.1-1.7.2s-.9 0-1.3 0H136c-.1 0-.3.1-.4.1l.2.2c.2.1.2.4.2.6 0 .1-.1.1-.1.2h2.5c.5 0 1.1 0 1.8-.2 1.3-.2 2.9-.6 4.7-1.3 1.8-.7 3.6-1.7 5.5-3.1 3.2-2.3 6.3-5.5 9.3-9.1.3-.3.6-.5.8-.7.3-.2.4-.3.4-.3.1-.1.2-.2.3-.4.1-.2.2-.5.1-.8 3.5-4.4 6.8-9.4 10.5-13.9.9-1.1 1.9-2.3 2.9-3.3l1.5-1.5c.5-.5 1.1-1 1.6-1.4 2.2-1.8 4.6-3.2 7.1-4.4 2.5-1.1 5-1.9 7.5-2.4 2.4-.6 4.8-.8 7-1 .5 0 1.1-.1 1.6-.1-.3-.5-.5-1.1-.5-1.7-.3-.3-.7-.6-.9-1h-.3c-2.3.2-4.8.5-7.4 1.2-2.6.6-5.3 1.4-7.9 2.7-1.6.8-3.2 1.7-4.7 2.7-.2-.1-.4-.1-.6-.1 0 0-1.3.1-3.2.3-.5 0-1 0-1.5.1-.5 0-1.1.1-1.7 0-.6 0-1.2 0-1.8-.1-.6 0-1.2-.1-1.8-.2l-1.8-.3c-.6-.2-1.2-.2-1.7-.4-.6-.2-1.1-.4-1.6-.5-.5-.2-1-.4-1.4-.6-.8-.3-1.5-.7-2-1 .1.2.2.3.2.5.1.2.1.4 0 .6-.1.1-.2.2-.4.2.4.3.9.6 1.5.9.4.2.9.5 1.4.7s1.1.4 1.7.7l1.8.6c.6.2 1.3.3 1.9.5.7.1 1.3.3 1.9.3.6.1 1.3.1 1.9.2.6.1 1.2 0 1.8.1h2.1c-.4.4-.9.8-1.3 1.2-.6.5-1.1 1.1-1.6 1.7-1 1-1.9 2.1-2.7 3.2-.4 0-1.1-.1-2.1-.1-.8-.1-1.9-.1-3-.2-1.1-.2-2.4-.4-3.7-.6-1.4-.3-2.8-.7-4.4-1-1.5-.4-3.1-1-4.8-1.5-1.6-.7-3.3-1.3-5-2.1-1.7-.8-3.4-1.6-5-2.5-.8-.5-1.7-.9-2.5-1.4l-2.4-1.5c-1.6-1-3.1-2-4.5-3-1.4-1.1-2.8-2.1-4-3.1-1.3-1-2.4-2-3.5-3-1-1-2-1.8-2.8-2.7l-2.1-2.1c-.6-.6-1-1.1-1.2-1.4l-.4-.4v.1c0 .2 0 .4-.2.6-.1.1-.2.1-.3.1-.1 0-.2 0-.3-.1 0 0-.1 0-.1-.1l.4.4c.3.4.7.9 1.3 1.5.5.6 1.2 1.4 2.1 2.2.8.8 1.8 1.7 2.8 2.7 1.1 1 2.2 2 3.5 3.1 1.2 1.1 2.6 2.1 4 3.2s2.9 2.1 4.5 3.2l2.4 1.5c.8.5 1.7 1 2.5 1.4 1.6 1 3.4 1.8 5.1 2.6 1.7.8 3.4 1.5 5.1 2.2 1.7.6 3.3 1.2 4.9 1.6 1.6.4 3.1.8 4.5 1.1 1.4.2 2.8.5 3.9.7 1.2.2 2.2.2 3 .3.3 0 .5 0 .7.1-1.9 2.5-3.7 5-5.4 7.5-.2-.2-.3 0-.5 0-.4.2-1 .4-1.7.6-.3.1-.7.3-1.1.4-.4.1-.8.3-1.2.4s-.9.2-1.3.3c-.5 0-.9.1-1.4.1-.5.1-.9 0-1.4 0s-.9 0-1.3-.1-.9-.2-1.3-.3c-.4-.1-.8-.1-1.1-.3-.4-.1-.7-.3-1-.4.1.1.1.2.2.3.1.2.1.4 0 .6-.1.1-.3.2-.5.2h-.1c-.1 0-.3 0-.4-.1.3.2.8.4 1.3.7.3.2.8.3 1.2.5.4.1.9.3 1.4.4l1.5.3c.5.1 1.1.2 1.6.1.5 0 1.1 0 1.6-.1l1.5-.3c.5-.1.9-.2 1.4-.4.2 0 .3-.1.5-.1-.5.7-1 1.3-1.4 2-.4 0-.7.3-.9.6v.1s-.1.1-.2.4c-.1.2-.3.6-.7 1l-.6.6c-.2.2-.5.4-.8.7-.6.5-1.3.8-2.2 1.2-1.7.6-3.9.9-6.3.8-2.3-.1-4.9-.6-7.3-1.4-2.4-.7-4.8-1.7-7-2.8-1.1-.5-2.1-1-3.1-1.6-1-.5-1.9-1.1-2.7-1.5-1.5-.9-2.7-1.7-3.6-2.3-.5-1.5-1-3.3-1.6-5.5-1.6-6-3.7-14.3-9-20-2.9-3.1-5.8-4.6-8.8-4.6-1.7 0-3.2.5-4.4 1.2-2.2-3.4-5.3-8.7-8.4-14.5-5.1-9.9-20-31-33.3-33.5h-.2c.2.4-.1.6-.2 1m94.2-49.8c-.1.3.1.6.4.7.1 0 .2 0 .2.1 5.8 1.3 7.9 2 10.1 3.6-3 1.9-5.2 4.7-5.9 8.6-.8 5 1.4 9 4.7 12.1-3.1-.6-6.6-.7-10.4-.8-1 0-2 0-3-.1l.1.1c.2.2.3.5.1.7-.1.1-.1.2-.2.3 1 0 1.9 0 2.9.1 4.7.1 9.1.2 12.4 1.4 4.9 3.8 11.1 5.9 13.7 6.4 1.5.3 3.5.8 5.7.8 3.6 0 7.7-1.2 11.3-5.8.5-.7 1-1.3 1.4-1.8 0-.6.1-1.3.2-1.9-.8.8-1.6 1.8-2.6 3-5.3 7-12.1 5.5-15.8 4.7-2.1-.5-7-2.1-11.4-5 0-.2-.1-.4-.3-.5-.5-.3-1-.5-1.6-.8-4.1-3.1-7.3-7.4-6.4-12.7.6-3.7 2.9-6.3 5.8-8.1.1 0 .2.1.2.1.2 0 .3-.1.4-.2.1-.1.1-.2.1-.3 6.3-3.4 15.2-3.6 18.1-3.2 3.8.4 10.7 1.2 13.5 9.5 1.4 4.1 2.7 6.3 4.2 7.4.3-.2.7-.4 1-.6-1.5-1-2.8-2.9-4.2-7.1-3-9-10.4-9.8-14.4-10.2-3.2-.4-12.5-.2-19 3.4-2.7-1.9-4.9-2.6-11-4h-.2c.3-.4 0-.2-.1.1m.8-55.3c.1-.7 1.4-2.2 2.9-2.2.5 0 1.1.2 1.6.6 2.7 2 4.4 4.5 4.2 5.5-1 .7-1.8 1.2-2.9 1.2-.9 0-1.9-.3-3.1-.8-3.2-1.4-2.8-3.4-2.7-4.3m4.7 33.2c-.2.2-.2.6 0 .8l.3.3c9.2 9.5 13.6 11.9 18.1 12.6 1.1 1.2 2.1 2.2 2.7 2.8 3.3 3 9.5 8.5 18.9 4.6 7.9-3.2 9.6-1.8 13 1 .3.3.6.5 1 .8l1.7 1.3c.4-.2.8-.4 1.1-.5l-2.1-1.7c-.3-.3-.7-.5-1-.8-3.5-2.9-5.6-4.6-14.1-1.1-8.8 3.6-14.6-1.6-17.7-4.4-.5-.5-1.3-1.2-2.1-2.1.1-.1.1-.2.1-.3 0-.3-.2-.6-.5-.6-.1 0-.3 0-.4-.1-4-4.6-9.4-12.9-8.5-20.1h.1c.2 0 .4-.1.5-.3.1-.3 0-.6-.3-.7h-.1c.4-1.6 1.1-3.1 2.2-4.5 1.7-2.1 3.8-3.3 6.2-3.9h.2c.1 0 .2 0 .3-.1l.1-.1c8.7-1.7 20 4.4 23.1 6.7 3.4 2.5 9.7 7.1 8.1 16.4-1.6 9 .5 10.7 4.1 13.5.3.2.6.5 1 .8.9.7 2 1.6 3.4 2.7.5-.1 1-.1 1.6-.1h.1c-1.7-1.4-3.2-2.6-4.3-3.5-.3-.3-.7-.5-1-.8-3.5-2.7-5.2-4.1-3.7-12.5 1.8-10-4.9-14.9-8.5-17.5-.6-.4-1.5-1-2.5-1.6.8-4 0-11.5-5.1-19.9 0-.1-.1-.1-.1-.2-.2-.3-.5-.3-.8-.2-.3.2-.3.5-.2.8.1.1.1.2.2.3 5.8 9.7 5.3 16.7 5 18.6-5.1-2.8-13.5-6.2-20.5-4.7-2.6-3.6-7.1-7.9-12.3-10 .6-3-3.2-7.7-7.6-10.8-1.1-.8-2.3-1.2-3.5-1.2-3.4 0-6 3.2-6.3 5-.3 1.7-1 6.1 5.2 8.8 2.3 1 4.2 1.4 5.8 1.4 2.3 0 4-.9 5.8-2.2 4.9 2 9.1 6 11.8 9.4-2.4.7-4.5 2-6.3 4.2-1.2 1.5-1.9 3.1-2.4 4.7-18.5-8.4-20.9-21.5-22.7-31.1-.7-3.7-1.3-6.8-2.6-9 0 .1 0 .2-.1.2-.1.2-.3.4-.5.4h-.3c1.2 2 1.8 5.1 2.5 8.6 1.8 9.9 4.3 23.4 23.6 32-1.2 7.2 3.7 15.2 7.8 20.2-3.9-.9-8.1-3.7-16.3-12.2l-.1-.1c-.5-.2-.8-.2-1.1 0m-3.9-109.7c-.5-3.8-1.4-8.3-2.5-13l2.5 13zm81.2-48.6h.1c.3-.1.5-.4.4-.7-.1-.2-.1-.4-.2-.6-.1-.4-.2-.9-.4-1.3-1.4-4.9-3.4-12.4-3.5-23.1v-.2c0-.3-.3-.6-.6-.6s-.6.3-.6.6v.2c.1 10.8 2.2 18.4 3.5 23.4.1.5.3 1 .4 1.5 0 .1.1.3.1.4.4.2.6.4.8.4M66.1 291.7c-3.5-3.5-9.3-7.3-16.7-8.7h-.1c-.3-.1-.6.1-.7.4-.1.3.1.6.4.7.1 0 .2 0 .3.1.4.1-2.5-.3 2.9.7 5.4.9 12.8 7.5 12.8 7.5l1.1-.7zm-31.6 73c4.4-.3 7.7-2.7 7.5-5.4-.2-2.7-3.8-4.6-8.2-4.2-2.8.2-5.2 1.3-6.5 2.8-.7.8-1 1.7-1 2.6.2 2.5 3.2 4.3 7.3 4.3.3-.1.6-.1.9-.1m193.1-311c-.1-1.1.1-1.9.5-2.4.5-.6 1.4-.9 2.5-1h.1c1.9 0 2.5 2.3 2.6 3.6.2 2.2-.6 3.6-2.2 5.1-1.1-1.1-3.2-2.7-3.5-5.3m4 8c.3 0 .6.2.6.6v.2c3.2-3.5 5.1-7.1 4.6-12.9-.6-6-2.9-9.4-6.2-9.4h-.2c-2.2.1-3.9.8-5.1 2.2-1.4 1.6-1.9 3.9-1.6 7.1.6 6.2 4.8 10.3 7 12.6l.5.5v-.2c-.2-.4.1-.7.4-.7M36.3 238.3c.4 0 .9.1 1.5.2 3.6.8 5.8 4.1 7 5.9 0 .1.1.1.1.2-2.8 2.5-4.9 3.1-7.8 2.5-2-.4-5.3-1.6-4.9-4.6.5-2.8 1.9-4.2 4.1-4.2m13.4 7.2c0-.2 0-.3-.1-.4l-.1-.1c-.2-.3-.5-.6-.8-.9-2.8-3.4-7.9-9.8-16.5-11.5-1.4-.3-2.8-.4-4-.4-7 0-9.1 4.6-9.6 8.4-.7 4.7 3.8 8.4 12.1 10.1 1.7.4 3.4.5 4.9.5 4.7 0 8.8-1.5 13.6-5.1.1 0 .1-.1.2-.1.2-.2.3-.3.3-.5m-26 116.2c-.3-2.6.4-4.7 1.9-6.5 2.5-2.8 6.7-3.7 7.9-3.7h.2c5.2.9 14 3.5 14 8-3.7 3.7-6.9 5.8-11.5 7.2-2 .6-4.2 1.2-6.2 1.2-3.8.1-5.8-2-6.3-6.2m3.2-19.1h-.2c-.4-.1-.8-.1-1.2-.1-3.1 0-12.1 1.2-16.9 6.9-2.7 3.1-3.6 7.1-2.9 11.7 1.4 8.9 6.4 13.4 14.9 13.4 3.8 0 7.6-.8 11.1-1.8 9-2.3 15.2-5.9 22.1-12.7.1-.1.2-.2.2-.4v-1.1c-1-9.6-19.1-14.3-27.1-15.9M345.1 53.3c-.8 1.9-1.2 3.9-1 5.6.2 1.8 1 3.1 2.3 3.7.4.2.8.3 1.3.3 2.3 0 4.9-2.3 6.4-5.6 1.1-2.6 1.3-5.3.6-7.2-.4-1-1.1-1.7-1.9-2.1-.4-.2-.8-.3-1.3-.3-2.4-.1-5 2.3-6.4 5.6m14.4 1.2c-.4 3.2-2 6-4.1 7.3-3.8 2.3-7 4.2-11.3 4.2-.6 0-1.2 0-1.8-.1-.8-5.1.1-16.3 4.7-20.4 1.6-1.5 3.2-2.2 4.8-2.2 1.9 0 3.7 1 5.7 3.1 1.7 1.9 2.5 4.9 2 8.1M336 72.9h.3c.7 0 1.4.1 2.1.1 10.9 0 18.9-4.9 28.2-10.5 5.7-3.5 9.9-10.8 10.8-18.6.7-6.1-.9-11.4-4.4-14.7-4.2-4-8.1-5.8-12.2-5.8s-8.3 1.9-12.6 5.6c-10.8 9.3-14 33.3-12.7 43.2v.2c0 .3.2.5.5.5M70.1 305.3c1.2-.8 2.3-1.2 3.2-1.2 1.4 0 2.7.9 3.7 2.6 2 3.3.9 7.4.4 9.5 0 .1 0 .2-.1.3-3.2-.3-5.6-1.2-7.4-4.2-1-1.8-2.4-5.2.2-7m-5-13.1c-.4.2-2.6 1-3 1.3-4.1 2.8-3.8 8.8.7 16.4 4.3 7.3 9.8 9.7 16.5 11 0-.1-.1-.1-.1-.2-.2-.3-.1-.6.1-.8.2-.2.6-.1.8.1 0 .1.1.1.1.2 0-.4.1-.8.2-1.2.7-4.5 1.9-12.9-2.7-20.7-2.8-4.6-6-6.9-9.6-6.9-.6 0-1.3.1-1.9.2l-1.1.6zM205.9 76.4c5.6 0 8.9 3.2 9.7 9.4 1.1 8.4-4.4 15.5-7.3 19.3-.2.3-.4.6-.6.8-6.3-3.4-10.7-7.3-11.7-15.1-.6-4.7-.6-12.8 6.5-14.2 1.2-.1 2.4-.2 3.4-.2m2.7 38.7h.1c.1 0 .3-.1.4-.3 0-.1.1-.1.1-.2.4-.7.9-1.5 1.5-2.5 5-8.2 14.4-23.4 11.7-42.1-2.2-15.2-9.1-20.6-15.8-22-.4-.1-.8-.2-1.1-.2-1.1-.2-2.2-.2-3.2-.2-1.7 0-3.5.2-5.4.6-10 2-14.2 13.6-11.7 31.9 2.4 17.6 10.9 26.7 23 34.9.1 0 .1.1.2.1h.2m-95.2-38.5c.1-.7 1.4-2.2 2.9-2.2.5 0 1.1.2 1.6.6 2.7 2 4.4 4.5 4.2 5.5-1 .7-1.8 1.2-2.9 1.2-.9 0-1.9-.3-3.1-.8-3.2-1.3-2.9-3.3-2.7-4.3m11.8 4.3c0-3-3.6-7.3-7.6-10.2-1.1-.8-2.3-1.2-3.5-1.2-3.4 0-6 3.2-6.3 5-.3 1.7-1 6.1 5.2 8.8 2.3 1 4.2 1.4 5.8 1.4 2.4 0 4.2-1 6.1-2.4.1 0 .1-.1.1-.2.1-.4.2-.8.2-1.2m-53.1 98.8c3.2 0 6 1.3 6.5 1.7 4.1 3.7 10.4 11 7.8 15-2.6.6-4.9.9-7 .9-2.3 0-4.6-.3-7.2-1.1-2.6-.7-7.4-2-8.8-5.3-.8-1.7-.5-3.8.7-6.3 1.5-3.2 4.3-4.9 8-4.9m-24.3 7.7c2.8 6.2 9.9 9.2 17.2 11.7 5.5 1.8 10.2 2.6 15.1 2.6 3.5 0 7.2-.4 11.4-1.3h.2c.1 0 .3-.1.3-.2.1-.2.2-.4.3-.5 5.1-9.1-8.5-23.8-14.7-29.7l-.1-.1c-1.2-1.2-8-4.9-14.9-4.9-6.5 0-11.3 3.2-13.9 9.3-1.2 2.8-1.8 5.4-1.9 7.8v1.1c.1 1.4.4 2.8 1 4.2m369.3 36.1c1.3 1.5 2.8 4.9.4 8.1-1.7 2.3-5.2 3.1-9.6 4.1-1.4.3-2.9.7-4.5 1.1.2-.7.4-1.4.6-2.3.9-3.5 2.1-8.2 5-11.2 1.4-1.4 2.7-2.1 4.1-2.1 1.9.2 3.3 1.5 4 2.3m-19.2 18.4c.1.1.3.2.4.2h.3c3.3-1.1 6.5-1.9 9.5-2.6 8-2.1 14.3-3.7 17.8-8.2 3-3.7 3.2-7.4 2.5-10.4-.1-.4-.2-.7-.3-1.1-.6-1.6-1.4-3-2.3-3.9-1.3-1.4-3.9-3.8-7.6-3.8-2.9 0-5.8 1.4-8.7 4.3-5.5 5.5-8 13.6-9.9 19.6-.6 2-1.2 3.8-1.7 5.2 0 .1 0 .1-.1.2s0 .3.1.5m-115.2 58.6c-.6.3-1.3.5-2 .6.5.4 1 .7 1.6 1 .1-.5.2-1.1.4-1.6m-22.1-28c.7 1.7 1.4 4.6 1.9 7.6.9-.3 1.9-.5 3-.5.7-3.1 2.4-5.7 4.6-7.6-.7-4.2-4.3-7.4-8.7-7.4-2.6 0-4.9 1.1-6.5 2.9 2.9 1.1 4.9 3.1 5.7 5m1.6 50.5c.5-.1 1.1-.1 1.6-.1.9 0 1.7.1 2.5.3.2-2.7 1.7-5 3.9-6.6-1.3-1.1-2.3-2.5-2.9-4.1-.5.1-1 .1-1.5.1-2.1 0-4.1-.6-5.8-1.6.2 3.9.6 7.8 1.4 11.7.3.1.5.2.8.3m6.3 1.1c1.4.8 2.5 1.9 3.3 3.2h.7c2.9 0 5.4 1.5 6.6 3.7.2 0 .3-.1.5-.1 0-1.8.7-3.5 2-4.8.7-.7 1.7-1.2 2.7-1.5-1.6-.8-2.9-1.9-3.9-3.4-.5-.7-.8-1.5-1.1-2.2-.7.1-1.3.2-2 .2-1.9 0-3.6-.4-5.1-1.2-2.2 1.3-3.7 3.5-3.7 6.1m-3.2 11.3c-.1-.5-.2-.9-.2-1.4 0-2.7 1.8-5.1 4.4-6.1-1.2-1.7-3.3-2.8-5.7-2.8-.6 0-1.2.1-1.7.2.8 3.5 1.8 6.9 3 10.3l.2-.2m2.1-1.4c0 .2 0 .4.1.6.6-.2 1.3-.3 2-.3 2.7 0 5 1.3 6.3 3.2 1.2-.8 2-2.1 2-3.5 0-2.5-2.3-4.5-5.2-4.5-2.9 0-5.2 2-5.2 4.5m32.7 10.4c1.1-.8 1.9-2 1.9-3.4 0-1.7-1.1-3.1-2.6-3.9-.4.1-.8.1-1.2.1-1 0-1.9-.2-2.9-.5h-.1c-.3.7-.8 1.4-1.4 2-.3.3-.7.6-1.1.8.1.1.2.3.3.4 3.1.4 5.8 2.1 7.1 4.5m-30.7 1.1c.3 0 .6 0 .8-.1.7-1.4 1.9-2.5 3.4-3.2.2-.7.5-1.4.9-2.1-.5-2.1-2.6-3.6-5.1-3.6-1.4 0-2.7.5-3.6 1.3.9 2.5 1.9 5.1 3 7.6.2 0 .4.1.6.1m4-.5c-1 .9-1.7 2.1-1.7 3.5 0 2.7 2.5 4.9 5.6 4.9.8 0 1.5-.1 2.2-.4-3.4-1.4-5.9-4.4-6.1-8m5.8 23.4c1.1-.8 2.4-1.2 3.9-1.2.3 0 .6 0 1 .1-.1-.5-.2-1.1-.2-1.6 0-1.9.9-3.6 2.3-4.8-.5-.9-.8-2-.8-3.1v-.3c-1.4-1.1-3.2-1.7-5.2-1.7-2.3 0-4.4.9-5.8 2.3.8 1.7 1.6 3.5 2.4 5.2.8 1.6 1.6 3.4 2.4 5.1m16.5-.7c.4-.6.6-1.3.6-2 0-.5-.1-.9-.3-1.3-.9.3-1.9.5-2.9.5-.5 0-1 0-1.5-.1 1.9.2 3.4 1.4 4.1 2.9m-4.2-3.1c-1.6-.3-2.9-1-4-2.1-.9.8-1.4 1.9-1.4 3.1 0 .2 0 .4.1.6 1.1-1 2.6-1.7 4.3-1.7.2 0 .6 0 1 .1m-2.4 7.2c.9.1 1.8.5 2.6 1 1.3-.5 2.3-1.6 2.3-2.9 0-1.7-1.6-3.1-3.6-3.1-1.5 0-2.7.7-3.3 1.8 1 .8 1.8 1.9 2 3.2m2.5 7.1c.3-.5.5-1 .5-1.6 0-1.6-1.3-2.9-3-3.3-.2.9-.7 1.8-1.4 2.5.6.4 1.4.9 2.4 1.4.4.4.9.7 1.5 1m-6.5-.8c-.2.1-.5.1-.7.2.5 1.4 2 2.4 3.8 2.4.4 0 .7-.1 1.1-.1-.2-.1-.4-.2-.5-.3-2-1.1-3.2-1.9-3.7-2.2m-2-1.9c.5 0 .9-.1 1.3-.2.3-.4.7-.6 1.2-.6.9-.6 1.5-1.6 1.5-2.6 0-1.9-1.8-3.4-3.9-3.4-1.1 0-2.2.4-2.9 1.1.9 1.9 1.7 3.8 2.5 5.7h.3m15.7-18.5c0-1.2-.5-2.2-1.3-3.1-1.6 1.1-3.5 1.7-5.6 1.7-1.4 0-2.6-.3-3.8-.7-.3.6-.6 1.3-.6 2.1 0 2.7 2.5 4.9 5.7 4.9 3.1 0 5.6-2.2 5.6-4.9m-10.4-17.2c-2.2-.2-4.3-1.3-6-3l-.2-.2c-3.8.6-6.7 3.6-6.7 7.1 0 3.9 3.6 7.1 8 7.2-.6-1.1-.9-2.3-.9-3.5.1-3.4 2.4-6.3 5.8-7.6m3.5 1.6c-3.8 0-7 2.7-7 6s3.1 6 7 6c3.8 0 7-2.7 7-6s-3.2-6-7-6M269.4 312c1.2 2.9 4.3 5 7.9 5 .6 0 1.2-.1 1.7-.2 0-.7.1-1.3.3-2 .7-2.6 2.9-4.5 5.7-5.3-1.4-1.5-2.2-3.2-2.5-4.9-1.8-.7-3.4-1.8-4.6-3.1h-1v.1c-.1 4.8-3.2 8.9-7.5 10.4m8.3-40.5c-4.7 0-8.6 3.5-9.9 8.3 4 .7 7.1 3.7 7.5 7.3 1-.4 2.1-.6 3.3-.6.5 0 1 0 1.4.1 2.1-1.4 4.8-2.2 7.7-2.2h.2c.1-.5.1-.9.1-1.4 0-6.3-4.6-11.5-10.3-11.5m10 15.2c-1.7 0-3.3.3-4.7.9 2.6 1.3 4.4 3.7 4.4 6.4 0 1-.2 1.9-.6 2.8.7-.2 1.4-.4 2.2-.4 2.4 0 4.9 1.1 6.7 3 .2.2.3.3.4.5 1.2-1.4 1.9-3 1.9-4.8 0-4.7-4.6-8.4-10.3-8.4m-24.7 4.2c.9-.2 1.8-.4 2.8-.4 1.6 0 3.1.4 4.5 1 .5-1.3 1.5-2.5 2.8-3.3v-.3c0-3.3-3.3-6-7.3-6-1 0-2 .2-2.9.5.3 1.9.5 3.7.6 5 0 1-.1 2.3-.5 3.5m18.4 24.5c-.4 1.5-.1 3.1.8 4.6 1 1.5 2.6 2.6 4.5 3.2.8.2 1.6.4 2.5.4.3 0 .5 0 .8-.1.2-.2.4-.5.6-.7.5-.5 1.1-.9 1.8-1.2-.6-.4-1.2-.9-1.7-1.4-2.3-2.4-3.2-5.6-2.6-8.3-.3-.1-.6-.3-.9-.5-2.8.1-5.1 1.7-5.8 4m-4.9-16.6c.7.2 1.4.3 2.2.3 3.6 0 6.6-2.3 6.6-5.2s-2.9-5.2-6.6-5.2c-3.1 0-5.6 1.7-6.4 3.9 2 1.6 3.5 3.7 4.2 6.2m13.5 9.9c1.2-1.2 2.9-1.8 4.7-1.8.5 0 1 .1 1.4.1.1-.5.2-1 .1-1.6-.1-1.6-.9-3.2-2.2-4.5-1.4-1.5-3.3-2.3-5.1-2.3-1.3 0-2.4.4-3.2 1.2-2 2-1.7 5.7.9 8.3.7.7 1.5 1.3 2.4 1.7.3-.4.6-.8 1-1.1m-6 27.3c1.4 1.5 3.3 2.3 5.1 2.3 1.3 0 2.4-.4 3.2-1.2.4-.4.7-.9.9-1.4-.6-.4-1.2-.9-1.8-1.4-2-2.1-3-4.8-2.8-7.3-.8-.3-1.6-.5-2.4-.5-1.3 0-2.4.4-3.2 1.2-1.9 2-1.5 5.7 1 8.3m17.4-2.2c1-.9 1.4-2.3 1.3-3.8-.1-1.6-.9-3.2-2.2-4.5-1.4-1.5-3.3-2.3-5.1-2.3-1.3 0-2.4.4-3.2 1.2-2 2-1.7 5.7.9 8.3 1.4 1.5 3.3 2.3 5.1 2.3 1.3 0 2.4-.4 3.2-1.2m-6.7-24.7c-1.3 0-2.4.4-3.2 1.2-2 2-1.7 5.7.9 8.3 1.4 1.5 3.3 2.3 5.1 2.3 1.3 0 2.4-.4 3.2-1.2 1-.9 1.4-2.3 1.3-3.8-.1-1.6-.9-3.2-2.2-4.5-1.4-1.5-3.3-2.3-5.1-2.3M260.8 296c-.1.3-.1.5-.2.8v.2c0 .2-.1.5-.1.8v.2c0 .2-.1.5-.1.7v.3c0 .2-.1.5-.1.7v.3c0 .2 0 .5-.1.7v7.5c1.6 1.4 3.6 2.2 5.8 2.2 4.9 0 8.8-3.9 8.8-8.8s-3.9-8.8-8.8-8.8c-1.6 0-3.1.4-4.4 1.2-.4.6-.6 1.2-.8 2 0-.1 0-.1 0 0m-18.2-27.6c-1.6-2.3-4.2-3.7-7.2-3.7-4.4 0-8 3.2-8.7 7.4 2.3 1.9 3.9 4.5 4.6 7.6 2 0 3.8.6 5.3 1.6.5-3.4 1.3-6.8 2.1-8.7.7-1.6 2-3.1 3.9-4.2m-4.3 41.5c-1.9 1.7-4.4 2.7-7.2 2.7-.5 0-1 0-1.5-.1-.6 1.6-1.6 3-2.9 4.1 2.2 1.6 3.6 3.9 3.9 6.6.8-.2 1.7-.3 2.6-.3.5 0 1.1 0 1.6.1 1.6-.7 3-2 3.9-3.5.4-2.4.7-4.8.8-7.2-.3-.9-.7-1.6-1.2-2.4m-9.9 14.1c0-2.5-1.5-4.7-3.7-6-1.5.8-3.3 1.2-5.1 1.2-.7 0-1.4-.1-2-.2-.2.8-.6 1.5-1.1 2.2-1 1.4-2.3 2.6-3.9 3.4 1 .3 1.9.8 2.7 1.5 1.3 1.3 1.9 3 2 4.8.2.1.3.1.5.1 1.2-2.2 3.7-3.7 6.6-3.7h.7c.7-1.3 1.9-2.4 3.3-3.3m4.8 1.1c-2.4 0-4.5 1.1-5.7 2.8 2.6 1.1 4.4 3.4 4.4 6.1 0 .5-.1 1-.2 1.4.6.4 1.2.9 1.7 1.4.3 0 .5 0 .8-.1 1.2-3.5 2.3-7 3.2-10.5-1.3-.6-2.7-1.1-4.2-1.1m-3.7 9.5c0-.2.1-.4.1-.6 0-2.5-2.3-4.5-5.2-4.5-2.8 0-5.2 2-5.2 4.5 0 1.4.8 2.7 2 3.5 1.3-1.9 3.6-3.2 6.3-3.2.7 0 1.4.1 2 .3m-25.6 5.4c.1-.1.2-.3.3-.4-.4-.2-.8-.5-1.1-.8-.6-.6-1-1.2-1.4-2h-.1c-.9.3-1.9.5-2.8.5-.4 0-.8 0-1.2-.1-1.6.8-2.6 2.2-2.6 3.9 0 1.4.7 2.6 1.9 3.4 1.3-2.5 3.9-4.2 7-4.5m23.6-3.5c-2.5 0-4.6 1.6-5.1 3.6.4.7.7 1.3.9 2.1 1.5.7 2.7 1.8 3.4 3.2.3 0 .5.1.8.1 1.6 0 3-.6 3.9-1.6.4-1 .8-2 1.2-3.1-.1-2.4-2.3-4.3-5.1-4.3m-2.3 12c0-1.4-.6-2.6-1.7-3.5-.2 3.6-2.7 6.6-6.1 8 .7.2 1.4.4 2.2.4 3.1 0 5.6-2.2 5.6-4.9m-1 11.7c-1.1-2.6-4-4.5-7.4-4.5-2 0-3.8.7-5.2 1.7v.3c0 1.1-.3 2.2-.8 3.1 1.4 1.2 2.3 2.9 2.3 4.8 0 .6-.1 1.1-.2 1.6.3 0 .6-.1 1-.1 1.9 0 3.6.8 4.7 2 .6-.1 1.1-.3 1.6-.5.9-1.8 1.7-3.7 2.6-5.6.5-.9.9-1.8 1.4-2.8m-19 4.4c-.5.1-1 .1-1.5.1-1 0-2-.2-2.9-.5-.2.4-.3.9-.3 1.3 0 .7.2 1.4.6 2 .8-1.3 2.3-2.5 4.1-2.9m.2 0c.4-.1.7-.1 1.1-.1 1.7 0 3.2.7 4.3 1.7 0-.2.1-.4.1-.6 0-1.2-.6-2.3-1.4-3.1-1.1 1.1-2.5 1.8-4.1 2.1m-.2 8.1c.7-.5 1.6-.8 2.6-.9.3-1.3 1-2.4 2.1-3.2-.6-1.1-1.8-1.8-3.3-1.8-2 0-3.6 1.4-3.6 3.1-.1 1.3.9 2.4 2.2 2.8m5.5 5c-1.5-.8-2.5-2.1-2.9-3.6-1.7.4-3 1.7-3 3.3 0 1.2.7 2.2 1.8 2.8 1.3-.8 2.4-1.5 3.4-2.1.3-.2.5-.3.7-.4m7.1-4.9c0-1.9-1.8-3.4-4-3.4s-4 1.5-4 3.4c0 1.7 1.5 3.1 3.3 3.3.4-.3.7-.4.7-.4.5-.3 1.1-.2 1.5.2 1.5-.5 2.5-1.7 2.5-3.1m-8.4-15.1c0-.7-.2-1.4-.6-2.1-1.2.5-2.5.7-3.8.7-2.1 0-4.1-.7-5.6-1.7-.8.8-1.3 1.9-1.3 3.1 0 2.7 2.5 4.9 5.6 4.9s5.7-2.2 5.7-4.9m11.9-13.2c0-3.5-2.9-6.4-6.7-7.1 0 .1-.1.1-.2.2-1.7 1.7-3.8 2.8-6 3 3.3 1.2 5.7 4.2 5.7 7.6 0 1.3-.3 2.5-.9 3.5 4.6-.1 8.1-3.3 8.1-7.2m-16.3-2.4c-3.8 0-7 2.7-7 6s3.1 6 7 6c3.8 0 7-2.7 7-6s-3.1-6-7-6m15.1-40.5v-.1h-1c-1.2 1.3-2.8 2.4-4.6 3.1-.3 1.7-1.2 3.4-2.5 4.9 2.8.8 4.9 2.7 5.7 5.3.2.7.3 1.3.3 2 .6.1 1.1.2 1.7.2 3.6 0 6.6-2.1 7.9-5-4.4-1.5-7.5-5.6-7.5-10.4m9-21.8c-1.3-4.8-5.2-8.3-9.9-8.3-5.7 0-10.3 5.2-10.3 11.5 0 .5 0 .9.1 1.4h.2c2.9 0 5.5.8 7.7 2.2.5-.1.9-.1 1.4-.1 1.2 0 2.3.2 3.3.6.4-3.6 3.5-6.6 7.5-7.3m-19.9 6.9c-5.7 0-10.3 3.8-10.3 8.4 0 1.8.7 3.5 1.9 4.8.1-.2.3-.3.4-.5 1.9-1.9 4.3-3 6.7-3 .8 0 1.5.1 2.2.4-.4-.9-.6-1.8-.6-2.8 0-2.7 1.8-5.1 4.4-6.4-1.5-.6-3-.9-4.7-.9m7 14.4c-.7-.1-1.4-.4-2-.6.2.5.3 1.1.4 1.7.6-.3 1.1-.7 1.6-1.1m19.7-13.7c.1-1 .2-2.3.4-3.7-1.3-1.1-3.2-1.8-5.2-1.8-4 0-7.3 2.7-7.3 6v.3c1.3.9 2.2 2 2.8 3.3 1.4-.6 2.9-1 4.5-1 2 0 3.8.5 5.4 1.4.1-.1.2-.2.3-.2-.8-1.5-.9-3.1-.9-4.3M214.7 320c1-1.4 1.3-3.1.8-4.5-.7-2.3-3-3.9-5.9-4-.3.2-.6.3-.9.5.6 2.7-.3 5.9-2.6 8.3-.5.5-1.1 1-1.7 1.4.7.3 1.3.7 1.8 1.2.2.2.4.4.6.7.3 0 .5.1.8.1.8 0 1.6-.1 2.5-.4 1.9-.7 3.5-1.8 4.6-3.3m9.9-27.3c-.7-2.2-3.3-3.9-6.4-3.9-3.6 0-6.6 2.3-6.6 5.2 0 2.9 2.9 5.2 6.6 5.2.8 0 1.5-.1 2.2-.3.7-2.6 2.2-4.7 4.2-6.2m-13.5 7.1c-.8-.8-1.9-1.2-3.2-1.2-1.8 0-3.7.9-5.1 2.3-1.2 1.3-2 2.9-2.2 4.5 0 .5 0 1.1.1 1.6.5-.1.9-.1 1.4-.1 1.8 0 3.5.7 4.7 1.8.4.3.7.7.9 1.1.9-.4 1.7-1 2.4-1.7 2.7-2.6 3.1-6.3 1-8.3m-3.3 38.5c1.8 0 3.7-.9 5.1-2.3 2.5-2.6 2.9-6.3.9-8.3-.8-.8-1.9-1.2-3.2-1.2-.8 0-1.6.2-2.4.5.2 2.4-.7 5.2-2.8 7.3-.5.6-1.1 1-1.8 1.4.2.5.5 1 .9 1.4.9.8 2 1.2 3.3 1.2m-9.1-3.3c1.8 0 3.7-.9 5.1-2.3 2.5-2.6 2.9-6.3.9-8.3-.8-.8-1.9-1.2-3.2-1.2-1.8 0-3.7.8-5.1 2.3-1.2 1.3-2 2.9-2.2 4.5-.1 1.5.3 2.9 1.3 3.8.9.8 1.9 1.2 3.2 1.2m.7-14.1c1.8 0 3.7-.8 5.1-2.3 2.5-2.6 2.9-6.3.9-8.3-.8-.8-1.9-1.2-3.2-1.2-1.8 0-3.7.9-5.1 2.3-1.3 1.3-2 2.9-2.2 4.5-.1 1.5.3 2.9 1.3 3.8.9.8 2 1.2 3.2 1.2m40.1-18.7c-.1-1.5-.2-2.9-.4-4.3-1.4-3-4.4-5.1-8-5.1-4.9 0-8.8 3.9-8.8 8.8s3.9 8.8 8.8 8.8c4 0 7.4-2.7 8.4-6.3 0-.6 0-1.2-.1-1.7.1-.1.1-.1.1-.2m-79.3 221.1h-3.9v16.3h3.8v-10.5l5.9 10.5h3.9v-16.3h-3.7v10.6l-6-10.6zm-9.2 16.3l-5.9-16.3h-3.5l-5.8 16.3h4l.6-2h5.8l.6 2h4.2zm-5.7-5h-4l2-6.7 2 6.7zm-11-11.3h-4.1l-3.5 11.5-3.5-11.5h-4l5.8 16.3h3.5l5.8-16.3zm-20.1 3v-3h-9.9v16.3h9.9v-3H108V533h6.2v-3H108v-3.7h6.2zm-24.5.3c.8 0 1.4.1 2 .4.6.3 1.1.6 1.5 1.1s.7 1 .9 1.6c.2.6.3 1.2.3 1.8s-.1 1.2-.3 1.8c-.2.6-.5 1.1-.9 1.6s-.9.8-1.5 1.1-1.3.4-2 .4h-2v-9.8h2zm-5.8-3.3v16.3h6c1.3 0 2.6-.2 3.6-.7 1.1-.5 1.9-1.1 2.7-1.8.7-.8 1.3-1.6 1.6-2.6.4-1 .6-2 .6-3s-.2-2-.6-3-.9-1.8-1.7-2.6c-.7-.8-1.6-1.4-2.7-1.8-1-.5-2.2-.7-3.6-.7h-5.9v-.1zm-5.2 16.3l-5.9-16.3h-3.5l-5.8 16.3h4l.6-2H74l.6 2h4.1zm-5.7-5h-4l2-6.7 2 6.7zm-18.5 5h3.7v-16.3h-3.7v6.6h-5.6v-6.6h-3.8v16.3h3.8v-6.5h5.6v6.5zm-14.6 0L34 523.3h-3.5l-5.8 16.3h4l.6-2h5.8l.6 2h4.2zm-5.7-5h-4l2-6.7 2 6.7zm-14.7-11.3h-4.3l-4.3 11.3-4.4-11.3H2.2v16.3h3.7v-10.1l3.6 10.1h2.8l3.5-10.1v10.1h3.7v-16.3zM153.8 485h-6.4v26.6h6.2v-17.1l9.6 17.1h6.4V485h-6.1v17.4l-9.7-17.4zM110 502.6c0 1.4.2 2.7.7 3.8.5 1.2 1.2 2.2 2.1 3.1s2 1.6 3.3 2.1c1.3.5 2.7.8 4.3.8 1.6 0 3-.3 4.3-.8s2.4-1.2 3.3-2.1 1.6-1.9 2.1-3.1.7-2.5.7-3.8V485h-6.2v17.5c0 .6-.1 1.2-.3 1.7-.2.5-.5 1-.9 1.4s-.8.7-1.3 1c-.5.2-1.1.4-1.7.4s-1.2-.1-1.7-.4c-.5-.2-.9-.6-1.3-1s-.7-.9-.9-1.4c-.2-.5-.3-1.1-.3-1.7V485H110v17.6zM93.7 485h-6.1v17.5c0 1.4-.3 2.5-.9 3.3S85.2 507 84 507s-2.1-.4-2.7-1.3-.9-2-.9-3.3h-6.2c0 1.4.2 2.7.6 3.9.4 1.2 1 2.2 1.8 3.1s1.8 1.6 3 2.1 2.6.8 4.2.8c3.1 0 5.5-.8 7.2-2.5s2.6-4.1 2.6-7.3l.1-17.5zm-54.2 26.7h6.2v-7.4h2.9l4.7 7.4h7.2l-5.3-8.4c1.7-.8 3-1.9 3.9-3.5.9-1.5 1.4-3.2 1.4-5.1 0-1.3-.2-2.5-.7-3.7s-1.1-2.2-2-3.1-1.9-1.6-3.1-2.1c-1.2-.5-2.5-.8-4-.8H39.5v26.7zm6.1-12.5V490h4.2c.6 0 1.2.1 1.8.4.5.3 1 .6 1.4 1s.7.9.9 1.5.3 1.1.3 1.8-.1 1.2-.3 1.8c-.2.6-.5 1-.9 1.5s-.8.8-1.4 1-1.1.4-1.8.4h-4.2v-.2zm-20.8 12.5L15.2 485H9.5L0 511.7h6.6l1-3.2h9.5l1 3.2h6.7zm-9.2-8.1H9.1l3.3-11 3.2 11zm474.1 23c.8 0 1.4.1 2 .4.6.3 1.1.6 1.5 1.1s.7 1 .9 1.6c.2.6.3 1.2.3 1.8s-.1 1.2-.3 1.8c-.2.6-.5 1.1-.9 1.6s-.9.8-1.5 1.1-1.3.4-2 .4h-2v-9.8h2zm-5.8-3.3v16.3h6c1.3 0 2.6-.2 3.6-.7 1.1-.5 1.9-1.1 2.7-1.8.7-.8 1.3-1.6 1.6-2.6.4-1 .6-2 .6-3s-.2-2-.6-3-.9-1.8-1.7-2.6-1.6-1.4-2.7-1.8c-1-.5-2.2-.7-3.6-.7h-5.9v-.1zm-11.3 13v-13h-3.8v16.3h8.4v-3.3h-4.6zm-11.2-10v-3h-9.9v16.3h9.9v-3h-6.2V533h6.2v-3h-6.2v-3.7h6.2zM440 539.6h3.8v-16.3H440v16.3zm-7.4-13.1v-3.2h-9.9v16.3h3.8V534h6.2v-3.1h-6.2v-4.4h6.1zm-29.2 7.7c0 .9.2 1.8.5 2.5s.7 1.3 1.3 1.8c.6.5 1.2.9 2 1.1.8.3 1.6.4 2.4.4.9 0 1.7-.1 2.5-.3.7-.2 1.4-.6 1.9-1s1-1 1.3-1.6c.3-.7.5-1.4.5-2.2s-.2-1.5-.5-2.1-.8-1-1.3-1.4-1.2-.7-1.8-1c-.7-.3-1.4-.5-2-.8-.7-.2-1.3-.5-1.7-.8s-.6-.7-.6-1.3.2-1 .6-1.3.9-.4 1.4-.4c.7 0 1.2.2 1.5.6.3.4.5 1 .5 1.7h3.8c0-.7-.1-1.4-.4-2-.2-.6-.6-1.2-1.1-1.7s-1.1-.9-1.8-1.1c-.7-.3-1.6-.4-2.5-.4-.7 0-1.5.1-2.2.3s-1.3.5-1.8.9-.9.9-1.3 1.4c-.3.6-.5 1.2-.5 2s.1 1.5.4 2.1.7 1 1.2 1.4 1.1.7 1.8 1c.7.3 1.4.6 2.1.8.4.1.7.3 1 .4.3.1.6.3.8.5.2.2.4.4.5.6s.2.5.2.8c0 .6-.2 1-.6 1.4-.4.3-.9.5-1.5.5-.8 0-1.4-.2-1.9-.7s-.7-1.2-.7-2.1h-4zm-16.6-10.9h-3.9v16.3h3.8v-10.5l5.9 10.5h3.9v-16.3h-3.7v10.6l-6-10.6zm-10.1 16.3l-5.9-16.3h-3.5l-5.8 16.3h4l.6-2h5.8l.6 2h4.2zm-5.7-5h-4l2-6.7 2 6.7zm-15.7-11.3H351l-4.3 11.3-4.4-11.3H338v16.3h3.7v-10.1l3.6 10.1h2.8l3.5-10.1v10.1h3.7v-16.3zM500 511.7l-9.6-26.6h-5.7l-9.5 26.6h6.6l1-3.2h9.5l1 3.2h6.7zm-9.2-8.1h-6.5l3.3-11 3.2 11zm-33.5 8.1h6.2V485h-6.2v26.7zM446 485h-6.7l-5.7 18.8-5.8-18.8h-6.6l9.5 26.6h5.7L446 485zm-42.3 26.7h6.2V485h-6.2v26.7zm-20-5.4V485h-6.2v26.6h13.7v-5.3h-7.5zm-36.2-.2c-1-.5-1.8-1.1-2.5-1.9s-1.2-1.7-1.5-2.7-.5-2.1-.5-3.2.2-2.1.5-3.2c.4-1 .9-1.9 1.5-2.7.7-.8 1.5-1.4 2.5-1.9s2.1-.7 3.3-.7c1.2 0 2.3.2 3.3.7s1.8 1.1 2.5 1.9 1.2 1.7 1.5 2.7c.4 1 .5 2.1.5 3.2s-.2 2.1-.5 3.2-.9 1.9-1.5 2.7c-.7.8-1.5 1.4-2.5 1.9s-2.1.7-3.3.7c-1.2 0-2.3-.2-3.3-.7m9.2 5.1c1.7-.8 3.2-1.8 4.4-3.1 1.2-1.3 2.1-2.8 2.8-4.5.6-1.7 1-3.4 1-5.3s-.3-3.6-1-5.3c-.6-1.7-1.6-3.2-2.8-4.5-1.2-1.3-2.7-2.3-4.4-3.1-1.7-.8-3.7-1.2-5.9-1.2s-4.2.4-5.9 1.2c-1.8.8-3.2 1.8-4.5 3.1-1.2 1.3-2.1 2.8-2.8 4.5-.6 1.7-1 3.4-1 5.3s.3 3.6 1 5.3c.6 1.7 1.6 3.2 2.8 4.5 1.2 1.3 2.7 2.3 4.5 3.1 1.8.8 3.7 1.2 5.9 1.2 2.2-.1 4.2-.4 5.9-1.2m-101.4 12.9v-8.2h7.9v-6.5h-7.9v-8.2h-7v8.2h-7.9v6.5h7.9v8.2"/>
  <path fill="#2D6964" d="M436.6 214.8c.1-1.5.2-4 2-5.6 1.5-1.4 2.9-1.2 4.2.5 1.2 1.5-.3 3.1-1.3 4s-2 1.3-3.3 1.3c-.4 0-.9-.1-1.6-.2zm-2.8 2.4c.1.1.2.2.4.2h.2c1 .1 1.8.2 2.7.2 3.8 0 6.7-1.2 9.7-3.7 4.4-3.9 5.7-7.6 3.7-10.2-2.8-3.6-6.7-3.7-10.8-.1-4.4 3.9-5.3 9.3-5.8 12.2 0 .3-.1.5-.1.7v.2c-.1.3 0 .4 0 .5M178.1 31.3c2.1 0 3.3 1.2 3.9 3.6.8 3.6-1.3 7-2.4 8.8 0 .1-.1.1-.1.2-2.8-1.2-4.8-2.7-5.5-6-.5-2-.8-5.5 2.1-6.3.7-.2 1.4-.3 2-.3m2.4 17.4h.2c.1 0 .3-.2.3-.3v-.1c.2-.3.3-.7.5-1.1 1.9-4 5.5-11.3 3.4-19.8-1.9-7.9-6.2-9.5-9.4-9.5-1.1 0-2.3.2-3.5.6-4.6 1.4-6.1 7-4.1 15.3 1.9 7.9 6.1 11.7 11.9 14.8.1.1.2.1.3.2.2-.1.3-.1.4-.1m233.9 210.9h-.2c-5.2 0-9.3 2.5-9.4 5.7 0 3.2 4.1 5.8 9.4 5.9h.2c5.2 0 9.3-2.5 9.4-5.7 0-1.1-.4-2.1-1.3-3-1.7-1.8-4.7-2.8-8.1-2.9m48.6 53.3h-.2c-4.3 0-7.8 2.1-7.8 4.8 0 2.7 3.4 4.9 7.8 5h.2c4.3 0 7.8-2.1 7.8-4.8 0-.9-.4-1.8-1.1-2.6-1.4-1.4-3.9-2.3-6.7-2.4m-108.4 49.8c.8 1.1 1.6 3.6-.3 5.7-1.4 1.5-3.9 1.8-7.1 2.2-1 .1-2 .2-3.1.4.2-.4.3-.9.5-1.3.9-2.5 2.1-5.7 4.4-7.6.9-.8 1.9-1.2 2.7-1.2 1.5 0 2.5 1.2 2.9 1.8m-15.2 11.8c.1.1.2.2.4.2h.2c2.5-.5 4.8-.9 7.1-1.2 5.9-.9 10.6-1.6 13.5-4.6 4.2-4.3 2.7-9.1 1.1-11.3-.9-1.3-2.9-3.4-6-3.4-1.9 0-3.9.8-6 2.5-4.4 3.5-6.9 9.2-8.7 13.4-.5 1.2-1 2.3-1.5 3.2-.1.2-.2.3-.3.5 0 .3.1.6.2.7M330 195.9c-.4 3.2-2 6-4.1 7.3-3.8 2.3-7 4.2-11.3 4.2-.6 0-1.2 0-1.8-.1-.8-5.1.1-16.3 4.7-20.4 1.6-1.5 3.2-2.2 4.8-2.2 1.9 0 3.7 1 5.7 3.1 1.6 1.8 2.4 4.9 2 8.1m1.1-31.1c-4 0-8.3 1.9-12.6 5.6-10.8 9.3-14 33.3-12.7 43.2v.2c0 .3.3.5.5.5h.4c.7 0 1.4.1 2 .1 10.9 0 18.9-4.9 28.2-10.5 5.7-3.5 9.9-10.8 10.8-18.6.7-6.1-.9-11.4-4.4-14.7-.9-.9-1.9-1.7-2.8-2.3l-.9-.6c-2.2-1.5-4.4-2.4-6.7-2.7-.4-.1-.7-.1-1.1-.1-.2-.1-.4-.1-.7-.1M448.5 318c.2-.2.4-.4.6-.7 2.8-3.1 8.1-8.9 15.5-9.3 3.3-.1 5.7.6 7.4 2.3 1.6 1.7 2.4 4.2 2.4 7.6-.1 6.3-7 7.5-11.1 7.7-6.9.4-10.9-2.7-14.8-7.6m46.9-12.9c-3.6-3.6-9.2-5.5-16.6-5.5h-1.7c-16.6.6-28.3 11-34.6 16.6-.7.7-1.4 1.3-2 1.8-.1.1-.2.2-.2.3v.1c0 .2 0 .3.2.4l.5.5c8.4 8.5 17 14.1 31.1 14.1h2.2c16.2-.6 25.6-6.1 25.8-15 0-5.6-1.5-10.1-4.7-13.3M294.1 76.4c1.1 0 2.2.1 3.4.4 7.1 1.4 7.1 9.5 6.5 14.2-1 7.7-5.4 11.6-11.7 15.1-.2-.3-.4-.5-.6-.8-3-3.8-8.4-10.9-7.3-19.3.8-6.5 4.1-9.6 9.7-9.6m-2.9 38.7h.1c.1 0 .2 0 .3-.1.1 0 .1-.1.2-.1 12-8.2 20.6-17.3 23-34.9 2.5-18.3-1.7-29.9-11.7-31.9-1.9-.4-3.7-.6-5.4-.6-1.1 0-2.1.1-3.2.2-.4.1-.8.1-1.1.2-6.7 1.5-13.7 6.8-15.8 22-2.7 18.7 6.7 34 11.7 42.1.6.9 1.1 1.7 1.5 2.5 0 .1.1.1.1.2.1.3.2.4.3.4m125.3 160.7c-.6.2-1.3.2-2.1.2-6.2 0-15.9-4.6-22.1-9.3 4.2-3.2 13.8-9.8 23.2-10.7.6-.1 1.1-.1 1.6-.1 4.6 0 7.1 2 8.4 3.7 1.6 2.1 2.3 4.9 1.7 7.1-1.1 4.4-4.9 7.6-10.7 9.1m-32.9-9.6c-.1.1-.2.2-.3.2-.1.1-.2.3-.2.4 0 .2.1.3.2.4 11.8 9.7 30.8 19.7 42.3 19.7 1.2 0 2.4-.1 3.4-.4 10.8-2.5 17.8-8.6 19.6-17.1.3-1.3.3-2.6.3-4 0-.4-.1-.7-.1-1.1-.4-3.5-2-7.2-4.3-10.1-1.1-1.4-2.6-2.8-4.5-4.1-.3-.2-.7-.5-1.1-.7-2.8-1.6-6.5-2.8-11.3-2.8-.7 0-1.4 0-2.1.1-2.5.2-5 .6-7.5 1.2-.8.2-1.7.4-2.5.7-13.8 4.1-26.3 13.1-31.9 17.6M78.5 117c-2-1.9-4.4-3-6.4-3-1.1 0-2.1.4-2.8 1.1-.6.7-1 1.6-.9 2.7 0 2.1 1.3 4.4 3.3 6.4 2 1.9 4.4 3 6.4 3 1.1 0 2.1-.4 2.8-1.1 1.9-2 .8-6-2.4-9.1m-5.6 241.5c-1.6-3.7.6-6.7 2.2-7.8.7-.5 2-1.3 3.5-1.3 1.7 0 3.2 1 4.4 3.1 2.2 3.6 2.3 8.4 2.3 12 0 .9 0 1.6.1 2.3-1.4-.8-2.8-1.4-4.1-2.1-4-2-7.2-3.5-8.4-6.2M89.3 373c.1 0 .2 0 .3-.1.1 0 .1-.1.1-.2.1-.1.1-.3.1-.4-.3-1.5-.4-3.4-.5-5.7-.4-6.2-1-14.7-5.2-21.3-2.7-4.2-5.8-6.3-9.4-6.3H74c-.6 0-1.2.2-1.8.3-1.6.4-2.9 1.2-3.8 1.8-3 2.1-7.1 7.6-3.6 14.9 2.4 5.1 8.2 8.2 15.5 12 2.6 1.4 5.4 2.8 8.2 4.5.2.1.3.2.5.3.1.2.2.2.3.2m57.6-278.7c2 0 3.3 1.2 3.9 3.6.9 3.6-1.2 7-2.3 8.9 0 .1-.1.1-.1.2-2.8-1.2-4.8-2.7-5.6-5.9-.5-2-.9-5.5 2-6.4.7-.2 1.4-.4 2.1-.4m2.4 16.4c.3-.1.6.1.7.4v.2c.1-.3.3-.7.5-1.1 1.9-4 5.3-11.4 3.1-19.8-2-7.8-6.2-9.4-9.4-9.4-1.1 0-2.4.2-3.7.6-2.1.7-3.5 2.2-4.2 4.4-.1.4-.2.7-.3 1.1-.5 2.6-.3 5.9.7 9.9 2 7.9 6.3 11.6 12.2 14.7l-.1-.2c0-.5.2-.8.5-.8m-84.8 1.5c2.5-3 5.1-4.5 7.8-4.5 2.2 0 4.6 1.1 6.9 3.2 5.7 5.3 6 13.6 6.2 18v1c-2.3.4-4.2.7-5.9.7-4.4 0-7.9-1.4-11.2-4.5-3.3-3-8-8.8-3.8-13.9m27.2 23.2c0-.2-.1-.5-.1-.7-.1-.6-.2-1.3-.3-2.1-1.2-8.8-3.6-25.2-16.5-37-6-5.4-11.7-8.2-17-8.2-5.2 0-10 2.6-14.2 7.7-5.9 7.3-2.1 18.1 10.5 29.6 8.9 8.2 17.8 11.7 29.6 11.7 2.3 0 4.8-.1 7.5-.4.1 0 .2-.1.3-.2h.1c.1-.1.2-.2.1-.4m.3 168.3c.7-.9 1.5-1.4 2.3-1.4.6 0 1.3.3 2 .9 1.8 1.6 1.9 4.1 2 5.6-.6.1-1.2.2-1.7.2-1.3 0-2.3-.4-3.3-1.3-1-.8-2.5-2.5-1.3-4m9 7.6c.1-.1.1-.3.1-.4v-.2c0-.2-.1-.4-.1-.7-.5-2.9-1.3-8.4-5.8-12.2-4.1-3.6-8-3.5-10.8.1-2 2.6-.7 6.3 3.7 10.2 2.9 2.6 5.9 3.7 9.7 3.7.8 0 1.7-.1 2.7-.2h.2l.3-.3M57.1 209.7c.7-.9 1.5-1.4 2.3-1.4.6 0 1.3.3 2 .9 1.8 1.6 1.9 4.1 2 5.6-.6.1-1.2.2-1.7.2-1.3 0-2.3-.4-3.3-1.3s-2.4-2.6-1.3-4m9.1 7.5c.1-.1.1-.3.1-.4v-.2c0-.2-.1-.4-.1-.7-.5-2.9-1.3-8.4-5.8-12.2-4.1-3.6-8-3.5-10.8.1-2 2.6-.7 6.3 3.7 10.2 2.9 2.6 5.9 3.7 9.7 3.7.8 0 1.7-.1 2.7-.2h.2c0-.1.2-.1.3-.3m75.5 45.1c.4 0 .8 0 1.3.1 3.3.7 5.3 3.7 6.4 5.3 0 .1.1.1.1.1-2.5 2.2-4.4 2.8-7 2.3-1.8-.4-4.8-1.4-4.4-4.1.3-2.4 1.5-3.7 3.6-3.7m-5.1 11.4c1.5.3 3 .4 4.3.4 4.3 0 8.1-1.4 12.5-4.8-.1 0-.2 0-.2-.1-.3-.1-.5-.4-.4-.7.1-.3.4-.5.7-.4h.2c-.2-.2-.4-.5-.7-.8-2.6-3.1-7.3-8.9-15.2-10.4-1.3-.2-2.4-.4-3.5-.4s-2.1.1-2.9.4c-.5.1-1 .3-1.4.5-3.1 1.4-4.2 4.3-4.5 6.9-.1.5-.1.9 0 1.3 0 .4.1.8.2 1.1.9 3.4 4.7 5.8 10.9 7M264.8 81.6c.5 0 .8.1 1 .2.9.4 2.6 1.4 1.8 4.6-.9 3.4-2.2 4.1-4 4.6-1-.5-2-3.3-1.9-6.7 0-2.6 2.6-2.7 3.1-2.7m-1.6 12.7h.1c.1 0 .2-.1.3-.1 3.8-1.1 6.2-2.9 7.7-8.8 1.7-6.6-2.3-8.7-3.8-9.4-.5-.3-1.4-.4-2.3-.4-3.2 0-6.5 1.9-6.7 6-.2 5.3 1.3 11.1 3.9 12.5.2.1.4.2.6.2h.2m90.1 146.5c.5.7 1.4 1 2.5 1 1.5 0 3.2-.7 4.7-1.9 1.7-1.3 2.8-3.1 2.9-4.6.1-.8-.1-1.6-.6-2.2-1.3-1.6-4.6-1.2-7.1.9-2.7 2.2-3.7 5.1-2.4 6.8m56.3 160.7c.1-3.6.2-8.4 2.3-12 1.2-2 2.7-3.1 4.4-3.1 1.5 0 2.8.8 3.5 1.3 1.6 1.1 3.8 4.1 2.2 7.8-1.2 2.7-4.4 4.2-8.4 6.2-1.3.7-2.7 1.3-4.1 2.1.1-.7.1-1.5.1-2.3m10.6-25.4c-3.6 0-6.8 2.1-9.4 6.3-4.2 6.6-4.7 15.1-5.2 21.3-.1 2.2-.3 4.1-.5 5.7 0 .2.1.4.2.6.1.1.2.1.3.1.1 0 .1 0 .2-.1h.1c.9-.6 1.8-1.1 2.8-1.6 2-1.1 4-2.2 6-3.2 5-2.6 9.2-4.8 12.2-7.6.6-.6 1.2-1.2 1.7-1.9.6-.8 1.1-1.6 1.6-2.5 1.5-3.1 1.6-5.9 1-8.3-.1-.4-.2-.8-.3-1.1-1-2.6-2.7-4.5-4.2-5.6-.9-.6-2.1-1.3-3.6-1.7l-1.2-.3c-.7 0-1.2-.1-1.7-.1m6.9-17.6c-1.2 2.7-4.4 4.2-8.4 6.2-1.3.7-2.7 1.3-4.1 2.1 0-.7.1-1.5.1-2.3.1-3.6.2-8.4 2.3-12 1.2-2 2.7-3.1 4.4-3.1 1.5 0 2.8.8 3.5 1.3 1.6 1.1 3.8 4.1 2.2 7.8M410.7 373c.1 0 .2 0 .3-.1.2-.1.3-.2.5-.3 2.8-1.7 5.6-3.1 8.2-4.5 7.3-3.8 13.1-6.8 15.5-12 3.5-7.4-.6-12.9-3.6-14.9-.8-.6-2.2-1.4-3.8-1.8-.6-.2-1.2-.3-1.8-.3h-.7c-3.6 0-6.8 2.1-9.4 6.3-4.2 6.6-4.7 15.1-5.2 21.3-.1 2.2-.3 4.1-.5 5.7 0 .1 0 .3.1.4 0 .1.1.1.1.2h.3m-47-31.6c-2 0-4.3-.5-7-1.1-1.4-.3-2.9-.6-4.5-.9.5-.5 1-1.1 1.5-1.8 2.2-2.7 5.3-6.5 9.2-7.9 1-.4 1.9-.6 2.7-.6 3 0 4.2 2.5 4.6 4 .5 1.9.5 5.6-3.1 7.5-.9.6-2.1.8-3.4.8m8.1-19c-1.7 0-3.5.4-5.5 1-7.3 2.6-13 8.9-17.2 13.5-1.5 1.6-2.8 3-3.9 4.1-.1.1-.1.2-.2.3v.3c.1.2.2.4.5.4s.6.1.8.1c3.1.4 6.1 1 8.9 1.5 4.7.9 8.7 1.6 12.4 1.6 2.8 0 5.1-.5 7.1-1.5 7.3-3.6 7.4-10.4 6.4-13.9-.5-1.6-1.8-4.6-4.7-6.3-.4-.2-.9-.4-1.4-.6-.8-.3-1.9-.5-3.2-.5m78.8 72.2c-1.8.8-4.3 0-7.4-1-.9-.3-1.9-.6-3-.9.3-.3.7-.6 1-1 1.9-1.9 4.3-4.3 7.2-5.1.6-.2 1.1-.2 1.6-.2 2.4 0 3.1 2 3.3 3.1.2 1.5-.1 4-2.7 5.1m-15.7-.2c.3.1.7.2 1 .2 2.1.5 4 1.1 5.9 1.6 4 1.1 7.4 2.1 10.4 2.1 1.4 0 2.7-.2 3.8-.7 5.6-2.2 6.2-7.2 5.7-9.8-.4-1.9-1.8-6.2-7.3-6.2-1 0-2 .1-3.2.4-5.5 1.4-10.1 5.5-13.4 8.6-1.2 1.1-2.2 2-3.1 2.7-.1.1-.2.2-.2.4v.2c0 .3.2.5.4.5m-53.8-277.5c-.3 2.5-1.5 4.6-3.1 5.5-3.3 2-6.1 3.6-10 3.2-.6-4 .1-12.6 3.6-15.6 2.7-2.4 5.1-2.3 8 .7 1.3 1.4 1.8 3.7 1.5 6.2m-18.2 14.4h.2c.6 0 1.1.1 1.7.1 8.5 0 14.8-3.8 22-8.2 4.5-2.7 7.8-8.4 8.4-14.5.2-2.1.1-4-.3-5.8-.1-.4-.2-.7-.3-1.1-.6-1.8-1.5-3.4-2.8-4.6-3.3-3.1-6.3-4.6-9.6-4.6-3.2 0-6.5 1.5-9.9 4.4-8.4 7.2-10.9 25.6-9.9 33.5v.4c0 .2.2.4.5.4m92 7.9c.9-.3 1.7-.4 2.5-.4 3.2 0 4.3 2.7 4.7 4.2.5 1.9.2 5.6-3.4 7.4-.9.4-1.8.6-3 .6-2.1 0-4.6-.6-7.4-1.4-1.4-.4-2.9-.8-4.5-1.1.5-.5 1-1.1 1.6-1.7 2.3-2.7 5.5-6.3 9.5-7.6m-18.4 11.2c.1.2.2.4.4.4h.1c3.4.6 6.5 1.3 9.6 2 5.1 1.2 9.5 2.2 13.4 2.2 2.4 0 4.4-.4 6.2-1.2 7.4-3.3 7.9-10.1 7-13.7-.6-2.4-2.7-7.9-9.7-7.9-1.5 0-3.2.3-5 .8-7.4 2.3-13.4 8.3-17.8 12.8-1.5 1.5-2.8 2.9-4 3.9 0 0-.1 0-.1.1-.1.1-.2.3-.1.6m25.7 88c3.2-.7 5 .7 5.5 4 .4 3-2.9 4.2-4.9 4.6-2.9.6-5 0-7.8-2.5 0-.1.1-.1.1-.2 1.3-1.8 3.5-5.1 7.1-5.9m-11.9 7.1c0 .2.1.3.2.4.1 0 .1.1.2.1 4.9 3.6 8.9 5.1 13.6 5.1 1.6 0 3.2-.2 4.9-.5 8.4-1.7 12.8-5.4 12.2-10.1-.5-3.8-2.7-8.4-9.6-8.4-1.2 0-2.6.1-4 .4-8.5 1.7-13.7 8.1-16.5 11.5-.3.3-.5.6-.7.9l-.1.1c-.2.2-.2.4-.2.5M351.6 107c0-.1-.1-.1-.1-.2-1.1-1.8-3.2-5.3-2.3-8.9.6-2.4 1.9-3.6 3.9-3.6.6 0 1.4.1 2.1.4 2.9.9 2.5 4.4 2 6.4-.7 3.2-2.8 4.7-5.6 5.9m12.1-21.1c-.7-2.2-2.1-3.7-4.2-4.4-1.3-.4-2.5-.6-3.6-.6-3.2 0-7.4 1.6-9.4 9.4-2.2 8.4 1.3 15.9 3.1 19.8.2.4.4.8.5 1.1 0 .1.1.1.1.2l.3.3h.2c.1 0 .2 0 .3-.1.1 0 .1-.1.2-.1 5.9-3.1 10.2-6.8 12.2-14.7 1-4 1.2-7.3.7-9.9-.2-.3-.3-.7-.4-1M369 233c2.4 5.3-2.8 9.1-6.2 10.9-2.3 1.2-4.5 1.9-6.8 1.9-2.5 0-5.2-.7-8.5-2.3.1-.2.1-.5.2-.8 1.1-3.7 3.2-10.7 9.2-14 5.4-2.9 9.5-1.4 12.1 4.3m-28.2 14.1c.1.1.2.3.3.3.1 0 .2.1.3.1 6.2 2.3 11.2 3.3 16.1 3.3 5.9 0 11.7-1.6 17.7-4.8 13.3-7.1 18.9-15.4 15.5-23-1.3-2.8-2.9-5.1-4.8-6.7-.3-.3-.6-.5-.9-.7-2.4-1.8-5.3-2.7-8.5-2.7-3.7 0-7.9 1.2-12.6 3.7-13.6 7.2-19.2 20.6-22.2 27.8-.3.8-.6 1.6-.9 2.2v.1c-.1.1-.1.3 0 .4M144.3 234c-2.6-2.1-5.8-2.5-7.1-.9-.5.6-.7 1.3-.6 2.2.2 1.6 1.3 3.3 2.9 4.6 1.5 1.2 3.2 1.9 4.7 1.9 1.1 0 1.9-.4 2.5-1 1.3-1.7.3-4.6-2.4-6.8m-3.4 152c-1.3-1.1-3.1-1.4-3.8-.5-.8.9-.3 2.5 1.1 3.7.8.7 1.7 1 2.5 1 .6 0 1-.2 1.4-.6.7-.8.2-2.4-1.2-3.6m-23.4 29.6c-1.4 0-2.5-.2-3.4-.7-3.6-1.9-3.7-5.6-3.1-7.5.4-1.5 1.6-4.1 4.6-4.1.8 0 1.7.2 2.7.5 3.9 1.4 7 5.2 9.3 7.9.6.7 1.1 1.3 1.5 1.8-1.6.3-3.1.6-4.5.9-2.8.7-5.1 1.2-7.1 1.2m18.5-.5l-.2-.2c-1.1-1-2.3-2.3-3.8-3.9-4.2-4.6-10-10.9-17.3-13.4-2-.7-3.8-1-5.4-1-6.5 0-8.8 5.3-9.5 7.6-1 3.5-.8 10.3 6.5 13.9 2 1 4.2 1.4 7 1.4 2.6 0 5.4-.4 8.4-.9.9-.2 1.9-.3 2.9-.5.4-.1.8-.2 1.2-.2 3.1-.6 6.3-1.2 9.8-1.7.1 0 .2-.1.3-.2 0-.1.1-.1.1-.2.2-.3.2-.5 0-.7m-.7-30.9c.5-.7 1.5-1.8 2.9-1.8.8 0 1.8.4 2.7 1.2 2.3 1.9 3.5 5 4.4 7.6.2.5.4.9.5 1.3-1.1-.2-2.1-.3-3.1-.4-3.2-.4-5.7-.7-7.1-2.2-1.8-2.1-1-4.6-.3-5.7m14.9 12c.2 0 .3-.1.5-.2.1-.2.1-.4 0-.6-.1-.1-.1-.2-.2-.3-.5-.9-1-2.1-1.5-3.4-1.8-4.2-4.2-9.9-8.7-13.4-2.1-1.6-4.1-2.4-6-2.4-3.1 0-5.1 2.1-6 3.4-1.6 2.2-3.1 7 1.2 11.3 2.9 3 7.6 3.6 13.6 4.5 2.1.3 4.4.6 6.7 1.1.1 0 .3 0 .4.1-.1-.1-.1-.1 0-.1m-4.8-33.5c.5-.7 1.5-1.8 2.9-1.8.9 0 1.8.4 2.7 1.2 2.3 1.9 3.5 5.1 4.4 7.6.2.5.4.9.5 1.3-1.1-.2-2.1-.3-3.1-.4-3.2-.4-5.7-.7-7.1-2.2-1.9-2.1-1.1-4.5-.3-5.7m15.3 11.2c-.1-.1-.2-.3-.2-.5-.5-.9-.9-2-1.5-3.2-1.8-4.2-4.2-9.9-8.7-13.4-2.1-1.6-4.1-2.5-6-2.5-3.1 0-5.1 2.1-6 3.4-1.6 2.2-3.1 7 1.1 11.3 2.9 3 7.6 3.7 13.5 4.6 2.3.3 4.6.7 7.1 1.2h.2c.1 0 .3-.1.4-.2.2-.2.2-.5.1-.7m-40.2-263.2c1.6-1.6 2.9-2.4 4.4-2.4 1.2 0 2.4.6 3.6 1.7 3.5 3.1 4.2 11.7 3.6 15.6-3.9.4-6.7-1.2-10-3.2-1.6-1-2.8-3.1-3.1-5.5-.4-2.5.1-4.8 1.5-6.2m17.1 20.1v-.4c1-7.9-1.6-26.3-9.9-33.5-3.4-2.9-6.7-4.4-9.9-4.4-3.3 0-6.3 1.5-9.6 4.6-1.3 1.2-2.2 2.8-2.8 4.6-.1.4-.2.7-.3 1.1-.4 1.8-.6 3.7-.3 5.8.7 6.1 4 11.8 8.4 14.5 7.2 4.4 13.4 8.2 22 8.2.6 0 1.1 0 1.7-.1h.2c.3.1.5-.1.5-.4M44.4 151c-1.2 0-2.2-.2-3-.6-3.7-1.8-3.9-5.5-3.4-7.4.4-1.6 1.5-4.2 4.7-4.2.8 0 1.6.1 2.5.4 4 1.3 7.2 4.9 9.6 7.6.6.6 1.1 1.2 1.6 1.7-1.6.3-3.1.7-4.5 1.1-2.9.7-5.4 1.4-7.5 1.4m19.1-.6c.1-.2 0-.4-.2-.6 0 0-.1 0-.1-.1-1.2-1-2.5-2.3-4-3.9-4.4-4.4-10.4-10.5-17.8-12.8-1.8-.5-3.5-.8-5-.8-6.9 0-9 5.5-9.7 7.9-.9 3.5-.4 10.3 7 13.7 1.8.8 3.8 1.2 6.2 1.2 3.9 0 8.3-1 13.4-2.2 3-.7 6.2-1.4 9.6-2h.1c.3-.1.4-.2.5-.4m146.7 16.2c.7-5.7 6.8-7.8 10.3-8.1.6-.1 1.2-.1 1.7-.1 4 0 8.9 1.3 9.2 7.7.3 5.7-3.7 11.6-6.6 16-.9 1.3-1.6 2.4-2.2 3.4-1.7-2.1-3.3-4-5-5.8-4.4-5.1-7.9-9.1-7.4-13.1m13.5 27c.3 0 .6.2.6.5v.2c.9-2 2.3-4.3 3.9-7 4.6-7.7 10.8-18.3 10-28.9-1-13.3-11.4-15.3-17.5-15.3-.8 0-1.6 0-2.4.1-.9.1-1.9.2-2.9.4-.4.1-.7.2-1.1.3-5.9 1.6-12.9 5.7-13.7 14.6-.6 7.7 5.6 15.1 13.4 24.5 3 3.6 6.1 7.3 9.1 11.4v-.2c.1-.2.3-.5.6-.6M24.4 210.4c1.2-3.5 3.1-5.2 5.9-5.2 1 0 2.2.3 3.4.8 5.1 2.1 7.4 7.5 8.6 10.4.1.2.1.4.2.5-3 1.8-5.3 2.6-7.7 2.6-1.5 0-2.9-.3-4.5-1-2.8-1.1-7.4-3.7-5.9-8.1m23.1 8.6c.1-.3.5-.4.7-.3.1 0 .1.1.2.1-.3-.5-.6-1-.9-1.6-3.1-5.6-8.8-16-20.5-20.6-10.7-4.2-18.2-1.4-21.2 7.7-2.2 6.4 3.2 12.7 14.6 17.3 4.2 1.7 8.1 2.5 11.9 2.5 4.9 0 9.7-1.3 15.7-4.2-.1 0-.2-.1-.2-.1-.3-.2-.4-.6-.3-.8M57 374.2c.8-1.1 1.7-1.6 2.6-1.6.7 0 1.5.4 2.3 1.1 2.1 1.8 2.2 4.9 2.3 6.5v.1c-.8.2-1.4.2-2 .2-1.5 0-2.7-.5-3.9-1.5-1-1.1-2.7-3-1.3-4.8m10.3 8.7c.1-.1.1-.2.1-.3v-.1c-.1-.3-.1-.6-.2-1-.5-3.3-1.5-9.5-6.5-13.9-2.3-2-4.5-3-6.6-3s-4 1.1-5.6 3.1c-2.3 2.9-.8 7.1 4.2 11.5 3.3 3 6.7 4.3 11 4.3.8 0 1.7-.1 2.6-.2.2 0 .4 0 .6-.1s.3-.2.4-.3m76.1-65c-1.4.1-2.3-.3-2.4-1.1-.1-.5-.1-1.1.3-1.6.3-.3.7-.5 1.3-.6h.3c1.4 0 2.5.9 3.2 1.5-.8 1.2-1.5 1.7-2.7 1.8m5.6-2.1c0-.2-.1-.3-.2-.4 0 0-.1-.1-.2-.1-.1-.1-.2-.2-.4-.2-1.6-1.1-4.9-3.3-8.9-2.9-2 .2-3.5.9-4.4 2-.7 1-1 2.2-.8 3.7.3 2 2.2 3.1 5.4 3.1.5 0 1 0 1.6-.1 3.7-.4 5.8-2.1 7.6-4.5l.2-.2c.1-.1.1-.3.1-.4m3.4-72.4c-3.4 1.6-6 2.3-8.5 2.3-2.3 0-4.5-.6-6.8-1.9-3.3-1.8-8.6-5.7-6.2-10.9 1.8-3.8 4.2-5.7 7.2-5.7 1.5 0 3.1.5 4.9 1.4 6 3.2 8.1 10.2 9.2 14 .1.3.2.6.2.8M109.3 223c-3.5 7.5 2.2 15.9 15.5 23 6.1 3.2 11.9 4.8 17.7 4.8 4.9 0 9.8-1 16.1-3.3l-.3-.3c-.2-.2-.2-.6 0-.8s.6-.2.8 0l.1.1c-.3-.7-.6-1.4-.9-2.2-3-7.2-8.6-20.6-22.2-27.8-4.6-2.4-8.9-3.7-12.6-3.7-3.2 0-6 .9-8.5 2.7-.3.2-.6.5-.9.7-1.9 1.8-3.5 4-4.8 6.8m96.6-201.4c.1 3.4-.9 6.2-1.9 6.7-1.8-.5-3.1-1.2-4-4.6-.8-3.2 1-4.2 1.8-4.6.1-.1.5-.2 1-.2s3 .2 3.1 2.7m-1.5 10h.1c.2 0 .3-.1.5-.2 2.7-1.3 4.2-7.2 4-12.5-.1-4.1-3.4-6-6.7-6-.9 0-1.7.2-2.3.4-1.5.8-5.5 2.8-3.8 9.4 1.5 5.9 3.8 7.7 7.6 8.7.1 0 .2.1.4.1.1.1.2.1.2.1m50.9 15.7c4.1 0 7.3-4.7 7.4-10.8 0-3.6-1.1-7-3.1-9.1-1.2-1.2-2.6-1.9-4.1-1.9-4.1 0-7.3 4.7-7.4 10.8 0 2.9.7 5.6 2 7.6 1.3 2.2 3.2 3.4 5.2 3.4zm-10-23.7c2.8-2.9 6.8-3.3 9-3.3h.6c4.3.1 12 2.7 13.7 11.5 1.2 6.2-2.4 12.4-7 20.3-1.7 3-3.5 6.1-5.3 9.6-.1.2-.3.3-.5.3s-.4-.1-.5-.3c-.8-1.6-2-3.4-3.4-5.5-3.8-6-9.1-14.1-9.6-22.7-.2-4.3.8-7.7 3-9.9M255.6 73c.2 0 .4-.1.5-.3v-.1c2.9-6.1 5.9-11.7 8.8-17.1 7.5-14 13.5-25 11.8-35.8C274.4 4.4 262.1.1 255.3 0h-.4c-3.4 0-9.7.7-14.3 5.4-3.9 4-5.7 10-5.5 17.8.4 15 8.7 29.2 14.8 39.6 2.1 3.7 4 6.9 5.2 9.6 0 0 0 .1.1.1 0 .3.2.5.4.5m163.5 53.1c.7.7 1.6 1.1 2.8 1.1 2 0 4.4-1.1 6.4-3s3.3-4.3 3.3-6.4c0-1.1-.3-2-.9-2.7-.7-.7-1.6-1.1-2.8-1.1-2 0-4.4 1.1-6.4 3-3.2 3.1-4.3 7.1-2.4 9.1m-24.8 258.2c-1.6 2.4-5.1 3.4-9.4 4.6-1.4.4-2.9.8-4.4 1.3.2-.7.3-1.5.5-2.3.7-3.5 1.7-8.3 4.5-11.4 1.3-1.5 2.7-2.3 4.2-2.3 1.8 0 3.2 1.2 3.9 2 1.3 1.4 2.9 4.7.7 8.1m.1-19.6c-3 0-6 1.6-8.8 4.6-5.3 5.7-7.4 14-9 20-.5 2.1-1 4-1.6 5.4-.1.2 0 .4.1.6.1.1.3.2.4.2h.2c.2-.1.3-.1.5-.2 3.1-1.1 6.1-2 8.9-2.9 7.9-2.4 14.1-4.3 17.4-8.9 4.8-6.6 1.7-12.8-.8-15.3-.5-.5-1.1-1.1-2-1.7-.3-.2-.6-.4-1-.6-1.1-.6-2.6-1.2-4.3-1.2M268.6 166.1c.3-6.3 5.2-7.7 9.2-7.7.6 0 1.2 0 1.7.1 3.5.3 9.6 2.4 10.3 8.1.5 4-3.1 8-7.6 13.1-1.6 1.8-3.3 3.7-5 5.8-.6-1-1.3-2.2-2.2-3.4-2.8-4.4-6.7-10.3-6.4-16m7.6 28.6c.2 0 .4-.1.5-.2l.1-.1c3-4.1 6.1-7.8 9.1-11.4 7.8-9.4 14-16.8 13.4-24.5-.7-8.9-7.8-13-13.7-14.6-.4-.1-.7-.2-1.1-.3-1-.2-2-.4-2.9-.4-.8-.1-1.6-.1-2.4-.1-6.1 0-16.5 2-17.5 15.3-.8 10.6 5.5 21.2 10 28.9 1.6 2.7 3 5 3.9 7 0 0 0 .1.1.1.1.2.3.3.5.3m159.3-82.5c4.2 5.1-.5 10.9-3.7 13.9-3.3 3.1-6.8 4.5-11.2 4.5-1.7 0-3.6-.2-5.9-.7v-1c.2-4.4.5-12.7 6.2-18 5-4.7 10.1-4.2 14.6 1.3m-27.1 23.6c0 .1 0 .1 0 0 .1.1.3.2.4.2 2.8.3 5.2.4 7.5.4 11.8 0 20.7-3.5 29.6-11.7 12.6-11.5 16.4-22.3 10.5-29.6-4.2-5.1-8.9-7.7-14.2-7.7-5.3 0-11.1 2.8-17.1 8.2-13 11.8-15.3 28.2-16.5 37-.1.8-.2 1.4-.3 2.1 0 .2-.1.5-.1.7s.1.3.2.4m-176.1-15.5c2.5 0 3 2.5 3 5.2.1 2.5-.3 4.3-1.5 6.6-2 .5-4.7-3.2-5.9-5.4-.2-.3-.5-2.4.3-4.1.5-1.1 1.5-1.9 2.8-2.2.5 0 .9-.1 1.3-.1m3 14.7c.1-.1.3-.1.4-.1 2-4.3 2.6-7.9 2.3-12.6-.3-3.4-.9-11.3-8.3-11.3-.7 0-1.4.1-2.2.2-2.8.5-4.7 1.9-5.8 4.2-1.7 3.7-.5 8.6.1 9.7 1.9 3.3 6.9 10.9 11.7 10.9.5 0 1-.1 1.5-.3 0-.2.1-.5.3-.7m-102.7 43.6c-2-1.6-4.2-2.5-6.2-2.5-1.4 0-2.5.5-3.1 1.3-.6.7-.8 1.7-.7 2.7.2 2 1.7 4.3 3.8 6.1 2 1.6 4.2 2.5 6.2 2.5 1.4 0 2.4-.5 3.1-1.3.9-1.1 1-2.6.3-4.3-.5-1.6-1.7-3.2-3.4-4.5m-115.8-2.9c-.1.5 0 1.1.4 1.6.6.9 1.9 1.7 3.5 1.9.4.1.8.1 1.3.1 1.9 0 3.4-.8 3.6-2.1.1-.8-.2-1.6-1-2.3-.7-.6-1.7-1.1-2.8-1.3-.4-.1-.9-.1-1.3-.1-2 .1-3.5.9-3.7 2.2M78 395.5c-1.6-3.7.6-6.7 2.2-7.8.7-.5 2-1.3 3.5-1.3 1.7 0 3.2 1 4.4 3.1 2.2 3.6 2.3 8.4 2.3 12 0 .9 0 1.6.1 2.3-1.4-.8-2.8-1.4-4.1-2.1-4.1-1.9-7.3-3.5-8.4-6.2m16 14.4c0 .1.1.1 0 0 .2.1.3.1.4.1s.2 0 .2-.1h.1c.2-.1.3-.3.2-.6-.3-1.5-.4-3.4-.5-5.7-.4-6.2-1-14.7-5.2-21.3-2.7-4.2-5.8-6.3-9.4-6.3-.5 0-1 .1-1.5.1l-1.2.3c-1.4.4-2.7 1.1-3.6 1.7-1.5 1-3.3 3-4.2 5.6-.1.4-.2.7-.3 1.1-.6 2.3-.5 5.1 1 8.3.4.9 1 1.7 1.6 2.5.5.6 1.1 1.3 1.7 1.9 3 2.8 7.2 5 12.2 7.6 1.8 1 3.7 2 5.6 3 .1 0 .1.1.2.1.8.6 1.8 1.2 2.7 1.7m-30.4 1.4c-2.8-.5-3.6-3-3.6-4.4 0-.7.1-2 .9-2.9.6-.6 1.6-1 2.8-1h.4c3 .2 5.8 2 8.1 3.5.4.3.8.5 1.2.8-1 .5-1.8 1-2.7 1.5-2.8 1.6-5.1 2.9-7.1 2.5m15.6-4c0-.2-.1-.4-.3-.5h-.1c-1-.5-2.2-1.2-3.5-2-3.9-2.3-9.2-5.5-14.9-5.7-3.1-.1-5.5.6-7.1 2.2-1.8 1.8-2.1 4.3-2 5.6 0 2.7 1.7 7.5 7.6 8.4.5.1 1 .1 1.5.1 3.7 0 7.6-2.1 12.1-4.5 2-1 4-2.1 6.3-3.2.1 0 .1 0 .2-.1.1.2.2 0 .2-.3m57.1-65.9c-1.4 0-2.5-.2-3.4-.8-3.6-1.9-3.6-5.6-3.1-7.5.4-1.5 1.6-4 4.6-4 .8 0 1.7.2 2.7.6 3.9 1.5 7 5.2 9.2 7.9.5.7 1 1.3 1.5 1.8-1.6.3-3.1.6-4.5.9-2.7.6-5 1.1-7 1.1m18.6.2v-.3c0-.1-.1-.2-.2-.3-1.1-1-2.4-2.4-3.9-4.1-4.2-4.6-9.9-10.9-17.2-13.5-2-.7-3.8-1-5.5-1-1.3 0-2.4.2-3.3.5-.5.2-.9.4-1.4.6-3 1.7-4.3 4.7-4.7 6.3-1 3.5-.9 10.3 6.4 13.9 2 1 4.3 1.5 7.1 1.5 3.6 0 7.7-.8 12.4-1.6 2.8-.5 5.8-1.1 8.9-1.5.3 0 .6-.1.8-.1.3 0 .5-.2.6-.4M31 177.5c.6.7 1.1 1.3 1.6 1.8-1.6.3-3.1.7-4.5 1-2.8.7-5.2 1.3-7.3 1.3-1.3 0-2.3-.2-3.2-.7-3.6-1.8-3.8-5.6-3.3-7.5.4-1.6 1.5-4.2 4.6-4.2.8 0 1.7.2 2.6.5 3.9 1.4 7 4.9 9.5 7.8m-21.1 6.8c1.9.9 4 1.3 6.5 1.3 3.8 0 8.1-.9 13-2 3.1-.7 6.2-1.3 9.7-1.9h.1c.2 0 .4-.2.4-.4.1-.2 0-.4-.2-.6l-.1-.1c-1.2-1-2.4-2.4-3.9-3.9-4.3-4.5-10.2-10.7-17.6-13.1-1.9-.6-3.6-.9-5.2-.9-6.8 0-9 5.4-9.6 7.8-.9 3.5-.5 10.3 6.9 13.8m125.4 10.2c-4.5 0-8.3-.9-12.5-5.4-6.1-6.6-7.4-10.1-5.1-13.9 1.3-2.1 4.1-3.4 7.5-3.4 2.8 0 5.4.9 7.5 2.5 1.9 1.3 10.9 8.4 7 20.1-.5 0-.9 0-1.3.1h-3.1m7.2 3c0-.1.1-.2.1-.2 6.5-18.9-4.7-31.5-10.5-36.5-.6-.5-1.1-.9-1.5-1.2s-.8-.6-1.1-.8c-4-3.1-9.1-4.8-14.4-4.8-6.6 0-12.2 2.7-14.8 6.9-1.1 1.8-1.7 3.5-2 5.2-.1.4-.1.8-.1 1.2-.4 6.2 4 12.5 11.5 20.6 7.9 8.6 15.2 10.3 23.6 10.3 1.9 0 3.7-.1 5.7-.2.9 0 1.8-.1 2.8-.1h.3c.1 0 .3-.1.4-.4m325.4 87.3c-.3 2.8-3.4 3.2-5.2 3.2h-.7c-3.3-.2-5.2-1.9-6.9-4.4l.2-.2c1.7-1.5 4.6-4.1 8.2-3.9 1.6.1 2.7.5 3.4 1.4.9.9 1.2 2.2 1 3.9m-17-.4c4.1 4.9 8.5 8.2 16.4 8.7.7 0 1.4.1 2.1.1 7.4 0 11.7-2.4 12.2-6.8.3-3.1-.3-5.5-1.8-7.4-1.8-2.2-5-3.5-9.3-3.7-8.7-.5-15.4 4.3-18.9 6.9-.4.3-.8.6-1.1.8-.1.1-.2.2-.2.4v.1c0 .1 0 .3.1.4.2.1.3.3.5.5M76.2 265.5c0 3.2 4.1 5.7 9.4 5.7h.2c5.3-.1 9.4-2.7 9.4-5.9s-4.1-5.7-9.4-5.7h-.2c-3.4 0-6.4 1.1-8.1 2.9-.9.9-1.3 1.9-1.3 3m-51.1.8c-1.6 0-3.6-.4-3.8-2.3-.1-1.3.1-2.2.6-2.9.5-.6 1.4-1 2.5-1h.3c2.6 0 4.7 1.8 5.9 3-1.3 1.9-2.6 3.1-5.1 3.2h-.4m9.6-3.5c0-.2-.1-.3-.2-.4l-.1-.1c-.2-.2-.5-.3-.7-.5-2.7-1.9-7.8-5.7-14.5-5.2-3.3.2-5.8 1.2-7.2 2.9-1.2 1.5-1.7 3.4-1.4 5.8.4 3.4 3.7 5.2 9.4 5.2.6 0 1.1 0 1.7-.1 6.2-.4 9.6-3.1 12.8-7 .1-.1.1-.2.2-.2v-.4M89 91.1c.7-.9 1.5-1.4 2.3-1.4.6 0 1.3.3 2 .9 1.8 1.6 1.9 4.1 2 5.6-.6.1-1.2.2-1.7.2-1.3 0-2.3-.4-3.3-1.3-1-.8-2.5-2.5-1.3-4m9 7.6c.1-.1.1-.3.1-.4v-.2c0-.2-.1-.4-.1-.7-.5-2.9-1.3-8.4-5.8-12.2-4.1-3.6-8-3.5-10.8.1-2 2.6-.7 6.3 3.7 10.2 2.9 2.6 5.9 3.7 9.7 3.7.8 0 1.7-.1 2.7-.2h.2c.1-.1.3-.2.3-.3m9.7 168.1c-6.2 4.6-15.9 9.3-22.1 9.3-.8 0-1.5-.1-2.1-.2-5.8-1.5-9.7-4.7-10.8-9-.6-2.2.1-5 1.7-7.1 1.3-1.7 3.9-3.7 8.4-3.7.5 0 1.1 0 1.6.1 9.5.8 19.1 7.3 23.3 10.6m-56.3 2.8c1.8 8.5 8.8 14.6 19.6 17.1 1 .2 2.2.4 3.4.4 11.5 0 30.5-10 42.3-19.7.1-.1.2-.3.2-.4 0-.2-.1-.3-.2-.4s-.2-.2-.3-.2c-5.6-4.5-18.1-13.6-31.9-17.5l.1.1c.2.2.3.5.1.8-.1.1-.3.2-.4.2s-.2 0-.4-.1c-.6-.5-1.3-1.1-1.9-1.6-2.5-.6-5-1-7.5-1.2-.7 0-1.4-.1-2.1-.1-4.8 0-8.5 1.2-11.3 2.8-.4.2-.7.4-1.1.7-1.9 1.3-3.4 2.7-4.5 4.1-2.4 3-3.9 6.6-4.3 10.1 0 .4-.1.7-.1 1.1-.1 1.2 0 2.5.3 3.8"/>
  <path fill="#FFC33C" d="M255.9 131.5h.4c1.2-.2 2.3-1.1 2.9-2.7.6-1.4.8-3.2.5-5.1-.5-3.7-2.7-6.5-5-6.5h-.4c-.8.1-1.6.6-2.2 1.4-1.1 1.5-1.6 3.9-1.2 6.4.6 3.7 2.7 6.5 5 6.5m111.5 57.2c1.9 0 4.2-.9 6.2-2.5 2.2-1.8 3.6-4 3.9-6.1.1-1.1-.1-2-.7-2.7-.7-.9-1.8-1.3-3.1-1.3-1.9 0-4.2.9-6.2 2.5-1.6 1.3-2.9 2.9-3.5 4.5-.7 1.7-.5 3.2.3 4.3.6.9 1.7 1.3 3.1 1.3m-48.3-62.1c-.4-.2-.8-.3-1.3-.3-2.3 0-4.9 2.3-6.4 5.6-.8 1.9-1.2 3.9-1 5.6.2 1.8 1 3.1 2.3 3.7.4.2.8.3 1.3.3 2.3 0 4.9-2.3 6.4-5.6 1.1-2.6 1.3-5.3.6-7.2-.4-1.1-1.1-1.8-1.9-2.1m159 52.8c.4 0 .8 0 1.3-.1 1.5-.3 2.8-1 3.5-1.9.4-.5.5-1.1.4-1.6-.2-1.3-1.7-2.1-3.6-2.1-.4 0-.8 0-1.3.1-1.1.2-2.1.7-2.8 1.3-.8.7-1.2 1.5-1 2.3.1 1.1 1.6 2 3.5 2zM372.5 290.5c-1.1-.9-2.7-1.4-4.4-1.4-3.3 0-6.1 2.1-6.1 4.8 0 2.7 2.7 4.9 6.1 4.9h.1c3.3 0 6.1-2.1 6.1-4.8.1-1.3-.6-2.5-1.8-3.5m94 74.2c4 0 7.1-1.8 7.3-4.3.1-.9-.3-1.8-1-2.6-1.3-1.5-3.8-2.6-6.5-2.8-4.5-.3-8 1.6-8.2 4.2-.2 2.7 3.1 5.1 7.5 5.4.2.1.5.1.9.1M359.1 386c-1.4 1.2-1.8 2.8-1.1 3.7.3.4.8.6 1.4.6.8 0 1.7-.4 2.5-1 1.4-1.2 1.8-2.8 1.1-3.7-.8-1-2.6-.7-3.9.4M186 141.5c.5 0 .9-.1 1.3-.3 1.3-.5 2.1-1.8 2.3-3.7.2-1.7-.1-3.7-1-5.6-1.4-3.3-4.1-5.6-6.4-5.6-.5 0-.9.1-1.3.3-.8.4-1.5 1.1-1.9 2.1-.8 1.9-.5 4.6.6 7.2 1.4 3.3 4 5.6 6.4 5.6m-33.7-78.7c.5 0 .9-.1 1.3-.3 1.3-.5 2.1-1.8 2.3-3.7.2-1.7-.1-3.7-1-5.6-1.4-3.3-4.1-5.6-6.4-5.6-.5 0-.9.1-1.3.3-.9.4-1.5 1.1-1.9 2.1-.8 1.9-.5 4.6.6 7.2 1.5 3.3 4.1 5.6 6.4 5.6M37 322.7c4.5-.1 8-2.2 7.9-5 0-2.7-3.5-4.8-7.8-4.8h-.2c-2.8 0-5.3.9-6.7 2.4-.8.8-1.1 1.7-1.1 2.6.1 2.7 3.5 4.8 7.9 4.8zm94.7-33.6c-1.6 0-3.1.5-4.3 1.4s-1.8 2.2-1.8 3.5c0 2.7 2.7 4.8 6.1 4.8h.1c3.4 0 6.1-2.3 6.1-4.9 0-2.7-2.7-4.8-6.2-4.8m-22.9 47.7c-1.8-1.9-4.1-3.1-6-3.1-1 0-1.8.3-2.4.9-.9.9-1.2 2.3-.8 3.9.4 1.6 1.3 3.2 2.6 4.6 1.8 1.9 4.1 3.1 6 3.1 1 0 1.8-.3 2.4-.9 1.8-1.7 1-5.5-1.8-8.5M320.5 43.9c0-.1-.1-.1-.1-.2-1.1-1.8-3.2-5.2-2.4-8.8.6-2.4 1.8-3.6 3.9-3.6.6 0 1.3.1 2.1.3 2.9.9 2.6 4.3 2.1 6.3-.8 3.3-2.8 4.8-5.6 6m-1.2 4.8h.2c.1 0 .2 0 .3-.1.1-.1.2-.1.3-.2 5.8-3.2 10-6.9 11.9-14.8 2-8.3.5-13.9-4.1-15.3-1.2-.4-2.4-.6-3.5-.6-3.2 0-7.5 1.7-9.4 9.5-2.1 8.5 1.5 15.8 3.4 19.8.2.4.4.8.5 1.1v.1c.2.3.3.4.4.5m62.5 355.1c1-.4 1.9-.5 2.7-.5 3 0 4.2 2.5 4.6 4.1.5 1.9.5 5.6-3.1 7.5-.9.5-2.1.7-3.4.7-2 0-4.3-.5-7-1.1-1.4-.3-2.9-.7-4.5-.9.5-.5 1-1.1 1.5-1.8 2.1-2.8 5.3-6.5 9.2-8m-18 11.9c0 .1.1.1.1.2.1.1.2.2.3.2 3.5.5 6.7 1.1 9.8 1.7.4.1.8.2 1.2.2 1 .2 1.9.4 2.9.5 3.1.6 5.9.9 8.4.9 2.8 0 5.1-.5 7-1.4 7.3-3.6 7.5-10.4 6.5-13.9-.7-2.3-2.9-7.6-9.5-7.6-1.6 0-3.5.3-5.4 1-7.4 2.5-13.1 8.8-17.3 13.4-1.4 1.5-2.6 2.9-3.7 3.9l-.2.2c-.1.3-.1.5-.1.7m72.6-4.4c-2 .4-4.3-.9-7.1-2.5l-2.7-1.5c.4-.2.8-.5 1.2-.8 2.3-1.5 5.1-3.3 8.1-3.5 1.5-.1 2.5.2 3.2.9.9.9 1 2.2.9 2.9 0 1.5-.8 3.9-3.6 4.5m-15.6-4c0 .2.1.4.3.5.1 0 .1 0 .2.1 2.2 1 4.3 2.1 6.3 3.2 4.5 2.4 8.4 4.5 12.1 4.5.5 0 1 0 1.5-.1 5.9-1 7.6-5.7 7.6-8.4 0-1.3-.2-3.8-2.1-5.6-1.6-1.6-3.9-2.3-7.1-2.2-5.7.2-11 3.4-14.9 5.7-1.4.8-2.5 1.5-3.5 2h-.1c-.2-.1-.3.1-.3.3m-56.1-23.1c.8 1.1 1.6 3.6-.4 5.7-1.4 1.5-3.9 1.8-7.1 2.2-1 .1-2 .2-3.1.4.2-.4.3-.9.5-1.3 1-2.5 2.1-5.7 4.4-7.6.9-.8 1.8-1.2 2.7-1.2 1.5 0 2.5 1.1 3 1.8m-15.3 11.7c.1.1.3.2.4.2h.2c2.4-.5 4.7-.8 7-1.1 5.9-.9 10.6-1.5 13.6-4.5 4.2-4.3 2.7-9.1 1.2-11.3-.9-1.3-2.9-3.4-6-3.4-1.9 0-3.9.8-6 2.5-4.5 3.5-6.9 9.2-8.7 13.4-.6 1.4-1.1 2.6-1.6 3.5 0 .1-.1.2-.1.2-.2.1-.2.4 0 .5m119.9-132.8c.1-.1.1-.1 0 0 1.3-1.2 3.5-3.1 6.3-3 1.2.1 2 .4 2.5 1s.7 1.6.6 2.9c-.2 1.9-2.2 2.3-3.8 2.3h-.5c-2.4-.2-3.8-1.3-5.1-3.2m-4-.3c0 .2 0 .3.1.4s.1.2.2.2c3.2 3.9 6.6 6.6 12.8 7 .6 0 1.2.1 1.7.1 5.6 0 9-1.9 9.4-5.2.3-2.4-.2-4.3-1.4-5.8-1.4-1.7-3.8-2.7-7.2-2.9-6.7-.4-11.8 3.3-14.5 5.2-.3.2-.5.4-.7.5l-.1.1c-.2.1-.3.2-.3.4M404.8 96.3c.1-1.5.2-4 2-5.6 1.5-1.4 2.9-1.2 4.2.5 1.2 1.5-.3 3.1-1.3 4s-2 1.3-3.3 1.3c-.5 0-1-.1-1.6-.2zm-2.8 2.4c.1.1.2.2.4.2h.2c1 .1 1.9.2 2.7.2 3.8 0 6.7-1.2 9.7-3.7 4.4-3.9 5.7-7.6 3.7-10.2-2.8-3.6-6.7-3.7-10.8-.1-4.4 3.9-5.3 9.3-5.8 12.2 0 .2-.1.5-.1.7v.2c-.2.2-.1.4 0 .5m-51.4 169.2l.1-.1c1.1-1.6 3.1-4.6 6.4-5.3 2.8-.6 4.5.7 4.9 3.7.4 2.7-2.6 3.7-4.4 4.1-2.6.5-4.5-.1-7-2.4m24-3.5c-.3-2.6-1.5-5.5-4.5-6.9-.4-.2-.9-.4-1.4-.5-.9-.2-1.8-.4-2.9-.4s-2.3.1-3.5.4c-7.8 1.5-12.6 7.3-15.2 10.4-.2.3-.5.6-.7.8l-.1.1c-.1.1-.2.3-.1.4 0 .2.1.3.2.4l.2.2c4.4 3.3 8.2 4.8 12.5 4.8 1.4 0 2.8-.1 4.3-.4 6.2-1.2 10-3.6 11-6.8.1-.4.2-.7.2-1.1v-1.4m55.4 47.9c-1.8 3-4.2 3.9-7.4 4.2 0-.1 0-.2-.1-.3-.6-2.2-1.6-6.2.4-9.5 1-1.7 2.3-2.6 3.7-2.6 1 0 2.1.4 3.2 1.2 2.7 1.8 1.3 5.2.2 7m-9.6 8.7h.1c.2 0 .4-.1.6-.1 6.6-1.4 11.9-3.8 16.2-10.9 4.6-7.6 4.8-13.6.7-16.4-.8-.6-1.6-1-2.4-1.3-.4-.2-.8-.3-1.2-.4-.8-.2-1.6-.3-2.4-.3-3.6 0-6.8 2.3-9.6 6.9-4.7 7.7-3.4 16.2-2.7 20.7.1.5.1 1 .2 1.4v.1c0 .1.1.2.2.2 0 0 .1.1.3.1m-53.1-146.8c2.1-1.6 4.7-2.5 7.5-2.5 3.3 0 6.2 1.3 7.5 3.4 2.3 3.8 1 7.4-5.1 13.9-4.2 4.5-8 5.4-12.5 5.4-1 0-2 0-3.1-.1-.4 0-.9 0-1.3-.1-3.9-11.5 5.1-18.6 7-20m-9.3 23.7h.3c.9 0 1.9.1 2.8.1 2 .1 3.8.2 5.7.2 8.5 0 15.7-1.8 23.6-10.3 7.5-8.1 11.9-14.3 11.5-20.6 0-.4-.1-.8-.1-1.2-.3-1.7-.9-3.5-2-5.2-2.5-4.3-8.2-6.9-14.8-6.9-5.3 0-10.4 1.7-14.4 4.8-.3.2-.7.5-1.1.8s-.9.7-1.5 1.2c-5.8 5-17.1 17.6-10.5 36.5 0 .1.1.2.1.2 0 .3.2.4.4.4M82.5 231.6c-2.4-3.3-.9-6.7.4-8.1.7-.8 2.1-2.1 4-2.1 1.4 0 2.7.7 4.1 2.1 2.9 3 4.1 7.7 5 11.2.2.8.4 1.6.6 2.3-1.6-.4-3.1-.8-4.5-1.1-4.4-1.1-7.9-1.9-9.6-4.3m19.2 10.5c.1 0 .3-.1.4-.2.1-.2.2-.4.1-.6 0-.1 0-.1-.1-.2-.6-1.4-1.1-3.2-1.7-5.2-1.8-6-4.3-14.1-9.9-19.6-2.9-2.8-5.8-4.3-8.7-4.3-3.7 0-6.3 2.4-7.6 3.8-.8.9-1.7 2.3-2.3 3.9-.1.3-.2.7-.3 1.1-.8 3-.5 6.7 2.5 10.4 3.5 4.5 9.8 6.1 17.8 8.2 3 .8 6.2 1.6 9.5 2.6h.1c.1.1.1.1.2.1M49.4 394.7c-2.6-1.1-2.9-3.7-2.7-5 .2-1.2.9-3.1 3.3-3.1.5 0 1 .1 1.6.2 2.9.8 5.3 3.2 7.2 5.1l1 1-3 .9c-3 .9-5.6 1.6-7.4.9m16.1-.7v-.2c0-.2-.1-.3-.2-.4-.9-.7-1.9-1.6-3.1-2.7-3.3-3.1-7.9-7.2-13.4-8.6-1.1-.3-2.2-.4-3.2-.4-5.5 0-7 4.4-7.3 6.2-.5 2.6.1 7.6 5.7 9.8 1.1.4 2.4.6 3.8.6 3 0 6.5-1 10.4-2.1 1.9-.5 3.8-1.1 5.9-1.6.3-.1.7-.2 1-.2.2 0 .4-.2.4-.4m184.2-277.5c1.6-1.6 3.9-1.9 5.2-1.9h.3c2.5.1 7.1 1.6 8 6.8.7 3.7-1.6 7.6-4.4 12.6-1 1.7-2 3.5-3 5.4-.5-.8-1.1-1.7-1.7-2.7-2.5-3.8-5.8-9-6.1-14.3-.1-2.6.5-4.6 1.7-5.9m6 31.8c.2 0 .4-.1.5-.3 0 0 0-.1.1-.1 1.9-4 3.8-7.6 5.7-11.1 4.9-9.2 8.8-16.4 7.7-23.5-1.1-6.8-5.1-10.3-9-11.9-.4-.1-.7-.3-1.1-.4-1.4-.5-2.7-.7-3.9-.7h-1.1c-2.3.1-6.1.7-8.9 3.6-1.7 1.7-2.7 4-3.3 6.7-.1.7-.2 1.5-.3 2.2-.1.9-.1 1.8-.1 2.8.3 9.8 5.7 19.1 9.6 25.9 1.4 2.4 2.6 4.5 3.4 6.2 0 0 0 .1.1.1.2.4.4.5.6.5m222.8 21.4c.9-.3 1.8-.5 2.6-.5 3.1 0 4.2 2.6 4.6 4.2.5 1.9.3 5.6-3.3 7.5-.9.5-1.9.7-3.2.7-2.1 0-4.5-.6-7.3-1.3-1.4-.4-2.9-.7-4.5-1 .5-.5 1-1.1 1.6-1.8 2.5-2.9 5.6-6.4 9.5-7.8m-18.2 11.6c.1.2.2.4.4.4h.1c3.4.5 6.6 1.2 9.7 1.9 5 1.1 9.2 2 13 2 2.5 0 4.7-.4 6.6-1.3 7.4-3.5 7.8-10.3 6.8-13.8-.6-2.3-2.8-7.8-9.6-7.8-1.6 0-3.3.3-5.2.9-7.4 2.4-13.3 8.6-17.6 13.1-1.5 1.6-2.8 2.9-3.9 3.9l-.1.1c-.2.1-.3.4-.2.6M326.4 138c-3.5 5.9-8 9.1-17.9 12.4-4-8.3-3.4-17.9 1.7-25.7 2.3-3.5 5.1-5.2 8.3-5.2 2.8 0 5.1 1.3 6.3 2.1 3.2 2.3 5.3 10.2 1.6 16.4m-20.9 20.3h.2c.1 0 .1-.1.2-.1 16.9-6.4 24.8-12.1 31-22.6 6.5-10.9 4.3-24.7-1.8-29-1.8-1.2-5.5-3.3-10.2-3.3-.5 0-1.1 0-1.7.1-.4 0-.8.1-1.2.2-3.8.8-8.4 3.2-12.6 9.6-9.2 13.9-10.9 30.5-4.5 44.5 0 .1.1.2.1.2.1.3.3.4.5.4m62.3 143.9c-5.2-.3-8-3.6-10.7-8.5.2-.2.3-.4.5-.6 2.4-2.6 6.9-7.5 12.5-7.1 2.2.1 3.9.9 5 2.2 1.8 2.1 1.9 5.5 1.7 7.9-.3 4.2-3.6 6.4-9 6.1m-17.2-8.5c.1.1.1.2.2.3 6.2 9.3 12.8 15.7 25 16.6 1.1.1 2.3.1 3.3.1 10.8 0 17.1-4.2 17.9-11.8.6-6-.6-10.7-3.4-14.1-2.8-3.3-7.1-5.2-13-5.7-.7-.1-1.4-.1-2.1-.1-11.9 0-21.1 8.1-26.1 12.4-.6.5-1.1.9-1.5 1.3l-.1.1c-.3.3-.4.6-.2.9m115.7 57.9h.2c1.2 0 5.4.9 7.9 3.7 1.6 1.7 2.2 3.9 1.9 6.5-.5 4.2-2.5 6.3-6.2 6.3-2 0-4.2-.6-6.2-1.2-4.6-1.4-7.9-3.5-11.5-7.2-.1-4.6 8.6-7.3 13.9-8.1m8.1-9.1c-.5 0-.9 0-1.2.1h-.2c-8 1.6-26.1 6.3-27.2 15.9v1.1c0 .1.1.3.2.4 6.9 6.8 13.1 10.4 22.1 12.7 3.6.9 7.4 1.8 11.1 1.8 8.5 0 13.5-4.5 14.9-13.4.7-4.6-.2-8.6-2.9-11.7-4.7-5.6-13.7-6.9-16.8-6.9m-233.2-247c.1 3.4-.9 6.2-1.9 6.7-1.8-.5-3.1-1.2-4-4.6-.8-3.2 1-4.2 1.8-4.6.1-.1.5-.2 1-.2.5-.1 3 .1 3.1 2.7m-1.5 9.9h.1c.2-.1.4-.1.6-.2 2.7-1.4 4.1-7.2 3.9-12.5-.1-4.1-3.4-6-6.7-6-.6 0-1.2.1-1.6.2.1.2.1.4.2.6.1.3-.1.6-.4.7h-.1c-.2 0-.5-.2-.5-.4 0-.1-.1-.3-.1-.4-1.7.9-4.9 3.1-3.4 9.2 1.5 5.9 3.9 7.7 7.7 8.8.1 0 .2.1.3 0-.1 0-.1 0 0 0M97.2 341.8c-2.3-4.7.4-8.6 2.4-10.2.9-.7 2.6-1.9 4.7-1.9s4 1.2 5.6 3.7c3 4.4 3.4 10.6 3.7 15.1.1 1.2.2 2.3.3 3.2-1.9-.9-3.8-1.7-5.6-2.5-5.3-2.2-9.5-4-11.1-7.4m21.7 17.2c.1 0 .2 0 .3-.1.2-.1.3-.4.2-.6v-.1c-.4-1.9-.7-4.3-1-7-.9-7.8-2.2-18.5-7.8-26.5-3.4-4.9-7.4-7.4-11.7-7.4-3.7 0-6.8 1.9-8.3 3.1-1.7 1.4-3.8 3.7-4.8 6.9-.1.4-.3.8-.4 1.2-.8 3.1-.6 6.8 1.6 10.8 3.4 6.3 10.8 9.8 20.2 14.2 3.6 1.7 7.3 3.4 11.2 5.5 0 0 .1 0 .1.1.2-.2.3-.1.4-.1m53.2-171.2c2-2.1 3.9-3.1 5.7-3.1 1.5 0 3.2.7 4.8 2.2 4.5 4 5.4 15.3 4.7 20.4-.6.1-1.2.1-1.8.1-4.3 0-7.5-2-11.3-4.2-2.1-1.2-3.7-4-4.1-7.3-.5-3.2.3-6.3 2-8.1m21.2 25.4c.3-.2.6-.1.8.2 0 .1.1.1.1.2 1.4-9.9-1.9-33.9-12.7-43.2-4.3-3.7-8.6-5.6-12.6-5.6h-.7c-.4 0-.8 0-1.1.1-2.2.3-4.4 1.2-6.7 2.7l-.9.6c-.9.7-1.8 1.5-2.8 2.3-3.4 3.2-5 8.6-4.4 14.7.8 7.8 5.1 15.1 10.8 18.6 9.3 5.6 17.2 10.5 28.2 10.5.7 0 1.3 0 2-.1-.1-.1-.1-.2-.2-.3-.2-.2-.1-.5.2-.7M142.5 46.4c2-2.1 3.9-3.1 5.7-3.1 1.5 0 3.2.7 4.8 2.2 4.5 4 5.4 15.3 4.7 20.4-.6.1-1.2.1-1.8.1-4.3 0-7.5-2-11.3-4.2-2.1-1.2-3.7-4-4.1-7.3-.5-3.2.3-6.2 2-8.1m22.1 26v-.2c1.4-10-1.9-33.9-12.7-43.2-4.3-3.7-8.6-5.6-12.6-5.6-4.2 0-8 1.9-12.2 5.8-3.4 3.2-5 8.6-4.4 14.7.8 7.8 5.1 15.1 10.8 18.6 9.3 5.6 17.2 10.5 28.2 10.5.7 0 1.4 0 2.1-.1h.3c.2 0 .4-.2.5-.5m10.6 49.3c1.1-.8 3.5-2.1 6.3-2.1 3.2 0 6 1.8 8.3 5.2 5.1 7.8 5.8 17.4 1.7 25.7-9.9-3.3-14.4-6.5-17.9-12.4-3.7-6.3-1.6-14.2 1.6-16.4m19 35.5c.3-.1.6 0 .7.3 0 .1.1.2.1.2 6.4-14 4.7-30.7-4.5-44.5-4.2-6.4-8.8-8.8-12.6-9.6-.4-.1-.8-.2-1.2-.2-.6-.1-1.2-.1-1.7-.1-4.6 0-8.4 2.1-10.2 3.3-6.1 4.2-8.3 18.1-1.8 28.9 6.3 10.5 14.1 16.2 31 22.6 0-.1-.1-.1-.1-.2-.1-.2.1-.5.3-.7M33 280.9c.7-.8 1.9-1.3 3.5-1.4h.4c3.5 0 6.2 2.5 7.9 3.9l.2.2c-1.7 2.5-3.6 4.2-6.9 4.4h-.7c-1.8 0-4.9-.4-5.2-3.2-.3-1.7 0-3 .8-3.9m15.6 2.4c.1-.3.4-.5.7-.4h.1c-.3-.2-.7-.5-1-.7-3.5-2.6-10.2-7.4-18.9-6.9-4.3.3-7.5 1.5-9.3 3.7-1.6 1.9-2.2 4.4-1.8 7.4.5 4.4 4.8 6.8 12.2 6.8.7 0 1.4 0 2.1-.1 8.1-.5 12.6-3.9 16.7-9.1-.1 0-.2-.1-.3-.1-.3 0-.5-.3-.5-.6m-20.5 27c1.5-1.5 3.7-2.3 6.6-2.3h.8c7.4.3 12.6 6.1 15.5 9.2.2.2.4.5.6.7-3.9 4.9-7.9 8-14.7 7.7-4.1-.2-11-1.5-11.1-7.7-.2-3.3.6-5.9 2.3-7.6m-.2 23.2c14.3 0 23-5.8 31.4-14.4-.1 0-.2 0-.3-.1-.3-.1-.5-.3-.5-.6.1-.3.3-.5.6-.5h.2c-.6-.5-1.2-1-1.9-1.7-6.3-5.6-18-16-34.6-16.6h-1.7c-7.5 0-13 1.8-16.6 5.5-3.1 3.2-4.7 7.7-4.6 13.3.2 8.9 9.5 14.4 25.8 15 .8.1 1.5.1 2.2.1m104.3-31.3h-1.1c-4.8 0-7.6-2.2-8-6.2-.2-2.4-.1-5.8 1.7-7.9 1.1-1.3 2.8-2.1 5-2.2h.6c5.3 0 9.6 4.7 11.9 7.2.2.2.4.4.5.6-2.6 4.8-5.4 8.2-10.6 8.5m17.1-9.3l-.1-.1c-.5-.4-1-.8-1.5-1.3-4.9-4.3-14.2-12.4-26.1-12.4-.7 0-1.4 0-2.1.1-5.8.5-10.2 2.4-13 5.7-2.8 3.4-4 8.1-3.4 14.1.7 7.6 7.1 11.8 17.9 11.8 1.1 0 2.2 0 3.3-.1 12.1-.9 18.8-7.3 25-16.6.1-.1.1-.2.2-.3.1-.4 0-.7-.2-.9M78.8 157.2c.1-.7 1.4-2.2 2.9-2.2.5 0 1.1.2 1.6.6 2.7 2 4.4 4.5 4.2 5.5-1 .7-1.8 1.2-2.9 1.2-.9 0-1.9-.3-3.1-.8-3.2-1.3-2.9-3.3-2.7-4.3m11.6 5.5c.1-.2.1-.3.1-.5.6-3-3.2-7.7-7.5-10.8-1.1-.8-2.3-1.2-3.5-1.2-1.9 0-3.6 1-4.7 2.2-.3.3-.5.6-.7.9-.5.7-.8 1.4-.9 1.9-.3 1.7-1 6.1 5.2 8.8 2.3 1 4.2 1.4 5.8 1.4 2.3 0 4-.9 5.8-2.2.1-.1.2-.1.3-.2 0-.2 0-.2.1-.3"/>
</svg>
