<svg version="1.1" id="Layer_1" xmlns="http://www.w3.org/2000/svg" xmlns:xlink="http://www.w3.org/1999/xlink" x="0px" y="0px"
	 viewBox="0 0 40 40" enable-background="new 0 0 40 40" xml:space="preserve">
<path fill="#5F2337" d="M20.7,3.1c-0.5-0.2-1-0.2-1.5,0.1L6.8,12.7H2.2c-1.2,0-2.2,1-2.2,2.2v10.2c0,1.2,1,2.2,2.2,2.2h4.5l12.4,9.4
	c0.2,0.2,0.5,0.3,0.8,0.3c0.2,0,0.4,0,0.6-0.1c0.5-0.2,0.8-0.7,0.8-1.3V4.4C21.4,3.9,21.1,3.4,20.7,3.1z M18.6,32.8l-10.6-8
	c-0.2-0.2-0.5-0.3-0.8-0.3H2.8v-9.1h4.4c0.3,0,0.6-0.1,0.8-0.3l10.6-8V32.8z M25.9,12.7c-0.5-0.5-1.4-0.5-2,0s-0.5,1.4,0,2
	c1.4,1.4,2.2,3.3,2.2,5.3c0,2-0.8,3.9-2.2,5.3c-0.5,0.5-0.5,1.4,0,2c0.3,0.3,0.6,0.4,1,0.4c0.4,0,0.7-0.1,1-0.4c1.9-1.9,3-4.5,3-7.3
	C29,17.3,27.9,14.7,25.9,12.7z M29.8,8.9c-0.5-0.5-1.4-0.5-2,0c-0.5,0.5-0.5,1.4,0,2c2.4,2.4,3.8,5.7,3.8,9.2c0,3.5-1.3,6.7-3.8,9.2
	c-0.5,0.5-0.5,1.4,0,2c0.3,0.3,0.6,0.4,1,0.4s0.7-0.1,1-0.4c3-3,4.6-6.9,4.6-11.1S32.8,11.8,29.8,8.9z M33.8,4.9
	c-0.5-0.5-1.4-0.5-2,0c-0.5,0.5-0.5,1.4,0,2c7.2,7.2,7.2,19,0,26.2c-0.5,0.5-0.5,1.4,0,2c0.3,0.3,0.6,0.4,1,0.4c0.4,0,0.7-0.1,1-0.4
	C42.1,26.8,42.1,13.2,33.8,4.9z"/>
</svg>
