<?xml version="1.0" encoding="utf-8"?>
<!-- Generator: Adobe Illustrator 18.1.1, SVG Export Plug-In . SVG Version: 6.00 Build 0)  -->
<svg version="1.1" id="Layer_1" xmlns="http://www.w3.org/2000/svg" xmlns:xlink="http://www.w3.org/1999/xlink" x="0px" y="0px" width="960px" height="320px"
	 viewBox="0 0 960 320" enable-background="new 0 0 960 320" xml:space="preserve">
<path fill="#FFFFFF" d="M826.5,269.3h4.5l-11.9-15.6l11.9-12h-5l-13.6,13.7v-13.7h-3.5v27.6h3.5v-8.8l4.2-4.2L826.5,269.3z
	 M781.4,254.8l1.6,2h-4.9v-11.5h7c3.2,0,5.8,2.4,5.8,5.8c0,2.5-1.6,4.6-3.7,5.4l-3.1-3.9L781.4,254.8z M778.1,260.3h7.7l7.3,9h4.6
	l-8.2-10c3-1.5,4.9-4.5,4.9-8.3c0-5.4-3.9-9.3-9.3-9.3h-10.6v27.6h3.5V260.3z M747.8,265.7c-5.9,0-10.2-4.4-10.2-10.2
	c0-5.9,4.3-10.2,10.2-10.2c5.9,0,10.2,4.4,10.2,10.2C758,261.4,753.7,265.7,747.8,265.7 M747.8,241.7c-7.8,0-13.7,5.9-13.7,13.8
	c0,7.9,5.9,13.8,13.7,13.8c7.9,0,13.7-5.9,13.7-13.8C761.5,247.6,755.7,241.7,747.8,241.7 M699.6,241.7l-9.6,21.5l-8.5-21.5h-3.8
	l10.9,27.6h2.6l10.1-22.6l10.1,22.6h2.6l10.9-27.6h-3.8l-8.5,21.5l-9.6-21.5H699.6z M669.2,241.7H644v3.5h10.8v24h3.5v-24h10.9
	V241.7z M621,254.8l1.6,2h-4.9v-11.5h7c3.2,0,5.8,2.4,5.8,5.8c0,2.5-1.6,4.6-3.7,5.4l-3.1-3.9L621,254.8z M617.7,260.3h7.7l7.3,9
	h4.6l-8.2-10c3-1.5,4.9-4.5,4.9-8.3c0-5.4-3.9-9.3-9.3-9.3h-10.6v27.6h3.5V260.3z M588,246l6.9,14.9h-13.8L588,246z M602.7,269.3
	l-12.8-27.6h-3.7l-12.8,27.6h3.9l2.2-4.8h17.2l2.2,4.8H602.7z M525.1,254.8l1.6,2h-4.9v-11.5h7c3.2,0,5.8,2.4,5.8,5.8
	c0,2.5-1.6,4.6-3.7,5.4l-3.1-3.9L525.1,254.8z M521.8,260.3h7.7l7.3,9h4.6l-8.2-10c3-1.5,4.9-4.5,4.9-8.3c0-5.4-3.9-9.3-9.3-9.3
	h-10.6v27.6h3.5V260.3z M488.2,269.3h16.9v-3.5h-13.4v-8.5h13.4v-3.5h-13.4v-8.5h13.4v-3.5h-16.9V269.3z M459.3,269.3h17.2v-3.5
	h-13.7v-24h-3.5V269.3z M431.6,256.8v-11.5h6.3c3.2,0,5.8,2.4,5.8,5.8c0,3.3-2.6,5.8-5.8,5.8H431.6z M437.8,260.3
	c5.4,0,9.3-3.9,9.3-9.3c0-5.4-3.9-9.3-9.3-9.3H428v27.6h3.5v-9H437.8z M398.6,269.3l11.7-20.5v20.5h3.5v-27.6h-3.7l-13.1,23
	l-13.1-23h-3.7v27.6h3.5v-20.5l11.7,20.5H398.6z M354.2,246l6.9,14.9h-13.8L354.2,246z M368.9,269.3l-12.8-27.6h-3.7l-12.8,27.6h3.9
	l2.2-4.8h17.2l2.2,4.8H368.9z M329.5,248.4c-1.2-4.1-4.7-6.7-8.5-6.7c-4.4,0-8.5,3-8.5,7.6c0,5,4.5,6.9,8.2,7.9
	c2.8,0.7,4.9,2,4.9,4.5c0,2.4-2.2,4-5,4c-2.4,0-4.5-1.6-5.3-4.7l-3.1,1.7c1.4,4.8,5.1,6.6,8.4,6.6c4.3,0,8.5-2.6,8.5-7.6
	c0-4.5-3.5-6.9-7.7-8c-3-0.7-5.4-1.9-5.4-4.4c0-2,1.7-4.1,4.9-4.1c2.1,0,4.4,1.5,5.2,4.5L329.5,248.4z M260.5,269.3h17.2v-3.5h-13.7
	v-24h-3.5V269.3z M230.4,269.3h16.9v-3.5h-13.4v-8.5h13.4v-3.5h-13.4v-8.5h13.4v-3.5h-16.9V269.3z M202.1,245.3h8
	c2.4,0,4.1,1.6,4.1,4.1c0,2.5-1.7,4.3-3.9,4.3h-8.2V245.3z M202.1,257.3h8.2c2.2,0,3.9,1.9,3.9,4.3c0,2.5-1.7,4.1-4.1,4.1h-8V257.3z
	 M198.6,269.3h11.5c4.2,0,7.6-3.1,7.6-7.7c0-2.6-1.3-4.9-3.3-6.1c2-1.2,3.3-3.5,3.3-6.1c0-4.6-3.4-7.7-7.6-7.7h-11.5V269.3z
	 M172.5,246l6.9,14.9h-13.8L172.5,246z M187.2,269.3l-12.8-27.6h-3.7l-12.8,27.6h3.9l2.2-4.8h17.2l2.2,4.8H187.2z M131.1,269.3h17.2
	v-3.5h-13.7v-24h-3.5V269.3z"/>
<path fill="#FFFFFF" d="M876.7,145.2l-18.5,18.5l4.9,5l13.1-13.1v44.7h7.1v-55.1H876.7z M819.1,194.2c0,3.5,2.7,6.1,6.1,6.1
	s6.2-2.7,6.2-6.1c0-3.5-2.8-6.2-6.2-6.2S819.1,190.8,819.1,194.2 M759.8,200.4h34.4v-7.1h-27.3v-48h-7.1V200.4z M706.3,193.3
	c-11.7,0-20.4-8.7-20.4-20.5c0-11.7,8.7-20.5,20.4-20.5c11.8,0,20.4,8.7,20.4,20.5C726.7,184.5,718.2,193.3,706.3,193.3
	 M706.3,145.2c-15.7,0-27.5,11.8-27.5,27.6s11.8,27.6,27.5,27.6c15.8,0,27.5-11.8,27.5-27.6S722.1,145.2,706.3,145.2 M634.9,200.4
	l26.2-55.1h-7.9l-21,44.4l-21.1-44.4h-7.9l26.2,55.1H634.9z M534,145.2h-7.1v55.1h7.1V145.2z M474.7,153.8l13.8,29.8h-27.6
	L474.7,153.8z M504.1,200.4l-25.7-55.1H471l-25.7,55.1h7.8l4.4-9.7h34.3l4.4,9.7H504.1z M395.8,171.4l3.2,3.9h-9.8v-23h14.1
	c6.4,0,11.5,4.8,11.5,11.5c0,5-3.2,9.1-7.4,10.8l-6.1-7.8L395.8,171.4z M389.1,182.4h15.4l14.7,18h9.2l-16.3-20
	c5.9-3,9.8-9.1,9.8-16.5c0-10.7-7.9-18.6-18.6-18.6h-21.2v55.1h7.1V182.4z M304.1,175.2c0,14.3,10.9,25.2,25.2,25.2
	c14.3,0,25.2-10.9,25.2-25.2v-29.9h-7.1v29.9c0,10.3-7.8,18.1-18.1,18.1c-10.2,0-18.1-7.8-18.1-18.1v-29.9h-7.1V175.2z M246.1,200.4
	l23.3-41v41h7.1v-55.1h-7.3l-26.2,46l-26.2-46h-7.3v55.1h7.1v-41l23.3,41H246.1z M157.2,153.8l13.8,29.8h-27.6L157.2,153.8z
	 M186.6,200.4l-25.7-55.1h-7.4l-25.7,55.1h7.8l4.4-9.7h34.3l4.4,9.7H186.6z M107.8,158.5c-2.4-8.2-9.4-13.3-17-13.3
	c-8.9,0-16.9,5.9-16.9,15.2c0,10.1,9,13.9,16.4,15.8c5.6,1.4,9.8,4.1,9.8,9.1c0,4.9-4.3,8-9.9,8c-4.8,0-9-3.2-10.6-9.4l-6.2,3.3
	c2.8,9.7,10.2,13.2,16.9,13.2c8.6,0,17-5.2,17-15.1c0-9.1-7.1-13.8-15.4-15.9c-6-1.5-10.8-3.7-10.8-8.9c0-3.9,3.3-8.1,9.8-8.1
	c4.3,0,8.7,3,10.3,9L107.8,158.5z"/>
<path fill="#FFFFFF" d="M863.4,105.8h33.9v-7.1h-26.8V81.8h26.8v-7.1h-26.8V57.8h26.8v-7.1h-33.9V105.8z M835,105.8V50.7H828v24
	h-31.4v-24h-7.1v55.1h7.1v-24H828v24H835z M767,50.7h-50.5v7.1h21.7v48h7.1v-48H767V50.7z M650.3,57.8v-7.1h-33.9v55.1h7.1v-24h26.8
	v-7.1h-26.8V57.8H650.3z M563,98.8c-11.7,0-20.4-8.7-20.4-20.5c0-11.7,8.7-20.5,20.4-20.5c11.8,0,20.4,8.7,20.4,20.5
	C583.4,90,574.8,98.8,563,98.8 M563,50.7c-15.7,0-27.5,11.8-27.5,27.6s11.8,27.6,27.5,27.6c15.8,0,27.5-11.8,27.5-27.6
	S578.7,50.7,563,50.7 M463.8,64c-2.4-8.2-9.4-13.3-17-13.3c-8.9,0-16.9,5.9-16.9,15.2c0,10.1,9,13.9,16.4,15.8
	c5.6,1.4,9.8,4.1,9.8,9.1c0,4.9-4.3,8-9.9,8c-4.8,0-9-3.2-10.6-9.4l-6.2,3.3c2.8,9.7,10.2,13.2,16.9,13.2c8.6,0,17-5.2,17-15.1
	c0-9.1-7.1-13.8-15.4-15.9c-6-1.5-10.8-3.7-10.8-8.9c0-3.9,3.3-8.1,9.8-8.1c4.3,0,8.7,3,10.3,9L463.8,64z M376.9,57.8
	c11.8,0,20.4,8.5,20.4,20.5c0,12-8.6,20.5-20.4,20.5h-11.8v-41H376.9z M358,105.8h18.9c15.6,0,27.5-11.7,27.5-27.6
	c0-15.9-11.9-27.6-27.5-27.6H358V105.8z M329.7,105.8V50.7h-7.1v43.4l-35.8-43.4h-6.5v55.1h7.1V62.8l35.5,43.1H329.7z M202.3,80.6
	c0,14.3,10.9,25.2,25.2,25.2c14.3,0,25.2-10.9,25.2-25.2V50.7h-7.1v29.9c0,10.3-7.8,18.1-18.1,18.1c-10.2,0-18.1-7.8-18.1-18.1V50.7
	h-7.1V80.6z M149.6,98.8c-11.7,0-20.4-8.7-20.4-20.5c0-11.7,8.7-20.5,20.4-20.5c11.8,0,20.4,8.7,20.4,20.5
	C170,90,161.4,98.8,149.6,98.8 M149.6,50.7c-15.7,0-27.5,11.8-27.5,27.6s11.8,27.6,27.5,27.6c15.8,0,27.5-11.8,27.5-27.6
	S165.4,50.7,149.6,50.7 M97.3,64c-2.4-8.2-9.4-13.3-17-13.3c-8.9,0-16.9,5.9-16.9,15.2c0,10.1,9,13.9,16.4,15.8
	c5.6,1.4,9.8,4.1,9.8,9.1c0,4.9-4.3,8-9.9,8c-4.8,0-9-3.2-10.6-9.4l-6.2,3.3c2.8,9.7,10.2,13.2,16.9,13.2c8.6,0,17-5.2,17-15.1
	c0-9.1-7.1-13.8-15.4-15.9c-6-1.5-10.8-3.7-10.8-8.9c0-3.9,3.3-8.1,9.8-8.1c4.3,0,8.7,3,10.3,9L97.3,64z"/>
</svg>
