<?xml version="1.0" encoding="utf-8"?>
<!-- Generator: Adobe Illustrator 16.0.0, SVG Export Plug-In . SVG Version: 6.00 Build 0)  -->
<!DOCTYPE svg PUBLIC "-//W3C//DTD SVG 1.1//EN" "http://www.w3.org/Graphics/SVG/1.1/DTD/svg11.dtd">
<svg version="1.1" id="Layer_1" xmlns="http://www.w3.org/2000/svg" xmlns:xlink="http://www.w3.org/1999/xlink" x="0px" y="0px"
	 width="960px" height="320px" viewBox="0 0 960 320" enable-background="new 0 0 960 320" xml:space="preserve">
<path fill="#FFFFFF" d="M731.979,202.087c-1.221-4.097-4.688-6.656-8.507-6.656c-4.45,0-8.469,2.954-8.469,7.601
	c0,5.041,4.49,6.933,8.192,7.878c2.797,0.709,4.884,2.048,4.884,4.528c0,2.442-2.166,4.019-4.962,4.019
	c-2.402,0-4.49-1.576-5.316-4.688l-3.112,1.654c1.379,4.844,5.12,6.577,8.429,6.577c4.293,0,8.507-2.6,8.507-7.562
	c0-4.528-3.545-6.892-7.68-7.955c-2.993-0.749-5.396-1.851-5.396-4.451c0-1.969,1.653-4.056,4.923-4.056
	c2.127,0,4.372,1.496,5.158,4.489L731.979,202.087z M704.057,195.431h-25.245v3.545h10.83V223h3.545v-24.024h10.87V195.431z
	 M667.586,223v-27.569h-3.544v21.701l-17.881-21.701h-3.269V223h3.545v-21.543L664.199,223H667.586z M628.715,195.431h-3.546V223
	h3.546V195.431z M597.641,208.507l1.575,1.969h-4.885v-11.5h7.05c3.191,0,5.75,2.402,5.75,5.75c0,2.521-1.574,4.568-3.701,5.396
	l-3.072-3.899L597.641,208.507z M594.331,214.021h7.681l7.325,8.979h4.608l-8.153-10.003c2.954-1.497,4.885-4.53,4.885-8.271
	c0-5.356-3.938-9.295-9.296-9.295h-10.594V223h3.544V214.021z M563.021,210.476v-11.5h6.262c3.191,0,5.751,2.402,5.751,5.75
	c0,3.347-2.56,5.75-5.751,5.75H563.021z M569.283,214.021c5.357,0,9.295-3.938,9.295-9.295s-3.938-9.295-9.295-9.295h-9.806V223
	h3.544v-8.979H569.283z M521.865,223v-27.569h-3.544v21.701l-17.881-21.701h-3.269V223h3.545v-21.543L518.479,223H521.865z
	 M467.042,223h16.936v-3.544h-13.391v-8.469h13.391v-3.545h-13.391v-8.467h13.391v-3.545h-16.936V223z M436.915,223h16.935v-3.544
	h-13.391v-8.469h13.391v-3.545h-13.391v-8.467h13.391v-3.545h-16.935V223z M409.384,208.507l1.576,1.969h-4.884v-11.5h7.05
	c3.19,0,5.75,2.402,5.75,5.75c0,2.521-1.575,4.568-3.702,5.396l-3.072-3.899L409.384,208.507z M406.076,214.021h7.68l7.326,8.979
	h4.607l-8.152-10.003c2.954-1.497,4.884-4.53,4.884-8.271c0-5.356-3.939-9.295-9.295-9.295h-10.595V223h3.545V214.021z
	 M390.914,199.369c-2.718-2.481-6.105-3.938-9.61-3.938c-7.837,0-13.784,5.947-13.784,13.785c0,7.837,5.947,13.784,13.784,13.784
	c1.694,0,3.584-0.473,5.475-1.143l-0.631-3.623c-1.732,0.787-3.426,1.222-4.844,1.222c-6.026,0-10.24-4.137-10.24-10.24
	c0-6.105,4.214-10.24,10.24-10.24c2.915,0,5.829,1.417,7.995,3.741L390.914,199.369z M355.113,202.087
	c-1.221-4.097-4.687-6.656-8.507-6.656c-4.45,0-8.468,2.954-8.468,7.601c0,5.041,4.49,6.933,8.192,7.878
	c2.797,0.709,4.884,2.048,4.884,4.528c0,2.442-2.166,4.019-4.963,4.019c-2.402,0-4.489-1.576-5.316-4.688l-3.112,1.654
	c1.379,4.844,5.12,6.577,8.428,6.577c4.293,0,8.508-2.6,8.508-7.562c0-4.528-3.545-6.892-7.681-7.955
	c-2.993-0.749-5.395-1.851-5.395-4.451c0-1.969,1.654-4.056,4.923-4.056c2.127,0,4.372,1.496,5.159,4.489L355.113,202.087z
	 M322.7,223h4.49l-11.894-15.558l11.894-12.012h-5.002l-13.588,13.745v-13.745h-3.544V223h3.544v-8.783l4.175-4.214L322.7,223z
	 M276.227,223h17.211v-3.544h-13.666v-24.025h-3.545V223z M262.048,195.431h-3.545V223h3.545V195.431z M244.917,202.087
	c-1.221-4.097-4.687-6.656-8.507-6.656c-4.451,0-8.468,2.954-8.468,7.601c0,5.041,4.49,6.933,8.192,7.878
	c2.797,0.709,4.884,2.048,4.884,4.528c0,2.442-2.166,4.019-4.963,4.019c-2.402,0-4.489-1.576-5.316-4.688l-3.112,1.654
	c1.379,4.844,5.12,6.577,8.428,6.577c4.293,0,8.508-2.6,8.508-7.562c0-4.528-3.545-6.892-7.68-7.955
	c-2.994-0.749-5.396-1.851-5.396-4.451c0-1.969,1.654-4.056,4.923-4.056c2.127,0,4.372,1.496,5.159,4.489L244.917,202.087z"/>
<path fill="#FFFFFF" d="M943.788,112.251c-2.441-8.192-9.374-13.312-17.014-13.312c-8.901,0-16.937,5.907-16.937,15.202
	c0,10.082,8.98,13.863,16.385,15.754c5.593,1.418,9.768,4.097,9.768,9.059c0,4.884-4.333,8.035-9.925,8.035
	c-4.806,0-8.98-3.151-10.634-9.374l-6.224,3.309c2.757,9.688,10.24,13.154,16.857,13.154c8.586,0,17.014-5.199,17.014-15.124
	c0-9.059-7.089-13.784-15.36-15.911c-5.986-1.497-10.791-3.702-10.791-8.901c0-3.938,3.309-8.112,9.847-8.112
	c4.253,0,8.743,2.992,10.319,8.979L943.788,112.251z M850.132,154.077h33.871v-7.089h-26.781v-16.937h26.781v-7.089h-26.781v-16.935
	h26.781v-7.09h-33.871V154.077z M796.649,146.988c-11.737,0-20.401-8.744-20.401-20.48c0-11.737,8.664-20.479,20.401-20.479
	c11.814,0,20.4,8.742,20.4,20.479C817.05,138.244,808.464,146.988,796.649,146.988 M796.649,98.938
	c-15.675,0-27.49,11.815-27.49,27.569s11.815,27.569,27.49,27.569c15.754,0,27.49-11.815,27.49-27.569
	S812.403,98.938,796.649,98.938 M718.037,125.09l3.151,3.938h-9.768v-23h14.1c6.381,0,11.501,4.805,11.501,11.5
	c0,5.041-3.151,9.137-7.405,10.791l-6.144-7.799L718.037,125.09z M711.421,136.118h15.36l14.651,17.959h9.216l-16.307-20.007
	c5.908-2.994,9.769-9.06,9.769-16.542c0-10.714-7.877-18.59-18.59-18.59h-21.189v55.139h7.09V136.118z M644.074,154.077h33.871
	v-7.089h-26.782v-16.937h26.782v-7.089h-26.782v-16.935h26.782v-7.09h-33.871V154.077z M615.717,154.077V98.938h-7.089v24.024
	h-31.429V98.938h-7.089v55.139h7.089v-24.025h31.429v24.025H615.717z M462.986,154.077h33.87v-7.089h-26.781v-16.937h26.781v-7.089
	h-26.781v-16.935h26.781v-7.09h-33.87V154.077z M407.927,125.09l3.15,3.938h-9.767v-23h14.1c6.38,0,11.5,4.805,11.5,11.5
	c0,5.041-3.151,9.137-7.404,10.791l-6.144-7.799L407.927,125.09z M401.31,136.118h15.36l14.651,17.959h9.216l-16.305-20.007
	c5.908-2.994,9.767-9.06,9.767-16.542c0-10.714-7.877-18.59-18.589-18.59h-21.189v55.139h7.089V136.118z M340.737,146.988
	c-11.736,0-20.401-8.744-20.401-20.48c0-11.737,8.665-20.479,20.401-20.479c11.816,0,20.402,8.742,20.402,20.479
	C361.139,138.244,352.553,146.988,340.737,146.988 M340.737,98.938c-15.675,0-27.49,11.815-27.49,27.569s11.815,27.569,27.49,27.569
	c15.754,0,27.491-11.815,27.491-27.569S356.491,98.938,340.737,98.938 M256.849,154.077l23.316-40.96v40.96h7.089V98.938h-7.325
	l-26.152,46.001l-26.23-46.001h-7.325v55.139h7.089v-40.96l23.316,40.96H256.849z M119.871,146.988
	c-11.736,0-20.401-8.744-20.401-20.48c0-11.737,8.665-20.479,20.401-20.479c11.816,0,20.402,8.742,20.402,20.479
	C140.273,138.244,131.688,146.988,119.871,146.988 M119.871,98.938c-15.675,0-27.49,11.815-27.49,27.569s11.815,27.569,27.49,27.569
	c15.754,0,27.491-11.815,27.491-27.569S135.625,98.938,119.871,98.938 M66.388,154.077V98.938h-7.089v43.401L23.538,98.938H17
	v55.139h7.089V110.99l35.525,43.087H66.388z"/>
</svg>
