<?xml version="1.0" encoding="utf-8"?>
<!-- Generator: Adobe Illustrator 16.0.0, SVG Export Plug-In . SVG Version: 6.00 Build 0)  -->
<!DOCTYPE svg PUBLIC "-//W3C//DTD SVG 1.1//EN" "http://www.w3.org/Graphics/SVG/1.1/DTD/svg11.dtd">
<svg version="1.1" id="Layer_1" xmlns="http://www.w3.org/2000/svg" xmlns:xlink="http://www.w3.org/1999/xlink" x="0px" y="0px"
	 width="960px" height="320px" viewBox="0 0 960 320" enable-background="new 0 0 960 320" xml:space="preserve">
<path fill="#FFFFFF" d="M737.715,223v-27.569h-3.545v21.701l-17.882-21.701h-3.269V223h3.545v-21.543L734.327,223H737.715z
	 M701.401,199.369c-2.717-2.481-6.104-3.938-9.61-3.938c-7.837,0-13.783,5.947-13.783,13.785c0,7.837,5.946,13.784,13.783,13.784
	c1.694,0,3.979-0.513,5.829-1.261v-13.272h-9.885v3.545h6.341v7.129c-0.827,0.196-1.576,0.315-2.285,0.315
	c-6.024,0-10.239-4.137-10.239-10.24c0-6.105,4.215-10.24,10.239-10.24c2.915,0,5.829,1.417,7.995,3.741L701.401,199.369z
	 M665.01,195.431h-3.545V223h3.545V195.431z M647.879,202.087c-1.222-4.097-4.688-6.656-8.508-6.656
	c-4.449,0-8.468,2.954-8.468,7.601c0,5.041,4.49,6.933,8.192,7.878c2.797,0.709,4.884,2.048,4.884,4.528
	c0,2.442-2.166,4.019-4.962,4.019c-2.403,0-4.49-1.576-5.316-4.688l-3.113,1.654c1.379,4.844,5.121,6.577,8.43,6.577
	c4.292,0,8.507-2.6,8.507-7.562c0-4.528-3.545-6.892-7.68-7.955c-2.994-0.749-5.396-1.851-5.396-4.451
	c0-1.969,1.654-4.056,4.923-4.056c2.127,0,4.373,1.496,5.159,4.489L647.879,202.087z M601.051,223h16.936v-3.544h-13.391v-8.469
	h13.391v-3.545h-13.391v-8.467h13.391v-3.545h-16.936V223z M574.309,198.976c5.908,0,10.201,4.253,10.201,10.24
	c0,5.986-4.293,10.24-10.201,10.24h-5.907v-20.48H574.309z M564.856,223h9.452c7.798,0,13.746-5.829,13.746-13.784
	c0-7.956-5.948-13.785-13.746-13.785h-9.452V223z M527.244,195.431h-3.545V223h3.545V195.431z M484.709,210.396
	c0,7.168,5.475,12.604,12.604,12.604c7.168,0,12.604-5.436,12.604-12.604v-14.966h-3.545v14.966c0,5.16-3.899,9.06-9.059,9.06
	c-5.12,0-9.059-3.899-9.059-9.06v-14.966h-3.545V210.396z M433.904,210.476v-11.5h6.262c3.19,0,5.75,2.402,5.75,5.75
	c0,3.347-2.56,5.75-5.75,5.75H433.904z M440.167,214.021c5.356,0,9.295-3.938,9.295-9.295s-3.939-9.295-9.295-9.295h-9.807V223
	h3.545v-8.979H440.167z M402.593,210.476v-11.5h6.263c3.19,0,5.75,2.402,5.75,5.75c0,3.347-2.56,5.75-5.75,5.75H402.593z
	 M408.856,214.021c5.356,0,9.294-3.938,9.294-9.295s-3.938-9.295-9.294-9.295h-9.807V223h3.544v-8.979H408.856z M372.938,199.724
	l6.893,14.887h-13.785L372.938,199.724z M387.628,223l-12.84-27.569h-3.702L358.248,223h3.899l2.205-4.845h17.172l2.206,4.845
	H387.628z M309.333,198.976h7.995c2.363,0,4.096,1.614,4.096,4.135c0,2.481-1.654,4.332-3.899,4.332h-8.192V198.976z
	 M309.333,210.987h8.192c2.245,0,3.899,1.852,3.899,4.332c0,2.521-1.733,4.137-4.096,4.137h-7.995V210.987z M305.788,223h11.54
	c4.214,0,7.64-3.072,7.64-7.681c0-2.639-1.299-4.883-3.347-6.104c2.048-1.221,3.347-3.506,3.347-6.105c0-4.607-3.426-7.68-7.64-7.68
	h-11.54V223z M275.659,223h16.936v-3.544h-13.391v-8.469h13.391v-3.545h-13.391v-8.467h13.391v-3.545h-16.936V223z M238.914,195.431
	l-9.57,21.504l-8.547-21.504h-3.82L227.925,223h2.599l10.083-22.607L250.689,223h2.599l10.949-27.569h-3.82l-8.546,21.504
	l-9.571-21.504H238.914z"/>
<path fill="#FFFFFF" d="M725.782,154.077h34.422v-7.09h-27.333V98.938h-7.089V154.077z M668.123,154.077h34.422v-7.09h-27.333
	V98.938h-7.089V154.077z M615.9,107.524l13.783,29.774h-27.568L615.9,107.524z M645.281,154.077l-25.68-55.139h-7.404
	l-25.679,55.139h7.798l4.411-9.688h34.343l4.412,9.688H645.281z M524.055,98.938l-19.141,43.008L487.82,98.938h-7.64l21.897,55.139
	h5.199l20.164-45.214l20.166,45.214h5.198l21.897-55.139h-7.641l-17.093,43.008l-19.142-43.008H524.055z M433.785,106.027
	c11.816,0,20.402,8.507,20.402,20.479c0,11.974-8.586,20.48-20.402,20.48H421.97v-40.96H433.785z M414.881,154.077h18.904
	c15.597,0,27.491-11.658,27.491-27.57c0-15.91-11.894-27.568-27.491-27.568h-18.904V154.077z M359.822,125.089l3.151,3.939h-9.768
	v-23.001h14.1c6.38,0,11.5,4.805,11.5,11.501c0,5.041-3.15,9.137-7.404,10.791l-6.144-7.798L359.822,125.089z M353.205,136.117
	h15.36l14.651,17.96h9.216l-16.305-20.008c5.908-2.993,9.768-9.058,9.768-16.541c0-10.713-7.877-18.59-18.59-18.59h-21.189v55.139
	h7.089V136.117z M293.893,107.524l13.784,29.774h-27.569L293.893,107.524z M323.274,154.077l-25.679-55.139h-7.404l-25.679,55.139
	h7.798l4.411-9.688h34.344l4.411,9.688H323.274z M246.789,106.815c-5.435-4.962-12.209-7.877-19.22-7.877
	c-15.675,0-27.569,11.894-27.569,27.568c0,15.676,11.894,27.57,27.569,27.57c3.387,0,7.168-0.946,10.949-2.285l-1.26-7.247
	c-3.466,1.576-6.853,2.442-9.689,2.442c-12.051,0-20.48-8.27-20.48-20.48c0-12.209,8.429-20.479,20.48-20.479
	c5.829,0,11.658,2.836,15.991,7.483L246.789,106.815z"/>
</svg>
