<?xml version="1.0" encoding="utf-8"?>
<!-- Generator: Adobe Illustrator 16.0.0, SVG Export Plug-In . SVG Version: 6.00 Build 0)  -->
<!DOCTYPE svg PUBLIC "-//W3C//DTD SVG 1.1//EN" "http://www.w3.org/Graphics/SVG/1.1/DTD/svg11.dtd">
<svg version="1.1" id="Layer_1" xmlns="http://www.w3.org/2000/svg" xmlns:xlink="http://www.w3.org/1999/xlink" x="0px" y="0px"
	 width="960px" height="320px" viewBox="0 0 960 320" enable-background="new 0 0 960 320" xml:space="preserve">
<path fill="#FFFFFF" d="M675.665,270v-27.569h-3.545v21.701l-17.881-21.701h-3.269V270h3.545v-21.543L672.278,270H675.665z
	 M639.352,246.369c-2.717-2.481-6.104-3.938-9.609-3.938c-7.837,0-13.784,5.947-13.784,13.785c0,7.837,5.947,13.784,13.784,13.784
	c1.693,0,3.979-0.512,5.829-1.26v-13.273h-9.886v3.545h6.342v7.129c-0.827,0.196-1.576,0.315-2.285,0.315
	c-6.026,0-10.24-4.137-10.24-10.24c0-6.105,4.214-10.24,10.24-10.24c2.915,0,5.829,1.417,7.995,3.741L639.352,246.369z
	 M602.961,242.431h-3.545V270h3.545V242.431z M585.829,249.087c-1.222-4.096-4.687-6.656-8.507-6.656
	c-4.451,0-8.469,2.954-8.469,7.602c0,5.041,4.49,6.932,8.192,7.877c2.798,0.709,4.884,2.048,4.884,4.528
	c0,2.442-2.166,4.019-4.963,4.019c-2.402,0-4.488-1.576-5.316-4.688l-3.111,1.654c1.379,4.844,5.12,6.577,8.428,6.577
	c4.293,0,8.508-2.6,8.508-7.562c0-4.528-3.545-6.892-7.68-7.955c-2.994-0.749-5.396-1.851-5.396-4.45
	c0-1.97,1.654-4.057,4.924-4.057c2.127,0,4.371,1.496,5.158,4.489L585.829,249.087z M539.001,270h16.937v-3.544h-13.392v-8.468
	h13.392v-3.546h-13.392v-8.467h13.392v-3.545h-16.937V270z M512.26,245.976c5.907,0,10.2,4.253,10.2,10.24
	c0,5.986-4.293,10.24-10.2,10.24h-5.908v-20.48H512.26z M502.807,270h9.453c7.797,0,13.745-5.829,13.745-13.784
	c0-7.956-5.948-13.785-13.745-13.785h-9.453V270z M465.195,242.431h-3.545V270h3.545V242.431z M422.66,257.396
	c0,7.168,5.474,12.604,12.603,12.604c7.168,0,12.603-5.436,12.603-12.604v-14.966h-3.545v14.966c0,5.16-3.899,9.06-9.058,9.06
	c-5.12,0-9.059-3.899-9.059-9.06v-14.966h-3.544V257.396z M371.382,245.976h7.995c2.363,0,4.096,1.614,4.096,4.135
	c0,2.481-1.654,4.332-3.899,4.332h-8.192V245.976z M371.382,257.988h8.192c2.245,0,3.899,1.851,3.899,4.331
	c0,2.521-1.733,4.137-4.096,4.137h-7.995V257.988z M367.837,270h11.54c4.214,0,7.64-3.072,7.64-7.681
	c0-2.639-1.299-4.883-3.347-6.104c2.048-1.221,3.347-3.506,3.347-6.105c0-4.607-3.426-7.68-7.64-7.68h-11.54V270z M337.708,270
	h16.936v-3.544h-13.391v-8.468h13.391v-3.546h-13.391v-8.467h13.391v-3.545h-16.936V270z M300.963,242.431l-9.57,21.504
	l-8.547-21.504h-3.82L289.975,270h2.599l10.083-22.607L312.739,270h2.599l10.949-27.569h-3.82l-8.546,21.504l-9.571-21.504H300.963z
	"/>
<path fill="#FFFFFF" d="M737.319,153.028c11.816,0,20.402,8.507,20.402,20.479s-8.586,20.48-20.402,20.48h-11.814v-40.96H737.319z
	 M718.416,201.077h18.903c15.598,0,27.491-11.658,27.491-27.569c0-15.912-11.894-27.569-27.491-27.569h-18.903V201.077z
	 M660.757,201.077h34.422v-7.089h-27.333v-48.05h-7.089V201.077z M600.498,201.077h33.871v-7.089h-26.78v-16.937h26.78v-7.089
	h-26.78v-16.935h26.78v-7.09h-33.871V201.077z M572.142,145.938h-7.089v55.139h7.089V145.938z M539.848,153.028v-7.09h-33.871
	v55.139h7.089v-24.025h26.782v-7.089h-26.782v-16.935H539.848z M478.803,159.251c-2.442-8.192-9.373-13.312-17.014-13.312
	c-8.901,0-16.935,5.907-16.935,15.202c0,10.082,8.979,13.863,16.383,15.754c5.593,1.418,9.768,4.097,9.768,9.059
	c0,4.884-4.332,8.035-9.925,8.035c-4.805,0-8.98-3.151-10.634-9.374l-6.223,3.309c2.757,9.688,10.24,13.154,16.857,13.154
	c8.586,0,17.014-5.199,17.014-15.124c0-9.059-7.089-13.784-15.36-15.911c-5.986-1.497-10.791-3.702-10.791-8.901
	c0-3.938,3.308-8.112,9.846-8.112c4.253,0,8.743,2.992,10.319,8.979L478.803,159.251z M417.049,201.077v-55.139h-7.089v43.401
	l-35.762-43.401h-6.537v55.139h7.089V157.99l35.525,43.087H417.049z M315.437,154.523l13.785,29.775h-27.569L315.437,154.523z
	 M344.818,201.077l-25.678-55.139h-7.405l-25.679,55.139h7.799l4.411-9.689h34.343l4.411,9.689H344.818z M231.628,201.077
	l23.316-40.96v40.96h7.089v-55.139h-7.326l-26.151,46.001l-26.23-46.001H195v55.139h7.09v-40.96l23.315,40.96H231.628z"/>
<path fill="#FFFFFF" d="M619.483,60.001l13.785,29.775h-27.57L619.483,60.001z M648.864,106.553l-25.679-55.138h-7.404
	l-25.679,55.138h7.798l4.411-9.688h34.344l4.411,9.688H648.864z M567.26,51.416h-7.09v55.138h7.09V51.416z M511.492,106.553
	l26.229-55.138h-7.877l-20.952,44.426l-21.109-44.426h-7.878l26.23,55.138H511.492z M457.457,51.416h-7.089v55.138h7.089V51.416z
	 M392.708,106.553h34.423v-7.089h-27.333V51.416h-7.09V106.553z M339.225,99.464c-11.737,0-20.401-8.743-20.401-20.48
	c0-11.736,8.664-20.48,20.401-20.48c11.815,0,20.401,8.744,20.401,20.48C359.625,90.721,351.04,99.464,339.225,99.464
	 M339.225,51.416c-15.675,0-27.49,11.815-27.49,27.569s11.815,27.569,27.49,27.569c15.754,0,27.49-11.815,27.49-27.569
	S354.979,51.416,339.225,51.416"/>
</svg>
