<?xml version="1.0" encoding="utf-8"?>
<!-- Generator: Adobe Illustrator 22.0.0, SVG Export Plug-In . SVG Version: 6.00 Build 0)  -->
<svg version="1.1" id="Layer_1" xmlns="http://www.w3.org/2000/svg" xmlns:xlink="http://www.w3.org/1999/xlink" x="0px" y="0px"
	 viewBox="0 0 100 100" style="enable-background:new 0 0 100 100;" xml:space="preserve">
<g id="Parts">
	<g id="Records_1_">
		<path d="M57.6,91.8c0-0.1,0-0.3,0.1-0.4c0-0.1,0.1-0.2,0.1-0.3c0.1,0.2,0.2,0.3,0.4,0.4c0.2,0.1,0.3,0.1,0.5,0.1
			c0.1,0,0.3,0,0.4-0.1c0.1-0.1,0.1-0.1,0.1-0.3c0-0.1,0-0.1-0.1-0.2c0-0.1-0.1-0.1-0.2-0.2c-0.1-0.1-0.1-0.1-0.2-0.1
			c-0.1,0-0.2-0.1-0.2-0.1c-0.1,0-0.2-0.1-0.2-0.1c-0.1,0-0.1-0.1-0.2-0.1c-0.1-0.1-0.3-0.2-0.4-0.4c-0.1-0.2-0.1-0.3-0.1-0.5
			c0-0.2,0-0.4,0.1-0.6c0.1-0.2,0.2-0.3,0.3-0.5s0.3-0.3,0.4-0.3c0.2-0.1,0.4-0.2,0.6-0.2c0.1,0,0.2,0,0.3,0c0.1,0,0.2,0,0.3,0.1
			c0.1,0,0.2,0.1,0.3,0.1c0.1,0.1,0.1,0.1,0.2,0.2c0,0.2,0,0.3,0,0.5c0,0.2-0.1,0.3-0.2,0.5c0,0-0.1,0.1-0.1,0.1
			c-0.1,0-0.1,0-0.2,0.1c-0.1,0-0.2,0-0.2,0c-0.1,0-0.1,0-0.2,0c0-0.1,0.1-0.2,0.1-0.3c0-0.1,0-0.2,0.1-0.3c0-0.1,0-0.1,0-0.1
			c0,0,0-0.1-0.1-0.1c0,0-0.1,0-0.1,0c0,0-0.1,0-0.1,0c-0.1,0-0.2,0.1-0.3,0.1c-0.1,0.1-0.1,0.1-0.2,0.2c0,0.1-0.1,0.2-0.1,0.2
			c0,0.1,0,0.2,0,0.3c0,0.1,0.1,0.2,0.2,0.3c0.1,0.1,0.2,0.2,0.4,0.3c0.2,0.1,0.3,0.1,0.4,0.2c0.1,0.1,0.3,0.2,0.4,0.2
			c0.1,0.1,0.2,0.2,0.2,0.3c0.1,0.1,0.1,0.2,0.1,0.4c0,0.2,0,0.4-0.1,0.5c-0.1,0.1-0.2,0.2-0.3,0.3c-0.1,0.1-0.3,0.1-0.4,0.2
			c-0.2,0-0.3,0-0.5,0c-0.1,0-0.3,0-0.4,0c-0.1,0-0.2,0-0.3-0.1c-0.1,0-0.2-0.1-0.2-0.1C57.7,92,57.7,91.9,57.6,91.8z"/>
		<path d="M54.6,92c0-0.6,0-1.2,0-1.8c0-0.6,0.1-1.2,0.1-1.8c0-0.1,0-0.1-0.1-0.2c0,0,0-0.1-0.1-0.2c0,0,0.1,0,0.2-0.1
			c0.1,0,0.2,0,0.3-0.1c0.1,0,0.2,0,0.3,0c0.1,0,0.2,0,0.3,0c0.6,0,1,0.2,1.3,0.6c0.3,0.4,0.4,0.9,0.4,1.7c0,0.3,0,0.6-0.1,0.8
			c-0.1,0.3-0.2,0.5-0.3,0.7c-0.1,0.2-0.3,0.3-0.5,0.5c-0.2,0.1-0.5,0.2-0.8,0.2c-0.1,0-0.2,0-0.3,0c-0.1,0-0.2,0-0.3,0
			c-0.1,0-0.2,0-0.2-0.1C54.7,92.1,54.6,92,54.6,92z M55.4,91.5c0.1,0,0.1,0,0.2,0c0.2,0,0.3,0,0.4-0.1c0.1-0.1,0.2-0.2,0.3-0.3
			c0.1-0.1,0.1-0.3,0.2-0.5c0-0.2,0-0.3,0-0.5c0-0.2,0-0.4,0-0.6c0-0.2-0.1-0.3-0.2-0.5c-0.1-0.1-0.2-0.2-0.3-0.3
			c-0.1-0.1-0.3-0.1-0.5,0c0,0.5,0,0.9-0.1,1.4C55.4,90.5,55.4,91,55.4,91.5z"/>
		<path d="M53.2,90.5c0.1,0.2,0.3,0.5,0.5,0.8c0.2,0.3,0.4,0.5,0.5,0.7c0,0-0.1,0-0.1,0.1c0,0-0.1,0-0.2,0.1c-0.1,0-0.1,0-0.2,0.1
			c-0.1,0-0.1,0-0.2,0c-0.1,0-0.2-0.1-0.3-0.2c-0.1-0.1-0.2-0.2-0.3-0.4c-0.1-0.1-0.2-0.3-0.3-0.4c-0.1-0.2-0.2-0.3-0.3-0.5
			c0,0.2,0,0.5,0,0.7c0,0.2,0,0.5,0,0.7c-0.1,0-0.1,0.1-0.2,0.1c-0.1,0-0.1,0-0.2,0c-0.2,0-0.3,0-0.4-0.1c0-0.3-0.1-0.6-0.1-1
			c0-0.3,0-0.7,0-1c0-0.3,0-0.6,0-0.9c0-0.3,0-0.5,0-0.8c0-0.1,0-0.1-0.1-0.2c0-0.1,0-0.1,0-0.2c0.1-0.1,0.3-0.1,0.4-0.2
			c0.2,0,0.4-0.1,0.6-0.1c0.2,0,0.5,0,0.7,0.1c0.2,0.1,0.4,0.1,0.5,0.2c0.1,0.1,0.3,0.3,0.3,0.4c0.1,0.2,0.1,0.4,0.1,0.6
			c0,0.3-0.1,0.6-0.3,0.8C53.7,90.2,53.5,90.4,53.2,90.5z M52.4,89.9C52.4,90,52.4,90,52.4,89.9c0.1,0,0.1,0,0.1,0
			c0.1,0,0.2,0,0.3-0.1c0.1-0.1,0.2-0.1,0.3-0.2c0.1-0.1,0.1-0.2,0.2-0.3c0-0.1,0.1-0.2,0.1-0.3c0-0.2-0.1-0.3-0.2-0.4
			c-0.1-0.1-0.3-0.1-0.6-0.1c0,0,0,0-0.1,0c0,0,0,0-0.1,0c0,0.2,0,0.3,0,0.4s0,0.2,0,0.3c0,0.1,0,0.2,0,0.3
			C52.4,89.8,52.4,89.9,52.4,89.9z"/>
		<path d="M49.8,87.9c0.2,0,0.4,0,0.6,0.1c0.2,0.1,0.3,0.2,0.4,0.4c0.1,0.2,0.2,0.4,0.3,0.6c0.1,0.2,0.1,0.5,0.1,0.8
			c0,0.3,0,0.6-0.1,0.9c-0.1,0.3-0.2,0.5-0.3,0.8c-0.1,0.2-0.3,0.4-0.5,0.5c-0.2,0.1-0.4,0.2-0.7,0.2c-0.3,0-0.5-0.1-0.7-0.2
			c-0.2-0.1-0.3-0.3-0.5-0.5c-0.1-0.2-0.2-0.4-0.3-0.7c-0.1-0.3-0.1-0.5-0.1-0.8c0-0.3,0-0.6,0.1-0.9c0.1-0.3,0.2-0.5,0.3-0.7
			c0.1-0.2,0.3-0.4,0.5-0.5c0.2-0.1,0.4-0.2,0.7-0.2C49.7,87.8,49.7,87.8,49.8,87.9C49.7,87.9,49.8,87.9,49.8,87.9z M49.7,88.7
			c-0.1,0-0.2,0.1-0.3,0.2c-0.1,0.1-0.2,0.2-0.2,0.4c-0.1,0.1-0.1,0.3-0.1,0.5c0,0.2,0,0.3,0,0.5c0,0.2,0,0.4,0,0.5
			c0,0.2,0.1,0.3,0.1,0.4c0.1,0.1,0.1,0.2,0.2,0.3c0.1,0.1,0.2,0.1,0.3,0.1c0.1,0,0.2,0,0.3-0.1c0.1-0.1,0.2-0.2,0.2-0.4
			c0.1-0.1,0.1-0.3,0.1-0.5c0-0.2,0-0.4,0-0.6c0-0.4,0-0.7-0.1-0.9C50.1,88.8,49.9,88.7,49.7,88.7z"/>
		<path d="M46.8,92.2c-0.3,0-0.6-0.1-0.8-0.3c-0.2-0.2-0.4-0.4-0.5-0.7c0-0.1-0.1-0.3-0.1-0.4c0-0.2,0-0.3,0-0.5c0-0.2,0-0.3,0-0.5
			c0-0.2,0-0.3,0.1-0.5c0-0.2,0.1-0.3,0.1-0.5c0.1-0.2,0.1-0.3,0.2-0.4c0.1-0.2,0.3-0.3,0.5-0.4c0.2-0.1,0.4-0.2,0.7-0.2
			c0.2,0,0.3,0,0.5,0.1c0.1,0.1,0.2,0.1,0.3,0.2c0.1,0.1,0.1,0.2,0.2,0.3c0,0.1,0.1,0.2,0.1,0.3c0,0.1-0.1,0.2-0.2,0.3
			c-0.1,0.1-0.2,0.2-0.2,0.2c0-0.1-0.1-0.2-0.1-0.3c0-0.1-0.1-0.1-0.1-0.2c0,0-0.1-0.1-0.1-0.1c0,0-0.1,0-0.1,0
			c-0.1,0-0.2,0.1-0.3,0.2c-0.1,0.1-0.2,0.2-0.2,0.4c-0.1,0.2-0.1,0.3-0.1,0.5c0,0.2,0,0.4,0,0.6c0,0.1,0,0.3,0,0.4
			c0,0.1,0.1,0.3,0.1,0.4c0,0.1,0.1,0.2,0.2,0.3c0.1,0.1,0.2,0.1,0.3,0.1c0.1,0,0.2,0,0.3,0c0.1,0,0.2-0.1,0.2-0.1
			c0.1,0,0.1-0.1,0.2-0.2c0-0.1,0.1-0.1,0.1-0.2c0.1,0.1,0.1,0.2,0.1,0.3c0,0.1,0.1,0.2,0.1,0.3c-0.1,0.1-0.2,0.2-0.2,0.3
			c-0.1,0.1-0.2,0.1-0.3,0.2c-0.1,0-0.2,0.1-0.3,0.1C46.9,92.2,46.8,92.2,46.8,92.2z"/>
		<path d="M45.1,92.1c-0.3,0-0.7,0-1,0c-0.4,0-0.7,0-1,0c0-0.1,0-0.1-0.1-0.2c0-0.1,0-0.1,0-0.2c0-0.1,0-0.1,0-0.2
			c0-0.1,0-0.2,0-0.3c0-0.5,0-0.9,0-1.3c0-0.4,0-0.9,0.1-1.3c0-0.1,0-0.2-0.1-0.3c0-0.1,0-0.2,0-0.3c0,0,0.1,0,0.2-0.1
			c0.1,0,0.2,0,0.4,0c0.1,0,0.3,0,0.4,0c0.2,0,0.3,0,0.5,0c0.1,0,0.3,0,0.4,0c0.1,0,0.2,0,0.3,0.1c0,0,0,0.1,0,0.2
			c0,0.1,0,0.1,0,0.2c0,0.1,0,0.1,0,0.2c0,0.1,0,0.1,0,0.1c-0.1,0-0.2,0-0.3,0c-0.1,0-0.2,0-0.3,0c-0.1,0-0.2,0-0.3,0
			c-0.1,0-0.2,0-0.3,0c0,0.1,0,0.1,0,0.3c0,0.1,0,0.2,0,0.3c0,0.1,0,0.2,0,0.3c0,0.1,0,0.2,0,0.3c0.1,0,0.2,0,0.3,0
			c0.1,0,0.2,0,0.4,0c0.1,0,0.2,0,0.4,0c0.1,0,0.2,0,0.3,0c0,0.1,0,0.2,0,0.3c0,0.1,0,0.2-0.1,0.3c-0.2,0-0.4,0-0.6,0
			c-0.2,0-0.4,0-0.6,0c0,0.1,0,0.1,0,0.2c0,0.1,0,0.2,0,0.2c0,0.1,0,0.2,0,0.2c0,0.1,0,0.2,0,0.2c0.1,0,0.2,0,0.3,0
			c0.1,0,0.3,0,0.4,0c0.1,0,0.2,0,0.4,0c0.1,0,0.2,0,0.2,0c0,0.1,0.1,0.2,0.1,0.3C45.1,91.9,45.1,92,45.1,92.1z"/>
		<path d="M41.5,90.5c0.1,0.2,0.3,0.5,0.5,0.8c0.2,0.3,0.4,0.5,0.5,0.7c0,0-0.1,0-0.1,0.1c0,0-0.1,0-0.2,0.1c-0.1,0-0.1,0-0.2,0.1
			c-0.1,0-0.1,0-0.2,0c-0.1,0-0.2-0.1-0.3-0.2c-0.1-0.1-0.2-0.2-0.3-0.4c-0.1-0.1-0.2-0.3-0.3-0.4c-0.1-0.2-0.2-0.3-0.3-0.5
			c0,0.2,0,0.5,0,0.7c0,0.2,0,0.5,0,0.7c-0.1,0-0.1,0.1-0.2,0.1c-0.1,0-0.1,0-0.2,0c-0.2,0-0.3,0-0.4-0.1c0-0.3-0.1-0.6-0.1-1
			c0-0.3,0-0.7,0-1c0-0.3,0-0.6,0-0.9c0-0.3,0-0.5,0-0.8c0-0.1,0-0.1-0.1-0.2c0-0.1,0-0.1,0-0.2c0.1-0.1,0.3-0.1,0.4-0.2
			c0.2,0,0.4-0.1,0.6-0.1c0.2,0,0.5,0,0.7,0.1c0.2,0.1,0.4,0.1,0.5,0.2c0.1,0.1,0.3,0.3,0.3,0.4c0.1,0.2,0.1,0.4,0.1,0.6
			c0,0.3-0.1,0.6-0.3,0.8C42.1,90.2,41.8,90.4,41.5,90.5z M40.7,89.9C40.8,90,40.8,90,40.7,89.9c0.1,0,0.1,0,0.1,0
			c0.1,0,0.2,0,0.3-0.1c0.1-0.1,0.2-0.1,0.3-0.2c0.1-0.1,0.1-0.2,0.2-0.3c0-0.1,0.1-0.2,0.1-0.3c0-0.2-0.1-0.3-0.2-0.4
			c-0.1-0.1-0.3-0.1-0.6-0.1c0,0,0,0-0.1,0c0,0,0,0-0.1,0c0,0.2,0,0.3,0,0.4c0,0.1,0,0.2,0,0.3c0,0.1,0,0.2,0,0.3
			C40.7,89.8,40.7,89.9,40.7,89.9z"/>
	</g>
	<g id="Wizard_1_">
		<g id="D_2_">
			<path d="M98.8,69.5c-2.1-6.9-9.9-8.1-9.9-8.1c-0.8,0-1.9-0.2-1.9-0.2c-1.9-0.3-4.7,0-4.7,0c-0.5,0-0.8-0.1-0.8-0.1
				c1.2,1.2,1.4,4.9,1.4,4.9c-0.2,2.1-0.5,9.2-0.5,9.2c-0.2,6.8,1.4,9.3,1.4,9.3c1.2,0.4,6.2,0.2,6.2,0.2c7.6-0.4,9-4.5,9-4.5
				C101.3,75.3,98.8,69.5,98.8,69.5z M98.3,78.6c0,0-0.7,2.9-2.9,3.9c0,0-4.2,2-10.3,1.2c0,0-0.7-0.2-0.9-1c0,0-1.2-4.4-0.8-7.8
				c0,0,1.3-10.6-0.2-12.6c0,0,0.5,0.1,0.7,0c0,0,2.1-0.3,4.2,0c0,0,2.4,0.5,3,0.7c0,0,4.9,1.9,7.3,8C98.5,71,99.6,75.5,98.3,78.6z"
				/>
			<path d="M88.4,67.2C88,67,87.5,67,87.5,67c0.2,0.9,0.2,1.4,0.2,1.4c0.1,0.8-0.7,4.1-0.7,4.1c-0.2,4.6,0.6,6.2,0.6,6.2
				c4.5-1,6.1-3.8,6.1-3.8c1.2-1.5-0.8-5.3-0.8-5.3C91.5,67.5,88.4,67.2,88.4,67.2z M89.8,76.8c0,0-0.6,0.1-1.7,0.5
				c0,0-0.7-2-0.1-4.8c0,0,0.6-3.3,0.6-4.6c0,0,4,0.4,4.5,5C93.1,73,92.6,76,89.8,76.8z"/>
		</g>
		<g id="R_4_">
			<path d="M79.5,79.1c-0.3-3.1-3.2-5.6-3.2-5.6c1.6-0.8,3.4-2.8,3.4-2.8c3.9-4.9,0.4-7.6,0.4-7.6c-2.3-3.2-14.2-1.9-14.2-1.9
				c1,1.3,0.3,4.6,0.3,4.6C65.2,69.2,64.6,76,64.6,76c-0.5,4.6,2.1,8.9,2.1,8.9c0.9,0.2,5.9,0.1,5.9,0.1c0.9,0,0.3-0.5,0.3-0.5
				c-3.2-3.1-2-8.9-2-8.9c0.3-0.8,0.6-0.3,0.6-0.3c1.8,1.3,1.9,6.3,1.9,6.3c-0.2,2.3,1.2,3.2,1.2,3.2L81,85
				C79.9,84.5,79.5,79.1,79.5,79.1z M74.9,83.8c0,0-0.5-0.1-0.5-3.6c0,0-0.2-4.8-3.3-6.6c0,0-0.3-0.3-0.5,0.1c0,0-1.9,6,0.9,10.2
				c0,0-3,0.1-3.9,0c0,0-2.9-5.9-1.9-10.2c0,0,0.7-3.1,1.3-5.7c0,0,0.7-3.9,0.3-6c0,0,11.3-1.5,12.9,2.8c0,0,2.3,4.9-5.3,8.4
				c0,0,3.1,2.1,3.6,6.3c0,0,0.3,3.4,0.7,4.3C79.2,83.9,76.2,83.9,74.9,83.8z"/>
			<path d="M71.6,65.3c-2.1,2.7-1.1,5.3-1.1,5.3c2.6-0.3,4.5-1.7,4.5-1.7C79.7,64.7,71.6,65.3,71.6,65.3z M71.2,69.4
				c0,0-0.4-1.1,1-3.3c0,0,3.6-0.8,3.2,1.3C75.5,67.4,74.8,69.1,71.2,69.4z"/>
		</g>
		<g id="A_2_">
			<path d="M63.2,70.2c1.5-5.8-0.6-9-0.6-9c-0.6,0-3.8,0-3.8,0c-0.9,0-3,0.1-3,0.1c-1.3,0-2.5,0-2.5,0c-0.8,0-2.7,0-2.7,0
				c0,1.8-1,5.4-1,5.4c-0.5,1.9-2.3,8.1-2.3,8.1c-1,4.4,1,10,1,10c0.8,0,2.1,0.1,2.1,0.1c1.5,0.2,5,0,5,0c-3-3.9-2.3-9.1-2.3-9.1
				c0.8,0.1,3.5,0.2,3.5,0.2c-1.2,5.7,1.4,9,1.4,9c0.6-0.2,3.4,0,3.4,0c1.3,0,3.7-0.1,3.7-0.1C60.9,81,63.2,70.2,63.2,70.2z
				 M58.4,83.9c0,0-1.5-0.8-0.9-8.9c0,0-4.3-0.3-5.2-0.3c0,0-1,6,1.6,9.2c0,0-3.9,0.1-5,0c0,0-2.2-5.1,0.3-12.7c0,0,1.5-4.6,1.9-6.2
				c0,0,0.5-1.4,0.3-2.8c0,0,6.8-0.4,10.4-0.2c0,0,1.6,1.8,0.6,7.4c0,0-2.3,10,1.1,14.4C63.6,83.9,59.6,84.1,58.4,83.9z"/>
			<path d="M57.6,67.9c0,0-0.1-4.1-1-5.2c0,0-1.3,3.6-2.2,5.4c0,0-1.1,2.2-1.7,4.6c0,0,4.6,0.3,5,0.1C57.7,72.8,57.4,69.9,57.6,67.9
				z M56.6,72c-1.3-0.2-2.8-0.2-2.8-0.2c1.4-1.7,2.8-7.6,2.8-7.6C57,64.8,56.6,72,56.6,72z"/>
		</g>
		<path id="Z_2_" d="M46.3,67.3c2.8-2.5,2.3-5.9,2.3-5.9c-4.7,0.2-16.1,0.1-16.1,0.1c-0.9,2.8-0.9,8.9-0.9,8.9
			c0,0.7,0.5,0.1,0.5,0.1c4.4-5.5,12.6-5.8,12.6-5.8c0.7,0,0.1,0.3,0.1,0.3c-0.8,0.4-3.4,1.4-3.4,1.4c-7.3,2.8-9.5,9.1-9.5,9.1
			c-1.1,2.7-0.8,5.7-0.8,5.7c0.1,3,0.7,3.5,0.7,3.5c1.4,0.2,14.5,0,14.5,0c-2.6-7.5,0.2-14,0.2-14c-1.9,0.3-4.3,2.8-4.3,2.8
			c-0.6,0.5-1.3,1.4-1.3,1.4c-1.1,1.2-2.5,3.2-2.5,3.2c-0.3,0.4-0.3,0.2-0.3,0.2C37.7,72.1,46.3,67.3,46.3,67.3z M37.9,80.4
			c0,0,0.5-0.5,1.3-1.8c0,0,2.1-3.9,6.2-6.3c0,0-2.6,5.7-0.4,11.5c0,0-3.8-0.2-6.2,0.1c0,0-1.4,0-2.3-0.1c0,0-2.8,0-4.2,0
			c0,0-0.8-2.6-0.1-6c0,0,0.3-0.8,0.7-1.7c0,0,1.7-6.9,10.7-9.8c0,0,2.3-0.9,2.8-1.7c0,0,0.4-0.4-0.2-0.5c0,0-6.7-1.1-13.9,4.4
			c0,0,0.6-4,1.1-6.2c0,0,8.6-0.3,14.2-0.1c0,0,0.7,1.5-1.5,4.1c0,0-1.5,1.1-2.8,2.1C43.4,68.5,35.7,73,37.9,80.4z"/>
		<path id="I_2_" d="M29,78.8c-0.5-1.4,0.3-5.2,0.3-5.2c0.3-1.5,0.6-5.1,0.6-5.1c0.5-3,0.2-6.8,0.2-6.8c-0.6,0.1-1.3,0-1.3,0
			c-2.4-0.2-4,0.1-4,0.1c0.5,1-0.4,7.3-0.4,7.3c-0.3,2.4-1.5,7-1.5,7c-1.1,4.4,0.6,8.7,0.6,8.7l7,0C30,83.8,29,78.8,29,78.8z
			 M24.6,73.6c0,0,1-4.2,1.1-6.3c0,0,0.2-3.9,0-4.9h3.8c0,0,0.3,3.2-0.2,4.9c0,0-1,6-1.1,7.7c0,0-0.6,6.6,1.2,8.7l-4.9,0.1
			C24.4,83.9,22.6,78.9,24.6,73.6z"/>
		<g id="W_2_">
			<path d="M0,62C0,62,0,62,0,62C0,62,0,62,0,62z"/>
			<path d="M22.6,68.9c0.8-6.3,0.2-7.2,0.2-7.2c-0.7-0.4-2,0-2,0c-0.3,0.3-0.5,0.1-0.5,0.1c-1.5-0.6-4.5-0.1-4.5-0.1
				c0.2,1.2,0.3,3.6,0.3,3.6c0,1.5-0.3,3.5-0.3,3.5c-0.9-2.5-1.6-4.5-1.6-4.5c-0.3-1.8-0.1-2.4-0.1-2.4l-5.7-0.1
				c-0.1,1.8-0.6,3.6-0.6,3.6c-0.4,2.2-0.8,3-0.8,3c-0.4,1.3-0.6,1.8-0.6,1.8c-0.1-1,0-2.2,0-2.2C6.6,64.5,6.1,62,6.1,62
				c-0.7-0.1-5.7,0-5.7,0C0.2,62,0,62,0,62c2.3,14.7,0.9,22.9,0.9,22.9c1.7,0.2,8.5-0.1,8.5-0.1c-1.6-2.4-0.2-7-0.2-7
				c1.2-3.2,2.5-6.1,2.5-6.1C12,73,13,75.3,13,75.3c1.6,4.5,0.6,9.7,0.6,9.7c1.3,0.1,7.9-0.2,7.9-0.2c-1-3.1-0.8-6.1-0.8-6.1
				C21.7,73.9,22.6,68.9,22.6,68.9z M20.6,73.5c0,0-1.5,4.8-0.6,10.3l-5.7,0.1c0,0,0.6-5.5-0.1-8.1c0,0-1-4-2.2-5.8
				c0,0-0.4-0.4-0.4-1.1c0,0-0.7,2.2-1.3,3.1c0,0-4.9,9.2-2.6,11.8l-6.1,0c0,0,0.9-7.9,0.2-12.6c0,0-0.2-2.2-0.3-3.7
				c0,0,0-3-0.4-4.3c0,0,0,0,0-0.5c0,0,3-0.3,4.2,0c0,0,0.3,3.2,0.1,4.7c0,0,0.2,4,0.6,5.3c0,0,2-3.6,2.3-6.1c0,0,0.4-1.3,0.5-4h4.1
				c0,0,0,1.5,0.3,2.4c0,0,0.3,1.4,0.9,2.3c0,0,0.7,1.6,1.8,4.5c0,0,1.1-2.9,1-5.6c0,0,0.2-2.2,0-3.8c0,0,2.6-0.4,3.6,0.4
				c0,0,0.8-0.6,1.5-0.3C21.9,62.6,22.9,68.2,20.6,73.5z"/>
		</g>
	</g>
	<g id="OF_THE_2_">
		<path id="E_2_" d="M76.1,53.2c0.2-1.1,0.1-3.4,0.1-3.4c0-0.8-0.7-2.8-0.7-2.8c-0.2,0.7-1.3,1.6-1.3,1.6c-1,0.9-2.4,1.5-2.4,1.5
			c-1.7-3-0.8-5.5-0.8-5.5c2.6,1.8,4.4,0.7,4.4,0.7c0.2-1.6-0.1-4.4-0.1-4.4c-4.3,3-3.9-1-3.9-1c1.3-2.3,4.5-0.7,4.5-0.7
			c0.1-1.3,0.1-3.1,0.1-3.1c-0.1-1-0.1-1-0.1-1c-0.5,0.1-7.5,0.2-7.5,0.2c1.2,2.9,0.2,8.6,0.2,8.6c-0.7,2.4-0.9,9.2-0.9,9.2
			c0.1,3.9,0.6,5.3,0.6,5.3l8.6-0.1C76,55.9,76.1,53.2,76.1,53.2z M68.9,57.3c0,0-1.3-5.1,0.3-12.8c0,0,0.6-6.1-0.1-8.7
			c0,0,5-0.2,5.7-0.1c0,0,0.2,1.2,0.1,2.3c0,0-4.6-1.3-4.7,3.1c0,0,0.5,2.8,4.2,0.9v2.6c0,0-2.1,0.7-4.1-1.5c0,0-1.9,5.2,1.2,8.5
			c0,0,2.7-1.6,3.7-3.1V52c0,0,0,0.4-0.1,1.8c0,0-0.1,2.9,0.3,3.5H68.9z"/>
		<path id="H_2_" d="M66.6,46.8c1.2-7.3,0-11.7,0-11.7h-3.9c0.4,1.2,0.5,2.9,0.5,2.9c0.1,1.1-0.5,3.6-0.5,3.6
			c-0.7,0-2.5,0.1-2.5,0.1c1.2-3.9-0.2-6.7-0.2-6.7l-3.8,0.1c0.5,2,0.1,5.2,0.1,5.2c-0.2,2.4-1.1,7-1.1,7c-0.6,2.2-0.7,4.5-0.7,4.5
			c-0.3,4,0.5,6.4,0.5,6.4c0.7,0.1,4.8-0.1,4.8-0.1c-0.8-2.9-0.8-6.6-0.8-6.6c0.1-0.6,0.1-0.9,0.1-0.9c0.1-3.4,1-5.3,1-5.3
			c0.8,0,2.1,0,2.1,0c-0.3,1.3-0.8,5.2-0.8,5.2c-0.9,5.8,0.4,7.7,0.4,7.7l4.9-0.1C65.1,55.2,66.6,46.8,66.6,46.8z M65.5,57.3
			l-2.9,0.1l-0.2-0.1c0,0-0.9-1.3-0.3-6.8c0,0,0.7-4.6,1-5.9c0,0-2.3,0-3.7,0c0,0-2.7,6.8-0.7,12.8h-3.1c0,0,0-0.2-0.3-0.6
			c0,0-0.1-3.6,0.1-5c0,0,0-1.2,0.2-2.5c0,0,0.1-0.9,0.2-1.5c0,0,0.8-4.4,1.1-6.4c0.3-2.1,0.4-4,0.1-5.5l2.3-0.1c0,0,1.1,2.8,0,6.7
			l3.9,0c0,0,1.1-2.7,0.4-6.8H66c0,0,0.7,2.1-0.1,8c0,0-0.2,2.4-0.7,4.7C65.3,48.4,64.5,53.6,65.5,57.3z"/>
		<path id="T_4_" d="M55.5,37.1c-0.7,0.9-3,2.2-3,2.2c0-2.9,1.3-4.3,1.3-4.3c-3.2-0.2-7.1,0.1-7.1,0.1c1.5,1.9,1.7,4,1.7,4
			c-0.8-0.7-2.9-2.4-2.9-2.4c-0.4-0.3-0.4,0.1-0.4,0.1c-0.4,4.4,0,8.3,0,8.3c1.4-2,3.1-2.6,3.1-2.6c0.3,0.8,0,4.2,0,4.2
			c-0.2,1.4-1,4.4-1,4.4c-0.6,3.1-0.5,5.7-0.5,5.7c0.1,1.9,0.6,1.5,0.6,1.5c1,0,6-0.1,6-0.1c0.3,0,0.2-0.3,0.2-0.3
			c0.1-0.7-0.1-2.6-0.1-2.6c0-1.3-0.9-5.9-0.9-5.9c-0.4-2-0.4-4.8-0.4-4.8c0.1-1.2,0.2-1.7,0.2-1.7c0.8,0.5,2.1,2.5,2.1,2.5
			c0.4,0.6,0.2-0.1,0.2-0.1C56.1,40.1,55.5,37.1,55.5,37.1z M54.1,43.7c0,0-1.2-1.8-2.6-2c0,0-0.2,4.7,0,6.3c0,0,0.7,4.6,0.8,5.3
			c0,0,0.1,1.2,0.2,1.5c0,0,0.1,1.7,0,2.6l-4.9,0.1c0,0-0.5-1.2,0.1-4.2c0,0,1.1-5,1.1-5.3c0,0,0.2-2.1,0.2-3.1l0.1-3.2
			c0,0-2.1-0.1-3.2,1.7c0,0,0-3.9,0.1-5c0,0,2.4,1.8,3.2,2.1c0,0,0-2.6-0.3-3.4c0,0-0.4-0.8-0.6-1.2c0,0,3.5,0,4.1-0.1
			c0,0-0.6,1.7-0.7,2.5c0,0-0.1,2.1-0.1,2.3c0,0,2-0.5,3.3-1.7c0,0,0.2,0.5-0.3,2.5C54.6,41.3,54.3,42.9,54.1,43.7z"/>
		<path id="F_2_" d="M38.3,40c1.2-2.3,3.8-0.3,3.8-0.3c-0.1-0.7,0.3-4.5,0.3-4.5c-0.9,0.2-2.9,0.1-2.9,0.1c-1.2,0-5-0.1-5-0.1
			c-0.4,0-0.6,0.1-0.6,0.1c1.8,4.1,1.6,16.3,1.6,16.3c-0.1,2.6-1,6.7-1,6.7c1.3,0.2,6.8,0.1,6.8,0.1c0.2-0.9,0-2.5,0-2.5
			c-0.3-3.4-1.9-6.7-1.9-6.7c-1.4-2.3-0.4-3.4-0.4-3.4c0.8-1,3,0.4,3,0.4c0.2-0.7,0.2-3.1,0.2-3.1C42,43.2,41,43.2,41,43.2
			C37.5,42.3,38.3,40,38.3,40z M41.3,44.9c0,0-1.2-0.6-2-0.3c0,0-1.7,0.3-1.3,2.6c0,0,1.1,3,1.7,5.4c0,0,0.5,3.5,0.4,5
			c0,0-4-0.3-4.6-0.2c0,0,0.6-5.1,0.7-7.3c0,0,0-6.7-0.3-8.5c0,0-0.6-4.4-1-5.4c0,0,6-0.2,6.4,0c0,0-0.1,1.3-0.1,2
			c0,0-2.9-0.9-4,1.9c0,0-0.4,2.7,2.2,3.5c0,0,1.2,0.3,1.9,0.3L41.3,44.9z"/>
		<g id="O_2_">
			<path d="M34,39.5c-0.2-0.4-0.4-1.1-0.4-1.1c-2.3-4.9-6.6-3-6.6-3c-1.7,0.8-2.4,2.3-2.4,2.3c-0.4,0.8-1.1,2.5-1.1,2.5
				c0,1,0,1.1,0,1.1c-0.2,1-0.1,2-0.1,2c0.1,0.9,0,2.5,0,2.5c0,2.1,0.8,4.7,0.8,4.7c0.3,1,0.5,1.7,0.5,1.7c1.3,4.5,3.4,5.9,3.4,5.9
				c0.7,0.6,1.2,0.4,1.2,0.4c1.6-1.1,3.1-4.6,3.1-4.6c0.2-0.5,0.3-0.9,0.3-0.9c0.8-1.2,1.3-5.1,1.3-5.1c0-0.4,0.3-2,0.3-2
				C34.8,43.2,34,39.5,34,39.5z M33.4,46.1c0,0-0.3,3.1-1,4.9c0,0-0.2,1-0.7,2.4c0,0-0.1,0.7-0.7,1.5c0,0-1.4,2.3-2.1,2.9
				c0,0,0.2,0.5-0.5-0.1c0,0-0.9-0.8-1.5-1.8c0,0,0,0.6-0.4-0.5c0,0-1-2.2-1.5-4.3c0,0-0.5-2.9-0.7-3.9c0,0-0.3-3.2-0.2-4.8
				c0,0,0.2-2.3,0.6-3.4c0,0,0.1-0.5,0.5-1c0,0,0.3-0.6,1.1-1.1c0,0,2.4-2.2,5.5,0.3c0,0,1.7,1.5,1.8,4.9
				C33.6,42,33.7,44.4,33.4,46.1z"/>
			<path d="M30.4,40.3c-1.2-1.4-2.5-0.1-2.5-0.1c-1.9,2.5-1.5,5.1-1.5,5.1c0.3,1.6,0.4,2.1,0.4,2.1c0.4,1.9,0.9,2.2,0.9,2.2
				c1.6,1.9,2.6-0.4,2.6-0.4C33.1,42.5,30.4,40.3,30.4,40.3z M30,48c0,0-0.8,1.9-1.6,0.9c0,0-1.3-1.5-1.3-3.9c0,0,0-1.7,0.6-3
				c0,0,1.7-3.1,2.6,0.2c0,0,0.5,1.6,0,4.2C30.4,46.3,30.4,47.1,30,48z"/>
		</g>
	</g>
	<g id="Crypt_2_">
		<path id="T_1_" d="M86.1,24.7c0.2-1.4-0.3-4.3-0.3-4.3c-0.2-1.4-0.9-4.2-0.9-4.2l3.8,3.1c0-0.5-0.1-2.3-0.1-2.3c0-0.6,0-4.6,0-4.6
			c0-0.9-0.1-2.7-0.1-2.7c0-0.5-0.3-0.3-0.3-0.3c-0.4,0.4-3.7,2.9-3.7,2.9c-0.3-1.8,1-4.5,1-4.5c-0.9,0-6.3,0.2-6.3,0.2
			c-0.6,0-1.3,0-1.3,0c1,1,1.9,4.1,1.9,4.1c0.1,0.3-0.2,0.2-0.2,0.2c-0.4-0.4-3.1-2.6-3.1-2.6C75.8,9.3,76,9.8,76,9.8
			c1.1,5.6,0.1,9.5,0.1,9.5c0.4-0.4,4.3-2.9,4.3-2.9c0,2.1-0.8,5.9-0.8,5.9c-0.2,0.8-1.3,4.7-1.3,4.7c-1,4.6,0.1,5.4,0.1,5.4
			c1.4,0.2,7.9-0.2,7.9-0.2c-0.2-0.3-0.5-1.8-0.5-1.8C85.5,29.3,86.1,24.7,86.1,24.7z M79.1,31.7c0,0-0.5-1-0.4-2.3
			c0,0,0.4-3.8,1.5-6.7c0,0,1-5.3,0.7-7.1c0,0,0-0.3-0.2-0.2c0,0-2.8,1.6-3.7,2.3c0,0,0.3-5.3,0-6.7c0,0,2.2,2.2,3.5,2.3
			c0,0,0.3-0.1,0.2-0.5c0,0-0.3-2.7-1.5-4.2h5.1c0,0-1,2.7-0.5,4.7c0,0,0.2,0.1,0.4-0.1c0,0,3-1.8,3.5-2.7c0,0,0,0.8,0,1.5
			c0,0-0.1,3.5,0,5.3c0,0-2.7-2-3.9-2.4c0,0,0.9,2.5,0.9,4c0,0,0.7,3.8,0.5,5.1c0,0-0.7,4-0.5,5.2c0,0,0.1,1.8,0.5,2.3L79.1,31.7z"
			/>
		<g id="P_2_">
			<path d="M69.3,7.9c-1.1,0.1-7,0-7,0c0.8,2.5-0.9,5.3-0.9,5.3c-2.7,5.4-2.9,9.8-2.9,9.8c0.1,1.3,0,2.8,0,2.8
				c0.1,4.1,1.1,6.6,1.1,6.6c1.5,0.2,9.4,0.1,9.4,0.1c0.9-1.9-1.6-7.9-1.6-7.9c-0.3-1.7-1.3-3.9-1.3-3.9c-0.5-0.8-0.4-2.2-0.4-2.2
				c4.6,6.3,9-0.4,9-0.4C78.8,7.7,69.3,7.9,69.3,7.9z M74.7,15.9c0,0-1.1,3.8-4.6,4.2c0,0-1,0.1-1.5-0.3c0,0-2.4-1.7-3.1-3.4
				c0,0-1.1,1.1-0.5,3.7c0,0,1,3.4,1.7,4.6c0,0,0.4,0.9,0.7,1.8c0,0,0.9,3.4,0.8,4.8c0,0-7.2,0.3-7.9,0.2c0,0-0.3-0.2,0.1-0.3
				c0,0-1.5-6-0.5-10.2c0,0,0.3-0.6,0.2-1.6c0,0,0.6-2.4,1.3-3.4c0,0,2-4.5,2.1-7.8c0,0,0.6,0.7,1.8,0.6c0,0,7.7-1.3,9.2,2.9
				c0,0,0.8,1.7,0.5,2.9C75,14.6,74.8,15.4,74.7,15.9z"/>
			<path d="M70.8,14.3c-1.4-4.6-4.6-4-4.6-4c-0.9,3.3,1.6,6.2,1.6,6.2c3.4,2.8,3.2-0.8,3.2-0.8C70.9,15.2,70.8,14.3,70.8,14.3z
				 M70.2,15.9c0,0-0.7,1.2-2-0.4c0,0-1.6-2.9-1.2-4.4C67,11.1,70.4,12.1,70.2,15.9z"/>
		</g>
		<path id="Y_2_" d="M61.4,7.9L56,8c0.1,1.9-1.6,5.3-1.6,5.3c-0.4,0.8-0.9,2.4-0.9,2.4c0.1-5.2-2.8-7.7-2.8-7.7H44
			c0,0.1,0.3,0.3,0.3,0.3c0.7,0.9,1.5,1.5,1.5,1.5c1.5,1.6,2.3,5,2.3,5c0.9,3.2-0.5,10.4-0.5,10.4c-0.9,3.6-0.8,6.2-0.8,6.2
			c-0.1,0.9,0.3,1,0.3,1c1.1,0.1,8.3-0.1,8.3-0.1c0.3,0,0.3-0.4,0.3-0.4c-0.6-0.9-0.7-6.2-0.7-6.2c-0.2-3.6,2.3-7.7,2.3-7.7
			c2.1-2.8,3.2-5.9,3.2-5.9c0-0.6,0.3-1.5,0.3-1.5C61.5,8.7,61.4,7.9,61.4,7.9z M60.4,9.8c0,0-1.1,3.5-2,5c0,0-2.3,4-2.8,5.1
			c0,0-0.9,2.4-1.2,3.2c0,0-0.7,5.9,0.1,8.2c0,0-5.4,0.1-6.4,0c0,0-0.3-2.8,0.2-4.9c0,0,0.5-4.3,0.9-6.7c0,0,0.5-4.2-0.4-6
			c0,0-2.1-4-3-4.8c0,0,3.5,0,3.7,0L50,8.7c0,0,0.2,0.1,0.4,0.3c0,0,2.8,3,2.7,8.7c0,0,0.6-1.5,1.2-2.4c0,0,0.8-1.6,1.1-2.6
			c0,0,0.4-0.8,0.6-1.3c0,0,0.6-1.5,0.7-2.8l4.1-0.1C60.8,8.5,60.5,9.3,60.4,9.8z"/>
		<g id="R_1_">
			<path d="M42.8,19.5c4.1-2.5,3.2-6.4,3.2-6.4c-0.1-0.7-0.6-1.5-0.6-1.5c-1.9-5.4-14.9-3.4-14.9-3.4c-0.8,0.1-1.7,0.1-1.7,0.1
				C31,10.2,31.1,21,31.1,21c0.2,2-0.6,5.4-0.6,5.4c-0.5,1.8-0.9,2.9-0.9,2.9c-0.9,2.2-1,3-1,3c0.7,0.2,6.9,0.1,6.9,0.1
				c-0.6-0.7,0.9-6.7,0.9-6.7c0.3-0.9,0.7-2.9,0.7-2.9c0.2-0.3,0.3-1,0.3-1c3.6,0.6,1.5,7.9,1.5,7.9c-0.4,1.4-0.3,2.7-0.3,2.7
				l6.1-0.1c-0.9-1,0.3-6,0.3-6C45.7,21.6,42.8,19.5,42.8,19.5z M44.1,24.7c0,0-1.1,5.5-0.7,6.3c0,0-0.1,0.4-0.3,0.4
				c0,0-3.6,0.1-4-0.1c0,0,0.3-1.6,0.7-2.7c0,0,2.3-7.7-3.5-8c0,0-0.6,4.5-1,5.8c0,0-1.1,4.1-1.1,5.1c0,0-3.5-0.1-4.1,0
				c0,0-0.4,0.1-0.2-0.6c0,0,4.1-15.2,0.2-21.9c0,0,8.1-0.2,9.3,0.1c0,0,8.9,1.5,4.1,8.6c0,0-1.7,1.5-2.9,1.8
				C40.7,19.4,44.5,20.6,44.1,24.7z"/>
			<path d="M38.9,12.5c-1,0.1-2.6-0.3-2.6-0.3c-0.3-0.1-0.9-0.2-0.9-0.2c-0.6,0-1-0.2-1-0.2c1,1.6,1.4,5.4,1.4,5.4
				c2.5-0.1,4.6-1.2,4.6-1.2C43,12.6,38.9,12.5,38.9,12.5z M40.1,14.8c0,0-0.3,0.4-0.3,0.6c0,0-1.2,0.8-3.1,0.8c0,0-0.2-0.2-0.2-0.4
				c0,0-0.2-2.1-0.7-2.8c0,0,1.2,0.2,1.8,0.1C37.6,13.1,40.8,13,40.1,14.8z"/>
		</g>
		<path id="C_2_" d="M29.2,23.1c-0.4-2.8-2-2.9-2-2.9c-0.7-0.1-3-0.1-3-0.1c0.7,1,0.1,3,0.1,3c-1.1,3.2-3.6,2.4-3.6,2.4
			c-0.2-0.2-0.8-0.5-0.8-0.5c-0.1,0-0.3-0.2-0.3-0.2c0-0.2-0.2-0.2-0.2-0.2c-0.2-0.1-0.3-0.3-0.3-0.3c-1.2-1.1-1-3.8-1-3.8
			c0.1-2.1,0.9-3.4,0.9-3.4c0-0.1,0.1-0.3,0.1-0.3c0.1-0.1,0.3-0.4,0.3-0.4c0.4-0.7,0.6-0.9,0.6-0.9c0-0.2,0.3-0.1,0.3-0.1
			c4.4-2.1,4,2.3,4,2.3c4.7-1.6,3-6.1,3-6.1c-0.8-1.1-0.9-3.2-0.9-3.2H12.1c2,1,1.3,6.1,1.3,6.1c-0.1,2.5-1,5.2-1,5.2
			c-0.4,1-1,3.8-1,3.8c-0.1,0.5,0,2.3,0,2.3c0.1,0.4,0.2,0.9,0.2,0.9c0.5,1.3,1.1,4.2,1.1,4.2c0.2,0.7-0.1,1.6-0.1,1.6
			c0.8,0,13.6-0.1,13.6-0.1c0-1.4,1.4-3.6,1.4-3.6C29.2,26,29.2,23.1,29.2,23.1z M27.3,27.2c0,0-1.9,2.7-1.7,4c0,0-0.1,0.1-0.2,0.1
			c0,0-11.5,0-12.1-0.2c0,0,0-0.1,0.1-0.2c0,0-0.7-3.5-0.9-4.3c0,0-0.6-3.4,0.1-5.4c0,0,1.4-4.9,1.5-6c0,0,0.2-4.8-0.3-5.8
			c0,0-0.1-0.3,0.1-0.3h11.3c0,0,0.3,0,0.3,0.2c0,0,0.8,2.3,1.1,2.9c0,0,1.3,3.2-1.9,4.7c0,0,0.2-3.6-3.7-2.6c0,0-0.2,0.1-0.6,0.2
			c0,0-0.3,0.3-0.8,0.7c0,0-2,2.2-2.4,4.1c0,0-0.3,4.5,1.5,6c0,0,0.9,0.9,2.2,0.9c0,0,0.4,0,0.7,0c0,0,1-0.4,1.8-0.7
			c0,0,1.7-0.8,1.8-4.1c0,0,0-0.4,0.4-0.4l1.8,0.1c0,0,0.4,1.1,0.7,1.4C28,22.2,29,24.5,27.3,27.2z"/>
	</g>
	<g id="Stars_1_">
		<path id="Left_1_" d="M16.8,46.2l1.9,2.9l-2.5-1l-1.6,10.8l-0.7-10.9l-2.6,1.4l1.7-3.1l-6.2-0.6l5.8-1l-2.3-3.2l3.3,2l1.3-8.6
			l0.5,8.1l3.3-2.5c0,0-1.5,3.2-2,4h3.8"/>
		<polygon id="Right_1_" points="84.1,44.1 84.7,34 85.5,44.1 88.2,42.3 86.6,45.6 91.6,46.3 86.5,47.5 88,50.1 85.8,48.6 84.6,58 
			84.4,48.2 81.8,50.1 83.1,46.9 78.2,45.8 83,44.9 81.8,42.8 		"/>
	</g>
</g>
</svg>
