<?xml version="1.0" encoding="utf-8"?>
<!-- Generator: Adobe Illustrator 22.0.0, SVG Export Plug-In . SVG Version: 6.00 Build 0)  -->
<svg version="1.1" id="Layer_1" xmlns="http://www.w3.org/2000/svg" xmlns:xlink="http://www.w3.org/1999/xlink" x="0px" y="0px"
	 viewBox="0 0 100 100" style="enable-background:new 0 0 100 100;" xml:space="preserve">
<g>
	<path d="M28,73.2c-0.4-0.4-0.9-0.7-1.4-1.1c-0.2-0.1-0.2-0.4-0.3-0.6c-0.1-0.3-0.2-0.6-0.3-0.9c-0.1-0.2-0.2-0.5-0.2-0.7
		c0-1,0-2.1,0-3.1c0-1,0.1-2.1,0.7-3c0.1-0.2,0.1-0.5,0.1-0.7c0-0.9,0.1-1.7,0-2.6c-0.1-0.6-0.3-1.2-0.5-1.7
		c-0.4-0.7-0.3-1.5-0.2-2.2c0.3-1.7,0.4-3.4,0.3-5.2c-0.1-1-0.2-1.9-0.8-2.7c-0.2-0.3-0.2-0.6,0-1c0.2-0.3,0.3-0.6,0.2-1
		c-0.1-0.4,0-0.8,0-1.2c0-0.3,0-0.6-0.1-0.9c0-0.1-0.3-0.2-0.4-0.3c-0.6-0.1-1.2-0.1-1.7-0.4c-0.8-0.5-1.6-0.4-2.3-0.1
		c-0.6,0.3-1.1,0.1-1.5-0.1c-1-0.5-1.9-0.3-2.8,0.2c-0.8,0.5-1.6,0.8-2.6,0.7c0,0.8,0,1.5,0,2.3c0,0.3-0.1,0.6-0.2,0.9
		c-0.2,0.7-0.2,1.4,0.3,2c0.3,0.5,0.5,0.9,0.4,1.5c0,0.6,0.2,1.1,0.6,1.5c0.4,0.4,0.7,0.8,0.9,1.3c0.2,0.3,0.5,0.3,0.8,0.2
		c0.1,0,0.2-0.3,0.2-0.5c0.1-0.2,0.1-0.5,0.1-0.7c0-0.3-0.1-0.5-0.1-0.8c0-0.2,0-0.3,0-0.5c0.1-0.5,0.3-1.1,0.4-1.6
		c0.1,0,0.3,0,0.5,0c0.1,0,0.2-0.1,0.3-0.2c0.1-0.1,0.2-0.3,0.3-0.4c0,0,0.1,0,0.1,0.1c0-0.3,0.1-0.7,0.1-1c0-0.1,0.1-0.3,0.3-0.4
		c0.1,0,0.3,0,0.4,0.1c0.3,0.3,0.6,0.7,1.2,0.6c0.1,0,0.2,0.2,0.3,0.3c0.1,0.2,0.3,0.4,0.4,0.6c-0.3,0.6-0.5,1.2-0.5,1.9
		c0.1,1.5,0.2,3,0.2,4.4c0,0.8-0.1,1.6-0.2,2.4c0,0.2,0.1,0.5,0.2,0.7c0.8,1.4,0.5,2.8,0.2,4.3c-0.2-0.2-0.4-0.3-0.5-0.4
		c-0.4-0.4-0.5-1-1-1.4c-0.2-0.2-0.3-0.6-0.4-0.8c-0.3-0.5-0.6-0.9-0.9-1.4c-0.1-0.1-0.1-0.3-0.2-0.5c-0.1-0.3-0.2-0.7-0.4-1
		c-0.3-0.4-0.7-0.8-1-1.2c-0.2-0.3-0.4-0.8-0.4-1.2c-0.1-0.4-0.3-0.5-0.6-0.6c-0.6-0.1-0.9-0.4-1.2-0.9c-0.1-0.2-0.2-0.3-0.4-0.4
		c-0.4-0.2-0.6-0.6-0.7-1.1c0-0.2-0.2-0.3-0.3-0.5c-0.4-0.7-1.1-1.3-1.8-1.8c-0.2-0.2-0.4-0.6-0.3-0.9c0-0.4,0.1-0.8-0.3-1
		c0,0-0.1-0.1-0.1-0.1c0-0.5-0.4-0.7-0.7-0.9c-0.1,0-0.2-0.1-0.2-0.1c-0.2-0.4-0.5-0.7-0.7-1.1C9,46.2,9,46,8.9,45.9
		c0-0.1,0-0.3-0.1-0.3c-0.4-0.4-0.6-0.9-0.7-1.4C8.1,44,8,44,7.9,43.9c-0.5-0.2-1-0.4-1.1-1.1c0-0.2-0.2-0.4-0.4-0.6
		c-0.1-0.1-0.1-0.2-0.1-0.3c-0.2-0.8-0.4-1.5-0.7-2.3c-0.1-0.2-0.2-0.4-0.4-0.5c-0.4-0.2-0.7-0.5-1.1-0.6c-0.4-0.1-0.5-0.3-0.6-0.7
		c-0.2-0.9-0.6-1.7-1.3-2.3c-0.2-0.1-0.4-0.2-0.6-0.4c-0.5-0.6-0.9-1.2-1.4-1.8C0,33-0.1,32.7,0.1,32.5c0.5-0.4,1-0.8,1.5-1.2
		c0.1,0,0.1-0.1,0.2-0.1c0.7,0.1,0.8-0.4,0.9-0.8c0.2-0.7,0.6-1.1,1.2-1.4c0.3-0.1,0.7-0.3,0.9-0.5c0.3-0.3,0.6-0.6,0.8-0.9
		c0.2-0.4,0.4-0.9,0.6-1.3c0-0.1,0.1-0.2,0.2-0.2C7.2,25.8,7.5,25,8,24.5c0.4-0.3,0.6-0.7,0.9-1.1C9,23.2,9,23,9,22.8
		c-0.1-0.5,0-0.7,0.5-0.8c0.5-0.1,0.8-0.3,1.1-0.7c0.3-0.5,0.7-0.7,1.2-0.9c0.3-0.1,0.6-0.3,0.8-0.6c0.2-0.2,0.6-0.3,0.9-0.4
		c0.2-0.1,0.5,0,0.5-0.4c0-0.1,0.3-0.3,0.5-0.3c0.6-0.2,1.1-0.7,1.5-1.2c0.2-0.2,0.4-0.4,0.7-0.5c0.3-0.2,0.7-0.3,1-0.6
		c0.2-0.2,0.6-0.1,1-0.1c0.4,0,0.9,0.1,1.2-0.5c0-0.1,0.2-0.2,0.3-0.2c1,0,1.9,0,2.9,0c0.1,0,0.4,0.1,0.4,0.2
		c0.3,0.6,0.8,0.6,1.4,0.5c0.6-0.1,1.3-0.3,1.9-0.4c0.8-0.2,0.9-0.1,1,0.6c0,0.1,0.1,0.2,0.2,0.3c0.2,0.2,0.4,0.4,0.5,0.6
		c0.2,0.3-0.2,0.4-0.3,0.6c-0.1,0.2-0.1,0.5-0.1,0.5c0.4,0.3,0.1,0.8,0.3,1.1c0.2,0.3,0.3,0.6,0.4,1c0.1,0.3,0.3,0.6,0.3,1
		c0.1,0.5,0,0.9,0,1.4c0,0.4-0.1,0.8-0.2,1.3c0,0.5,0,0.9-0.1,1.4c-0.1,0.5-0.2,1-0.4,1.5c-0.3,0.7-0.5,1.3-0.4,2.1
		c0.1,0.8-0.1,1.6,0,2.4c0,0.5,0.2,1,0.3,1.5c0.4,1.2,0.4,2.3,0.2,3.5c-0.1,0.7,0,1.5-0.1,2.2c0,0.4-0.2,0.7-0.3,1.1
		c-0.1,0.3-0.3,0.7-0.3,1c0,0.7,0,1.4,0.1,2.1c0,0.1,0.2,0.3,0.2,0.4c0,0.3-0.1,0.6-0.2,0.8c-0.1,0.3-0.2,0.5-0.3,0.8
		c-0.2,0.4-0.3,0.8-0.4,1.2c-0.1,0.3,0,0.6,0,0.8c0,0.4,0.2,0.5,0.4,0.7c0.4,0.4,0.7,0.8,1,1.3c0.2,0.3,0.4,0.7,0.4,1
		c0,0.3-0.1,0.6-0.1,0.9c-0.1,0.7-0.4,1.3-0.4,2c-0.1,1.4-0.1,2.7-0.1,4.1c0,0.6,0.1,1.2,0.6,1.5c0,0,0.1,0.1,0.1,0.2
		c0,0.6,0.2,1.2-0.2,1.8c-0.4,0.6-0.4,1.3-0.4,1.9c0,1.8,0,3.7,0,5.5c0,0.9-0.2,1.8-0.3,2.6c0,0.3,0,0.7,0,1
		C28,72.2,28,72.7,28,73.2"/>
	<path d="M49.6,94.1c0-0.2-0.1-0.4-0.1-0.7c0-0.5,0-1,0-1.5c0-0.4-0.1-0.8-0.5-1.1c-0.5-0.3-0.4-0.8-0.3-1.2
		c0.1-0.5,0.3-0.9,0.5-1.4c0.3-0.9,0.2-1.9,0.1-2.8c-0.1-1.5-0.8-2.9-0.7-4.5c0-0.8-0.2-1.7-0.7-2.5c-0.2-0.4-0.2-1-0.3-1.5
		c-0.3-1-0.3-2-0.3-3c0,0,0-0.1,0-0.1c-0.4-0.5-0.3-1.2-0.2-1.8c0.1-1.2-0.2-2.4-0.4-3.5c-0.1-0.3-0.2-0.6-0.3-0.9
		c-0.1-0.4-0.2-0.7,0-1.1c0.1-0.2,0.1-0.6-0.3-0.6c-0.6,0-0.6-0.4-0.6-0.8c0-0.7,0-1.4,0-2c0-0.4-0.3-0.7-0.4-1.1
		c-0.1-0.3-0.2-0.6-0.2-0.9c-0.1-1.5-0.2-2.9-0.3-4.4c0-0.2-0.2-0.4-0.4-0.7c-0.1-0.2-0.3-0.4-0.4-0.6c-0.2-0.7-0.2-1.5-0.4-2.2
		c-0.1-0.5-0.2-0.9-0.3-1.4c-0.5,0.1-0.5-0.2-0.5-0.6c0-1-0.1-1.9-0.5-2.9c0-0.1,0-0.3,0-0.4c0-2,0-3.9,0-5.9c0-0.2,0.1-0.4,0.2-0.6
		c0.1-0.4,0.2-0.8,0.3-1.1c0.3-0.6,0.5-1.2,0.8-1.8c0.4-0.7,0.4-1.3,0.3-2c0-0.2-0.1-0.4-0.1-0.6c0-0.6,0-1.2,0-1.8
		c-0.1-1.1,0.1-2.1,0.6-3c0.1-0.1,0.1-0.3,0.1-0.5c0-0.5,0.2-0.8,0.5-1c0.5-0.3,0.7-0.8,0.7-1.3c0,0,0-0.1,0-0.1
		c-0.2-1.3,0.3-2.3,1-3.4c0.2-0.3,0.2-0.6,0.3-0.9c0.1-0.2,0.1-0.5,0.2-0.7c0.3-0.8,0.5-1.6,0.8-2.3c0.5-1.1,0.3-2.2,0.3-3.4
		c0-0.6,0.4-0.9,0.7-1.3c0.2-0.3,0.3-0.6,0.4-1c0.1-0.4,0-0.8,0.1-1.2c0.3-0.5,0.2-1.1,0.3-1.6c0-0.2,0.3-0.4,0.4-0.5
		c0.1,0,0.4,0.2,0.5,0.4c0.5,1,0.7,2,0.7,3.1c0,0.8,0.2,1.6,0.3,2.4c0,0.2,0.1,0.4,0.1,0.6c0.2,0.9,0.4,1.8,0.6,2.7
		c0.1,0.5,0,1,0.1,1.4c0.2,1,0.4,2,0.7,2.9c0.1,0.3,0.3,0.4,0.5,0.7c0.2,0.3,0.4,0.6,0.4,0.9c0.2,1,0.3,2,0.4,3.1
		c0,0.1,0,0.3,0.1,0.4c0.5,1.2,0.6,2.5,1.2,3.7c0.1,0.2,0.1,0.6,0.1,0.9c-0.1,1.1,0.2,2.1,0.6,3.1c0.2,0.4,0.2,0.8,0.6,1
		c0.1,0.1,0.1,0.3,0.1,0.5c0.1,0.3,0.2,0.6,0.3,0.9c0.1,0.4,0.3,0.8,0.3,1.2c0,1.6,0,3.3,0,4.9c0,0.3-0.1,0.5-0.1,0.8
		c0,1.2-0.6,2.3-0.4,3.5c0.1,0.3-0.2,0.7-0.3,1.1c-0.1,0.4-0.2,0.8-0.2,1.1c0,0.7,0,1.4,0,2c0,0.3-0.1,0.5-0.2,0.8
		c-0.1,0.8-0.2,1.6-0.3,2.4c-0.1,1-0.3,2-0.4,3c0,0.3-0.1,0.5-0.3,0.7c-0.4,0.5-0.5,1-0.5,1.6c0,1-0.2,1.9-0.8,2.8
		c-0.4,0.6-0.7,1.4-1,2.1c-0.1,0.4-0.1,0.8-0.1,1.2c0.1,1.6-0.1,3.1-0.5,4.6c-0.2,0.8-0.5,1.6-0.7,2.4c-0.1,0.7-0.2,1.3-0.3,2
		c0,0.9,0,1.8,0,2.6c-0.1,1-0.3,2-0.4,3.1c-0.1,0.9-0.4,1.8-0.4,2.8c0,0.8-0.2,1.5-0.4,2.3c-0.2,0.9-0.4,1.8-0.5,2.7
		C49.7,93.1,49.7,93.6,49.6,94.1C49.6,94.1,49.6,94.1,49.6,94.1"/>
	<path d="M79.4,61.7c-0.3-1.3-0.8-2.6-0.5-4.1c0.1-0.5,0.3-1.1,0.3-1.6c0-0.2-0.1-0.5-0.1-0.7c0-0.6,0-1.2,0-1.9
		c-0.1-1.5,0.1-3,0.5-4.5c0-0.2,0.1-0.3,0.1-0.5c-0.1-1.4-0.1-2.9-0.2-4.3c0-0.2-0.1-0.3-0.2-0.5c-0.1-0.4-0.1-0.8-0.2-1.2
		c0-0.1,0-0.3-0.1-0.4c-0.1-0.5-0.3-1-0.4-1.5c-0.1-1.2,0-2.4,0-3.6c0-1.3,0.1-2.5,0.2-3.8c0-1.2-0.2-2.3-0.6-3.4
		c-0.1-0.3,0-0.6,0-0.9c0.1-0.6,0.3-1.1,0.3-1.7c0-3.3,0-6.5,0-9.8c0-0.3,0-0.5,0.3-0.7c0.1-0.1,0.2-0.4,0.2-0.6
		c0-0.1-0.1-0.3-0.1-0.4c-0.1-0.7,0-0.8,0.8-0.8c0.8,0,1.5-0.1,2.3-0.2c0.2,0,0.4-0.2,0.6-0.3c0.2,0.7,0.8,0.8,1.2,0.8
		c0.3,0.3,0.5,0.6,0.7,0.9c0.4,0.4,0.8,0.9,1.2,1.3c0.4,0.3,0.9,0.7,1.1,1.2c0,0.1,0.1,0.1,0.2,0.1c0.8,0.2,1.3,0.6,1.6,1.4
		c0,0.1,0.2,0.2,0.4,0.2c0.1,0.2,0.1,0.4,0.2,0.6c0.1,0.2,0.3,0.3,0.5,0.3c0.3,0.1,0.6,0.2,0.7,0.5c0.1,0.2,0.3,0.4,0.6,0.5
		c0.3,0.1,0.5,0.3,0.5,0.6c0,0.3,0.3,0.4,0.5,0.5c0.1,0,0.3,0,0.3,0.1c0.3,0.5,1,0.6,1.3,1.2c0.1,0.1,0.3,0.2,0.4,0.4
		c0.6,0.4,1.3,0.7,1.6,1.4c0.2,0.4,0.3,0.8,0.5,1.1c0.1,0.2,0.4,0.3,0.7,0.4c0.1,0,0.3,0.1,0.3,0.1c0.1,0.5,0.5,0.7,0.9,0.9
		c0.3,0.2,0.6,0.4,0.5,0.9c0,0.1,0,0.3,0.1,0.4c0.3,0.4,0.6,0.8,1,1.2c0.3,0.3,0.4,1.1,0.2,1.4c-0.2,0.3-0.5,0.5-0.7,0.7
		c-0.2,0.3-0.4,0.5-0.6,0.8c-0.1,0.1-0.1,0.2-0.2,0.3c-0.3,0.3-0.4,0.7-0.6,1.1c-0.3,0.6-0.6,1.2-1.2,1.6c-0.4,0.3-0.7,0.8-1,1.3
		c-0.3,0.4-0.6,0.8-0.9,1.2c-0.5,0.6-1.1,1.1-1.4,1.8c-0.3,0.5-0.7,0.9-1,1.4c-0.2,0.3-0.3,0.6-0.5,0.9c-0.1,0.2-0.1,0.5-0.5,0.6
		c-0.4,0.1-0.8,0.3-1.2,0.5c-0.4,0.2-0.8,0.5-1,0.9c-0.4,0.6-0.8,1.2-1.1,1.8c-0.1,0.1,0,0.3-0.1,0.4c-0.2,0.6-0.3,1.2-0.5,1.7
		c0,0.1-0.3,0.2-0.5,0.3c-0.3,0.1-0.5,0.2-0.5,0.6c0.1,0.5-0.1,1-0.6,1.3c-0.2,0.1-0.3,0.4-0.5,0.6c-0.5,0.4-0.9,0.9-1.4,1.3
		c-0.2,0.2-0.3,0.4-0.4,0.7c-0.1,0.2-0.2,0.5-0.4,0.7c-0.3,0.3-0.4,0.5-0.4,0.9c0,0.5-0.5,0.7-0.8,0.9c-0.4,0.1-0.4,0.4-0.4,0.7
		c0,0.2-0.1,0.4-0.2,0.6c-0.3,0.6-0.7,1.2-1.1,1.7c-0.1,0.2-0.3,0.3-0.4,0.5C79.8,60.9,79.6,61.3,79.4,61.7"/>
	<path d="M63.8,5.5c0.6,0,1.3,0.1,2,0.2C66,6.5,66.6,7,67.4,7.1c0.3,0,0.5,0.2,0.8,0.3c0.2,0.1,0.4,0.1,0.7,0.2
		c0.2,0.1,0.4,0.1,0.5,0.3c0.3,0.6,0.7,0.8,1.3,0.9c0.5,0.1,0.9,0.3,1.3,0.6c0.3,0.2,0.8,0.2,1.2,0.3c0.2,0.1,0.5,0.2,0.7,0.3
		c0.4,0.4,0.7,0.5,1.3,0.6c0.5,0,0.9,0.3,1.4,0.5c-0.9,0.2-1.8,0.5-2.6-0.2c-0.4-0.3-0.8-0.4-1.3-0.3c-0.1,0-0.1,0.1-0.2,0
		c-0.6-0.3-1,0.2-1.4,0.4c-0.2,0.1-0.5,0.2-0.7,0.2c-0.7,0-1.4-0.1-2-0.5c-0.4-0.3-0.8-0.2-1.2,0c-0.3,0.2-0.6,0.3-0.9,0.5
		c-0.6,0.3-0.7,1.2-0.1,1.6c0,0,0.1,0.1,0.1,0.1c0,0.5,0.6,0.5,0.7,0.8c0.1,0.2,0.3,0.4,0.3,0.6c0,0.6-0.1,1.2-0.2,1.8
		c-0.1,0.4-0.2,0.8-0.3,1.2c-0.1,0.7,0.1,1.4,0.4,2c0.7,1.4,0.6,2.7,0.4,4.2c-0.2,1.5-0.3,3-0.2,4.6c0,0.8,0.5,1.5,0.7,2.3
		c0.1,0.5,0.2,1,0.2,1.5c0,0.3,0,0.7,0,1c0.6,0.1,0.6,0.1,0.8-0.4c0-0.1,0-0.1,0-0.2c-0.1-1,0.5-1.9,0.6-2.9
		c0.1-0.6,0.1-1.1,0.2-1.7c0-0.2,0-0.3,0.1-0.5c0.3-0.6,0.3-1.2,0.3-1.8c0-0.8,0-1.6,0-2.3c0-0.5,0.1-1,0.3-1.5
		c0.2-0.4,0.2-0.9,0.2-1.3c0-0.8,0-1.6,0-2.4c0-0.4,0-0.8,0.1-1.2c0.1-0.2,0.3-0.4,0.5-0.6c0.2-0.2,0.4-0.5,0.6-0.7
		c0.1-0.1,0.3-0.2,0.5-0.4c0.1,0.7,0.6,0.7,1.1,0.7c0.3,0.4,0.2,0.8,0,1.2c-0.1,0.4-0.2,0.8-0.3,1.3c-0.1,1,0,2,0.2,2.9
		c0,0.1,0,0.3,0,0.4c0,1.6,0,3.3,0,4.9c0,0.6-0.1,1.2-0.4,1.8c-0.1,0.1-0.1,0.3-0.1,0.5c0,0.9,0,1.9,0,2.8c0,0.8,0.2,1.5,0.3,2.3
		c0.1,1,0.3,2,0,3c-0.1,0.4-0.1,0.8-0.1,1.1c0,0.2-0.1,0.5-0.1,0.7c0,0.2,0,0.5,0.1,0.7c0.3,0.6,0.3,1.2,0.2,1.8c0,0.3,0,0.6,0,0.8
		c0,0.2,0.1,0.3,0,0.5c-0.3,0.7-0.2,1.4-0.1,2.1c0,0.3,0.1,0.7,0.1,1c0,0.6,0,1.1,0.2,1.7c0.2,0.6,0.2,1.3-0.1,1.9
		c-0.2,0.5-0.2,1-0.2,1.5c0,0.9-0.1,1.8-0.3,2.7c0,0.1-0.1,0.3,0,0.4c0.1,0.3,0,0.6-0.2,0.9c-0.2,0.4-0.2,0.9-0.3,1.3
		c0,0.6,0,1.2,0,1.8c0,0.6,0.2,1.2,0.4,1.8c0,0.1,0.1,0.2,0,0.3c-0.1,0.7,0.2,1.4-0.2,2c-0.1,0.2,0,0.6,0.1,0.9
		c0,0.2,0.2,0.4,0.1,0.6c-0.2,0.7,0.1,1.4,0.3,2.1c0.3,0.9,0.4,1.8,0.4,2.8c0,0.2-0.1,0.5,0,0.7c0.4,0.7-0.2,1.1-0.5,1.6
		c-0.2,0.2-0.2,0.5-0.3,0.7c-0.3,0.4-0.5,0.8-1,1.1c-0.2,0.1-0.5,0.4-0.5,0.8c0,0.1-0.1,0.2-0.2,0.2c-0.1-0.1-0.2-0.2-0.2-0.3
		c-0.1-0.4-0.1-0.8-0.2-1.2c-0.1-0.5-0.4-0.9-0.5-1.4c-0.1-0.7-0.2-1.5-0.3-2.2c-0.1-0.7-0.2-1.4-0.3-2.1c-0.1-0.4-0.2-0.7-0.4-1
		c-0.3-0.7-0.2-1.3-0.2-2c0.1-1.2,0.2-2.5-0.2-3.7c-0.1-0.4-0.2-0.8-0.2-1.1c0-0.6,0-0.6-0.6-0.5c-0.1,0.5-0.2,1.1-0.2,1.6
		c-0.1,1-0.3,2-0.3,3.1c0,1,0.3,1.9,0.5,2.9c0.1,0.8,0.1,1.6-0.2,2.3c-0.1,0.2-0.3,0.4-0.4,0.5c-0.1,0.1-0.1,0.2,0,0.3
		c0.3,0.8-0.2,1.4-0.5,2c-0.3,0.8-0.6,1.6-0.4,2.5c0.1,0.4,0.1,0.7,0.1,1.1c-0.9-0.1-1.7-0.2-2.6-0.3c0.1-0.7-0.1-1.5,0.1-2.3
		c0.1-0.4,0-0.9-0.1-1.3c-0.1-0.5-0.4-0.9-0.6-1.4c-0.1-0.4-0.1-0.9-0.1-1.3c0.4-1.8,0.6-3.6,0.5-5.5c0-1.6,0-3.2,0-4.9
		c0-1.3-0.3-2.6-0.6-3.9c-0.2-0.9-0.2-1.8-0.1-2.8c0-0.4,0.3-0.7,0.5-1.1c0.3-0.7,0.6-1.4,0.4-2.2c0-0.2,0.1-0.5,0.1-0.7
		c0-0.1,0-0.3,0-0.4c0-1,0-2,0-3c0-1.5,0-3.1-0.5-4.6c-0.1-0.2-0.1-0.4-0.1-0.6c0-4.7,0-9.3,0-14c0-0.9,0.3-1.7,0.4-2.6
		c0-0.3,0.1-0.5,0.1-0.8c0-0.6,0.1-1.1,0-1.7c-0.1-0.6-0.3-1.1-0.4-1.6c-0.1-0.4-0.3-0.7-0.3-1.1c0-2,0-4,0-6c0-0.9-0.2-1.9-0.3-2.8
		c0-0.3,0.1-0.5,0.1-0.8C63.6,6.4,63.7,5.9,63.8,5.5"/>
	<path d="M35.3,48.7c0.1,0.5,0.4,0.8,0.9,1c0.1,0,0.2,0.2,0.2,0.3c0.1,0.3,0.2,0.5,0.3,0.8c-0.1,0.5-0.2,1.1-0.3,1.6
		c0,0.3,0,0.6,0,0.9c-0.1,0.8,0.2,1.4,0.5,2c0.3,0.6,0.3,1.2-0.1,1.7c-0.5,0.8-0.4,1.6-0.3,2.4c0,0.3,0,0.6,0,0.9
		c-0.1,0.8,0.1,1.6,0.4,2.4c0.1,0.3,0,0.6,0,0.9c0,2.3-0.1,4.6,0,6.8c0,0.6,0.2,1.1,0.3,1.7c0.2,1,0,2-0.1,3c-0.1,0.5-0.2,1-0.2,1.6
		c0,1.1-0.1,2.2,0,3.2c0,0.6,0.2,1.3,0.4,1.9c0.1,0.5,0.2,0.9,0.1,1.5c-0.1,0.6-0.3,1.3-0.1,2c0.1,0.5,0,1-0.1,1.5c0,0-0.1,0-0.1,0
		c-0.4-0.5-0.7-1-1.1-1.4c-0.3-0.5-0.6-0.9-1-1.3c-0.3-0.3-0.3-0.7-0.4-1.1c0-0.3-0.1-0.6-0.5-0.7c-0.1,0-0.2-0.2-0.3-0.3
		c-0.2-0.4-0.4-0.8-0.9-0.7c0-0.2,0-0.3,0-0.4c0-0.3,0-0.5-0.4-0.6c-0.4-0.1-0.4-0.5-0.4-0.8c-0.1-0.2-0.1-0.5-0.2-0.7
		c-0.1-0.3-0.2-0.6,0.1-0.9c0.2-0.2,0.2-0.6,0.3-0.9c0-0.8,0-1.6,0-2.4c0-0.6,0.1-1.2,0.3-1.8c0.1-0.4,0.2-0.7,0.2-1.1
		c0-2,0-3.9,0-5.9c0-0.2,0-0.5-0.1-0.7c-0.2-0.6,0.1-1.2,0.3-1.7c0.3-0.9,0.2-1.7-0.1-2.6c-0.1-0.2,0-0.4,0-0.6c0-1,0-2.1,0-3.1
		c0-1,0.1-2.1,0.1-3.1c0-0.8-0.2-1.6-0.3-2.3c-0.1-0.7-0.2-1.5,0.1-2.2c0-0.1,0.2-0.2,0.2-0.2c0.8,0.1,1.4-0.1,2.1-0.5
		C35.2,48.6,35.2,48.7,35.3,48.7"/>
	<path d="M25.8,10.3c0.5,0,0.9-0.2,0.9-0.7c0.6-0.1,1.2-0.2,1.8-0.4c0.1,0,0.3-0.1,0.4-0.2c0.2-0.3,0.5-0.4,0.8-0.4
		c0.8,0.1,1.2-0.6,1.6-1.1c0.2-0.2,0.3-0.4,0.7-0.3c0.8,0.2,1.3-0.3,1.9-0.7c0.2-0.1,0.5-0.2,0.7-0.4c0.2-0.1,0.3-0.2,0.4-0.4
		c0.2-0.3,0.5-0.4,0.8-0.4c0.3,0,0.6-0.1,1-0.2c0,0.1,0,0.2,0,0.4c-0.2,0.4-0.4,0.9-0.6,1.3c-0.2,0.4-0.3,0.9-0.3,1.3
		c0,1.8,0.2,3.6,0.1,5.4c0,1.4-0.2,2.8-0.2,4.2c0,0.9,0.1,1.7,0.5,2.6c0.1,0.2,0.2,0.4,0.2,0.7c0,1,0.2,2.1-0.1,3.1
		c0,0.1,0,0.2-0.1,0.3c-0.7,0.9-0.5,1.8-0.3,2.8c0.3,1,0.3,2,0.3,3.1c0,0.4,0,0.8,0,1.2c0,0.3-0.1,0.7-0.2,1
		C36,33,36,33.6,36.3,34.2c0.1,0.2,0,0.5,0.1,0.7c0,0.3,0.1,0.6,0.1,0.9c-0.1,1,0.2,2-0.1,3c-0.1,0.3,0.1,0.6,0.1,0.9
		c0,0.9,0,1.9,0,2.8c0,0.4,0,0.9,0,1.3c0.1,0.5-0.1,0.7-0.6,0.8c-0.4,0-0.8,0-1.1,0.4c-0.2,0.3-0.5,0.1-0.6-0.2
		c0-0.4-0.2-0.6-0.6-0.8c-0.2-0.1-0.3-0.3-0.4-0.6c-0.2-0.6-0.3-1.1,0-1.7c0.1-0.2,0.1-0.4,0.2-0.6c0-1.4,0-2.8-0.3-4.2
		c-0.2-0.7-0.2-1.4-0.2-2.2c0-2.2,0-4.4,0-6.5c0-0.9-0.1-1.7-0.2-2.6c0-0.1,0-0.3,0-0.4c0.4-0.6,0.3-1.2,0.3-1.8c0-1.4,0-2.9,0-4.3
		c0-0.9-0.1-1.8,0-2.7c0.2-1.3-0.2-2.5-0.3-3.8c0-0.5-0.4-0.6-0.7-0.7c-0.3-0.1-0.5-0.2-0.8-0.3c-0.2-0.1-0.4-0.2-0.7-0.2
		c-0.6,0-1-0.3-1.4-0.6c-0.2-0.1-0.5-0.3-0.7-0.3C27.5,10.8,26.6,10.6,25.8,10.3"/>
	<path d="M59,69.3c0,0.2,0,0.3,0,0.5c0,2.4,0,4.7,0,7.1c0,0.7,0,1.4,0.4,2c0,0.1,0.1,0.2,0.2,0.2c0.9,0.3,1,1.2,1.4,1.8
		c0.1,0.2,0.2,0.4,0.5,0.3c0,0,0.1,0,0.1,0c1.1,0.6,1.9-0.1,2.8-0.5c0.1,0,0.2-0.1,0.2-0.2c0.5-0.9,1.3-0.6,2-0.6
		c0.1,0.3,0.1,0.4-0.2,0.6c-0.3,0.2-0.6,0.6-0.5,1c-0.1,0.2-0.2,0.4-0.3,0.5c-0.1,0.6-1,1.3-1.5,1.4c-0.5,0.1-0.8,0.5-1,0.8
		c-0.2,0.3-0.3,0.7-0.6,0.9c0,0-0.1,0.1,0,0.2c0,0.5-0.3,0.9-0.7,1.2c0,0.1-0.1,0.1-0.1,0.2c-0.3,1-1.2,1.7-1.8,2.4
		c-0.4,0.5-0.7,1.1-1.1,1.6c0,0,0,0.1,0,0.1c0.1,0.6-0.2,0.8-0.7,1.1c-0.6,0.4-1.2,0.9-1.2,1.7c0,0.1,0,0.1-0.1,0.2
		c-0.4,0.4-0.8,0.8-1.1,1.2c-0.2,0.3-0.5,0.5-0.6,0.8c-0.1,0.4-0.4,0.7-0.6,1.1c-0.2,0.3-0.3,0.7-0.4,1.1c-0.1,0.1-0.2,0.2-0.3,0.4
		c-0.1,0.2-0.3,0.3-0.4,0.5c-0.1,0.1-0.1,0.1-0.2,0.2c0-0.1-0.1-0.2-0.1-0.3c0.1-0.4,0.3-0.7,0.4-1c0.4-0.9,0.7-1.9,0.6-2.9
		c0-0.6,0.1-1.3,0.2-1.9c0.1-0.3,0.3-0.6,0.4-0.9c0.2-0.8,0.2-1.5,0.4-2.3c0.2-0.6,0.5-1.1,0.7-1.7c0.2-0.5,0.3-0.9,0.4-1.4
		c0.3-0.9,0.5-1.8,0.8-2.7C57,84,57,83.7,57,83.4c0-1.1-0.1-2.3-0.1-3.4c0-0.3,0.2-0.6,0.3-0.8c0.5-0.8,0.7-1.8,0.6-2.7
		c0-0.6,0.1-1.1,0.3-1.6c0.3-0.9,0.5-1.8,0.6-2.8c0.1-0.9,0.1-1.8,0.1-2.7C58.9,69.3,58.9,69.3,59,69.3"/>
	<path d="M40.6,3.6c0.4-0.5,1-0.5,1.7-0.5c0.3,0,0.6-0.4,0.9-0.6c0.1-0.1,0.3-0.2,0.4-0.2c0.6,0,1-0.4,1.4-0.9c0,0,0.1-0.1,0.1-0.1
		c0.5-0.1,0.8-0.4,1.1-0.8c0.1-0.1,0.2-0.1,0.4-0.3c-0.1,1,0.1,2-0.2,2.9c-0.1,0.3-0.1,0.6-0.1,1c0,0.4,0,0.7-0.4,0.9
		c-0.1,0-0.1,0.1-0.1,0.1c-0.7,0.3-1,0.9-1,1.7c0,1,0,2-0.1,3c0,0.1,0,0.2,0,0.3c-0.6,0.8-0.5,1.8-0.5,2.7c0,1,0,1.9,0,2.9
		c0,0.6-0.1,1.1-0.2,1.7c0,0.1-0.1,0.3-0.2,0.3C43.2,18,43.1,18.5,43,19c-0.2,1.2-0.8,2.3-1.4,3.4c-0.1,0.2-0.3,0.3-0.5,0.5
		c0-0.4,0-0.7,0-1c0.1-0.5,0.2-1,0.3-1.5c0.1-0.2,0.1-0.5,0.1-0.7c0-1,0-2,0-3c0-0.6-0.2-1.1-0.3-1.6c0-0.1,0-0.1,0-0.2
		c0.2-0.9-0.1-1.8-0.2-2.6c-0.1-0.4-0.1-0.9-0.1-1.3c0-2.1,0-4.3,0-6.4C40.8,4.2,40.7,3.9,40.6,3.6"/>
	<path d="M53.4,0.5c0.3,0.1,0.6,0.2,0.9,0.4c0.5,0.3,1,0.6,1.6,0.7c0.3,0.1,0.8,0.2,1.2,0.6c0.3,0.3,0.6,1,1.4,0.6
		c0.3-0.1,0.9,0.5,0.9,0.9c0,0.6,0,1.2,0,1.8c0,0.4-0.1,0.7-0.1,1.1c0,0.1-0.1,0.2-0.1,0.2c-0.5,0.2-0.5,0.7-0.5,1
		c0,1.1-0.2,2.2,0,3.2c0.3,1.8,0.1,3.7,0.3,5.5c0.1,1.2,0.4,2.5,0.6,3.7c0.1,0.8-0.2,1.4-0.4,2.1c-0.1,0.2-0.2,0.5-0.2,0.7
		c0,1.7,0,3.4-0.1,5.1c-0.1-0.3-0.2-0.5-0.2-0.8c-0.1-0.8-0.2-1.6-0.3-2.4c-0.2-0.9-0.4-1.9-0.6-2.8c0-0.1-0.1-0.2,0-0.3
		c0.3-0.8,0-1.5-0.2-2.2c-0.1-0.5-0.2-1-0.2-1.6c0-1.2-0.3-2.3-0.8-3.3c-0.3-0.6-0.5-1.2-0.4-1.8c0-0.5-0.2-0.9-0.3-1.4
		c-0.3-1.4-0.6-2.7-0.9-4.1c-0.2-1.2-0.3-2.5-0.6-3.7c-0.2-0.9-0.5-1.8-0.7-2.6c0-0.2-0.3-0.3-0.4-0.4C53.4,0.6,53.4,0.5,53.4,0.5"
		/>
	<path d="M46,99.8c-0.5-0.6-1-1-1.3-1.8c-0.1-0.5-0.6-1-0.9-1.5c-0.1-0.1-0.1-0.2-0.2-0.4c-0.1-0.5-0.8-1.1-1.1-1.2
		c-0.3-0.5-0.6-0.8-0.8-1.2c-0.1-0.1-0.1-0.2-0.1-0.4c0-0.8,0-1.6,0-2.4c0-0.3-0.1-0.7-0.3-1c-0.2-0.3-0.2-0.6-0.1-0.9
		c0-0.1,0.1-0.2,0.1-0.3c0-2.1-0.1-4.1-0.1-6.2c0-0.5,0-1.1,0-1.6c0-0.5,0-0.9,0.4-1.4c0.5-0.5,0.4-1.3,0.3-1.9
		c-0.1-0.5-0.2-1-0.4-1.5c-0.2-0.6-0.3-1.1-0.5-1.7c-0.3-0.9-0.4-1.8-0.2-2.6c0.2,0.6,0.5,1.3,0.8,1.9c0.1,0.2,0.1,0.4,0.2,0.6
		c0.1,0.9,0.1,1.8,0.2,2.7c0.1,0.8,0.2,1.6,0.4,2.3c0.2,0.7,0.6,1.4,0.9,2.1c0.3,0.6,0.5,1.3,0.5,2c0.1,1.1,0.2,2.2,0.3,3.3
		c0.1,0.8,0.1,1.5,0.2,2.3c0,0.4,0.1,0.8,0.2,1.2c0.1,0.5,0.2,1.1,0.3,1.6c0,0.3,0,0.6,0,0.9c0,0.8,0.1,1.5,0.3,2.3
		c0.3,0.9,0.4,1.9,0.5,2.8c0.1,0.6,0.2,1.1,0.3,1.7C46.1,99.5,46,99.6,46,99.8"/>
</g>
</svg>
