<svg xmlns="http://www.w3.org/2000/svg" xmlns:xlink="http://www.w3.org/1999/xlink" version="1.1" x="0px" y="0px" width="220px" height="40px" viewBox="0 0 220 40" enable-background="new 0 0 220 40" xml:space="preserve"><style>.style0{fill:	#FFFFFF;}</style><path d="M36.305 0l13.719 30.828L62.276 0h5.475L52.056 39.523h-3.724L33.878 7.115L19.424 39.523h-3.728L0 0h5.475 l12.252 30.828L31.445 0H36.305z M120.189 19.762c0 11.293-8.414 19.761-19.705 19.761c-11.236 0-19.704-8.468-19.704-19.761 C80.781 8.5 89.2 0 100.5 0C111.775 0 120.2 8.5 120.2 19.762z M115.109 19.762c0-8.413-6.157-14.679-14.625-14.679 c-8.413 0-14.624 6.266-14.624 14.679c0 8.4 6.2 14.7 14.6 14.679C108.953 34.4 115.1 28.2 115.1 19.762z M143.936 39.523h-5.082V0h15.186c7.678 0 13.3 5.6 13.3 13.326c0 5.363-2.768 9.711-7.002 11.857l11.688 14.341h-6.607 l-10.5-12.873h-11.01V39.523z M152.574 15.471l4.404 5.591c3.049-1.187 5.305-4.123 5.305-7.736c0-4.799-3.67-8.243-8.244-8.243 h-10.104v16.485h7l-2.262-2.823L152.574 15.471z M199.242 20.891l-5.986 6.043v12.59h-5.08V0h5.08v19.707L212.734 0h7.172 l-17.051 17.223l17.051 22.301h-6.438L199.242 20.891z" class="style0"/></svg>