<svg xmlns="http://www.w3.org/2000/svg" xmlns:xlink="http://www.w3.org/1999/xlink" version="1.1" x="0px" y="0px" width="341px" height="40px" viewBox="0 0 341 40" enable-background="new 0 0 341 40" xml:space="preserve"><style>.style0{fill:	#FFFFFF;}</style><path d="M31.223 10.445c-3.106-3.331-7.283-5.363-11.461-5.363c-8.638 0-14.68 5.929-14.68 14.7 c0 8.8 6 14.7 14.7 14.681c2.032 0 4.459-0.622 6.945-1.75l0.903 5.194c-2.71 0.961-5.42 1.638-7.848 1.6 C8.525 39.5 0 31 0 19.762C0 8.5 8.5 0 19.8 0c5.025 0 9.9 2.1 13.8 5.647L31.223 10.445z M87.936 19.8 c0 11.293-8.413 19.763-19.704 19.763c-11.236 0-19.705-8.47-19.705-19.763C48.527 8.5 57 0 68.2 0 C79.522 0 87.9 8.5 87.9 19.762z M82.856 19.762c0-8.412-6.156-14.68-14.625-14.68c-8.413 0-14.625 6.268-14.625 14.7 c0 8.4 6.2 14.7 14.6 14.681C76.7 34.4 82.9 28.2 82.9 19.762z M137.146 39.524L111.681 8.639v30.886h-5.084V0 h4.689l25.635 31.111V0h5.081v39.524H137.146z M194.319 5.082h-15.586v34.442h-5.079V5.082h-15.53V0h36.195V5.082z M239.622 39.5 l-3.163-6.943h-24.62l-3.158 6.943h-5.59L221.494 0h5.312l18.406 39.524H239.622z M214.268 27.498h19.765l-9.88-21.342 L214.268 27.498z M289.452 10.445c-3.106-3.331-7.286-5.363-11.466-5.363c-8.639 0-14.679 5.929-14.679 14.7 c0 8.8 6 14.7 14.7 14.681c2.038 0 4.464-0.622 6.947-1.75l0.905 5.194c-2.712 0.961-5.421 1.638-7.853 1.6 c-11.231 0-19.76-8.525-19.76-19.763C258.227 8.5 266.8 0 278 0c5.029 0 9.9 2.1 13.8 5.647L289.452 10.445z M340.411 5.082h-15.586v34.442h-5.08V5.082h-15.53V0h36.196V5.082z" class="style0"/></svg>