<?xml version="1.0" encoding="utf-8"?>
<!-- Generator: Adobe Illustrator 16.0.0, SVG Export Plug-In . SVG Version: 6.00 Build 0)  -->
<!DOCTYPE svg PUBLIC "-//W3C//DTD SVG 1.1//EN" "http://www.w3.org/Graphics/SVG/1.1/DTD/svg11.dtd">
<svg version="1.1" id="Layer_1" xmlns="http://www.w3.org/2000/svg" xmlns:xlink="http://www.w3.org/1999/xlink" x="0px" y="0px"
	 width="283px" height="40px" viewBox="0 0 283 40" enable-background="new 0 0 283 40" xml:space="preserve">
<path fill="#FFFFFF" d="M5.082,26.65v12.873H0V0h14.059c7.677,0,13.323,5.647,13.323,13.326S21.736,26.65,14.059,26.65H5.082z
	 M14.059,21.568c4.574,0,8.244-3.443,8.244-8.243c0-4.8-3.669-8.244-8.244-8.244H5.082v16.486H14.059z M49.996,39.523h-5.084V0
	h15.189c7.678,0,13.328,5.647,13.328,13.326c0,5.362-2.768,9.711-7.001,11.856l11.686,14.342h-6.606l-10.5-12.873H49.996V39.523z
	 M58.634,15.47l4.405,5.59c3.048-1.186,5.306-4.121,5.306-7.735c0-4.8-3.669-8.244-8.244-8.244H49.996v16.486h7.001l-2.261-2.822
	L58.634,15.47z M130.813,19.761c0,11.293-8.414,19.762-19.705,19.762c-11.236,0-19.704-8.469-19.704-19.762
	C91.405,8.471,99.873,0,111.109,0C122.4,0,130.813,8.471,130.813,19.761z M125.734,19.761c0-8.413-6.156-14.679-14.625-14.679
	c-8.412,0-14.624,6.266-14.624,14.679c0,8.413,6.211,14.68,14.624,14.68C119.578,34.441,125.734,28.174,125.734,19.761z
	 M154.564,5.082v12.14h19.192v5.079h-19.192v17.223h-5.081V0h24.273v5.082H154.564z M191.843,39.523V0h5.085v39.523H191.843z
	 M217.268,0h5.085v34.441h19.588v5.082h-24.673V0z M258.626,0h24.273v5.082h-19.194v12.14h19.194v5.079h-19.194v12.141h19.194v5.082
	h-24.273V0z"/>
</svg>
