<?xml version="1.0" encoding="utf-8"?>
<!-- Generator: Adobe Illustrator 16.0.0, SVG Export Plug-In . SVG Version: 6.00 Build 0)  -->
<!DOCTYPE svg PUBLIC "-//W3C//DTD SVG 1.1//EN" "http://www.w3.org/Graphics/SVG/1.1/DTD/svg11.dtd">
<svg version="1.1" id="Layer_1" xmlns="http://www.w3.org/2000/svg" xmlns:xlink="http://www.w3.org/1999/xlink" x="0px" y="0px"
	 width="612px" height="210px" viewBox="0 0 612 210" enable-background="new 0 0 612 210" xml:space="preserve">
<path fill="#231F20" d="M601.535,200.369l1.012,1.264h-3.136v-7.381h4.525c2.048,0,3.691,1.542,3.691,3.69
	c0,1.618-1.012,2.933-2.377,3.464l-1.972-2.504L601.535,200.369z M599.411,203.908h4.931l4.701,5.763H612l-5.231-6.419
	c1.896-0.962,3.134-2.907,3.134-5.31c0-3.437-2.528-5.966-5.966-5.966h-6.8v17.694h2.274V203.908z M577.801,209.671h10.869v-2.274
	h-8.594v-5.435h8.594v-2.275h-8.594v-5.435h8.594v-2.275h-10.869V209.671z M559.98,201.633v-7.381H564c2.048,0,3.69,1.542,3.69,3.69
	c0,2.149-1.643,3.69-3.69,3.69H559.98z M564,203.908c3.438,0,5.966-2.528,5.966-5.966c0-3.437-2.527-5.966-5.966-5.966h-6.294
	v17.694h2.274v-5.763H564z M540.543,207.396c-3.766,0-6.547-2.805-6.547-6.572c0-3.767,2.781-6.572,6.547-6.572
	c3.791,0,6.547,2.806,6.547,6.572C547.09,204.592,544.334,207.396,540.543,207.396 M540.543,191.977
	c-5.03,0-8.821,3.793-8.821,8.848s3.791,8.847,8.821,8.847c5.055,0,8.821-3.792,8.821-8.847S545.598,191.977,540.543,191.977
	 M514.735,209.671h11.046v-2.274h-8.771v-15.42h-2.275V209.671z M495.398,209.671h10.869v-2.274h-8.595v-5.435h8.595v-2.275h-8.595
	v-5.435h8.595v-2.275h-10.869V209.671z M479.778,209.671l8.417-17.694h-2.528l-6.724,14.258l-6.773-14.258h-2.528l8.417,17.694
	H479.778z M452.201,209.671h10.868v-2.274h-8.594v-5.435h8.594v-2.275h-8.594v-5.435h8.594v-2.275h-10.868V209.671z
	 M435.038,194.252c3.792,0,6.547,2.73,6.547,6.572s-2.755,6.572-6.547,6.572h-3.792v-13.145H435.038z M428.972,209.671h6.066
	c5.005,0,8.821-3.741,8.821-8.847c0-5.106-3.816-8.848-8.821-8.848h-6.066V209.671z M396.77,194.252c3.791,0,6.547,2.73,6.547,6.572
	s-2.756,6.572-6.547,6.572h-3.791v-13.145H396.77z M390.702,209.671h6.067c5.004,0,8.821-3.741,8.821-8.847
	c0-5.106-3.817-8.848-8.821-8.848h-6.067V209.671z M381.604,209.671v-17.694h-2.275v13.929l-11.476-13.929h-2.099v17.694h2.274
	v-13.827l11.401,13.827H381.604z M346.418,209.671h10.868v-2.274h-8.593v-5.435h8.593v-2.275h-8.593v-5.435h8.593v-2.275h-10.868
	V209.671z M325.488,202.998h11.83v-2.273h-11.83V202.998z M319.044,191.977h-16.203v2.275h6.95v15.419h2.274v-15.419h6.979V191.977z
	 M295.637,209.671v-17.694h-2.274v13.929l-11.476-13.929h-2.098v17.694h2.273v-13.827l11.4,13.827H295.637z M262.625,207.396
	c-3.766,0-6.546-2.805-6.546-6.572c0-3.767,2.78-6.572,6.546-6.572c3.791,0,6.547,2.806,6.547,6.572
	C269.172,204.592,266.416,207.396,262.625,207.396 M262.625,191.977c-5.03,0-8.821,3.793-8.821,8.848s3.791,8.847,8.821,8.847
	c5.055,0,8.822-3.792,8.822-8.847S267.68,191.977,262.625,191.977 M237.399,200.369l1.012,1.264h-3.136v-7.381h4.525
	c2.048,0,3.69,1.542,3.69,3.69c0,1.618-1.012,2.933-2.377,3.464l-1.972-2.504L237.399,200.369z M235.275,203.908h4.93l4.702,5.763
	h2.957l-5.232-6.419c1.896-0.962,3.135-2.907,3.135-5.31c0-3.437-2.528-5.966-5.966-5.966h-6.8v17.694h2.274V203.908z
	 M224.913,194.252v-2.275h-10.869v17.694h2.274v-7.709h8.595v-2.275h-8.595v-5.435H224.913z M180.804,197.766
	c-0.581-0.656-0.96-1.062-0.96-2.199c0-1.061,0.96-1.921,2.022-1.921c1.061,0,2.021,0.86,2.021,1.921
	c0,1.593-0.985,2.301-2.249,3.16L180.804,197.766z M181.714,208.004c-2.021,0-3.412-1.062-3.412-2.654
	c0-1.821,1.467-2.908,3.008-3.97l4.246,4.804C184.696,207.32,183.484,208.004,181.714,208.004 M176.229,205.324
	c0,2.653,2.073,4.676,5.485,4.676c2.427,0,4.095-0.885,5.233-2.25l1.694,1.921l1.516-1.39l-2.098-2.326
	c0.582-1.264,0.911-2.679,1.087-4.094l-1.997-0.305c-0.151,0.961-0.329,1.871-0.606,2.68l-3.59-4.045
	c1.567-1.137,3.008-2.426,3.008-4.601c0-2.021-1.567-3.942-4.095-3.942s-4.095,1.871-4.095,3.893c0,1.643,0.683,2.578,1.466,3.488
	l0.733,0.834C178.454,200.9,176.229,202.467,176.229,205.324 M143.775,200.369l1.01,1.264h-3.134v-7.381h4.524
	c2.048,0,3.691,1.542,3.691,3.69c0,1.618-1.011,2.933-2.376,3.464l-1.971-2.504L143.775,200.369z M141.651,203.908h4.928
	l4.702,5.763h2.957l-5.231-6.419c1.896-0.962,3.135-2.907,3.135-5.31c0-3.437-2.529-5.966-5.966-5.966h-6.799v17.694h2.275V203.908z
	 M120.039,209.671h10.87v-2.274h-8.593v-5.435h8.593v-2.275h-8.593v-5.435h8.593v-2.275h-10.87V209.671z M110.939,209.671v-17.694
	h-2.274v13.929l-11.476-13.929h-2.098v17.694h2.275v-13.827l11.4,13.827H110.939z M87.635,194.506
	c-1.744-1.594-3.918-2.529-6.167-2.529c-5.031,0-8.847,3.817-8.847,8.848c0,5.031,3.816,8.847,8.847,8.847
	c1.087,0,2.552-0.328,3.741-0.809v-8.518h-6.344v2.274h4.07v4.576c-0.532,0.125-1.011,0.201-1.466,0.201
	c-3.867,0-6.573-2.654-6.573-6.572s2.706-6.572,6.573-6.572c1.87,0,3.741,0.91,5.13,2.402L87.635,194.506z M64.278,191.977h-2.274
	v17.694h2.274V191.977z M53.284,196.249c-0.784-2.628-3.008-4.272-5.46-4.272c-2.855,0-5.435,1.896-5.435,4.879
	c0,3.236,2.881,4.449,5.258,5.057c1.795,0.455,3.135,1.314,3.135,2.906c0,1.566-1.391,2.578-3.185,2.578
	c-1.542,0-2.881-1.012-3.412-3.008l-1.997,1.062c0.885,3.108,3.286,4.221,5.409,4.221c2.755,0,5.46-1.667,5.46-4.853
	c0-2.906-2.275-4.424-4.93-5.105c-1.921-0.481-3.463-1.189-3.463-2.857c0-1.265,1.061-2.604,3.159-2.604
	c1.366,0,2.806,0.961,3.312,2.881L53.284,196.249z M23.229,209.671h10.87v-2.274h-8.594v-5.435h8.594v-2.275h-8.594v-5.435h8.594
	v-2.275h-10.87V209.671z M6.066,194.252c3.792,0,6.546,2.73,6.546,6.572s-2.755,6.572-6.546,6.572H2.274v-13.145H6.066z M0,209.671
	h6.066c5.005,0,8.821-3.741,8.821-8.847c0-5.106-3.816-8.848-8.821-8.848H0V209.671z"/>
<path fill="#231F20" d="M604.218,148.924V95.825h-6.827v41.796l-34.438-41.796h-6.296v53.099h6.827V107.43l34.21,41.494H604.218z
	 M512.435,104.093l13.275,28.674h-26.55L512.435,104.093z M540.729,148.924l-24.728-53.099h-7.131l-24.729,53.099h7.51l4.249-9.33
	h33.071l4.248,9.33H540.729z M456.228,148.924l25.261-53.099h-7.586l-20.178,42.782l-20.329-42.782h-7.585l25.26,53.099H456.228z
	 M376.507,148.924h32.616v-6.827h-25.79v-16.31h25.79v-6.826h-25.79v-16.31h25.79v-6.827h-32.616V148.924z M328.035,102.651
	c11.379,0,19.647,8.192,19.647,19.722c0,11.531-8.269,19.724-19.647,19.724h-11.377v-39.445H328.035z M309.83,148.924h18.205
	c15.021,0,26.473-11.228,26.473-26.551c0-15.322-11.452-26.548-26.473-26.548H309.83V148.924z M261.057,104.093l13.275,28.674
	h-26.548L261.057,104.093z M289.352,148.924l-24.729-53.099h-7.129l-24.729,53.099h7.51l4.247-9.33h33.072l4.248,9.33H289.352z
	 M212.284,148.924V95.825h-6.827v23.136H175.19V95.825h-6.827v53.099h6.827v-23.137h30.267v23.137H212.284z M119.59,104.093
	l13.274,28.674h-26.548L119.59,104.093z M147.884,148.924l-24.729-53.099h-7.13l-24.729,53.099h7.509l4.249-9.33h33.071l4.249,9.33
	H147.884z M43.054,148.924l22.453-39.445v39.445h6.827V95.825H65.28l-25.185,44.298l-25.26-44.298H7.782v53.099h6.827v-39.445
	l22.453,39.445H43.054z"/>
<path fill="#231F20" d="M187.708,28.151l-9.18,16.148l-9.234-16.195l9.196-19.836L187.708,28.151z M206.784,53.099L182.056,0h-7.13
	l-24.729,53.099h7.509l7.985-17.222l9.804,17.222h5.993l9.803-17.222l7.985,17.222H206.784z M455.279,53.099l-34.21-41.493v41.493
	h-6.826V0h6.295l34.438,41.796V0h6.826v53.099H455.279z M342.182,28.825c0,13.806,10.545,24.273,24.272,24.273
	c13.807,0,24.274-10.468,24.274-24.273V0h-6.827v28.825c0,9.938-7.51,17.447-17.447,17.447c-9.86,0-17.445-7.509-17.445-17.447V0
	h-6.827V28.825z M293.332,34.515c0,6.523,2.731,11.757,9.255,11.757c5.46,0,8.495-4.551,8.495-9.938V0h6.827v36.334
	c0,9.862-5.766,16.764-15.322,16.764c-11.075,0-15.55-8.572-15.55-15.474L293.332,34.515z M260.26,17.902
	c0,4.855-3.033,8.8-7.128,10.393l-5.918-7.51l-5.234,4.4l3.035,3.792h-9.406V6.827h13.578
	C255.331,6.827,260.26,11.455,260.26,17.902 M267.088,17.902C267.088,7.585,259.502,0,249.187,0H228.78v53.099h6.828V35.804h14.791
	l14.108,17.294h8.876l-15.701-19.267C263.37,30.949,267.088,25.108,267.088,17.902"/>
</svg>
