<?xml version="1.0" encoding="utf-8"?>
<!-- Generator: Adobe Illustrator 16.0.0, SVG Export Plug-In . SVG Version: 6.00 Build 0)  -->
<!DOCTYPE svg PUBLIC "-//W3C//DTD SVG 1.1//EN" "http://www.w3.org/Graphics/SVG/1.1/DTD/svg11.dtd">
<svg version="1.1" id="Layer_1" xmlns="http://www.w3.org/2000/svg" xmlns:xlink="http://www.w3.org/1999/xlink" x="0px" y="0px"
	 width="260px" height="140px" viewBox="0 0 260 140" enable-background="new 0 0 260 140" xml:space="preserve">
<path fill="#FFFFFF" d="M246.637,131.764c-0.229-0.062-0.458-0.083-0.769-0.083c-1.021,0-2.102,0.706-2.643,1.643v6.469h-1.976
	v-9.775h1.913v1.123c0.479-0.666,1.498-1.331,2.933-1.331c0.208,0,0.541,0.021,0.77,0.062L246.637,131.764z M231.378,133.656h5.325
	c-0.291-1.248-1.414-2.122-2.579-2.122C232.854,131.534,231.711,132.387,231.378,133.656 M231.212,135.32
	c0.104,1.643,1.456,2.953,3.161,2.953c1.456,0,2.247-0.707,2.808-1.331l1.29,1.227c-0.728,0.937-2.122,1.831-4.118,1.831
	c-2.85,0-5.055-2.163-5.055-5.096s1.997-5.096,4.763-5.096c2.726,0,4.701,2.205,4.701,5.096c0,0.083,0,0.229-0.021,0.416H231.212z
	 M228.988,139.792h-2.642l-4.846-4.784v4.784h-1.977v-14.768h1.977v8.735l4.076-3.743h2.787l-4.888,4.408L228.988,139.792z
	 M214.381,133.073c-0.604-0.79-1.603-1.393-2.787-1.393c-1.893,0-3.141,1.518-3.141,3.224c0,1.747,1.352,3.224,3.244,3.224
	c0.998,0,2.018-0.499,2.684-1.394V133.073z M214.442,138.897c-0.79,0.708-1.851,1.103-3.016,1.103c-0.873,0-1.789-0.25-2.454-0.645
	c-1.477-0.874-2.496-2.496-2.496-4.451s1.04-3.599,2.518-4.472c0.664-0.396,1.476-0.624,2.392-0.624
	c1.102,0,2.163,0.333,3.057,1.102v-0.894h1.914v9.775h-1.914V138.897z M189.756,130.017v0.936c0.395-0.437,1.539-1.144,2.87-1.144
	c1.435,0,2.642,0.645,3.453,1.622c0.894-0.895,1.954-1.622,3.723-1.622c1.394,0,2.663,0.624,3.474,1.643
	c0.604,0.749,0.895,1.706,0.895,3.349v4.992h-1.977v-5.304c0-0.999-0.208-1.539-0.561-1.955c-0.438-0.52-1.104-0.853-1.831-0.853
	c-1.414,0-2.329,0.728-2.974,1.393c0.104,0.479,0.166,1.04,0.166,1.727v4.992h-1.977v-5.304c0-0.999-0.208-1.539-0.561-1.955
	c-0.438-0.52-1.145-0.853-1.894-0.853c-1.207,0-2.184,0.728-2.746,1.393v6.719h-1.976v-9.775H189.756z M185.653,139.792
	c-0.374,0.125-0.977,0.208-1.539,0.208c-1.227,0-2.142-0.437-2.766-1.144c-0.583-0.646-0.791-1.539-0.791-2.601v-4.472h-2.496
	v-1.768h2.496v-2.704h1.976v2.704h3.12v1.768h-3.12v4.576c0,0.52,0.043,0.957,0.291,1.248c0.271,0.333,0.832,0.52,1.353,0.52
	c0.292,0,0.791-0.042,1.082-0.125L185.653,139.792z M169.162,130.952c0.52-0.499,1.519-1.144,2.933-1.144
	c1.435,0,2.725,0.665,3.557,1.726c0.624,0.791,0.957,1.789,0.957,3.474v4.784h-1.976v-4.888c0-1.248-0.229-1.831-0.583-2.268
	c-0.457-0.582-1.206-0.956-2.018-0.956c-1.289,0-2.226,0.686-2.808,1.393v6.719h-1.976v-9.775h1.913V130.952z M163.099,125.232
	c0.729,0,1.31,0.582,1.31,1.31c0,0.729-0.581,1.29-1.31,1.29c-0.728,0-1.29-0.562-1.29-1.29
	C161.809,125.814,162.371,125.232,163.099,125.232 M162.121,130.017h1.976v9.775h-1.976V130.017z M159.855,131.764
	c-0.228-0.062-0.457-0.083-0.769-0.083c-1.02,0-2.102,0.706-2.643,1.643v6.469h-1.976v-9.775h1.914v1.123
	c0.478-0.666,1.497-1.331,2.933-1.331c0.208,0,0.54,0.021,0.77,0.062L159.855,131.764z M144.631,133.344v6.448h-2.08v-14.56h5.512
	c1.414,0,2.33,0.353,3.037,0.957c0.873,0.748,1.436,1.851,1.436,3.099s-0.562,2.351-1.436,3.099
	c-0.707,0.604-1.623,0.957-3.037,0.957H144.631z M147.959,131.368c0.998,0,1.539-0.25,1.914-0.645
	c0.353-0.374,0.582-0.874,0.582-1.436s-0.229-1.061-0.582-1.435c-0.375-0.396-0.916-0.646-1.914-0.646h-3.328v4.16H147.959z
	 M126.348,126.896c-0.874,0-1.373,0.686-1.373,1.393c0,0.688,0.624,1.456,1.207,2.061c0.852-0.646,1.476-1.27,1.476-2.061
	C127.658,127.521,127.076,126.896,126.348,126.896 M127.18,138.128c1.206,0,2.246-0.437,2.995-1.165l-4.243-4.264
	c-1.061,0.728-1.893,1.602-1.893,2.85C124.039,137.067,125.35,138.128,127.18,138.128 M135.687,139.792h-2.662l-1.477-1.456
	c-1.082,1.02-2.579,1.664-4.368,1.664c-2.87,0-5.117-1.727-5.117-4.451c0-2.039,1.227-3.244,2.538-4.223
	c-0.915-0.957-1.602-1.893-1.602-3.037c0-1.747,1.352-3.265,3.349-3.265c1.664,0,3.286,1.289,3.286,3.265
	c0,1.561-0.956,2.56-2.059,3.412l3.64,3.64c0.208-0.541,0.312-1.124,0.312-1.748c0-1.331-0.27-2.162-0.374-2.475l1.872-0.52
	c0.125,0.354,0.479,1.456,0.479,2.994c0,1.165-0.291,2.269-0.812,3.225L135.687,139.792z M114.971,131.764
	c-0.229-0.062-0.458-0.083-0.77-0.083c-1.019,0-2.101,0.706-2.641,1.643v6.469h-1.976v-9.775h1.913v1.123
	c0.479-0.666,1.498-1.331,2.933-1.331c0.208,0,0.541,0.021,0.77,0.062L114.971,131.764z M99.712,133.656h5.325
	c-0.292-1.248-1.415-2.122-2.58-2.122C101.188,131.534,100.045,132.387,99.712,133.656 M99.545,135.32
	c0.104,1.643,1.456,2.953,3.162,2.953c1.456,0,2.246-0.707,2.808-1.331l1.29,1.227c-0.728,0.937-2.122,1.831-4.119,1.831
	c-2.849,0-5.054-2.163-5.054-5.096s1.997-5.096,4.763-5.096c2.725,0,4.701,2.205,4.701,5.096c0,0.083,0,0.229-0.021,0.416H99.545z
	 M96.201,139.792c-0.375,0.125-0.978,0.208-1.539,0.208c-1.228,0-2.143-0.437-2.767-1.144c-0.582-0.646-0.79-1.539-0.79-2.601
	v-4.472h-2.496v-1.768h2.496v-2.704h1.976v2.704h3.12v1.768h-3.12v4.576c0,0.52,0.041,0.957,0.291,1.248
	c0.27,0.333,0.832,0.52,1.352,0.52c0.291,0,0.79-0.042,1.082-0.125L96.201,139.792z M79.708,130.952
	c0.52-0.499,1.518-1.144,2.933-1.144c1.435,0,2.724,0.665,3.556,1.726c0.624,0.791,0.957,1.789,0.957,3.474v4.784h-1.976v-4.888
	c0-1.248-0.229-1.831-0.582-2.268c-0.458-0.582-1.207-0.956-2.018-0.956c-1.289,0-2.225,0.686-2.808,1.393v6.719h-1.976v-9.775
	h1.914V130.952z M73.646,125.232c0.728,0,1.31,0.582,1.31,1.31c0,0.729-0.582,1.29-1.31,1.29s-1.29-0.562-1.29-1.29
	C72.355,125.814,72.917,125.232,73.646,125.232 M72.667,130.017h1.976v9.775h-1.976V130.017z M67.518,133.073
	c-0.603-0.79-1.602-1.393-2.787-1.393c-1.893,0-3.141,1.518-3.141,3.224c0,1.747,1.352,3.224,3.245,3.224
	c0.998,0,2.017-0.499,2.683-1.394V133.073z M67.58,138.897c-0.79,0.708-1.851,1.103-3.016,1.103c-0.873,0-1.788-0.25-2.454-0.645
	c-1.477-0.874-2.496-2.496-2.496-4.451s1.04-3.599,2.517-4.472c0.665-0.396,1.477-0.624,2.392-0.624
	c1.102,0,2.163,0.333,3.057,1.102v-0.894h1.914v9.775H67.58V138.897z M50.991,133.344v6.448h-2.08v-14.56h5.512
	c1.414,0,2.329,0.353,3.036,0.957c0.874,0.748,1.436,1.851,1.436,3.099s-0.562,2.351-1.436,3.099
	c-0.707,0.604-1.622,0.957-3.036,0.957H50.991z M54.319,131.368c0.998,0,1.539-0.25,1.913-0.645
	c0.354-0.374,0.583-0.874,0.583-1.436s-0.229-1.061-0.583-1.435c-0.374-0.396-0.915-0.646-1.913-0.646h-3.328v4.16H54.319z
	 M41.007,135.32h-28.08v-1.664h28.08V135.32z M196.75,23.734c-1.779-2.33-4.724-4.109-8.219-4.109c-5.58,0-9.261,4.477-9.261,9.506
	c0,5.152,3.986,9.506,9.567,9.506c2.943,0,5.949-1.472,7.912-4.109V23.734z M196.934,40.906c-2.331,2.085-5.458,3.251-8.893,3.251
	c-2.576,0-5.274-0.736-7.237-1.902c-4.354-2.575-7.359-7.359-7.359-13.124c0-5.765,3.066-10.61,7.421-13.186
	c1.963-1.165,4.354-1.84,7.053-1.84c3.251,0,6.379,0.982,9.016,3.251v-2.637h5.643v28.824h-5.643V40.906z M164.288,0.613
	c2.146,0,3.863,1.717,3.863,3.864c0,2.146-1.717,3.802-3.863,3.802s-3.803-1.656-3.803-3.802
	C160.485,2.33,162.142,0.613,164.288,0.613 M161.405,14.719h5.826v28.825h-5.826V14.719z M127.823,14.719h6.01l8.524,19.625
	l8.525-19.625h6.01l-12.511,28.824h-4.048L127.823,14.719z M120.433,0.613c2.147,0,3.864,1.717,3.864,3.864
	c0,2.146-1.717,3.802-3.864,3.802c-2.146,0-3.802-1.656-3.802-3.802C116.631,2.33,118.287,0.613,120.433,0.613 M117.551,14.719
	h5.826v28.825h-5.826V14.719z M103.365,0h5.826v43.543h-5.826V0z M75.517,38.33c8.77,0,15.332-6.93,15.332-16.252
	c0-9.261-6.562-16.252-15.332-16.252s-15.333,6.991-15.333,16.252C60.184,31.4,66.747,38.33,75.517,38.33 M75.517,0
	C87.66,0,96.982,9.567,96.982,22.078c0,12.511-9.322,22.079-21.465,22.079c-12.144,0-21.466-9.568-21.466-22.079
	C54.051,9.567,63.373,0,75.517,0 M254.174,92.45c-1.962,2.637-4.968,4.109-7.911,4.109c-5.581,0-9.568-4.355-9.568-9.507
	c0-5.028,3.681-9.506,9.262-9.506c3.496,0,6.439,1.778,8.218,4.109V92.45z M254.357,101.465H260V57.921h-5.826v17.234
	c-2.576-2.147-5.704-3.128-8.831-3.128c-2.699,0-5.091,0.675-7.053,1.84c-4.354,2.576-7.421,7.421-7.421,13.186
	c0,5.766,3.005,10.549,7.359,13.124c1.962,1.165,4.661,1.901,7.236,1.901c3.435,0,6.562-1.165,8.893-3.25V101.465z M218.64,101.465
	h5.826V57.922h-5.826V101.465z M198.598,77.117c3.434,0,6.746,2.576,7.605,6.256h-15.7
	C191.483,79.632,194.856,77.117,198.598,77.117 M212.213,88.279c0.061-0.552,0.061-0.981,0.061-1.227
	c0-8.524-5.826-15.025-13.859-15.025c-8.157,0-14.044,6.378-14.044,15.025s6.501,15.025,14.902,15.025
	c5.888,0,9.996-2.637,12.144-5.396l-3.804-3.618c-1.655,1.84-3.985,3.925-8.278,3.925c-5.029,0-9.016-3.864-9.322-8.709H212.213z
	 M151.068,72.641h-6.747v5.213h6.747v23.611h5.826V77.854h15.639v23.611h5.826V72.641h-21.465v-2.638
	c0-2.637,0.308-4.109,1.104-5.151c0.98-1.288,2.76-2.024,4.415-2.024c0.798,0,1.718,0.122,2.146,0.245l1.228-5.336
	c-0.799-0.245-2.208-0.429-3.436-0.429c-3.925,0-7.358,1.779-9.445,4.784c-1.286,1.84-1.839,4.231-1.839,8.095V72.641z
	 M171.613,61.785c0,2.147,1.656,3.803,3.803,3.803s3.863-1.656,3.863-3.803c0-2.146-1.717-3.864-3.863-3.864
	S171.613,59.639,171.613,61.785 M118.988,98.092c3.189,2.576,7.053,3.986,11.653,3.986c5.642,0,10.732-3.373,10.732-8.831
	c0-5.949-5.949-7.973-10.487-9.138c-2.882-0.736-5.151-1.411-5.151-3.373c0-2.27,2.391-3.619,5.211-3.619
	c2.331,0,4.416,0.92,6.195,2.269l3.005-4.17c-2.269-1.84-5.336-3.188-9.566-3.188c-5.152,0-10.672,2.821-10.672,9.015
	c0,4.048,3.128,6.256,6.624,7.421c4.232,1.411,9.015,1.596,9.015,4.906c0,2.271-2.515,3.619-5.029,3.619
	c-2.882,0-5.826-1.104-8.525-3.189L118.988,98.092z M91.673,72.641h-5.642v28.824h5.826V81.656c1.718-2.086,4.477-4.109,8.28-4.109
	c2.392,0,4.599,1.104,5.949,2.821c1.042,1.288,1.717,3.005,1.717,6.685v14.412h5.826V87.359c0-4.967-0.981-7.911-2.821-10.242
	c-2.453-3.127-6.256-5.09-10.487-5.09c-4.171,0-7.114,1.9-8.648,3.373V72.641z M71.84,92.45c-1.963,2.637-4.968,4.109-7.911,4.109
	c-5.581,0-9.568-4.355-9.568-9.507c0-5.028,3.68-9.506,9.261-9.506c3.496,0,6.439,1.778,8.218,4.109V92.45z M72.024,101.465h5.642
	V72.641h-5.642v2.637c-2.637-2.27-5.765-3.25-9.015-3.25c-2.699,0-5.091,0.675-7.053,1.84c-4.355,2.576-7.421,7.421-7.421,13.186
	c0,5.766,3.005,10.549,7.359,13.124c1.963,1.165,4.661,1.901,7.237,1.901c3.435,0,6.562-1.165,8.893-3.25V101.465z M35.571,72.579
	v28.886h6.133v-42.93h-4.293L20.852,84.723L4.292,58.535H0v42.93h6.133V72.579l12.573,19.688h4.293L35.571,72.579z"/>
</svg>
