<?xml version="1.0" encoding="utf-8"?>
<!-- Generator: Adobe Illustrator 16.0.0, SVG Export Plug-In . SVG Version: 6.00 Build 0)  -->
<!DOCTYPE svg PUBLIC "-//W3C//DTD SVG 1.1//EN" "http://www.w3.org/Graphics/SVG/1.1/DTD/svg11.dtd">
<svg version="1.1" id="Layer_1" xmlns="http://www.w3.org/2000/svg" xmlns:xlink="http://www.w3.org/1999/xlink" x="0px" y="0px"
	 width="520px" height="98px" viewBox="0 0 520 98" enable-background="new 0 0 520 98" xml:space="preserve">
<path fill="#FFFFFF" d="M519.016,88.445c-0.264-0.072-0.526-0.098-0.888-0.098c-1.176,0-2.424,0.816-3.048,1.896v7.464h-2.28v-11.28
	h2.208v1.297c0.552-0.769,1.729-1.535,3.384-1.535c0.24,0,0.601,0,0.9,0.07L519.016,88.445z M501.41,90.629h6.144
	c-0.336-1.439-1.632-2.447-2.976-2.447C503.114,88.2,501.8,89.2,501.4,90.6 M501.218,92.5c0.12,1.9,1.7,3.4,3.601,3.408
	c1.68,0,2.592-0.815,3.239-1.536l1.487,1.416c-0.84,1.08-2.447,2.112-4.752,2.101c-3.288,0-5.832-2.496-5.832-5.881
	c0-3.384,2.305-5.88,5.496-5.88c3.145,0,5.4,2.5,5.4,5.88c0,0.1,0,0.264-0.023,0.479h-8.616V92.5z M498.652,97.709h-3.05
	l-5.591-5.52v5.52h-2.279v-17.04h2.279v10.08l4.703-4.319h3.216l-5.64,5.088L498.652,97.709z M481.797,90
	c-0.696-0.912-1.848-1.607-3.216-1.607c-2.184,0-3.624,1.752-3.624,3.721c0,2,1.6,3.699,3.7,3.699c1.15,0,2.328-0.576,3.096-1.607
	v-4.248L481.797,90z M481.869,96.677c-0.912,0.816-2.136,1.272-3.48,1.272c-1.008,0-2.062-0.288-2.832-0.744
	c-1.704-1.008-2.88-2.88-2.88-5.137c0-2.256,1.2-4.151,2.904-5.159c0.768-0.456,1.704-0.72,2.76-0.72c1.272,0,2.5,0.399,3.5,1.271
	v-1.032h2.208v11.28h-2.208v-1.031H481.869z M453.384,86.43v1.079c0.456-0.504,1.776-1.319,3.312-1.319c1.654,0,3,0.701,4,1.9
	c1.032-1.031,2.256-1.872,4.296-1.872c1.607,0,3.1,0.7,4,1.896c0.695,0.899,1,2,1,3.864v5.76h-2.279v-6.12
	c0-1.151-0.24-1.775-0.647-2.257c-0.505-0.6-1.271-0.983-2.112-0.983c-1.632,0-2.688,0.841-3.432,1.601
	c0.119,0.6,0.199,1.199,0.199,1.992v5.76h-2.279v-6.121c0-1.15-0.24-1.774-0.648-2.256c-0.504-0.6-1.319-0.983-2.184-0.983
	c-1.393,0-2.521,0.841-3.168,1.608v7.752h-2.28V86.45h2.223V86.43z M448.651,97.709c-0.434,0.145-1.128,0.24-1.776,0.2
	c-1.416,0-2.472-0.505-3.192-1.32c-0.672-0.743-0.91-1.774-0.91-3V88.43h-2.882v-2.041h2.882v-3.078h2.278v3.119h3.602v2.039h-3.602
	v5.28c0,0.601,0,1.101,0.3,1.44c0.312,0.399,1,0.6,1.601,0.6c0.336,0,0.912-0.048,1.248-0.145L448.651,97.709z M429.622,87.509
	c0.6-0.575,1.752-1.319,3.384-1.319c1.656,0,3.101,0.801,4.101,1.992c0.72,0.899,1.1,2.1,1.1,4.008v5.521h-2.28v-5.64
	c0-1.44-0.264-2.112-0.672-2.616c-0.527-0.672-1.392-1.104-2.328-1.104c-1.486,0-2.566,0.793-3.238,1.608v7.752h-2.28V86.43h2.208
	v1.079H429.622z M422.626,80.909c0.84,0,1.5,0.7,1.5,1.512s-0.672,1.488-1.512,1.488s-1.488-0.648-1.488-1.488
	s0.66-1.521,1.474-1.521 M421.498,86.43h2.28v11.279h-2.28V86.43z M418.885,88.445c-0.264-0.072-0.527-0.098-0.888-0.098
	c-1.177,0-2.424,0.816-3.048,1.896v7.464h-2.28v-11.28h2.208v1.297c0.553-0.769,1.727-1.535,3.383-1.535c0.24,0,0.6,0,0.9,0.07
	L418.885,88.445z M401.316,90.27v7.439h-2.399v-16.8h6.36c1.632,0,2.699,0.399,3.5,1.1c1.008,0.9,1.699,2.101,1.699,3.576
	c0,1.44-0.647,2.712-1.656,3.576c-0.815,0.696-1.871,1.104-3.504,1.104h-4V90.27z M405.157,87.989c1.151,0,1.774-0.288,2.208-0.744
	c0.408-0.433,0.672-1.009,0.672-1.656s-0.264-1.224-0.672-1.655c-0.434-0.455-1.057-0.744-2.208-0.744h-3.841v4.801L405.157,87.989
	L405.157,87.989z M380.221,82.829c-1.008,0-1.584,0.792-1.584,1.601c0,0.799,0.7,1.699,1.4,2.375
	c0.982-0.744,1.704-1.465,1.704-2.375c-0.009-0.93-0.642-1.63-1.541-1.63 M381.182,95.789c1.393,0,2.592-0.504,3.455-1.344
	l-4.896-4.92c-1.226,0.84-2.185,1.848-2.185,3.3c0,1.774,1.543,2.975,3.644,2.975 M390.997,97.709h-3.072l-1.704-1.68
	c-1.248,1.176-2.976,1.92-5.039,1.9c-3.312,0-5.904-1.992-5.904-5.137c0-2.354,1.416-3.744,2.929-4.872
	c-1.056-1.104-1.849-2.185-1.849-3.504c0-2.017,1.561-3.769,3.863-3.769c1.92,0,3.801,1.5,3.801,3.769
	c0,1.8-1.104,2.951-2.377,3.937l4.201,4.199c0.239-0.623,0.359-1.296,0.359-2.017c0-1.535-0.312-2.495-0.434-2.854l2.16-0.601
	c0.146,0.399,0.601,1.7,0.601,3.5c0,1.345-0.337,2.616-0.937,3.721L390.997,97.709z M367.093,88.445
	c-0.264-0.072-0.526-0.098-0.888-0.098c-1.176,0-2.424,0.816-3.048,1.896v7.464h-2.28v-11.28h2.208v1.297
	c0.552-0.769,1.728-1.535,3.384-1.535c0.24,0,0.6,0,0.9,0.07L367.093,88.445z M349.486,90.629h6.145
	c-0.336-1.439-1.632-2.447-2.977-2.447C351.191,88.2,349.9,89.2,349.5,90.6 M349.295,92.549c0.12,1.9,1.7,3.4,3.6,3.408
	c1.681,0,2.592-0.814,3.239-1.536l1.488,1.416c-0.84,1.08-2.448,2.112-4.752,2.112c-3.288,0-5.832-2.496-5.832-5.881
	c0-3.383,2.304-5.879,5.496-5.879c3.144,0,5.399,2.5,5.399,5.879c0,0.101,0,0.265-0.022,0.479L349.295,92.549L349.295,92.549z
	 M345.436,97.709c-0.432,0.145-1.127,0.24-1.774,0.2c-1.416,0-2.474-0.505-3.192-1.32c-0.672-0.743-0.912-1.774-0.912-3V88.43
	h-2.879v-2.041h2.879v-3.078h2.28v3.119h3.601v2.039h-3.601v5.28c0,0.601,0,1.101,0.3,1.44c0.312,0.399,1,0.6,1.6,0.6
	c0.337,0,0.912-0.048,1.248-0.145L345.436,97.709z M326.407,87.5c0.6-0.575,1.752-1.318,3.384-1.318c1.656,0,3.1,0.799,4.1,1.99
	c0.721,0.9,1.101,2.1,1.101,4.01v5.52h-2.28v-5.641c0-1.439-0.264-2.111-0.672-2.615c-0.527-0.672-1.393-1.104-2.328-1.104
	c-1.486,0-2.566,0.793-3.24,1.608v7.752h-2.279v-11.28h2.209v1.088L326.407,87.5z M319.411,80.909c0.84,0,1.5,0.7,1.5,1.512
	s-0.672,1.488-1.513,1.488c-0.84,0-1.487-0.648-1.487-1.488S318.57,80.9,319.4,80.9 M318.283,86.43h2.279v11.279h-2.279V86.43z
	 M312.34,89.957c-0.695-0.912-1.848-1.607-3.216-1.607c-2.185,0-3.624,1.752-3.624,3.721c0,2,1.6,3.699,3.7,3.72
	c1.151,0,2.327-0.576,3.096-1.608v-4.225H312.34z M312.412,96.7c-0.912,0.815-2.137,1.272-3.48,1.272
	c-1.008,0-2.062-0.289-2.832-0.744c-1.703-1.008-2.88-2.881-2.88-5.137s1.2-4.152,2.904-5.16c0.769-0.455,1.704-0.72,2.76-0.72
	c1.272,0,2.5,0.399,3.5,1.271v-1.031h2.208V97.73h-2.208v-1.054L312.412,96.7z M293.27,90.27v7.439h-2.398v-16.8h6.359
	c1.633,0,2.701,0.399,3.5,1.104c1.008,0.899,1.701,2.1,1.701,3.575c0,1.44-0.647,2.712-1.656,3.601
	c-0.815,0.695-1.871,1.104-3.504,1.104h-4.002V90.27z M297.109,87.989c1.151,0,1.775-0.288,2.209-0.744
	c0.406-0.433,0.672-1.009,0.672-1.656s-0.266-1.224-0.672-1.655c-0.434-0.455-1.058-0.744-2.209-0.744h-3.84v4.801L297.109,87.989
	L297.109,87.989z M281.75,92.549h-32.4v-1.92h32.4V92.549z M513.048,41.93c-2.341,3.146-5.927,4.902-9.438,4.9
	c-6.659,0-11.416-5.195-11.416-11.342c0-6,4.391-11.342,11.05-11.342c4.171,0,7.7,2.1,9.8,4.903V41.93H513.048z M513.268,52.688H520
	V0.732h-6.952v20.562c-3.073-2.561-6.805-3.732-10.537-3.732c-3.22,0-6.073,0.805-8.415,2.2c-5.194,3.074-8.854,8.855-8.854,15.733
	c0,6.9,3.6,12.6,8.8,15.659c2.341,1.4,5.6,2.301,8.6,2.301c4.099,0,7.83-1.391,10.61-3.878v3.11H513.268z M470.651,52.688h6.95
	V0.731h-6.95V52.688z M446.737,23.6c4.098,0,8,3.1,9.1,7.464h-18.731C438.249,26.6,442.3,23.6,446.7,23.6 M462.982,37
	c0.071-0.659,0.071-1.171,0.071-1.464c0-10.171-6.952-17.928-16.538-17.928c-9.73,0-16.757,7.61-16.757,17.9
	c0,10.3,7.8,17.9,17.8,17.928c7.025,0,11.928-3.146,14.489-6.438l-4.537-4.318c-1.977,2.196-4.757,4.684-9.879,4.7
	c-6,0-10.757-4.61-11.123-10.391h26.474V37z M390.025,18.294h-8.049v6.22h8.049v28.171h6.951V24.514h18.66v28.171h6.951V18.294
	h-25.611v-3.147c0-3.146,0.366-4.902,1.317-6.146c1.171-1.537,3.293-2.415,5.271-2.415c0.949,0,2,0.1,2.6,0.293l1.464-6.367
	C406.637,0.2,405,0,403.5,0c-4.686,0-8.781,2.122-11.27,5.708c-1.537,2.195-2.195,5.049-2.195,9.659v2.927H390.025z M414.54,5.3
	c0,2.6,2,4.5,4.5,4.537c2.561,0,4.61-1.976,4.61-4.537c0-2.561-2.051-4.61-4.61-4.61c-2.524,0.01-4.54,2.11-4.54,4.61
	 M351.749,48.662c3.806,3.1,8.399,4.8,13.899,4.756c6.731,0,12.806-4.023,12.806-10.537c0-7.098-7.099-9.513-12.513-10.903
	c-3.439-0.878-6.146-1.683-6.146-4.025c0-2.707,2.854-4.317,6.219-4.317c2.781,0,5.301,1.1,7.4,2.707L377,21.367
	c-2.708-2.195-6.366-3.805-11.416-3.805c-6.146,0-12.732,3.366-12.732,10.757c0,4.8,3.7,7.5,7.9,8.9c5.049,1.7,10.8,1.9,10.8,5.854
	c0,2.708-3.001,4.318-6.001,4.318c-3.438,0-6.951-1.318-10.171-3.806L351.749,48.662z M319.158,18.294h-6.732v34.394h6.951V29.051
	c2.049-2.488,5.342-4.903,9.879-4.903c2.854,0,5.5,1.3,7.1,3.4c1.244,1.5,2,3.6,2,7.976v17.197h6.953V35.856
	c0-5.927-1.173-9.44-3.367-12.22c-2.926-3.732-7.463-6.074-12.514-6.074c-4.976,0-8.488,2.269-10.316,4.025v-3.293H319.158z
	 M295.493,41.93c-2.341,3.146-5.927,4.902-9.438,4.9c-6.66,0-11.416-5.195-11.416-11.342c0-6,4.391-11.342,11.049-11.342
	c4.172,0,7.701,2.1,9.801,4.903V41.93H295.493z M295.713,52.688h6.732V18.294h-6.732v3.146c-3.146-2.707-6.879-3.878-10.757-3.878
	c-3.22,0-6.074,0.805-8.415,2.2c-5.195,3.074-8.854,8.855-8.854,15.733c0,6.9,3.6,12.6,8.799,15.659
	c2.342,1.4,5.601,2.301,8.601,2.301c4.099,0,7.83-1.391,10.611-3.878v3.11H295.713z M252.218,18.221v34.464h7.318V1.464h-5.122
	L234.656,32.71L214.899,1.464h-5.122v51.222h7.317V18.221l15.001,23.489h5.122L252.218,18.221z M170.263,41.93
	c-2.342,3.146-5.927,4.902-9.44,4.9c-6.659,0-11.415-5.195-11.415-11.342c0-6,4.39-11.342,11.049-11.342c4.171,0,7.7,2.1,9.8,4.903
	V41.93H170.263z M170.482,52.688h6.733V18.294h-6.733v3.146c-3.146-2.707-6.878-3.878-10.756-3.878c-3.22,0-6.074,0.805-8.416,2.2
	c-5.195,3.074-8.854,8.855-8.854,15.733c0,6.9,3.6,12.6,8.8,15.659c2.342,1.4,5.6,2.301,8.6,2.301c4.098,0,7.83-1.391,10.61-3.878
	v3.11H170.482z M126.994,6.074c0,2.6,2,4.5,4.5,4.537c2.561,0,4.61-1.976,4.61-4.537c0-2.561-2.049-4.61-4.61-4.61
	C128.97,1.5,127,3.5,127,6.1 M128.092,52.688h6.952V18.294h-6.952V52.688z M102.95,52.7h4.829l14.928-34.393h-7.171L105.365,41.71
	L95.193,18.294h-7.171l14.928,34.394V52.7z M74.667,6.074c0,2.6,2,4.5,4.5,4.5s4.61-1.976,4.61-4.537s-2.049-4.61-4.61-4.61
	S74.667,3.5,74.7,6.1 M75.765,52.688h6.952V18.294h-6.952V52.688z M58.84,52.7h6.952V0.731H58.84v51.957V52.7z M7.318,27.075
	c0-11.049,7.829-19.391,18.293-19.391c10.465,0,18.3,8.3,18.3,19.4c0,11.123-7.829,19.392-18.294,19.392
	C15.147,46.5,7.3,38.2,7.3,27.1 M0,27.075c0,14.9,11.1,26.3,25.6,26.3c14.489,0,25.612-11.415,25.612-26.343
	c0-14.928-11.123-26.343-25.612-26.343C11.123,0.7,0,12.1,0,27.1"/>
</svg>
