<?xml version="1.0" encoding="utf-8"?>
<!-- Generator: Adobe Illustrator 16.0.0, SVG Export Plug-In . SVG Version: 6.00 Build 0)  -->
<!DOCTYPE svg PUBLIC "-//W3C//DTD SVG 1.1//EN" "http://www.w3.org/Graphics/SVG/1.1/DTD/svg11.dtd">
<svg version="1.1" id="Layer_1" xmlns="http://www.w3.org/2000/svg" xmlns:xlink="http://www.w3.org/1999/xlink" x="0px" y="0px"
	 width="180px" height="18px" viewBox="0 0 180 18" enable-background="new 0 0 180 18" xml:space="preserve">
<g>
	<defs>
		<rect id="SVGID_1_" width="179.684" height="18"/>
	</defs>
	<clipPath id="SVGID_2_">
		<use xlink:href="#SVGID_1_"  overflow="visible"/>
	</clipPath>
	<path clip-path="url(#SVGID_2_)" fill="#231F20" d="M177.342,14.128c-0.789,1.062-1.997,1.653-3.181,1.653
		c-2.244,0-3.846-1.751-3.846-3.822c0-2.021,1.479-3.822,3.723-3.822c1.405,0,2.589,0.715,3.304,1.652V14.128z M177.416,17.753
		h2.268V0.246h-2.342v6.929c-1.036-0.863-2.293-1.257-3.551-1.257c-1.085,0-2.046,0.271-2.835,0.739
		c-1.751,1.036-2.984,2.984-2.984,5.302s1.208,4.241,2.959,5.276c0.789,0.469,1.874,0.765,2.91,0.765
		c1.38,0,2.638-0.469,3.575-1.307V17.753z M162.678,17.753h2.342V0.246h-2.342V17.753z M154.243,7.964
		c1.381,0,2.712,1.036,3.057,2.515h-6.312C151.383,8.975,152.739,7.964,154.243,7.964 M159.717,12.452
		c0.025-0.222,0.025-0.395,0.025-0.493c0-3.428-2.343-6.041-5.573-6.041c-3.28,0-5.646,2.564-5.646,6.041S151.136,18,154.514,18
		c2.367,0,4.02-1.061,4.883-2.17l-1.528-1.455c-0.666,0.74-1.604,1.578-3.329,1.578c-2.022,0-3.625-1.553-3.748-3.501H159.717z
		 M134.764,6.164h-2.713V8.26h2.713v9.493h2.343V8.26h6.287v9.493h2.343V6.164h-8.63v-1.06c0-1.06,0.122-1.652,0.443-2.071
		c0.395-0.518,1.109-0.814,1.775-0.814c0.321,0,0.69,0.049,0.863,0.099l0.492-2.146C140.361,0.074,139.794,0,139.301,0
		c-1.578,0-2.959,0.715-3.798,1.923c-0.517,0.74-0.739,1.701-0.739,3.255V6.164z M143.024,1.8c0,0.863,0.666,1.528,1.528,1.528
		c0.863,0,1.554-0.665,1.554-1.528s-0.69-1.554-1.554-1.554C143.69,0.246,143.024,0.938,143.024,1.8 M121.508,16.397
		c1.282,1.036,2.836,1.603,4.686,1.603c2.268,0,4.314-1.355,4.314-3.551c0-2.392-2.392-3.205-4.216-3.674
		c-1.159-0.296-2.072-0.567-2.072-1.356c0-0.912,0.962-1.455,2.097-1.455c0.937,0,1.775,0.37,2.49,0.912l1.208-1.676
		c-0.912-0.74-2.145-1.282-3.847-1.282c-2.071,0-4.29,1.134-4.29,3.624c0,1.628,1.257,2.516,2.663,2.984
		c1.701,0.567,3.625,0.641,3.625,1.972c0,0.913-1.011,1.455-2.022,1.455c-1.158,0-2.343-0.443-3.428-1.282L121.508,16.397z
		 M110.144,6.164h-2.269v11.589h2.343V9.789c0.69-0.839,1.8-1.652,3.328-1.652c0.962,0,1.851,0.444,2.393,1.134
		c0.419,0.518,0.69,1.208,0.69,2.688v5.794h2.342v-5.671c0-1.997-0.394-3.181-1.134-4.118c-0.986-1.257-2.515-2.046-4.217-2.046
		c-1.676,0-2.86,0.764-3.477,1.356V6.164z M101.778,14.128c-0.789,1.062-1.998,1.653-3.182,1.653c-2.244,0-3.847-1.751-3.847-3.822
		c0-2.021,1.48-3.822,3.723-3.822c1.406,0,2.589,0.715,3.306,1.652V14.128z M101.852,17.753h2.269V6.164h-2.269v1.06
		c-1.061-0.912-2.317-1.306-3.625-1.306c-1.085,0-2.047,0.271-2.836,0.739c-1.75,1.036-2.982,2.984-2.982,5.302
		s1.208,4.241,2.959,5.276C96.156,17.704,97.241,18,98.276,18c1.381,0,2.639-0.469,3.575-1.307V17.753z M86.843,6.139v11.614h2.466
		V0.493h-1.726l-6.658,10.529L74.268,0.493h-1.727v17.26h2.466V6.139l5.055,7.917h1.726L86.843,6.139z M59.227,14.128
		c-0.789,1.062-1.997,1.653-3.181,1.653c-2.244,0-3.847-1.751-3.847-3.822c0-2.021,1.48-3.822,3.724-3.822
		c1.405,0,2.589,0.715,3.304,1.652V14.128z M59.301,17.753h2.268V6.164h-2.268v1.06c-1.061-0.912-2.318-1.306-3.625-1.306
		c-1.085,0-2.046,0.271-2.836,0.739c-1.75,1.036-2.983,2.984-2.983,5.302s1.208,4.241,2.959,5.276C53.605,17.704,54.69,18,55.725,18
		c1.381,0,2.639-0.469,3.576-1.307V17.753z M44.265,2.046c0,0.863,0.665,1.529,1.528,1.529s1.554-0.666,1.554-1.529
		c0-0.863-0.691-1.553-1.554-1.553S44.265,1.183,44.265,2.046 M44.634,17.753h2.342V6.164h-2.342V17.753z M35.793,17.753h1.627
		l5.03-11.589h-2.416l-3.428,7.892l-3.427-7.892h-2.417L35.793,17.753z M25.89,2.046c0,0.863,0.666,1.529,1.529,1.529
		c0.863,0,1.553-0.666,1.553-1.529c0-0.863-0.69-1.553-1.553-1.553C26.556,0.493,25.89,1.183,25.89,2.046 M26.26,17.753h2.342V6.164
		H26.26V17.753z M20.165,17.753h2.342V0.246h-2.342V17.753z M2.466,9.123c0-3.723,2.638-6.534,6.164-6.534s6.165,2.811,6.165,6.534
		c0,3.748-2.639,6.534-6.165,6.534S2.466,12.871,2.466,9.123 M0,9.123C0,14.153,3.748,18,8.63,18c4.882,0,8.63-3.847,8.63-8.877
		c0-5.03-3.748-8.877-8.63-8.877C3.748,0.246,0,4.093,0,9.123"/>
</g>
</svg>
