<?xml version="1.0" encoding="utf-8"?>
<!-- Generator: Adobe Illustrator 16.0.0, SVG Export Plug-In . SVG Version: 6.00 Build 0)  -->
<!DOCTYPE svg PUBLIC "-//W3C//DTD SVG 1.1//EN" "http://www.w3.org/Graphics/SVG/1.1/DTD/svg11.dtd">
<svg version="1.1" id="Layer_1" xmlns="http://www.w3.org/2000/svg" xmlns:xlink="http://www.w3.org/1999/xlink" x="0px" y="0px"
	 width="960px" height="320px" viewBox="0 0 960 320" enable-background="new 0 0 960 320" xml:space="preserve">
<path fill="#FFFFFF" d="M650.258,223v-27.569h-3.545v21.701l-17.88-21.701h-3.27V223h3.544v-21.543L646.871,223H650.258z
	 M613.946,199.369c-2.719-2.481-6.105-3.938-9.61-3.938c-7.838,0-13.785,5.947-13.785,13.784c0,7.838,5.947,13.785,13.785,13.785
	c1.693,0,3.978-0.512,5.829-1.26v-13.273h-9.886v3.545h6.341v7.128c-0.827,0.197-1.575,0.315-2.284,0.315
	c-6.026,0-10.24-4.135-10.24-10.24c0-6.104,4.214-10.24,10.24-10.24c2.914,0,5.829,1.418,7.995,3.742L613.946,199.369z
	 M577.554,195.431h-3.545V223h3.545V195.431z M560.422,202.087c-1.22-4.096-4.686-6.656-8.507-6.656
	c-4.45,0-8.468,2.954-8.468,7.602c0,5.041,4.49,6.932,8.192,7.877c2.796,0.709,4.884,2.048,4.884,4.529
	c0,2.441-2.166,4.017-4.963,4.017c-2.402,0-4.49-1.575-5.316-4.687l-3.111,1.654c1.378,4.844,5.12,6.577,8.428,6.577
	c4.293,0,8.508-2.599,8.508-7.562c0-4.529-3.545-6.893-7.681-7.956c-2.993-0.748-5.396-1.852-5.396-4.45
	c0-1.969,1.654-4.058,4.923-4.058c2.127,0,4.372,1.497,5.159,4.49L560.422,202.087z M513.595,223h16.935v-3.545h-13.391v-8.467
	h13.391v-3.545h-13.391v-8.469h13.391v-3.544h-16.935V223z M486.854,198.975c5.906,0,10.199,4.254,10.199,10.24
	c0,5.987-4.293,10.24-10.199,10.24h-5.909v-20.48H486.854z M477.4,223h9.454c7.797,0,13.744-5.829,13.744-13.785
	c0-7.955-5.947-13.784-13.744-13.784H477.4V223z M427.225,219.455c-5.868,0-10.2-4.371-10.2-10.24c0-5.868,4.332-10.24,10.2-10.24
	c5.908,0,10.201,4.372,10.201,10.24C437.426,215.084,433.133,219.455,427.225,219.455 M427.225,195.431
	c-7.837,0-13.745,5.907-13.745,13.784S419.388,223,427.225,223c7.877,0,13.746-5.908,13.746-13.785S435.102,195.431,427.225,195.431
	 M403.043,199.369c-2.717-2.481-6.104-3.938-9.61-3.938c-7.837,0-13.784,5.947-13.784,13.784c0,7.838,5.947,13.785,13.784,13.785
	c1.694,0,3.978-0.512,5.829-1.26v-13.273h-9.885v3.545h6.341v7.128c-0.827,0.197-1.576,0.315-2.285,0.315
	c-6.025,0-10.24-4.135-10.24-10.24c0-6.104,4.215-10.24,10.24-10.24c2.915,0,5.829,1.418,7.996,3.742L403.043,199.369z
	 M354.089,219.455c-5.869,0-10.201-4.371-10.201-10.24c0-5.868,4.332-10.24,10.201-10.24c5.907,0,10.2,4.372,10.2,10.24
	C364.289,215.084,359.996,219.455,354.089,219.455 M354.089,195.431c-7.838,0-13.746,5.907-13.746,13.784S346.251,223,354.089,223
	c7.877,0,13.745-5.908,13.745-13.785S361.966,195.431,354.089,195.431 M313.877,223h17.211v-3.545h-13.666v-24.024h-3.545V223z"/>
<path fill="#FFFFFF" d="M808.326,154.076h33.871v-7.089h-26.782v-16.935h26.782v-7.089h-26.782v-16.937h26.782v-7.089h-33.871
	V154.076z M785.878,98.938h-50.491v7.089h21.661v48.049h7.09v-48.049h21.74V98.938z M693.797,107.524l13.785,29.775h-27.569
	L693.797,107.524z M723.178,154.076l-25.679-55.138h-7.404l-25.679,55.138h7.799l4.411-9.688h34.343l4.411,9.688H723.178z
	 M652.208,98.938h-50.491v7.089h21.662v48.049h7.089v-48.049h21.74V98.938z M582.025,112.25
	c-2.442-8.191-9.375-13.312-17.014-13.312c-8.902,0-16.937,5.908-16.937,15.202c0,10.083,8.979,13.864,16.384,15.754
	c5.594,1.418,9.768,4.096,9.768,9.059c0,4.883-4.332,8.034-9.924,8.034c-4.806,0-8.98-3.151-10.635-9.373l-6.223,3.309
	c2.757,9.688,10.24,13.153,16.857,13.153c8.586,0,17.014-5.198,17.014-15.123c0-9.059-7.09-13.785-15.36-15.912
	c-5.985-1.496-10.791-3.701-10.791-8.9c0-3.938,3.308-8.113,9.847-8.113c4.252,0,8.742,2.993,10.318,8.98L582.025,112.25z
	 M488.369,154.076h33.871v-7.089h-26.781v-16.935h26.781v-7.089h-26.781v-16.937h26.781v-7.089h-33.871V154.076z M388.019,106.027
	c11.815,0,20.401,8.507,20.401,20.48c0,11.973-8.586,20.479-20.401,20.479h-11.816v-40.96H388.019z M369.114,154.076h18.905
	c15.596,0,27.49-11.657,27.49-27.568s-11.894-27.569-27.49-27.569h-18.905V154.076z M314.055,125.09l3.151,3.938h-9.767v-23.001
	h14.099c6.381,0,11.501,4.805,11.501,11.501c0,5.041-3.151,9.137-7.405,10.791l-6.144-7.798L314.055,125.09z M307.439,136.117h15.36
	l14.651,17.959h9.216l-16.305-20.007c5.907-2.993,9.767-9.058,9.767-16.541c0-10.713-7.877-18.59-18.59-18.59h-21.189v55.138h7.09
	V136.117z M271.993,98.938h-7.089v55.138h7.089V98.938z M236.547,154.076V98.938h-7.09v24.025h-31.429V98.938h-7.089v55.138h7.089
	v-24.023h31.429v24.023H236.547z M168.491,98.938H118v7.089h21.661v48.049h7.09v-48.049h21.74V98.938z"/>
</svg>
