<?xml version="1.0" encoding="utf-8"?>
<!-- Generator: Adobe Illustrator 16.0.0, SVG Export Plug-In . SVG Version: 6.00 Build 0)  -->
<!DOCTYPE svg PUBLIC "-//W3C//DTD SVG 1.1//EN" "http://www.w3.org/Graphics/SVG/1.1/DTD/svg11.dtd">
<svg version="1.1" id="Layer_1" xmlns="http://www.w3.org/2000/svg" xmlns:xlink="http://www.w3.org/1999/xlink" x="0px" y="0px"
	 width="960px" height="320px" viewBox="0 0 960 320" enable-background="new 0 0 960 320" xml:space="preserve">
<path fill="#FFFFFF" d="M687.435,254.719l-8.507-12.288h-4.334l11.067,15.951V270h3.545v-11.618l11.067-15.951h-4.332
	L687.435,254.719z M666.324,242.431h-25.245v3.544h10.83V270h3.545v-24.025h10.87V242.431z M629.854,242.431h-3.545V270h3.545
	V242.431z M615.085,242.431H589.84v3.544h10.83V270h3.545v-24.025h10.87V242.431z M578.616,270v-27.569h-3.545v21.701
	l-17.882-21.701h-3.269V270h3.546v-21.543L575.229,270H578.616z M523.793,270h16.936v-3.545h-13.392v-8.467h13.392v-3.545h-13.392
	v-8.469h13.392v-3.544h-16.936V270z M497.051,245.975c5.908,0,10.2,4.254,10.2,10.24c0,5.987-4.292,10.24-10.2,10.24h-5.908v-20.48
	H497.051z M487.6,270h9.451c7.799,0,13.745-5.829,13.745-13.785c0-7.955-5.946-13.784-13.745-13.784H487.6V270z M473.42,242.431
	h-3.545V270h3.545V242.431z M419.7,245.975c5.908,0,10.201,4.254,10.201,10.24c0,5.987-4.293,10.24-10.201,10.24h-5.908v-20.48
	H419.7z M410.248,270h9.452c7.798,0,13.745-5.829,13.745-13.785c0-7.955-5.947-13.784-13.745-13.784h-9.452V270z M396.07,270
	v-27.569h-3.545v21.701l-17.88-21.701h-3.269V270h3.544v-21.543L392.683,270H396.07z M345.264,246.724l6.892,14.888h-13.784
	L345.264,246.724z M359.955,270l-12.84-27.569h-3.702L330.574,270h3.899l2.205-4.844h17.172l2.206,4.844H359.955z M305.801,255.506
	l1.576,1.97h-4.884v-11.501h7.05c3.19,0,5.75,2.403,5.75,5.751c0,2.521-1.576,4.568-3.702,5.396l-3.072-3.899L305.801,255.506z
	 M302.493,261.02h7.68l7.325,8.98h4.608l-8.152-10.004c2.954-1.496,4.883-4.529,4.883-8.271c0-5.356-3.938-9.295-9.294-9.295
	h-10.595V270h3.545V261.02z M270.71,245.975h7.995c2.363,0,4.096,1.615,4.096,4.137c0,2.48-1.654,4.332-3.899,4.332h-8.192V245.975z
	 M270.71,257.988h8.192c2.245,0,3.899,1.851,3.899,4.332c0,2.521-1.733,4.135-4.096,4.135h-7.995V257.988z M267.165,270h11.54
	c4.214,0,7.64-3.072,7.64-7.68c0-2.64-1.299-4.885-3.347-6.105c2.048-1.22,3.347-3.505,3.347-6.104c0-4.608-3.426-7.681-7.64-7.681
	h-11.54V270z"/>
<path fill="#FFFFFF" d="M674.714,170.515L657.7,145.938h-8.665l22.134,31.902v23.236h7.089v-23.236l22.135-31.902h-8.665
	L674.714,170.515z M603.034,172.09l3.151,3.938h-9.768v-23.001h14.1c6.381,0,11.5,4.805,11.5,11.501
	c0,5.041-3.15,9.137-7.404,10.791l-6.145-7.798L603.034,172.09z M596.418,183.117h15.359l14.652,17.96h9.215l-16.306-20.008
	c5.908-2.993,9.769-9.058,9.769-16.541c0-10.713-7.877-18.59-18.59-18.59h-21.189v55.139h7.09V183.117z M529.07,201.077h33.871
	v-7.09H536.16v-16.935h26.781v-7.089H536.16v-16.937h26.781v-7.089H529.07V201.077z M471.412,201.077h34.422v-7.09h-27.333v-48.049
	h-7.089V201.077z M413.753,201.077h34.422v-7.09h-27.333v-48.049h-7.089V201.077z M361.53,154.524l13.784,29.775h-27.569
	L361.53,154.524z M390.911,201.077l-25.679-55.139h-7.404l-25.679,55.139h7.798l4.411-9.688h34.344l4.411,9.688H390.911z
	 M314.426,153.815c-5.435-4.962-12.209-7.877-19.22-7.877c-15.675,0-27.569,11.894-27.569,27.569
	c0,15.675,11.894,27.569,27.569,27.569c3.387,0,7.956-1.024,11.658-2.521v-26.545h-19.771v7.089h12.682v14.257
	c-1.654,0.394-3.151,0.63-4.569,0.63c-12.051,0-20.48-8.271-20.48-20.479s8.429-20.48,20.48-20.48
	c5.829,0,11.658,2.836,15.991,7.483L314.426,153.815z"/>
<path fill="#FFFFFF" d="M727.844,99.465c-11.737,0-20.401-8.744-20.401-20.48c0-11.737,8.664-20.48,20.401-20.48
	c11.815,0,20.401,8.743,20.401,20.48C748.245,90.721,739.659,99.465,727.844,99.465 M727.844,51.416
	c-15.675,0-27.491,11.815-27.491,27.569s11.816,27.569,27.491,27.569c15.754,0,27.49-11.815,27.49-27.569
	S743.598,51.416,727.844,51.416 M649.232,58.505c11.815,0,20.401,8.507,20.401,20.48s-8.586,20.48-20.401,20.48h-11.815v-40.96
	H649.232z M630.328,106.554h18.904c15.596,0,27.49-11.658,27.49-27.569c0-15.912-11.895-27.569-27.49-27.569h-18.904V106.554z
	 M578.105,60.001l13.783,29.775H564.32L578.105,60.001z M607.486,106.554l-25.68-55.138h-7.404l-25.679,55.138h7.798l4.411-9.689
	h34.343l4.412,9.689H607.486z M499.179,77.567l3.151,3.938h-9.768v-23h14.1c6.38,0,11.5,4.805,11.5,11.5
	c0,5.041-3.151,9.137-7.404,10.791l-6.145-7.798L499.179,77.567z M492.562,88.595h15.359l14.65,17.959h9.217l-16.305-20.007
	c5.907-2.994,9.767-9.059,9.767-16.542c0-10.713-7.877-18.589-18.589-18.589h-21.189v55.138h7.09V88.595z M433.25,60.001
	l13.784,29.775h-27.569L433.25,60.001z M462.631,106.554l-25.679-55.138h-7.404l-25.679,55.138h7.798l4.411-9.689h34.343
	l4.411,9.689H462.631z M367.005,106.554l26.23-55.138h-7.877l-20.953,44.425l-21.11-44.425h-7.877l26.23,55.138H367.005z
	 M287.604,106.554h34.423v-7.089h-27.333V51.416h-7.09V106.554z M235.381,60.001l13.785,29.775h-27.569L235.381,60.001z
	 M264.762,106.554l-25.679-55.138h-7.404L206,106.554h7.798l4.411-9.689h34.344l4.411,9.689H264.762z"/>
</svg>
