<?xml version="1.0" encoding="utf-8"?>
<!-- Generator: Adobe Illustrator 16.0.0, SVG Export Plug-In . SVG Version: 6.00 Build 0)  -->
<!DOCTYPE svg PUBLIC "-//W3C//DTD SVG 1.1//EN" "http://www.w3.org/Graphics/SVG/1.1/DTD/svg11.dtd">
<svg version="1.1" id="Layer_1" xmlns="http://www.w3.org/2000/svg" xmlns:xlink="http://www.w3.org/1999/xlink" x="0px" y="0px"
	 width="960px" height="320px" viewBox="0 0 960 320" enable-background="new 0 0 960 320" xml:space="preserve">
<path fill="#FFFFFF" d="M745.767,249.087c-1.221-4.096-4.687-6.656-8.507-6.656c-4.451,0-8.468,2.954-8.468,7.602
	c0,5.041,4.49,6.932,8.192,7.877c2.796,0.709,4.884,2.048,4.884,4.528c0,2.442-2.167,4.018-4.963,4.018
	c-2.402,0-4.49-1.575-5.317-4.687l-3.111,1.654c1.379,4.844,5.12,6.577,8.429,6.577c4.293,0,8.507-2.599,8.507-7.562
	c0-4.528-3.544-6.892-7.68-7.956c-2.993-0.747-5.396-1.851-5.396-4.449c0-1.97,1.654-4.058,4.923-4.058
	c2.126,0,4.371,1.497,5.159,4.49L745.767,249.087z M700.238,270h17.211v-3.545h-13.666v-24.024h-3.545V270z M674.127,246.724
	l6.892,14.888h-13.784L674.127,246.724z M688.817,270l-12.84-27.569h-3.702L659.436,270h3.899l2.206-4.844h17.171l2.206,4.844
	H688.817z M623.202,257.396c0,7.168,5.475,12.604,12.603,12.604c7.168,0,12.604-5.436,12.604-12.604v-14.966h-3.544v14.966
	c0,5.159-3.899,9.059-9.06,9.059c-5.12,0-9.058-3.899-9.058-9.059v-14.966h-3.545V257.396z M610.009,249.087
	c-1.221-4.096-4.687-6.656-8.507-6.656c-4.451,0-8.468,2.954-8.468,7.602c0,5.041,4.489,6.932,8.192,7.877
	c2.797,0.709,4.883,2.048,4.883,4.528c0,2.442-2.166,4.018-4.961,4.018c-2.403,0-4.49-1.575-5.317-4.687l-3.112,1.654
	c1.379,4.844,5.12,6.577,8.43,6.577c4.291,0,8.506-2.599,8.506-7.562c0-4.528-3.545-6.892-7.68-7.956
	c-2.994-0.747-5.396-1.851-5.396-4.449c0-1.97,1.653-4.058,4.923-4.058c2.127,0,4.372,1.497,5.159,4.49L610.009,249.087z
	 M579.132,242.431h-3.545V270h3.545V242.431z M551.248,270l13.115-27.569h-3.939l-10.476,22.213l-10.556-22.213h-3.938L548.57,270
	H551.248z M500.797,270v-27.569h-3.545v21.701l-17.88-21.701h-3.269V270h3.544v-21.543L497.41,270H500.797z M449.361,266.455
	c-5.868,0-10.201-4.371-10.201-10.24c0-5.868,4.333-10.24,10.201-10.24c5.908,0,10.201,4.372,10.201,10.24
	C459.562,262.084,455.269,266.455,449.361,266.455 M449.361,242.431c-7.837,0-13.745,5.908-13.745,13.784
	c0,7.877,5.908,13.785,13.745,13.785c7.877,0,13.745-5.908,13.745-13.785C463.106,248.339,457.238,242.431,449.361,242.431
	 M422.619,242.431h-3.545V270h3.545V242.431z M407.85,242.431h-25.245v3.544h10.83V270h3.545v-24.025h10.87V242.431z
	 M371.38,242.431h-3.545V270h3.545V242.431z M339.597,245.975h7.995c2.363,0,4.096,1.615,4.096,4.137
	c0,2.48-1.654,4.332-3.899,4.332h-8.192V245.975z M339.597,257.988h8.192c2.245,0,3.899,1.851,3.899,4.332
	c0,2.521-1.733,4.135-4.096,4.135h-7.995V257.988z M336.052,270h11.54c4.214,0,7.641-3.072,7.641-7.68c0-2.64-1.3-4.885-3.348-6.105
	c2.048-1.22,3.348-3.505,3.348-6.104c0-4.608-3.427-7.681-7.641-7.681h-11.54V270z M321.874,242.431h-3.545V270h3.545V242.431z
	 M304.151,270v-27.569h-3.545v12.013h-15.714v-12.013h-3.545V270h3.545v-12.012h15.714V270H304.151z M269.729,242.431H265.2
	l-8.901,10.988l-8.901-10.988h-4.529l11.146,13.824L242.869,270h4.568l8.862-10.909L265.16,270h4.569l-11.146-13.745
	L269.729,242.431z M215.3,270h16.935v-3.545h-13.39v-8.467h13.39v-3.545h-13.39v-8.469h13.39v-3.544H215.3V270z"/>
<path fill="#FFFFFF" d="M815.478,145.938h-50.491v7.089h21.661v48.049h7.089v-48.049h21.741V145.938z M745.293,159.25
	c-2.44-8.191-9.373-13.312-17.014-13.312c-8.901,0-16.936,5.908-16.936,15.202c0,10.083,8.98,13.864,16.385,15.754
	c5.593,1.418,9.767,4.096,9.767,9.059c0,4.883-4.332,8.034-9.925,8.034c-4.805,0-8.979-3.151-10.633-9.373l-6.224,3.309
	c2.757,9.688,10.24,13.153,16.856,13.153c8.586,0,17.015-5.198,17.015-15.123c0-9.059-7.09-13.785-15.36-15.912
	c-5.986-1.496-10.791-3.701-10.791-8.9c0-3.938,3.308-8.113,9.846-8.113c4.254,0,8.744,2.993,10.318,8.98L745.293,159.25z
	 M683.538,145.938h-7.089v55.138h7.089V145.938z M654.001,145.938H603.51v7.089h21.662v48.049h7.089v-48.049h21.74V145.938z
	 M581.062,201.076v-55.138h-7.09v43.402l-35.762-43.402h-6.538v55.138h7.091V157.99l35.524,43.086H581.062z M471.416,201.076h33.871
	v-7.089h-26.782v-16.935h26.782v-7.089h-26.782v-16.937h26.782v-7.089h-33.871V201.076z M417.932,153.027
	c11.816,0,20.401,8.507,20.401,20.48c0,11.973-8.585,20.479-20.401,20.479h-11.815v-40.96H417.932z M399.027,201.076h18.905
	c15.596,0,27.491-11.657,27.491-27.568s-11.895-27.569-27.491-27.569h-18.905V201.076z M291.903,201.076h33.871v-7.089h-26.782
	v-16.935h26.782v-7.089h-26.782v-16.937h26.782v-7.089h-33.871V201.076z M263.547,201.076v-55.138h-7.09v24.025h-31.429v-24.025
	h-7.089v55.138h7.089v-24.023h31.429v24.023H263.547z M195.491,145.938H145v7.089h21.661v48.049h7.09v-48.049h21.74V145.938z"/>
<path fill="#FFFFFF" d="M688.581,51.416h-50.49v7.089h21.661v48.049h7.09V58.504h21.739V51.416z M596.5,60.001l13.785,29.775h-27.57
	L596.5,60.001z M625.882,106.553l-25.679-55.138h-7.404l-25.68,55.138h7.799l4.41-9.688h34.344l4.412,9.688H625.882z
	 M497.41,106.553V51.416h-7.089v43.402l-35.761-43.402h-6.538v55.138h7.089V63.467l35.525,43.086H497.41z M419.666,51.416h-7.089
	v55.138h7.089V51.416z M360.354,60.001l13.784,29.775h-27.569L360.354,60.001z M389.733,106.553l-25.678-55.138h-7.405
	l-25.678,55.138h7.798l4.411-9.688h34.343l4.411,9.688H389.733z M284.893,81.505V58.504h12.524c6.38,0,11.5,4.805,11.5,11.5
	c0,6.696-5.12,11.501-11.5,11.501H284.893z M297.417,88.594c10.713,0,18.59-7.877,18.59-18.59c0-10.712-7.877-18.589-18.59-18.589
	h-19.614v55.138h7.09V88.594H297.417z"/>
</svg>
