<?xml version="1.0" encoding="utf-8"?>
<!-- Generator: Adobe Illustrator 16.0.0, SVG Export Plug-In . SVG Version: 6.00 Build 0)  -->
<!DOCTYPE svg PUBLIC "-//W3C//DTD SVG 1.1//EN" "http://www.w3.org/Graphics/SVG/1.1/DTD/svg11.dtd">
<svg version="1.1" id="Layer_1" xmlns="http://www.w3.org/2000/svg" xmlns:xlink="http://www.w3.org/1999/xlink" x="0px" y="0px"
	 width="960px" height="320px" viewBox="0 0 960 320" enable-background="new 0 0 960 320" xml:space="preserve">
<path fill="#FFFFFF" d="M839.462,222.488v-27.569h-3.545v21.701l-17.88-21.701h-3.27v27.569h3.545v-21.543l17.763,21.543H839.462z
	 M803.149,198.857c-2.718-2.481-6.104-3.938-9.609-3.938c-7.838,0-13.785,5.947-13.785,13.784c0,7.838,5.947,13.785,13.785,13.785
	c1.693,0,3.977-0.513,5.829-1.261v-13.272h-9.886v3.545h6.341v7.128c-0.827,0.197-1.575,0.315-2.284,0.315
	c-6.026,0-10.24-4.136-10.24-10.24s4.214-10.24,10.24-10.24c2.914,0,5.829,1.418,7.995,3.742L803.149,198.857z M766.758,194.919
	h-3.545v27.569h3.545V194.919z M749.626,201.575c-1.221-4.097-4.686-6.656-8.507-6.656c-4.45,0-8.467,2.954-8.467,7.601
	c0,5.041,4.488,6.933,8.191,7.878c2.796,0.709,4.883,2.048,4.883,4.528c0,2.442-2.166,4.018-4.962,4.018
	c-2.402,0-4.489-1.575-5.316-4.687l-3.111,1.654c1.378,4.844,5.12,6.577,8.428,6.577c4.293,0,8.507-2.6,8.507-7.562
	c0-4.528-3.545-6.892-7.68-7.956c-2.993-0.748-5.396-1.851-5.396-4.45c0-1.969,1.653-4.057,4.923-4.057
	c2.127,0,4.372,1.497,5.16,4.49L749.626,201.575z M702.799,222.488h16.936v-3.545h-13.392v-8.468h13.392v-3.545h-13.392v-8.468
	h13.392v-3.544h-16.936V222.488z M676.057,198.463c5.907,0,10.2,4.254,10.2,10.24c0,5.987-4.293,10.24-10.2,10.24h-5.907v-20.48
	H676.057z M666.604,222.488h9.453c7.799,0,13.745-5.829,13.745-13.785c0-7.955-5.946-13.784-13.745-13.784h-9.453V222.488z
	 M628.992,194.919h-3.545v27.569h3.545V194.919z M586.457,209.885c0,7.168,5.475,12.604,12.604,12.604
	c7.167,0,12.603-5.436,12.603-12.604v-14.966h-3.544v14.966c0,5.159-3.899,9.059-9.059,9.059c-5.121,0-9.059-3.899-9.059-9.059
	v-14.966h-3.545V209.885z M535.18,198.463h7.994c2.363,0,4.096,1.615,4.096,4.136c0,2.481-1.653,4.332-3.898,4.332h-8.191V198.463z
	 M535.18,210.476h8.191c2.245,0,3.898,1.852,3.898,4.332c0,2.521-1.732,4.136-4.096,4.136h-7.994V210.476z M531.634,222.488h11.54
	c4.215,0,7.641-3.072,7.641-7.681c0-2.639-1.299-4.884-3.348-6.104c2.049-1.221,3.348-3.505,3.348-6.104
	c0-4.607-3.426-7.68-7.641-7.68h-11.54V222.488z M501.506,222.488h16.936v-3.545H505.05v-8.468h13.392v-3.545H505.05v-8.468h13.392
	v-3.544h-16.936V222.488z M464.76,194.919l-9.57,21.504l-8.547-21.504h-3.82l10.949,27.569h2.599l10.083-22.607l10.082,22.607h2.6
	l10.949-27.569h-3.821l-8.546,21.504l-9.571-21.504H464.76z M393.79,203.938c-0.906-1.024-1.497-1.654-1.497-3.428
	c0-1.653,1.497-2.993,3.151-2.993c1.654,0,3.151,1.34,3.151,2.993c0,2.482-1.536,3.584-3.505,4.923L393.79,203.938z
	 M395.208,219.889c-3.151,0-5.317-1.654-5.317-4.136c0-2.836,2.284-4.529,4.687-6.183l6.616,7.482
	C399.855,218.825,397.965,219.889,395.208,219.889 M386.661,215.714c0,4.135,3.23,7.286,8.547,7.286c3.781,0,6.38-1.379,8.152-3.505
	l2.639,2.993l2.363-2.166l-3.269-3.624c0.906-1.97,1.418-4.174,1.694-6.38l-3.111-0.474c-0.237,1.497-0.513,2.915-0.946,4.175
	l-5.592-6.301c2.441-1.772,4.686-3.78,4.686-7.168c0-3.15-2.441-6.144-6.38-6.144c-3.938,0-6.38,2.914-6.38,6.064
	c0,2.561,1.063,4.018,2.284,5.436l1.142,1.3C390.127,208.821,386.661,211.263,386.661,215.714 M339.558,207.207l-8.507-12.288
	h-4.332l11.067,15.951v11.618h3.545V210.87l11.067-15.951h-4.333L339.558,207.207z M318.449,194.919h-25.246v3.544h10.831v24.025
	h3.544v-24.025h10.871V194.919z M281.979,194.919h-3.545v27.569h3.545V194.919z M267.21,194.919h-25.246v3.544h10.831v24.025h3.545
	v-24.025h10.87V194.919z M230.74,222.488v-27.569h-3.544v21.701l-17.881-21.701h-3.269v27.569h3.545v-21.543l17.762,21.543H230.74z
	 M175.917,222.488h16.936v-3.545h-13.391v-8.468h13.391v-3.545h-13.391v-8.468h13.391v-3.544h-16.936V222.488z M149.175,198.463
	c5.908,0,10.201,4.254,10.201,10.24c0,5.987-4.293,10.24-10.201,10.24h-5.907v-20.48H149.175z M139.723,222.488h9.452
	c7.799,0,13.746-5.829,13.746-13.785c0-7.955-5.947-13.784-13.746-13.784h-9.452V222.488z M125.545,194.919H122v27.569h3.545
	V194.919z"/>
<path fill="#FFFFFF" d="M771.505,105.516c11.814,0,20.4,8.507,20.4,20.48c0,11.973-8.586,20.479-20.4,20.479h-11.816v-40.96H771.505
	z M752.6,153.564h18.905c15.596,0,27.49-11.658,27.49-27.568c0-15.911-11.895-27.569-27.49-27.569H752.6V153.564z M717.154,113.943
	c0,5.199-3.78,8.192-8.191,8.43h-3.309v7.089h3.309c4.411,0.235,8.191,3.15,8.191,8.507c0,5.277-3.78,8.507-8.9,8.507
	c-5.199,0-9.295-4.411-10.398-10.398l-6.144,4.728c2.048,7.404,8.35,12.76,16.542,12.76c9.058,0,15.99-5.75,15.99-15.596
	c0-5.199-2.127-9.452-5.829-12.052c3.387-2.442,5.829-6.538,5.829-11.974c0-9.137-7.247-15.517-15.99-15.517
	c-8.192,0-14.336,5.592-16.463,12.288l6.064,4.883c1.418-6.065,5.829-10.082,10.398-10.082
	C713.138,105.516,717.154,108.823,717.154,113.943 M639.016,105.516c11.816,0,20.402,8.507,20.402,20.48
	c0,11.973-8.586,20.479-20.402,20.479h-11.814v-40.96H639.016z M620.111,153.564h18.904c15.597,0,27.491-11.658,27.491-27.568
	c0-15.911-11.895-27.569-27.491-27.569h-18.904V153.564z M565.053,124.577l3.15,3.939h-9.768v-23.001h14.1
	c6.381,0,11.5,4.805,11.5,11.5c0,5.042-3.149,9.138-7.403,10.792l-6.144-7.798L565.053,124.577z M558.436,135.605h15.36
	l14.651,17.959h9.215l-16.305-20.007c5.908-2.993,9.768-9.059,9.768-16.542c0-10.712-7.877-18.589-18.59-18.589h-21.188v55.138
	h7.089V135.605z M499.123,107.013l13.785,29.773h-27.569L499.123,107.013z M528.505,153.564l-25.679-55.138h-7.404l-25.679,55.138
	h7.798l4.411-9.688h34.344l4.412,9.688H528.505z M407.279,98.427l-19.141,43.008l-17.093-43.008h-7.64l21.898,55.138h5.198
	l20.165-45.213l20.165,45.213h5.199l21.898-55.138h-7.641l-17.093,43.008l-19.141-43.008H407.279z M316.223,124.577l3.151,3.939
	h-9.768v-23.001h14.1c6.38,0,11.5,4.805,11.5,11.5c0,5.042-3.151,9.138-7.404,10.792l-6.144-7.798L316.223,124.577z
	 M309.605,135.605h15.36l14.651,17.959h9.216l-16.305-20.007c5.908-2.993,9.767-9.059,9.767-16.542
	c0-10.712-7.876-18.589-18.589-18.589h-21.189v55.138h7.089V135.605z M249.034,146.476c-11.737,0-20.402-8.743-20.402-20.479
	c0-11.737,8.665-20.48,20.402-20.48c11.815,0,20.401,8.743,20.401,20.48C269.435,137.732,260.849,146.476,249.034,146.476
	 M249.034,98.427c-15.675,0-27.491,11.814-27.491,27.569c0,15.754,11.816,27.568,27.491,27.568c15.753,0,27.49-11.814,27.49-27.568
	C276.524,110.241,264.787,98.427,249.034,98.427 M198.701,105.516v-7.089H164.83v55.138h7.089v-24.023h26.782v-7.091h-26.782
	v-16.935H198.701z"/>
</svg>
