<?xml version="1.0" encoding="utf-8"?>
<!-- Generator: Adobe Illustrator 16.0.0, SVG Export Plug-In . SVG Version: 6.00 Build 0)  -->
<!DOCTYPE svg PUBLIC "-//W3C//DTD SVG 1.1//EN" "http://www.w3.org/Graphics/SVG/1.1/DTD/svg11.dtd">
<svg version="1.1" id="Layer_1" xmlns="http://www.w3.org/2000/svg" xmlns:xlink="http://www.w3.org/1999/xlink" x="0px" y="0px"
	 width="960px" height="320px" viewBox="0 0 960 320" enable-background="new 0 0 960 320" xml:space="preserve">
<path fill="#FFFFFF" d="M677.307,223v-27.569h-3.545v21.701l-17.881-21.701h-3.27V223h3.545v-21.543L673.919,223H677.307z
	 M640.994,199.369c-2.718-2.481-6.105-3.938-9.61-3.938c-7.837,0-13.784,5.947-13.784,13.785c0,7.837,5.947,13.784,13.784,13.784
	c1.694,0,3.978-0.513,5.829-1.261v-13.272h-9.885v3.545h6.34v7.129c-0.827,0.196-1.575,0.315-2.284,0.315
	c-6.026,0-10.24-4.137-10.24-10.24c0-6.105,4.214-10.24,10.24-10.24c2.915,0,5.829,1.417,7.995,3.741L640.994,199.369z
	 M604.603,195.431h-3.545V223h3.545V195.431z M587.471,202.087c-1.221-4.097-4.688-6.656-8.507-6.656
	c-4.451,0-8.468,2.954-8.468,7.601c0,5.041,4.49,6.933,8.191,7.878c2.797,0.709,4.885,2.048,4.885,4.528
	c0,2.442-2.166,4.019-4.963,4.019c-2.402,0-4.49-1.576-5.318-4.688l-3.11,1.654c1.379,4.844,5.12,6.577,8.429,6.577
	c4.293,0,8.506-2.6,8.506-7.562c0-4.528-3.543-6.892-7.679-7.955c-2.993-0.749-5.396-1.851-5.396-4.451
	c0-1.969,1.654-4.056,4.923-4.056c2.127,0,4.372,1.496,5.159,4.489L587.471,202.087z M540.643,223h16.936v-3.544h-13.391v-8.469
	h13.391v-3.545h-13.391v-8.467h13.391v-3.545h-16.936V223z M513.9,198.976c5.908,0,10.201,4.253,10.201,10.24
	c0,5.986-4.293,10.24-10.201,10.24h-5.906v-20.48H513.9z M504.449,223h9.451c7.799,0,13.746-5.829,13.746-13.784
	c0-7.956-5.947-13.785-13.746-13.785h-9.451V223z M466.837,195.431h-3.545V223h3.545V195.431z M424.302,210.396
	c0,7.168,5.474,12.604,12.603,12.604c7.168,0,12.603-5.436,12.603-12.604v-14.966h-3.545v14.966c0,5.16-3.899,9.06-9.058,9.06
	c-5.12,0-9.059-3.899-9.059-9.06v-14.966h-3.544V210.396z M373.024,198.976h7.995c2.363,0,4.096,1.614,4.096,4.135
	c0,2.481-1.654,4.332-3.899,4.332h-8.192V198.976z M373.024,210.987h8.192c2.245,0,3.899,1.852,3.899,4.332
	c0,2.521-1.733,4.137-4.096,4.137h-7.995V210.987z M369.479,223h11.54c4.214,0,7.64-3.072,7.64-7.681
	c0-2.639-1.299-4.883-3.347-6.104c2.048-1.221,3.347-3.506,3.347-6.105c0-4.607-3.426-7.68-7.64-7.68h-11.54V223z M339.35,223
	h16.936v-3.544h-13.391v-8.469h13.391v-3.545h-13.391v-8.467h13.391v-3.545H339.35V223z M302.604,195.431l-9.57,21.504
	l-8.547-21.504h-3.82L291.617,223h2.599l10.082-22.607L314.381,223h2.599l10.949-27.569h-3.82l-8.546,21.504l-9.571-21.504H302.604z
	"/>
<path fill="#FFFFFF" d="M840.731,154.077V98.938h-7.089v43.401l-35.762-43.401h-6.538v55.139h7.089V110.99l35.525,43.087H840.731z
	 M737.859,146.988c-11.736,0-20.401-8.744-20.401-20.48c0-11.737,8.665-20.479,20.401-20.479c11.815,0,20.401,8.742,20.401,20.479
	C758.261,138.244,749.675,146.988,737.859,146.988 M737.859,98.938c-15.676,0-27.49,11.815-27.49,27.569s11.814,27.569,27.49,27.569
	c15.754,0,27.49-11.815,27.49-27.569S753.613,98.938,737.859,98.938 M685.558,112.251c-2.441-8.192-9.374-13.312-17.014-13.312
	c-8.901,0-16.936,5.907-16.936,15.202c0,10.082,8.979,13.863,16.384,15.754c5.593,1.418,9.768,4.097,9.768,9.059
	c0,4.884-4.333,8.035-9.925,8.035c-4.805,0-8.979-3.151-10.634-9.374l-6.223,3.309c2.757,9.688,10.239,13.154,16.856,13.154
	c8.585,0,17.014-5.199,17.014-15.124c0-9.059-7.089-13.784-15.359-15.911c-5.987-1.497-10.792-3.702-10.792-8.901
	c0-3.938,3.309-8.112,9.847-8.112c4.253,0,8.743,2.992,10.318,8.979L685.558,112.251z M591.902,154.077h33.871v-7.089h-26.782
	v-16.937h26.782v-7.089h-26.782v-16.935h26.782v-7.09h-33.871V154.077z M531.645,154.077h33.871v-7.089h-26.781v-16.937h26.781
	v-7.089h-26.781v-16.935h26.781v-7.09h-33.871V154.077z M473.986,154.077h34.422v-7.089h-27.333v-48.05h-7.089V154.077z
	 M399.945,112.251c-2.442-8.192-9.374-13.312-17.014-13.312c-8.901,0-16.936,5.907-16.936,15.202
	c0,10.082,8.98,13.863,16.384,15.754c5.593,1.418,9.768,4.097,9.768,9.059c0,4.884-4.333,8.035-9.925,8.035
	c-4.805,0-8.98-3.151-10.634-9.374l-6.223,3.309c2.757,9.688,10.24,13.154,16.857,13.154c8.586,0,17.014-5.199,17.014-15.124
	c0-9.059-7.089-13.784-15.36-15.911c-5.987-1.497-10.792-3.702-10.792-8.901c0-3.938,3.309-8.112,9.847-8.112
	c4.253,0,8.743,2.992,10.318,8.979L399.945,112.251z M338.19,98.938h-7.089v55.139h7.089V98.938z M253.119,128.871
	c0,14.336,10.949,25.206,25.206,25.206c14.336,0,25.206-10.87,25.206-25.206V98.938h-7.089v29.933
	c0,10.318-7.798,18.117-18.117,18.117c-10.24,0-18.117-7.799-18.117-18.117V98.938h-7.089V128.871z M200.423,146.988
	c-11.736,0-20.401-8.744-20.401-20.48c0-11.737,8.665-20.479,20.401-20.479c11.816,0,20.402,8.742,20.402,20.479
	C220.825,138.244,212.239,146.988,200.423,146.988 M200.423,98.938c-15.675,0-27.49,11.815-27.49,27.569s11.815,27.569,27.49,27.569
	c15.754,0,27.491-11.815,27.491-27.569S216.177,98.938,200.423,98.938 M120,154.077h34.422v-7.089h-27.333v-48.05H120V154.077z"/>
</svg>
