<?xml version="1.0" encoding="utf-8"?>
<!-- Generator: Adobe Illustrator 16.0.0, SVG Export Plug-In . SVG Version: 6.00 Build 0)  -->
<!DOCTYPE svg PUBLIC "-//W3C//DTD SVG 1.1//EN" "http://www.w3.org/Graphics/SVG/1.1/DTD/svg11.dtd">
<svg version="1.1" id="Layer_1" xmlns="http://www.w3.org/2000/svg" xmlns:xlink="http://www.w3.org/1999/xlink" x="0px" y="0px"
	 width="960px" height="320px" viewBox="0 0 960 320" enable-background="new 0 0 960 320" xml:space="preserve">
<path fill="#FFFFFF" d="M744.14,249.087c-1.222-4.096-4.688-6.656-8.507-6.656c-4.451,0-8.469,2.954-8.469,7.602
	c0,5.041,4.49,6.932,8.192,7.877c2.796,0.709,4.884,2.048,4.884,4.528c0,2.442-2.166,4.018-4.963,4.018
	c-2.402,0-4.49-1.575-5.317-4.687l-3.11,1.654c1.378,4.844,5.12,6.577,8.428,6.577c4.293,0,8.507-2.599,8.507-7.562
	c0-4.528-3.544-6.892-7.68-7.956c-2.993-0.747-5.396-1.851-5.396-4.449c0-1.97,1.654-4.058,4.924-4.058
	c2.125,0,4.37,1.497,5.158,4.49L744.14,249.087z M698.61,270h17.211v-3.545h-13.666v-24.024h-3.545V270z M672.499,246.724
	l6.893,14.888h-13.785L672.499,246.724z M687.189,270l-12.839-27.569h-3.702L657.809,270h3.898l2.206-4.844h17.171L683.29,270
	H687.189z M621.574,257.396c0,7.168,5.475,12.604,12.604,12.604c7.168,0,12.603-5.436,12.603-12.604v-14.966h-3.544v14.966
	c0,5.159-3.899,9.059-9.059,9.059c-5.12,0-9.059-3.899-9.059-9.059v-14.966h-3.545V257.396z M608.381,249.087
	c-1.221-4.096-4.687-6.656-8.507-6.656c-4.45,0-8.468,2.954-8.468,7.602c0,5.041,4.49,6.932,8.192,7.877
	c2.797,0.709,4.884,2.048,4.884,4.528c0,2.442-2.166,4.018-4.962,4.018c-2.403,0-4.49-1.575-5.317-4.687l-3.111,1.654
	c1.379,4.844,5.119,6.577,8.429,6.577c4.292,0,8.507-2.599,8.507-7.562c0-4.528-3.545-6.892-7.68-7.956
	c-2.994-0.747-5.396-1.851-5.396-4.449c0-1.97,1.654-4.058,4.923-4.058c2.127,0,4.372,1.497,5.159,4.49L608.381,249.087z
	 M577.503,242.431h-3.545V270h3.545V242.431z M549.62,270l13.115-27.569h-3.939l-10.476,22.213l-10.555-22.213h-3.939L546.942,270
	H549.62z M499.169,270v-27.569h-3.545v21.701l-17.88-21.701h-3.269V270h3.544v-21.543L495.782,270H499.169z M447.733,266.455
	c-5.868,0-10.201-4.371-10.201-10.24c0-5.868,4.333-10.24,10.201-10.24c5.908,0,10.201,4.372,10.201,10.24
	C457.934,262.084,453.641,266.455,447.733,266.455 M447.733,242.431c-7.837,0-13.745,5.908-13.745,13.784
	c0,7.877,5.908,13.785,13.745,13.785c7.877,0,13.745-5.908,13.745-13.785C461.479,248.339,455.61,242.431,447.733,242.431
	 M420.991,242.431h-3.545V270h3.545V242.431z M406.222,242.431h-25.245v3.544h10.83V270h3.545v-24.025h10.87V242.431z
	 M369.752,242.431h-3.545V270h3.545V242.431z M337.969,245.975h7.995c2.363,0,4.096,1.615,4.096,4.137
	c0,2.48-1.654,4.332-3.899,4.332h-8.192V245.975z M337.969,257.988h8.192c2.245,0,3.899,1.851,3.899,4.332
	c0,2.521-1.733,4.135-4.096,4.135h-7.995V257.988z M334.424,270h11.54c4.214,0,7.641-3.072,7.641-7.68c0-2.64-1.3-4.885-3.348-6.105
	c2.048-1.22,3.348-3.505,3.348-6.104c0-4.608-3.427-7.681-7.641-7.681h-11.54V270z M320.246,242.431h-3.545V270h3.545V242.431z
	 M302.523,270v-27.569h-3.545v12.013h-15.714v-12.013h-3.545V270h3.545v-12.012h15.714V270H302.523z M268.101,242.431h-4.529
	l-8.901,10.988l-8.901-10.988h-4.529l11.146,13.824L241.241,270h4.568l8.862-10.909L263.532,270h4.569l-11.146-13.745
	L268.101,242.431z M213.672,270h16.935v-3.545h-13.39v-8.467h13.39v-3.545h-13.39v-8.469h13.39v-3.544h-16.935V270z"/>
<path fill="#FFFFFF" d="M922.195,201.077v-55.139h-7.09v43.401l-35.761-43.401h-6.538v55.139h7.089V157.99l35.525,43.087H922.195z
	 M819.323,193.988c-11.736,0-20.401-8.744-20.401-20.48c0-11.737,8.665-20.479,20.401-20.479c11.815,0,20.401,8.742,20.401,20.479
	C839.725,185.244,831.139,193.988,819.323,193.988 M819.323,145.938c-15.676,0-27.49,11.815-27.49,27.569
	s11.814,27.569,27.49,27.569c15.754,0,27.49-11.815,27.49-27.569S835.077,145.938,819.323,145.938 M765.839,145.938h-7.089v55.139
	h7.089V145.938z M736.302,145.938h-50.491v7.09h21.661v48.049h7.09v-48.049h21.74V145.938z M663.362,145.938h-7.09v55.139h7.09
	V145.938z M599.795,153.028h15.99c4.727,0,8.191,3.229,8.191,8.27c0,4.963-3.308,8.665-7.798,8.665h-16.384V153.028z
	 M599.795,177.052h16.384c4.49,0,7.798,3.702,7.798,8.665c0,5.041-3.465,8.271-8.191,8.271h-15.99V177.052z M592.706,201.077h23.079
	c8.429,0,15.281-6.145,15.281-15.36c0-5.278-2.6-9.767-6.695-12.209c4.096-2.442,6.695-7.011,6.695-12.21
	c0-9.216-6.853-15.359-15.281-15.359h-23.079V201.077z M564.349,145.938h-7.089v55.139h7.089V145.938z M528.903,201.077v-55.139
	h-7.09v24.024h-31.429v-24.024h-7.089v55.139h7.089v-24.025h31.429v24.025H528.903z M460.06,145.938h-9.059l-17.802,21.977
	l-17.802-21.977h-9.058l22.292,27.648l-22.292,27.49h9.137l17.723-21.819l17.723,21.819h9.138l-22.292-27.49L460.06,145.938z
	 M351.201,201.077h33.871v-7.089h-26.781v-16.937h26.781v-7.089h-26.781v-16.935h26.781v-7.09h-33.871V201.077z M277.16,159.251
	c-2.441-8.192-9.373-13.312-17.014-13.312c-8.901,0-16.935,5.907-16.935,15.202c0,10.082,8.98,13.863,16.384,15.754
	c5.593,1.418,9.767,4.097,9.767,9.059c0,4.884-4.332,8.035-9.925,8.035c-4.805,0-8.979-3.151-10.633-9.374l-6.223,3.309
	c2.757,9.688,10.24,13.154,16.856,13.154c8.586,0,17.014-5.199,17.014-15.124c0-9.059-7.089-13.784-15.359-15.911
	c-5.987-1.497-10.792-3.702-10.792-8.901c0-3.938,3.308-8.112,9.846-8.112c4.254,0,8.744,2.992,10.319,8.979L277.16,159.251z
	 M221.314,145.938h-50.491v7.09h21.662v48.049h7.089v-48.049h21.74V145.938z M124.822,172.09l3.151,3.938h-9.767v-23h14.099
	c6.381,0,11.501,4.805,11.501,11.5c0,5.041-3.151,9.137-7.405,10.791l-6.144-7.799L124.822,172.09z M118.206,183.118h15.36
	l14.651,17.959h9.216l-16.306-20.007c5.908-2.994,9.768-9.06,9.768-16.542c0-10.714-7.877-18.59-18.59-18.59h-21.189v55.139h7.09
	V183.118z M58.893,154.523l13.785,29.775h-27.57L58.893,154.523z M88.274,201.077l-25.679-55.139h-7.404l-25.679,55.139h7.798
	l4.411-9.689h34.344l4.411,9.689H88.274z"/>
<path fill="#FFFFFF" d="M948.978,59.292c-5.436-4.963-12.209-7.877-19.22-7.877c-15.676,0-27.569,11.894-27.569,27.569
	c0,15.675,11.894,27.569,27.569,27.569c3.387,0,7.168-0.945,10.948-2.284l-1.26-7.247c-3.466,1.576-6.853,2.442-9.688,2.442
	c-12.052,0-20.48-8.271-20.48-20.48s8.429-20.48,20.48-20.48c5.828,0,11.657,2.836,15.989,7.483L948.978,59.292z M876.194,51.416
	h-7.089v55.138h7.089V51.416z M840.748,106.553V51.416h-7.089V75.44H802.23V51.416h-7.089v55.138h7.089V82.529h31.429v24.024
	H840.748z M739.609,81.505V58.504h12.525c6.38,0,11.5,4.805,11.5,11.501c0,6.695-5.12,11.5-11.5,11.5H739.609z M752.135,88.594
	c10.712,0,18.589-7.877,18.589-18.589c0-10.713-7.877-18.59-18.589-18.59h-19.614v55.138h7.089V88.594H752.135z M680.297,60.001
	l13.785,29.775h-27.569L680.297,60.001z M709.679,106.553l-25.68-55.138h-7.403l-25.68,55.138h7.799l4.41-9.688h34.345l4.411,9.688
	H709.679z M601.371,77.566l3.151,3.939h-9.769V58.504h14.101c6.38,0,11.5,4.805,11.5,11.501c0,5.041-3.15,9.137-7.404,10.791
	l-6.144-7.798L601.371,77.566z M594.754,88.594h15.36l14.652,17.959h9.216l-16.306-20.007c5.907-2.993,9.768-9.058,9.768-16.541
	c0-10.713-7.877-18.59-18.59-18.59h-21.189v55.138h7.089V88.594z M564.43,59.292c-5.437-4.963-12.21-7.877-19.221-7.877
	c-15.675,0-27.568,11.894-27.568,27.569c0,15.675,11.894,27.569,27.568,27.569c3.388,0,7.956-1.024,11.658-2.52V77.488h-19.771
	v7.089h12.682v14.257c-1.655,0.394-3.151,0.63-4.569,0.63c-12.052,0-20.479-8.271-20.479-20.48s8.428-20.48,20.479-20.48
	c5.829,0,11.658,2.836,15.99,7.483L564.43,59.292z M449.899,59.292c-5.435-4.963-12.209-7.877-19.219-7.877
	c-15.676,0-27.57,11.894-27.57,27.569c0,15.675,11.894,27.569,27.57,27.569c3.387,0,7.167-0.945,10.948-2.284l-1.26-7.247
	c-3.466,1.576-6.853,2.442-9.688,2.442c-12.052,0-20.48-8.271-20.48-20.48s8.428-20.48,20.48-20.48
	c5.828,0,11.657,2.836,15.99,7.483L449.899,59.292z M377.117,51.416h-7.089v55.138h7.089V51.416z M314.497,81.505V58.504h12.524
	c6.381,0,11.501,4.805,11.501,11.501c0,6.695-5.12,11.5-11.501,11.5H314.497z M327.021,88.594c10.713,0,18.59-7.877,18.59-18.589
	c0-10.713-7.877-18.59-18.59-18.59h-19.613v55.138h7.089V88.594H327.021z M248.646,106.553l23.316-40.96v40.96h7.089V51.416h-7.326
	l-26.151,46.001l-26.23-46.001h-7.326v55.138h7.09v-40.96l23.315,40.96H248.646z M165.466,75.991l-17.014-24.576h-8.665
	l22.134,31.902v23.236h7.09V83.317l22.134-31.902h-8.665L165.466,75.991z M91.974,106.553h34.423v-7.089H99.063V51.416h-7.09
	V106.553z M38.49,99.464c-11.737,0-20.401-8.743-20.401-20.48c0-11.736,8.664-20.48,20.401-20.48
	c11.815,0,20.401,8.744,20.401,20.48C58.892,90.721,50.305,99.464,38.49,99.464 M38.49,51.416C22.815,51.416,11,63.23,11,78.984
	s11.815,27.569,27.49,27.569c15.754,0,27.49-11.815,27.49-27.569S54.245,51.416,38.49,51.416"/>
</svg>
